<?xml version="1.0" encoding="utf-8" standalone="no"?>
<!DOCTYPE svg PUBLIC "-//W3C//DTD SVG 1.1//EN"
  "http://www.w3.org/Graphics/SVG/1.1/DTD/svg11.dtd">
<svg height="273.814375pt" version="1.1" viewBox="0 0 527.94125 273.814375" width="527.94125pt" xmlns="http://www.w3.org/2000/svg" xmlns:xlink="http://www.w3.org/1999/xlink">
 <metadata>
  <rdf:RDF xmlns:cc="http://creativecommons.org/ns#" xmlns:dc="http://purl.org/dc/elements/1.1/" xmlns:rdf="http://www.w3.org/1999/02/22-rdf-syntax-ns#">
   <cc:Work>
    <dc:type rdf:resource="http://purl.org/dc/dcmitype/StillImage"/>
    <dc:date>2023-06-14T16:53:56.912159</dc:date>
    <dc:format>image/svg+xml</dc:format>
    <dc:creator>
     <cc:Agent>
      <dc:title>Matplotlib v3.4.3, https://matplotlib.org/</dc:title>
     </cc:Agent>
    </dc:creator>
   </cc:Work>
  </rdf:RDF>
 </metadata>
 <defs>
  <style type="text/css">*{stroke-linecap:butt;stroke-linejoin:round;}</style>
 </defs>
 <g id="figure_1">
  <g id="patch_1">
   <path d="M 0 273.814375 
L 527.94125 273.814375 
L 527.94125 0 
L 0 0 
z
" style="fill:#ffffff;"/>
  </g>
  <g id="axes_1">
   <g id="patch_2">
    <path d="M 40.28125 239.758125 
L 375.08125 239.758125 
L 375.08125 22.318125 
L 40.28125 22.318125 
z
" style="fill:#eaeaf2;"/>
   </g>
   <g id="matplotlib.axis_1">
    <g id="xtick_1">
     <g id="line2d_1">
      <path clip-path="url(#pa4039fb312)" d="M 55.499432 239.758125 
L 55.499432 22.318125 
" style="fill:none;stroke:#ffffff;stroke-linecap:round;stroke-width:0.8;"/>
     </g>
     <g id="line2d_2"/>
     <g id="text_1">
      <!-- 0 -->
      <g style="fill:#262626;" transform="translate(52.318182 250.856563)scale(0.1 -0.1)">
       <defs>
        <path d="M 2034 4250 
Q 1547 4250 1301 3770 
Q 1056 3291 1056 2328 
Q 1056 1369 1301 889 
Q 1547 409 2034 409 
Q 2525 409 2770 889 
Q 3016 1369 3016 2328 
Q 3016 3291 2770 3770 
Q 2525 4250 2034 4250 
z
M 2034 4750 
Q 2819 4750 3233 4129 
Q 3647 3509 3647 2328 
Q 3647 1150 3233 529 
Q 2819 -91 2034 -91 
Q 1250 -91 836 529 
Q 422 1150 422 2328 
Q 422 3509 836 4129 
Q 1250 4750 2034 4750 
z
" id="DejaVuSans-30" transform="scale(0.015625)"/>
       </defs>
       <use xlink:href="#DejaVuSans-30"/>
      </g>
     </g>
    </g>
    <g id="xtick_2">
     <g id="line2d_3">
      <path clip-path="url(#pa4039fb312)" d="M 116.987035 239.758125 
L 116.987035 22.318125 
" style="fill:none;stroke:#ffffff;stroke-linecap:round;stroke-width:0.8;"/>
     </g>
     <g id="line2d_4"/>
     <g id="text_2">
      <!-- 20 -->
      <g style="fill:#262626;" transform="translate(110.624535 250.856563)scale(0.1 -0.1)">
       <defs>
        <path d="M 1228 531 
L 3431 531 
L 3431 0 
L 469 0 
L 469 531 
Q 828 903 1448 1529 
Q 2069 2156 2228 2338 
Q 2531 2678 2651 2914 
Q 2772 3150 2772 3378 
Q 2772 3750 2511 3984 
Q 2250 4219 1831 4219 
Q 1534 4219 1204 4116 
Q 875 4013 500 3803 
L 500 4441 
Q 881 4594 1212 4672 
Q 1544 4750 1819 4750 
Q 2544 4750 2975 4387 
Q 3406 4025 3406 3419 
Q 3406 3131 3298 2873 
Q 3191 2616 2906 2266 
Q 2828 2175 2409 1742 
Q 1991 1309 1228 531 
z
" id="DejaVuSans-32" transform="scale(0.015625)"/>
       </defs>
       <use xlink:href="#DejaVuSans-32"/>
       <use x="63.623047" xlink:href="#DejaVuSans-30"/>
      </g>
     </g>
    </g>
    <g id="xtick_3">
     <g id="line2d_5">
      <path clip-path="url(#pa4039fb312)" d="M 178.474638 239.758125 
L 178.474638 22.318125 
" style="fill:none;stroke:#ffffff;stroke-linecap:round;stroke-width:0.8;"/>
     </g>
     <g id="line2d_6"/>
     <g id="text_3">
      <!-- 40 -->
      <g style="fill:#262626;" transform="translate(172.112138 250.856563)scale(0.1 -0.1)">
       <defs>
        <path d="M 2419 4116 
L 825 1625 
L 2419 1625 
L 2419 4116 
z
M 2253 4666 
L 3047 4666 
L 3047 1625 
L 3713 1625 
L 3713 1100 
L 3047 1100 
L 3047 0 
L 2419 0 
L 2419 1100 
L 313 1100 
L 313 1709 
L 2253 4666 
z
" id="DejaVuSans-34" transform="scale(0.015625)"/>
       </defs>
       <use xlink:href="#DejaVuSans-34"/>
       <use x="63.623047" xlink:href="#DejaVuSans-30"/>
      </g>
     </g>
    </g>
    <g id="xtick_4">
     <g id="line2d_7">
      <path clip-path="url(#pa4039fb312)" d="M 239.962242 239.758125 
L 239.962242 22.318125 
" style="fill:none;stroke:#ffffff;stroke-linecap:round;stroke-width:0.8;"/>
     </g>
     <g id="line2d_8"/>
     <g id="text_4">
      <!-- 60 -->
      <g style="fill:#262626;" transform="translate(233.599742 250.856563)scale(0.1 -0.1)">
       <defs>
        <path d="M 2113 2584 
Q 1688 2584 1439 2293 
Q 1191 2003 1191 1497 
Q 1191 994 1439 701 
Q 1688 409 2113 409 
Q 2538 409 2786 701 
Q 3034 994 3034 1497 
Q 3034 2003 2786 2293 
Q 2538 2584 2113 2584 
z
M 3366 4563 
L 3366 3988 
Q 3128 4100 2886 4159 
Q 2644 4219 2406 4219 
Q 1781 4219 1451 3797 
Q 1122 3375 1075 2522 
Q 1259 2794 1537 2939 
Q 1816 3084 2150 3084 
Q 2853 3084 3261 2657 
Q 3669 2231 3669 1497 
Q 3669 778 3244 343 
Q 2819 -91 2113 -91 
Q 1303 -91 875 529 
Q 447 1150 447 2328 
Q 447 3434 972 4092 
Q 1497 4750 2381 4750 
Q 2619 4750 2861 4703 
Q 3103 4656 3366 4563 
z
" id="DejaVuSans-36" transform="scale(0.015625)"/>
       </defs>
       <use xlink:href="#DejaVuSans-36"/>
       <use x="63.623047" xlink:href="#DejaVuSans-30"/>
      </g>
     </g>
    </g>
    <g id="xtick_5">
     <g id="line2d_9">
      <path clip-path="url(#pa4039fb312)" d="M 301.449845 239.758125 
L 301.449845 22.318125 
" style="fill:none;stroke:#ffffff;stroke-linecap:round;stroke-width:0.8;"/>
     </g>
     <g id="line2d_10"/>
     <g id="text_5">
      <!-- 80 -->
      <g style="fill:#262626;" transform="translate(295.087345 250.856563)scale(0.1 -0.1)">
       <defs>
        <path d="M 2034 2216 
Q 1584 2216 1326 1975 
Q 1069 1734 1069 1313 
Q 1069 891 1326 650 
Q 1584 409 2034 409 
Q 2484 409 2743 651 
Q 3003 894 3003 1313 
Q 3003 1734 2745 1975 
Q 2488 2216 2034 2216 
z
M 1403 2484 
Q 997 2584 770 2862 
Q 544 3141 544 3541 
Q 544 4100 942 4425 
Q 1341 4750 2034 4750 
Q 2731 4750 3128 4425 
Q 3525 4100 3525 3541 
Q 3525 3141 3298 2862 
Q 3072 2584 2669 2484 
Q 3125 2378 3379 2068 
Q 3634 1759 3634 1313 
Q 3634 634 3220 271 
Q 2806 -91 2034 -91 
Q 1263 -91 848 271 
Q 434 634 434 1313 
Q 434 1759 690 2068 
Q 947 2378 1403 2484 
z
M 1172 3481 
Q 1172 3119 1398 2916 
Q 1625 2713 2034 2713 
Q 2441 2713 2670 2916 
Q 2900 3119 2900 3481 
Q 2900 3844 2670 4047 
Q 2441 4250 2034 4250 
Q 1625 4250 1398 4047 
Q 1172 3844 1172 3481 
z
" id="DejaVuSans-38" transform="scale(0.015625)"/>
       </defs>
       <use xlink:href="#DejaVuSans-38"/>
       <use x="63.623047" xlink:href="#DejaVuSans-30"/>
      </g>
     </g>
    </g>
    <g id="xtick_6">
     <g id="line2d_11">
      <path clip-path="url(#pa4039fb312)" d="M 362.937448 239.758125 
L 362.937448 22.318125 
" style="fill:none;stroke:#ffffff;stroke-linecap:round;stroke-width:0.8;"/>
     </g>
     <g id="line2d_12"/>
     <g id="text_6">
      <!-- 100 -->
      <g style="fill:#262626;" transform="translate(353.393698 250.856563)scale(0.1 -0.1)">
       <defs>
        <path d="M 794 531 
L 1825 531 
L 1825 4091 
L 703 3866 
L 703 4441 
L 1819 4666 
L 2450 4666 
L 2450 531 
L 3481 531 
L 3481 0 
L 794 0 
L 794 531 
z
" id="DejaVuSans-31" transform="scale(0.015625)"/>
       </defs>
       <use xlink:href="#DejaVuSans-31"/>
       <use x="63.623047" xlink:href="#DejaVuSans-30"/>
       <use x="127.246094" xlink:href="#DejaVuSans-30"/>
      </g>
     </g>
    </g>
    <g id="text_7">
     <!-- Training Round -->
     <g style="fill:#262626;" transform="translate(170.546094 264.534688)scale(0.1 -0.1)">
      <defs>
       <path d="M -19 4666 
L 3928 4666 
L 3928 4134 
L 2272 4134 
L 2272 0 
L 1638 0 
L 1638 4134 
L -19 4134 
L -19 4666 
z
" id="DejaVuSans-54" transform="scale(0.015625)"/>
       <path d="M 2631 2963 
Q 2534 3019 2420 3045 
Q 2306 3072 2169 3072 
Q 1681 3072 1420 2755 
Q 1159 2438 1159 1844 
L 1159 0 
L 581 0 
L 581 3500 
L 1159 3500 
L 1159 2956 
Q 1341 3275 1631 3429 
Q 1922 3584 2338 3584 
Q 2397 3584 2469 3576 
Q 2541 3569 2628 3553 
L 2631 2963 
z
" id="DejaVuSans-72" transform="scale(0.015625)"/>
       <path d="M 2194 1759 
Q 1497 1759 1228 1600 
Q 959 1441 959 1056 
Q 959 750 1161 570 
Q 1363 391 1709 391 
Q 2188 391 2477 730 
Q 2766 1069 2766 1631 
L 2766 1759 
L 2194 1759 
z
M 3341 1997 
L 3341 0 
L 2766 0 
L 2766 531 
Q 2569 213 2275 61 
Q 1981 -91 1556 -91 
Q 1019 -91 701 211 
Q 384 513 384 1019 
Q 384 1609 779 1909 
Q 1175 2209 1959 2209 
L 2766 2209 
L 2766 2266 
Q 2766 2663 2505 2880 
Q 2244 3097 1772 3097 
Q 1472 3097 1187 3025 
Q 903 2953 641 2809 
L 641 3341 
Q 956 3463 1253 3523 
Q 1550 3584 1831 3584 
Q 2591 3584 2966 3190 
Q 3341 2797 3341 1997 
z
" id="DejaVuSans-61" transform="scale(0.015625)"/>
       <path d="M 603 3500 
L 1178 3500 
L 1178 0 
L 603 0 
L 603 3500 
z
M 603 4863 
L 1178 4863 
L 1178 4134 
L 603 4134 
L 603 4863 
z
" id="DejaVuSans-69" transform="scale(0.015625)"/>
       <path d="M 3513 2113 
L 3513 0 
L 2938 0 
L 2938 2094 
Q 2938 2591 2744 2837 
Q 2550 3084 2163 3084 
Q 1697 3084 1428 2787 
Q 1159 2491 1159 1978 
L 1159 0 
L 581 0 
L 581 3500 
L 1159 3500 
L 1159 2956 
Q 1366 3272 1645 3428 
Q 1925 3584 2291 3584 
Q 2894 3584 3203 3211 
Q 3513 2838 3513 2113 
z
" id="DejaVuSans-6e" transform="scale(0.015625)"/>
       <path d="M 2906 1791 
Q 2906 2416 2648 2759 
Q 2391 3103 1925 3103 
Q 1463 3103 1205 2759 
Q 947 2416 947 1791 
Q 947 1169 1205 825 
Q 1463 481 1925 481 
Q 2391 481 2648 825 
Q 2906 1169 2906 1791 
z
M 3481 434 
Q 3481 -459 3084 -895 
Q 2688 -1331 1869 -1331 
Q 1566 -1331 1297 -1286 
Q 1028 -1241 775 -1147 
L 775 -588 
Q 1028 -725 1275 -790 
Q 1522 -856 1778 -856 
Q 2344 -856 2625 -561 
Q 2906 -266 2906 331 
L 2906 616 
Q 2728 306 2450 153 
Q 2172 0 1784 0 
Q 1141 0 747 490 
Q 353 981 353 1791 
Q 353 2603 747 3093 
Q 1141 3584 1784 3584 
Q 2172 3584 2450 3431 
Q 2728 3278 2906 2969 
L 2906 3500 
L 3481 3500 
L 3481 434 
z
" id="DejaVuSans-67" transform="scale(0.015625)"/>
       <path id="DejaVuSans-20" transform="scale(0.015625)"/>
       <path d="M 2841 2188 
Q 3044 2119 3236 1894 
Q 3428 1669 3622 1275 
L 4263 0 
L 3584 0 
L 2988 1197 
Q 2756 1666 2539 1819 
Q 2322 1972 1947 1972 
L 1259 1972 
L 1259 0 
L 628 0 
L 628 4666 
L 2053 4666 
Q 2853 4666 3247 4331 
Q 3641 3997 3641 3322 
Q 3641 2881 3436 2590 
Q 3231 2300 2841 2188 
z
M 1259 4147 
L 1259 2491 
L 2053 2491 
Q 2509 2491 2742 2702 
Q 2975 2913 2975 3322 
Q 2975 3731 2742 3939 
Q 2509 4147 2053 4147 
L 1259 4147 
z
" id="DejaVuSans-52" transform="scale(0.015625)"/>
       <path d="M 1959 3097 
Q 1497 3097 1228 2736 
Q 959 2375 959 1747 
Q 959 1119 1226 758 
Q 1494 397 1959 397 
Q 2419 397 2687 759 
Q 2956 1122 2956 1747 
Q 2956 2369 2687 2733 
Q 2419 3097 1959 3097 
z
M 1959 3584 
Q 2709 3584 3137 3096 
Q 3566 2609 3566 1747 
Q 3566 888 3137 398 
Q 2709 -91 1959 -91 
Q 1206 -91 779 398 
Q 353 888 353 1747 
Q 353 2609 779 3096 
Q 1206 3584 1959 3584 
z
" id="DejaVuSans-6f" transform="scale(0.015625)"/>
       <path d="M 544 1381 
L 544 3500 
L 1119 3500 
L 1119 1403 
Q 1119 906 1312 657 
Q 1506 409 1894 409 
Q 2359 409 2629 706 
Q 2900 1003 2900 1516 
L 2900 3500 
L 3475 3500 
L 3475 0 
L 2900 0 
L 2900 538 
Q 2691 219 2414 64 
Q 2138 -91 1772 -91 
Q 1169 -91 856 284 
Q 544 659 544 1381 
z
M 1991 3584 
L 1991 3584 
z
" id="DejaVuSans-75" transform="scale(0.015625)"/>
       <path d="M 2906 2969 
L 2906 4863 
L 3481 4863 
L 3481 0 
L 2906 0 
L 2906 525 
Q 2725 213 2448 61 
Q 2172 -91 1784 -91 
Q 1150 -91 751 415 
Q 353 922 353 1747 
Q 353 2572 751 3078 
Q 1150 3584 1784 3584 
Q 2172 3584 2448 3432 
Q 2725 3281 2906 2969 
z
M 947 1747 
Q 947 1113 1208 752 
Q 1469 391 1925 391 
Q 2381 391 2643 752 
Q 2906 1113 2906 1747 
Q 2906 2381 2643 2742 
Q 2381 3103 1925 3103 
Q 1469 3103 1208 2742 
Q 947 2381 947 1747 
z
" id="DejaVuSans-64" transform="scale(0.015625)"/>
      </defs>
      <use xlink:href="#DejaVuSans-54"/>
      <use x="46.333984" xlink:href="#DejaVuSans-72"/>
      <use x="87.447266" xlink:href="#DejaVuSans-61"/>
      <use x="148.726562" xlink:href="#DejaVuSans-69"/>
      <use x="176.509766" xlink:href="#DejaVuSans-6e"/>
      <use x="239.888672" xlink:href="#DejaVuSans-69"/>
      <use x="267.671875" xlink:href="#DejaVuSans-6e"/>
      <use x="331.050781" xlink:href="#DejaVuSans-67"/>
      <use x="394.527344" xlink:href="#DejaVuSans-20"/>
      <use x="426.314453" xlink:href="#DejaVuSans-52"/>
      <use x="491.296875" xlink:href="#DejaVuSans-6f"/>
      <use x="552.478516" xlink:href="#DejaVuSans-75"/>
      <use x="615.857422" xlink:href="#DejaVuSans-6e"/>
      <use x="679.236328" xlink:href="#DejaVuSans-64"/>
     </g>
    </g>
   </g>
   <g id="matplotlib.axis_2">
    <g id="ytick_1">
     <g id="line2d_13">
      <path clip-path="url(#pa4039fb312)" d="M 40.28125 229.960857 
L 375.08125 229.960857 
" style="fill:none;stroke:#ffffff;stroke-linecap:round;stroke-width:0.8;"/>
     </g>
     <g id="line2d_14"/>
     <g id="text_8">
      <!-- 0.0 -->
      <g style="fill:#262626;" transform="translate(20.878125 233.760076)scale(0.1 -0.1)">
       <defs>
        <path d="M 684 794 
L 1344 794 
L 1344 0 
L 684 0 
L 684 794 
z
" id="DejaVuSans-2e" transform="scale(0.015625)"/>
       </defs>
       <use xlink:href="#DejaVuSans-30"/>
       <use x="63.623047" xlink:href="#DejaVuSans-2e"/>
       <use x="95.410156" xlink:href="#DejaVuSans-30"/>
      </g>
     </g>
    </g>
    <g id="ytick_2">
     <g id="line2d_15">
      <path clip-path="url(#pa4039fb312)" d="M 40.28125 184.436249 
L 375.08125 184.436249 
" style="fill:none;stroke:#ffffff;stroke-linecap:round;stroke-width:0.8;"/>
     </g>
     <g id="line2d_16"/>
     <g id="text_9">
      <!-- 0.2 -->
      <g style="fill:#262626;" transform="translate(20.878125 188.235468)scale(0.1 -0.1)">
       <use xlink:href="#DejaVuSans-30"/>
       <use x="63.623047" xlink:href="#DejaVuSans-2e"/>
       <use x="95.410156" xlink:href="#DejaVuSans-32"/>
      </g>
     </g>
    </g>
    <g id="ytick_3">
     <g id="line2d_17">
      <path clip-path="url(#pa4039fb312)" d="M 40.28125 138.911641 
L 375.08125 138.911641 
" style="fill:none;stroke:#ffffff;stroke-linecap:round;stroke-width:0.8;"/>
     </g>
     <g id="line2d_18"/>
     <g id="text_10">
      <!-- 0.4 -->
      <g style="fill:#262626;" transform="translate(20.878125 142.71086)scale(0.1 -0.1)">
       <use xlink:href="#DejaVuSans-30"/>
       <use x="63.623047" xlink:href="#DejaVuSans-2e"/>
       <use x="95.410156" xlink:href="#DejaVuSans-34"/>
      </g>
     </g>
    </g>
    <g id="ytick_4">
     <g id="line2d_19">
      <path clip-path="url(#pa4039fb312)" d="M 40.28125 93.387033 
L 375.08125 93.387033 
" style="fill:none;stroke:#ffffff;stroke-linecap:round;stroke-width:0.8;"/>
     </g>
     <g id="line2d_20"/>
     <g id="text_11">
      <!-- 0.6 -->
      <g style="fill:#262626;" transform="translate(20.878125 97.186252)scale(0.1 -0.1)">
       <use xlink:href="#DejaVuSans-30"/>
       <use x="63.623047" xlink:href="#DejaVuSans-2e"/>
       <use x="95.410156" xlink:href="#DejaVuSans-36"/>
      </g>
     </g>
    </g>
    <g id="ytick_5">
     <g id="line2d_21">
      <path clip-path="url(#pa4039fb312)" d="M 40.28125 47.862425 
L 375.08125 47.862425 
" style="fill:none;stroke:#ffffff;stroke-linecap:round;stroke-width:0.8;"/>
     </g>
     <g id="line2d_22"/>
     <g id="text_12">
      <!-- 0.8 -->
      <g style="fill:#262626;" transform="translate(20.878125 51.661644)scale(0.1 -0.1)">
       <use xlink:href="#DejaVuSans-30"/>
       <use x="63.623047" xlink:href="#DejaVuSans-2e"/>
       <use x="95.410156" xlink:href="#DejaVuSans-38"/>
      </g>
     </g>
    </g>
    <g id="text_13">
     <!-- Global Model Accuracy -->
     <g style="fill:#262626;" transform="translate(14.798438 188.007656)rotate(-90)scale(0.1 -0.1)">
      <defs>
       <path d="M 3809 666 
L 3809 1919 
L 2778 1919 
L 2778 2438 
L 4434 2438 
L 4434 434 
Q 4069 175 3628 42 
Q 3188 -91 2688 -91 
Q 1594 -91 976 548 
Q 359 1188 359 2328 
Q 359 3472 976 4111 
Q 1594 4750 2688 4750 
Q 3144 4750 3555 4637 
Q 3966 4525 4313 4306 
L 4313 3634 
Q 3963 3931 3569 4081 
Q 3175 4231 2741 4231 
Q 1884 4231 1454 3753 
Q 1025 3275 1025 2328 
Q 1025 1384 1454 906 
Q 1884 428 2741 428 
Q 3075 428 3337 486 
Q 3600 544 3809 666 
z
" id="DejaVuSans-47" transform="scale(0.015625)"/>
       <path d="M 603 4863 
L 1178 4863 
L 1178 0 
L 603 0 
L 603 4863 
z
" id="DejaVuSans-6c" transform="scale(0.015625)"/>
       <path d="M 3116 1747 
Q 3116 2381 2855 2742 
Q 2594 3103 2138 3103 
Q 1681 3103 1420 2742 
Q 1159 2381 1159 1747 
Q 1159 1113 1420 752 
Q 1681 391 2138 391 
Q 2594 391 2855 752 
Q 3116 1113 3116 1747 
z
M 1159 2969 
Q 1341 3281 1617 3432 
Q 1894 3584 2278 3584 
Q 2916 3584 3314 3078 
Q 3713 2572 3713 1747 
Q 3713 922 3314 415 
Q 2916 -91 2278 -91 
Q 1894 -91 1617 61 
Q 1341 213 1159 525 
L 1159 0 
L 581 0 
L 581 4863 
L 1159 4863 
L 1159 2969 
z
" id="DejaVuSans-62" transform="scale(0.015625)"/>
       <path d="M 628 4666 
L 1569 4666 
L 2759 1491 
L 3956 4666 
L 4897 4666 
L 4897 0 
L 4281 0 
L 4281 4097 
L 3078 897 
L 2444 897 
L 1241 4097 
L 1241 0 
L 628 0 
L 628 4666 
z
" id="DejaVuSans-4d" transform="scale(0.015625)"/>
       <path d="M 3597 1894 
L 3597 1613 
L 953 1613 
Q 991 1019 1311 708 
Q 1631 397 2203 397 
Q 2534 397 2845 478 
Q 3156 559 3463 722 
L 3463 178 
Q 3153 47 2828 -22 
Q 2503 -91 2169 -91 
Q 1331 -91 842 396 
Q 353 884 353 1716 
Q 353 2575 817 3079 
Q 1281 3584 2069 3584 
Q 2775 3584 3186 3129 
Q 3597 2675 3597 1894 
z
M 3022 2063 
Q 3016 2534 2758 2815 
Q 2500 3097 2075 3097 
Q 1594 3097 1305 2825 
Q 1016 2553 972 2059 
L 3022 2063 
z
" id="DejaVuSans-65" transform="scale(0.015625)"/>
       <path d="M 2188 4044 
L 1331 1722 
L 3047 1722 
L 2188 4044 
z
M 1831 4666 
L 2547 4666 
L 4325 0 
L 3669 0 
L 3244 1197 
L 1141 1197 
L 716 0 
L 50 0 
L 1831 4666 
z
" id="DejaVuSans-41" transform="scale(0.015625)"/>
       <path d="M 3122 3366 
L 3122 2828 
Q 2878 2963 2633 3030 
Q 2388 3097 2138 3097 
Q 1578 3097 1268 2742 
Q 959 2388 959 1747 
Q 959 1106 1268 751 
Q 1578 397 2138 397 
Q 2388 397 2633 464 
Q 2878 531 3122 666 
L 3122 134 
Q 2881 22 2623 -34 
Q 2366 -91 2075 -91 
Q 1284 -91 818 406 
Q 353 903 353 1747 
Q 353 2603 823 3093 
Q 1294 3584 2113 3584 
Q 2378 3584 2631 3529 
Q 2884 3475 3122 3366 
z
" id="DejaVuSans-63" transform="scale(0.015625)"/>
       <path d="M 2059 -325 
Q 1816 -950 1584 -1140 
Q 1353 -1331 966 -1331 
L 506 -1331 
L 506 -850 
L 844 -850 
Q 1081 -850 1212 -737 
Q 1344 -625 1503 -206 
L 1606 56 
L 191 3500 
L 800 3500 
L 1894 763 
L 2988 3500 
L 3597 3500 
L 2059 -325 
z
" id="DejaVuSans-79" transform="scale(0.015625)"/>
      </defs>
      <use xlink:href="#DejaVuSans-47"/>
      <use x="77.490234" xlink:href="#DejaVuSans-6c"/>
      <use x="105.273438" xlink:href="#DejaVuSans-6f"/>
      <use x="166.455078" xlink:href="#DejaVuSans-62"/>
      <use x="229.931641" xlink:href="#DejaVuSans-61"/>
      <use x="291.210938" xlink:href="#DejaVuSans-6c"/>
      <use x="318.994141" xlink:href="#DejaVuSans-20"/>
      <use x="350.78125" xlink:href="#DejaVuSans-4d"/>
      <use x="437.060547" xlink:href="#DejaVuSans-6f"/>
      <use x="498.242188" xlink:href="#DejaVuSans-64"/>
      <use x="561.71875" xlink:href="#DejaVuSans-65"/>
      <use x="623.242188" xlink:href="#DejaVuSans-6c"/>
      <use x="651.025391" xlink:href="#DejaVuSans-20"/>
      <use x="682.8125" xlink:href="#DejaVuSans-41"/>
      <use x="749.470703" xlink:href="#DejaVuSans-63"/>
      <use x="804.451172" xlink:href="#DejaVuSans-63"/>
      <use x="859.431641" xlink:href="#DejaVuSans-75"/>
      <use x="922.810547" xlink:href="#DejaVuSans-72"/>
      <use x="963.923828" xlink:href="#DejaVuSans-61"/>
      <use x="1025.203125" xlink:href="#DejaVuSans-63"/>
      <use x="1080.183594" xlink:href="#DejaVuSans-79"/>
     </g>
    </g>
   </g>
   <g id="PolyCollection_1">
    <defs>
     <path d="M 55.499432 -45.895425 
L 55.499432 -43.939886 
L 58.573812 -58.69824 
L 61.648192 -59.848068 
L 64.722572 -60.757484 
L 67.796952 -56.101362 
L 70.871333 -59.287789 
L 73.945713 -60.001565 
L 77.020093 -57.642308 
L 80.094473 -56.405565 
L 83.168853 -59.078865 
L 86.243233 -60.07076 
L 89.317614 -59.615923 
L 92.391994 -59.014611 
L 95.466374 -56.998779 
L 98.540754 -52.375635 
L 101.615134 -55.19965 
L 104.689514 -58.118467 
L 107.763895 -54.055201 
L 110.838275 -52.322487 
L 113.912655 -57.901557 
L 116.987035 -58.042777 
L 120.061415 -55.786377 
L 123.135795 -59.227013 
L 126.210176 -58.626463 
L 129.284556 -58.211188 
L 132.358936 -59.178 
L 135.433316 -59.182807 
L 138.507696 -61.856886 
L 141.582076 -61.530695 
L 144.656457 -60.889488 
L 147.730837 -60.319147 
L 150.805217 -53.213042 
L 153.879597 -60.568084 
L 156.953977 -56.736747 
L 160.028357 -61.881918 
L 163.102738 -61.738306 
L 166.177118 -61.890136 
L 169.251498 -61.311711 
L 172.325878 -62.523144 
L 175.400258 -61.016116 
L 178.474638 -58.203951 
L 181.549019 -51.075475 
L 184.623399 -60.757003 
L 187.697779 -60.536531 
L 190.772159 -58.28941 
L 193.846539 -52.965019 
L 196.920919 -47.482434 
L 199.9953 -51.211742 
L 203.06968 -48.660161 
L 206.14406 -62.153711 
L 209.21844 -62.738182 
L 212.29282 -56.891483 
L 215.3672 -56.753954 
L 218.441581 -58.101408 
L 221.515961 -59.332465 
L 224.590341 -57.079114 
L 227.664721 -56.005418 
L 230.739101 -53.286414 
L 233.813481 -52.992735 
L 236.887862 -55.728602 
L 239.962242 -56.034502 
L 243.036622 -58.328591 
L 246.111002 -54.051202 
L 249.185382 -57.028532 
L 252.259762 -57.442293 
L 255.334143 -54.898981 
L 258.408523 -54.612902 
L 261.482903 -53.407419 
L 264.557283 -53.365842 
L 267.631663 -51.997454 
L 270.706043 -52.874552 
L 273.780424 -51.914321 
L 276.854804 -51.385613 
L 279.929184 -52.055748 
L 283.003564 -51.985521 
L 286.077944 -51.955142 
L 289.152324 -54.79604 
L 292.226705 -49.665203 
L 295.301085 -48.913479 
L 298.375465 -50.921595 
L 301.449845 -47.073936 
L 304.524225 -46.975379 
L 307.598605 -47.935478 
L 310.672986 -51.768125 
L 313.747366 -50.595166 
L 316.821746 -49.735497 
L 319.896126 -48.983652 
L 322.970506 -51.21935 
L 326.044886 -56.130046 
L 329.119267 -55.805885 
L 332.193647 -56.462016 
L 335.268027 -55.871733 
L 338.342407 -54.534545 
L 341.416787 -51.498545 
L 344.491167 -49.894651 
L 347.565548 -48.965409 
L 350.639928 -52.371622 
L 353.714308 -52.296831 
L 356.788688 -51.161974 
L 359.863068 -52.057846 
L 359.863068 -130.715953 
L 359.863068 -130.715953 
L 356.788688 -120.59487 
L 353.714308 -103.173585 
L 350.639928 -104.794585 
L 347.565548 -110.141285 
L 344.491167 -103.566991 
L 341.416787 -107.91544 
L 338.342407 -106.353299 
L 335.268027 -109.010895 
L 332.193647 -121.907278 
L 329.119267 -133.034068 
L 326.044886 -125.03332 
L 322.970506 -117.208507 
L 319.896126 -115.864833 
L 316.821746 -116.797398 
L 313.747366 -116.563692 
L 310.672986 -117.661273 
L 307.598605 -116.446379 
L 304.524225 -116.564273 
L 301.449845 -115.737322 
L 298.375465 -117.967198 
L 295.301085 -117.300744 
L 292.226705 -117.066862 
L 289.152324 -125.707219 
L 286.077944 -124.985817 
L 283.003564 -124.181519 
L 279.929184 -125.380291 
L 276.854804 -119.728196 
L 273.780424 -118.175184 
L 270.706043 -118.256329 
L 267.631663 -117.727854 
L 264.557283 -118.396692 
L 261.482903 -117.370646 
L 258.408523 -117.821121 
L 255.334143 -117.398467 
L 252.259762 -117.091552 
L 249.185382 -117.619125 
L 246.111002 -117.022773 
L 243.036622 -120.660975 
L 239.962242 -122.12993 
L 236.887862 -122.458593 
L 233.813481 -123.168615 
L 230.739101 -123.620401 
L 227.664721 -121.846032 
L 224.590341 -121.261726 
L 221.515961 -119.292904 
L 218.441581 -121.155615 
L 215.3672 -118.622096 
L 212.29282 -119.292628 
L 209.21844 -129.095014 
L 206.14406 -133.401122 
L 203.06968 -121.617133 
L 199.9953 -146.260815 
L 196.920919 -135.74092 
L 193.846539 -139.067347 
L 190.772159 -142.005672 
L 187.697779 -141.875445 
L 184.623399 -137.381351 
L 181.549019 -137.957957 
L 178.474638 -144.651891 
L 175.400258 -132.882759 
L 172.325878 -120.956287 
L 169.251498 -132.809097 
L 166.177118 -130.688525 
L 163.102738 -123.983211 
L 160.028357 -131.777953 
L 156.953977 -121.894313 
L 153.879597 -131.708977 
L 150.805217 -128.536453 
L 147.730837 -135.400712 
L 144.656457 -131.324976 
L 141.582076 -130.740675 
L 138.507696 -127.11395 
L 135.433316 -138.557207 
L 132.358936 -131.460175 
L 129.284556 -126.019399 
L 126.210176 -120.226529 
L 123.135795 -117.446489 
L 120.061415 -124.318541 
L 116.987035 -118.346195 
L 113.912655 -108.904485 
L 110.838275 -111.200093 
L 107.763895 -104.158072 
L 104.689514 -101.801978 
L 101.615134 -91.22844 
L 98.540754 -93.955715 
L 95.466374 -85.121545 
L 92.391994 -77.358232 
L 89.317614 -74.913173 
L 86.243233 -73.872206 
L 83.168853 -82.751239 
L 80.094473 -96.162656 
L 77.020093 -88.597993 
L 73.945713 -85.003881 
L 70.871333 -75.605503 
L 67.796952 -77.357905 
L 64.722572 -76.497398 
L 61.648192 -82.084467 
L 58.573812 -84.321195 
L 55.499432 -45.895425 
z
" id="ma1633faa03" style="stroke:#0173b2;stroke-opacity:0.2;"/>
    </defs>
    <g clip-path="url(#pa4039fb312)">
     <use style="fill:#0173b2;fill-opacity:0.2;stroke:#0173b2;stroke-opacity:0.2;" x="0" xlink:href="#ma1633faa03" y="273.814375"/>
    </g>
   </g>
   <g id="PolyCollection_2">
    <defs>
     <path d="M 55.499432 -45.895425 
L 55.499432 -43.939886 
L 58.573812 -87.67648 
L 61.648192 -81.023146 
L 64.722572 -77.624471 
L 67.796952 -84.912801 
L 70.871333 -96.728134 
L 73.945713 -102.294824 
L 77.020093 -109.67596 
L 80.094473 -120.932348 
L 83.168853 -123.641037 
L 86.243233 -128.587685 
L 89.317614 -130.711436 
L 92.391994 -132.704161 
L 95.466374 -135.330663 
L 98.540754 -135.822269 
L 101.615134 -136.569875 
L 104.689514 -137.451695 
L 107.763895 -138.501644 
L 110.838275 -140.096583 
L 113.912655 -143.016533 
L 116.987035 -144.827891 
L 120.061415 -145.31821 
L 123.135795 -145.74882 
L 126.210176 -144.772523 
L 129.284556 -146.602832 
L 132.358936 -147.321504 
L 135.433316 -149.68111 
L 138.507696 -150.646892 
L 141.582076 -150.245338 
L 144.656457 -151.208462 
L 147.730837 -152.649981 
L 150.805217 -154.559421 
L 153.879597 -155.66234 
L 156.953977 -156.662749 
L 160.028357 -157.465264 
L 163.102738 -158.12247 
L 166.177118 -158.632546 
L 169.251498 -160.577489 
L 172.325878 -165.109313 
L 175.400258 -166.108856 
L 178.474638 -166.61031 
L 181.549019 -167.712735 
L 184.623399 -168.370148 
L 187.697779 -168.941884 
L 190.772159 -168.912809 
L 193.846539 -170.316668 
L 196.920919 -170.944521 
L 199.9953 -170.806437 
L 203.06968 -170.97996 
L 206.14406 -170.980836 
L 209.21844 -171.03296 
L 212.29282 -170.787941 
L 215.3672 -170.916731 
L 218.441581 -171.055489 
L 221.515961 -171.262119 
L 224.590341 -170.103649 
L 227.664721 -170.672127 
L 230.739101 -170.954966 
L 233.813481 -171.447127 
L 236.887862 -171.38344 
L 239.962242 -171.733767 
L 243.036622 -171.871778 
L 246.111002 -171.878487 
L 249.185382 -172.232137 
L 252.259762 -172.1927 
L 255.334143 -172.25632 
L 258.408523 -172.528249 
L 261.482903 -172.732226 
L 264.557283 -173.003372 
L 267.631663 -172.951218 
L 270.706043 -172.881417 
L 273.780424 -173.070823 
L 276.854804 -173.362049 
L 279.929184 -173.329872 
L 283.003564 -173.479004 
L 286.077944 -173.33584 
L 289.152324 -173.29056 
L 292.226705 -173.519025 
L 295.301085 -173.626153 
L 298.375465 -173.925555 
L 301.449845 -173.845089 
L 304.524225 -173.974223 
L 307.598605 -174.242073 
L 310.672986 -174.26069 
L 313.747366 -174.202221 
L 316.821746 -174.2839 
L 319.896126 -174.318108 
L 322.970506 -174.233527 
L 326.044886 -174.619369 
L 329.119267 -174.66985 
L 332.193647 -174.881887 
L 335.268027 -174.808348 
L 338.342407 -174.59394 
L 341.416787 -173.307838 
L 344.491167 -171.978233 
L 347.565548 -174.405826 
L 350.639928 -174.508523 
L 353.714308 -173.998061 
L 356.788688 -174.472548 
L 359.863068 -174.211599 
L 359.863068 -228.366388 
L 359.863068 -228.366388 
L 356.788688 -228.628973 
L 353.714308 -228.773406 
L 350.639928 -228.439352 
L 347.565548 -228.718457 
L 344.491167 -229.216944 
L 341.416787 -229.002693 
L 338.342407 -228.541723 
L 335.268027 -228.532177 
L 332.193647 -228.174109 
L 329.119267 -228.374764 
L 326.044886 -228.180551 
L 322.970506 -228.276174 
L 319.896126 -228.385072 
L 316.821746 -227.491716 
L 313.747366 -227.795328 
L 310.672986 -227.389733 
L 307.598605 -227.783928 
L 304.524225 -228.046088 
L 301.449845 -228.363011 
L 298.375465 -228.339451 
L 295.301085 -227.910459 
L 292.226705 -227.659081 
L 289.152324 -227.352632 
L 286.077944 -226.647245 
L 283.003564 -226.925183 
L 279.929184 -226.710119 
L 276.854804 -226.638108 
L 273.780424 -226.081438 
L 270.706043 -225.360351 
L 267.631663 -225.142595 
L 264.557283 -225.363589 
L 261.482903 -225.310372 
L 258.408523 -224.751813 
L 255.334143 -224.187227 
L 252.259762 -223.926484 
L 249.185382 -223.864285 
L 246.111002 -223.882191 
L 243.036622 -223.758016 
L 239.962242 -223.753763 
L 236.887862 -223.335862 
L 233.813481 -223.135601 
L 230.739101 -222.899369 
L 227.664721 -223.30171 
L 224.590341 -223.284059 
L 221.515961 -222.865363 
L 218.441581 -222.821608 
L 215.3672 -222.436833 
L 212.29282 -221.791705 
L 209.21844 -222.08729 
L 206.14406 -222.110962 
L 203.06968 -222.163053 
L 199.9953 -222.029284 
L 196.920919 -221.88551 
L 193.846539 -221.745135 
L 190.772159 -221.487346 
L 187.697779 -221.139599 
L 184.623399 -221.062609 
L 181.549019 -220.906269 
L 178.474638 -219.851967 
L 175.400258 -219.050278 
L 172.325878 -218.177621 
L 169.251498 -217.371686 
L 166.177118 -216.454269 
L 163.102738 -213.737788 
L 160.028357 -213.382072 
L 156.953977 -213.348072 
L 153.879597 -213.176223 
L 150.805217 -211.513521 
L 147.730837 -209.0526 
L 144.656457 -208.354462 
L 141.582076 -208.139636 
L 138.507696 -207.197478 
L 135.433316 -206.273988 
L 132.358936 -206.22079 
L 129.284556 -204.560801 
L 126.210176 -201.531358 
L 123.135795 -199.912026 
L 120.061415 -199.415072 
L 116.987035 -199.011971 
L 113.912655 -198.598314 
L 110.838275 -197.711269 
L 107.763895 -193.689609 
L 104.689514 -190.665106 
L 101.615134 -188.485396 
L 98.540754 -187.059201 
L 95.466374 -184.290108 
L 92.391994 -175.763081 
L 89.317614 -168.650884 
L 86.243233 -158.750448 
L 83.168853 -155.070182 
L 80.094473 -148.315444 
L 77.020093 -131.722153 
L 73.945713 -124.359006 
L 70.871333 -118.373827 
L 67.796952 -109.060052 
L 64.722572 -110.231012 
L 61.648192 -111.771758 
L 58.573812 -97.88001 
L 55.499432 -45.895425 
z
" id="m98f1c19a4d" style="stroke:#de8f05;stroke-opacity:0.2;"/>
    </defs>
    <g clip-path="url(#pa4039fb312)">
     <use style="fill:#de8f05;fill-opacity:0.2;stroke:#de8f05;stroke-opacity:0.2;" x="0" xlink:href="#m98f1c19a4d" y="273.814375"/>
    </g>
   </g>
   <g id="PolyCollection_3">
    <defs>
     <path d="M 55.499432 -45.895425 
L 55.499432 -43.939886 
L 58.573812 -88.849837 
L 61.648192 -90.980243 
L 64.722572 -87.377696 
L 67.796952 -93.803621 
L 70.871333 -104.581405 
L 73.945713 -111.608799 
L 77.020093 -119.073604 
L 80.094473 -126.391013 
L 83.168853 -134.352818 
L 86.243233 -140.75435 
L 89.317614 -145.545535 
L 92.391994 -150.408643 
L 95.466374 -159.31507 
L 98.540754 -166.848612 
L 101.615134 -169.593533 
L 104.689514 -171.88912 
L 107.763895 -172.186615 
L 110.838275 -172.558904 
L 113.912655 -176.694569 
L 116.987035 -179.100042 
L 120.061415 -179.764415 
L 123.135795 -179.833378 
L 126.210176 -179.949425 
L 129.284556 -180.653565 
L 132.358936 -181.909454 
L 135.433316 -182.880016 
L 138.507696 -183.001478 
L 141.582076 -183.475758 
L 144.656457 -183.694296 
L 147.730837 -183.813981 
L 150.805217 -186.798283 
L 153.879597 -189.179286 
L 156.953977 -189.712629 
L 160.028357 -189.851109 
L 163.102738 -190.418134 
L 166.177118 -191.60204 
L 169.251498 -192.619341 
L 172.325878 -193.294985 
L 175.400258 -194.060893 
L 178.474638 -196.524621 
L 181.549019 -197.699006 
L 184.623399 -198.52785 
L 187.697779 -198.642428 
L 190.772159 -198.905752 
L 193.846539 -199.150075 
L 196.920919 -199.246761 
L 199.9953 -199.38716 
L 203.06968 -201.854222 
L 206.14406 -203.569165 
L 209.21844 -203.800173 
L 212.29282 -203.978969 
L 215.3672 -204.193719 
L 218.441581 -204.283765 
L 221.515961 -204.634497 
L 224.590341 -204.804634 
L 227.664721 -205.451385 
L 230.739101 -206.845859 
L 233.813481 -210.602793 
L 236.887862 -212.062749 
L 239.962242 -213.295771 
L 243.036622 -213.625184 
L 246.111002 -213.56438 
L 249.185382 -213.652382 
L 252.259762 -213.940318 
L 255.334143 -214.078123 
L 258.408523 -214.276217 
L 261.482903 -214.50331 
L 264.557283 -214.446525 
L 267.631663 -214.620335 
L 270.706043 -214.728135 
L 273.780424 -214.7244 
L 276.854804 -215.012892 
L 279.929184 -214.982858 
L 283.003564 -215.065016 
L 286.077944 -215.151511 
L 289.152324 -215.153874 
L 292.226705 -215.251717 
L 295.301085 -215.442977 
L 298.375465 -215.311073 
L 301.449845 -215.233168 
L 304.524225 -215.377959 
L 307.598605 -215.488208 
L 310.672986 -215.486956 
L 313.747366 -215.420102 
L 316.821746 -215.475664 
L 319.896126 -215.489051 
L 322.970506 -215.578159 
L 326.044886 -215.759469 
L 329.119267 -215.743749 
L 332.193647 -215.97738 
L 335.268027 -215.926918 
L 338.342407 -215.835924 
L 341.416787 -215.784791 
L 344.491167 -215.826879 
L 347.565548 -215.871194 
L 350.639928 -215.938338 
L 353.714308 -215.896504 
L 356.788688 -216.060905 
L 359.863068 -216.001976 
L 359.863068 -241.433164 
L 359.863068 -241.433164 
L 356.788688 -241.533571 
L 353.714308 -241.612614 
L 350.639928 -241.28056 
L 347.565548 -241.410301 
L 344.491167 -241.346495 
L 341.416787 -241.143887 
L 338.342407 -241.206566 
L 335.268027 -241.218003 
L 332.193647 -241.150469 
L 329.119267 -241.110953 
L 326.044886 -241.055399 
L 322.970506 -240.826987 
L 319.896126 -240.910405 
L 316.821746 -240.883957 
L 313.747366 -240.922447 
L 310.672986 -240.639351 
L 307.598605 -240.73484 
L 304.524225 -240.611775 
L 301.449845 -240.682589 
L 298.375465 -240.468109 
L 295.301085 -240.324824 
L 292.226705 -240.328295 
L 289.152324 -240.261112 
L 286.077944 -240.286237 
L 283.003564 -240.065441 
L 279.929184 -239.942738 
L 276.854804 -239.87856 
L 273.780424 -239.74595 
L 270.706043 -239.628404 
L 267.631663 -239.463056 
L 264.557283 -239.124714 
L 261.482903 -238.931355 
L 258.408523 -238.447126 
L 255.334143 -238.167212 
L 252.259762 -237.804246 
L 249.185382 -237.306882 
L 246.111002 -236.529917 
L 243.036622 -232.622284 
L 239.962242 -231.881868 
L 236.887862 -229.928168 
L 233.813481 -228.929795 
L 230.739101 -229.693487 
L 227.664721 -227.815878 
L 224.590341 -227.210703 
L 221.515961 -226.885761 
L 218.441581 -226.798318 
L 215.3672 -226.65505 
L 212.29282 -226.613725 
L 209.21844 -226.49661 
L 206.14406 -226.24961 
L 203.06968 -225.95578 
L 199.9953 -226.419759 
L 196.920919 -226.269939 
L 193.846539 -225.865854 
L 190.772159 -225.421617 
L 187.697779 -225.161408 
L 184.623399 -224.815049 
L 181.549019 -222.781534 
L 178.474638 -220.979747 
L 175.400258 -219.93239 
L 172.325878 -219.742282 
L 169.251498 -219.831796 
L 166.177118 -219.847555 
L 163.102738 -219.904728 
L 160.028357 -219.828718 
L 156.953977 -219.50057 
L 153.879597 -219.168946 
L 150.805217 -219.00057 
L 147.730837 -218.985939 
L 144.656457 -218.46828 
L 141.582076 -218.106379 
L 138.507696 -217.442543 
L 135.433316 -216.932352 
L 132.358936 -215.552705 
L 129.284556 -213.803971 
L 126.210176 -212.772485 
L 123.135795 -212.239807 
L 120.061415 -211.546232 
L 116.987035 -210.497742 
L 113.912655 -207.758934 
L 110.838275 -206.898274 
L 107.763895 -205.853609 
L 104.689514 -204.700007 
L 101.615134 -200.252261 
L 98.540754 -194.893802 
L 95.466374 -188.496814 
L 92.391994 -183.102824 
L 89.317614 -177.859469 
L 86.243233 -168.919294 
L 83.168853 -159.023016 
L 80.094473 -153.73716 
L 77.020093 -148.233701 
L 73.945713 -133.602 
L 70.871333 -121.338341 
L 67.796952 -111.265854 
L 64.722572 -106.856923 
L 61.648192 -111.653666 
L 58.573812 -109.960005 
L 55.499432 -45.895425 
z
" id="mc89ef15017" style="stroke:#029e73;stroke-opacity:0.2;"/>
    </defs>
    <g clip-path="url(#pa4039fb312)">
     <use style="fill:#029e73;fill-opacity:0.2;stroke:#029e73;stroke-opacity:0.2;" x="0" xlink:href="#mc89ef15017" y="273.814375"/>
    </g>
   </g>
   <g id="line2d_23">
    <path clip-path="url(#pa4039fb312)" d="M 55.499432 228.896719 
L 58.573812 202.304658 
L 61.648192 202.848108 
L 64.722572 205.186934 
L 67.796952 207.084741 
L 70.871333 206.367729 
L 73.945713 201.311652 
L 77.020093 200.694225 
L 80.094473 197.530264 
L 83.168853 202.899323 
L 86.243233 206.842892 
L 89.317614 206.549827 
L 92.391994 205.627954 
L 95.466374 202.754213 
L 98.540754 200.6487 
L 101.615134 200.60033 
L 104.689514 193.854152 
L 107.763895 194.707739 
L 110.838275 192.053085 
L 113.912655 190.411354 
L 116.987035 185.619889 
L 120.061415 183.761916 
L 123.135795 185.477624 
L 126.210176 184.387879 
L 129.284556 181.699082 
L 132.358936 178.495288 
L 135.433316 174.944368 
L 138.507696 179.328957 
L 141.582076 177.67869 
L 144.656457 177.707143 
L 147.730837 175.954445 
L 150.805217 182.939627 
L 153.879597 177.675845 
L 156.953977 184.498845 
L 160.028357 176.98444 
L 163.102738 180.953616 
L 166.177118 177.525044 
L 169.251498 176.753971 
L 172.325878 182.07466 
L 175.400258 176.864938 
L 178.474638 172.386454 
L 181.549019 179.297659 
L 184.623399 174.745198 
L 187.697779 172.608387 
L 190.772159 173.666834 
L 193.846539 177.798192 
L 196.920919 182.202698 
L 199.9953 175.078097 
L 203.06968 188.675728 
L 206.14406 176.036959 
L 209.21844 177.897777 
L 212.29282 185.722319 
L 215.3672 186.12635 
L 218.441581 184.185864 
L 221.515961 184.50169 
L 224.590341 184.643955 
L 227.664721 184.88865 
L 230.739101 185.360967 
L 233.813481 185.7337 
L 236.887862 184.720778 
L 239.962242 184.732159 
L 243.036622 184.319592 
L 246.111002 188.277388 
L 249.185382 186.490547 
L 252.259762 186.547453 
L 255.334143 187.665651 
L 258.408523 187.597364 
L 261.482903 188.425343 
L 264.557283 187.933108 
L 267.631663 188.951721 
L 270.706043 188.248935 
L 273.780424 188.769622 
L 276.854804 188.257471 
L 279.929184 185.096356 
L 283.003564 185.730855 
L 286.077944 185.343896 
L 289.152324 183.562745 
L 292.226705 190.448342 
L 295.301085 190.707264 
L 298.375465 189.369978 
L 301.449845 192.408746 
L 304.524225 192.044549 
L 307.598605 191.623446 
L 310.672986 189.099676 
L 313.747366 190.234946 
L 316.821746 190.547927 
L 319.896126 191.390133 
L 322.970506 189.600447 
L 326.044886 183.232692 
L 329.119267 179.394399 
L 332.193647 184.629728 
L 335.268027 191.373061 
L 338.342407 193.370453 
L 341.416787 194.107383 
L 344.491167 197.083554 
L 347.565548 194.261028 
L 350.639928 195.231272 
L 353.714308 196.079167 
L 356.788688 187.935953 
L 359.863068 182.427476 
" style="fill:none;stroke:#0173b2;stroke-linecap:round;stroke-width:1.5;"/>
   </g>
   <g id="line2d_24">
    <path clip-path="url(#pa4039fb312)" d="M 55.499432 228.896719 
L 58.573812 181.03613 
L 61.648192 177.416923 
L 64.722572 179.886633 
L 67.796952 176.827949 
L 70.871333 166.263394 
L 73.945713 160.48746 
L 77.020093 153.115319 
L 80.094473 139.190479 
L 83.168853 134.458765 
L 86.243233 130.145309 
L 89.317614 124.133215 
L 92.391994 119.580754 
L 95.466374 114.00399 
L 98.540754 112.37364 
L 101.615134 111.28674 
L 104.689514 109.755975 
L 107.763895 107.718749 
L 110.838275 104.910449 
L 113.912655 103.006952 
L 116.987035 101.894444 
L 120.061415 101.447734 
L 123.135795 100.983952 
L 126.210176 100.662434 
L 129.284556 98.232558 
L 132.358936 97.043228 
L 135.433316 95.836826 
L 138.507696 94.89219 
L 141.582076 94.621888 
L 144.656457 94.032913 
L 147.730837 92.963085 
L 150.805217 90.777904 
L 153.879597 89.395094 
L 156.953977 88.808964 
L 160.028357 88.390707 
L 163.102738 87.884246 
L 166.177118 86.270968 
L 169.251498 84.839788 
L 172.325878 82.170908 
L 175.400258 81.234808 
L 178.474638 80.583237 
L 181.549019 79.504873 
L 184.623399 79.097997 
L 187.697779 78.773634 
L 190.772159 78.614298 
L 193.846539 77.783473 
L 196.920919 77.39936 
L 199.9953 77.396514 
L 203.06968 77.242869 
L 206.14406 77.268476 
L 209.21844 77.25425 
L 212.29282 77.524552 
L 215.3672 77.137593 
L 218.441581 76.875827 
L 221.515961 76.750634 
L 224.590341 77.120521 
L 227.664721 76.827457 
L 230.739101 76.887208 
L 233.813481 76.523011 
L 236.887862 76.454724 
L 239.962242 76.07061 
L 243.036622 75.999478 
L 246.111002 75.934036 
L 249.185382 75.766164 
L 252.259762 75.754783 
L 255.334143 75.592602 
L 258.408523 75.174344 
L 261.482903 74.793076 
L 264.557283 74.630894 
L 267.631663 74.767468 
L 270.706043 74.693491 
L 273.780424 74.238245 
L 276.854804 73.814297 
L 279.929184 73.79438 
L 283.003564 73.612281 
L 286.077944 73.822833 
L 289.152324 73.492779 
L 292.226705 73.225322 
L 295.301085 73.046069 
L 298.375465 72.681872 
L 301.449845 72.710325 
L 304.524225 72.804219 
L 307.598605 72.801374 
L 310.672986 72.989163 
L 313.747366 72.815601 
L 316.821746 72.926567 
L 319.896126 72.462785 
L 322.970506 72.559525 
L 326.044886 72.414415 
L 329.119267 72.292068 
L 332.193647 72.286377 
L 335.268027 72.144113 
L 338.342407 72.246543 
L 341.416787 72.65911 
L 344.491167 73.216786 
L 347.565548 72.252234 
L 350.639928 72.340438 
L 353.714308 72.428641 
L 356.788688 72.263615 
L 359.863068 72.525381 
" style="fill:none;stroke:#de8f05;stroke-linecap:round;stroke-width:1.5;"/>
   </g>
   <g id="line2d_25">
    <path clip-path="url(#pa4039fb312)" d="M 55.499432 228.896719 
L 58.573812 174.409454 
L 61.648192 172.49742 
L 64.722572 176.697066 
L 67.796952 171.279637 
L 70.871333 160.854502 
L 73.945713 151.208976 
L 77.020093 140.160722 
L 80.094473 133.750288 
L 83.168853 127.126458 
L 86.243233 118.977553 
L 89.317614 112.111873 
L 92.391994 107.058642 
L 95.466374 99.908433 
L 98.540754 92.943168 
L 101.615134 88.891478 
L 104.689514 85.519812 
L 107.763895 84.794263 
L 110.838275 84.085786 
L 113.912655 81.587624 
L 116.987035 79.015483 
L 120.061415 78.159051 
L 123.135795 77.777783 
L 126.210176 77.45342 
L 129.284556 76.585607 
L 132.358936 75.083295 
L 135.433316 73.908191 
L 138.507696 73.592364 
L 141.582076 73.023307 
L 144.656457 72.733087 
L 147.730837 72.414415 
L 150.805217 70.914948 
L 153.879597 69.640259 
L 156.953977 69.207775 
L 160.028357 68.974462 
L 163.102738 68.652944 
L 166.177118 68.089577 
L 169.251498 67.588807 
L 172.325878 67.295742 
L 175.400258 66.817734 
L 178.474638 65.062191 
L 181.549019 63.574105 
L 184.623399 62.142925 
L 187.697779 61.912457 
L 190.772159 61.650691 
L 193.846539 61.306411 
L 196.920919 61.056025 
L 199.9953 60.910916 
L 203.06968 59.909374 
L 206.14406 58.904988 
L 209.21844 58.665983 
L 212.29282 58.518028 
L 215.3672 58.38999 
L 218.441581 58.273334 
L 221.515961 58.054246 
L 224.590341 57.806706 
L 227.664721 57.180743 
L 230.739101 55.544702 
L 233.813481 54.048081 
L 236.887862 52.818917 
L 239.962242 51.225555 
L 243.036622 50.690641 
L 246.111002 48.767226 
L 249.185382 48.334743 
L 252.259762 47.942093 
L 255.334143 47.691708 
L 258.408523 47.452703 
L 261.482903 47.097042 
L 264.557283 47.028755 
L 267.631663 46.77268 
L 270.706043 46.636106 
L 273.780424 46.5792 
L 276.854804 46.368649 
L 279.929184 46.351577 
L 283.003564 46.249147 
L 286.077944 46.095501 
L 289.152324 46.106882 
L 292.226705 46.024369 
L 295.301085 45.930474 
L 298.375465 45.924784 
L 301.449845 45.856497 
L 304.524225 45.819508 
L 307.598605 45.702851 
L 310.672986 45.751221 
L 313.747366 45.6431 
L 316.821746 45.634564 
L 319.896126 45.614647 
L 322.970506 45.611802 
L 326.044886 45.406941 
L 329.119267 45.387024 
L 332.193647 45.25045 
L 335.268027 45.241915 
L 338.342407 45.29313 
L 341.416787 45.350036 
L 344.491167 45.227688 
L 347.565548 45.173628 
L 350.639928 45.204926 
L 353.714308 45.059816 
L 356.788688 45.017137 
L 359.863068 45.096805 
" style="fill:none;stroke:#029e73;stroke-linecap:round;stroke-width:1.5;"/>
   </g>
   <g id="patch_3">
    <path d="M 40.28125 239.758125 
L 40.28125 22.318125 
" style="fill:none;"/>
   </g>
   <g id="patch_4">
    <path d="M 375.08125 239.758125 
L 375.08125 22.318125 
" style="fill:none;"/>
   </g>
   <g id="patch_5">
    <path d="M 40.28125 239.758125 
L 375.08125 239.758125 
" style="fill:none;"/>
   </g>
   <g id="patch_6">
    <path d="M 40.28125 22.318125 
L 375.08125 22.318125 
" style="fill:none;"/>
   </g>
   <g id="text_14">
    <!-- MNIST Global Model Accuracy with Gaussian Noise -->
    <g style="fill:#262626;" transform="translate(55.882188 16.318125)scale(0.12 -0.12)">
     <defs>
      <path d="M 628 4666 
L 1478 4666 
L 3547 763 
L 3547 4666 
L 4159 4666 
L 4159 0 
L 3309 0 
L 1241 3903 
L 1241 0 
L 628 0 
L 628 4666 
z
" id="DejaVuSans-4e" transform="scale(0.015625)"/>
      <path d="M 628 4666 
L 1259 4666 
L 1259 0 
L 628 0 
L 628 4666 
z
" id="DejaVuSans-49" transform="scale(0.015625)"/>
      <path d="M 3425 4513 
L 3425 3897 
Q 3066 4069 2747 4153 
Q 2428 4238 2131 4238 
Q 1616 4238 1336 4038 
Q 1056 3838 1056 3469 
Q 1056 3159 1242 3001 
Q 1428 2844 1947 2747 
L 2328 2669 
Q 3034 2534 3370 2195 
Q 3706 1856 3706 1288 
Q 3706 609 3251 259 
Q 2797 -91 1919 -91 
Q 1588 -91 1214 -16 
Q 841 59 441 206 
L 441 856 
Q 825 641 1194 531 
Q 1563 422 1919 422 
Q 2459 422 2753 634 
Q 3047 847 3047 1241 
Q 3047 1584 2836 1778 
Q 2625 1972 2144 2069 
L 1759 2144 
Q 1053 2284 737 2584 
Q 422 2884 422 3419 
Q 422 4038 858 4394 
Q 1294 4750 2059 4750 
Q 2388 4750 2728 4690 
Q 3069 4631 3425 4513 
z
" id="DejaVuSans-53" transform="scale(0.015625)"/>
      <path d="M 269 3500 
L 844 3500 
L 1563 769 
L 2278 3500 
L 2956 3500 
L 3675 769 
L 4391 3500 
L 4966 3500 
L 4050 0 
L 3372 0 
L 2619 2869 
L 1863 0 
L 1184 0 
L 269 3500 
z
" id="DejaVuSans-77" transform="scale(0.015625)"/>
      <path d="M 1172 4494 
L 1172 3500 
L 2356 3500 
L 2356 3053 
L 1172 3053 
L 1172 1153 
Q 1172 725 1289 603 
Q 1406 481 1766 481 
L 2356 481 
L 2356 0 
L 1766 0 
Q 1100 0 847 248 
Q 594 497 594 1153 
L 594 3053 
L 172 3053 
L 172 3500 
L 594 3500 
L 594 4494 
L 1172 4494 
z
" id="DejaVuSans-74" transform="scale(0.015625)"/>
      <path d="M 3513 2113 
L 3513 0 
L 2938 0 
L 2938 2094 
Q 2938 2591 2744 2837 
Q 2550 3084 2163 3084 
Q 1697 3084 1428 2787 
Q 1159 2491 1159 1978 
L 1159 0 
L 581 0 
L 581 4863 
L 1159 4863 
L 1159 2956 
Q 1366 3272 1645 3428 
Q 1925 3584 2291 3584 
Q 2894 3584 3203 3211 
Q 3513 2838 3513 2113 
z
" id="DejaVuSans-68" transform="scale(0.015625)"/>
      <path d="M 2834 3397 
L 2834 2853 
Q 2591 2978 2328 3040 
Q 2066 3103 1784 3103 
Q 1356 3103 1142 2972 
Q 928 2841 928 2578 
Q 928 2378 1081 2264 
Q 1234 2150 1697 2047 
L 1894 2003 
Q 2506 1872 2764 1633 
Q 3022 1394 3022 966 
Q 3022 478 2636 193 
Q 2250 -91 1575 -91 
Q 1294 -91 989 -36 
Q 684 19 347 128 
L 347 722 
Q 666 556 975 473 
Q 1284 391 1588 391 
Q 1994 391 2212 530 
Q 2431 669 2431 922 
Q 2431 1156 2273 1281 
Q 2116 1406 1581 1522 
L 1381 1569 
Q 847 1681 609 1914 
Q 372 2147 372 2553 
Q 372 3047 722 3315 
Q 1072 3584 1716 3584 
Q 2034 3584 2315 3537 
Q 2597 3491 2834 3397 
z
" id="DejaVuSans-73" transform="scale(0.015625)"/>
     </defs>
     <use xlink:href="#DejaVuSans-4d"/>
     <use x="86.279297" xlink:href="#DejaVuSans-4e"/>
     <use x="161.083984" xlink:href="#DejaVuSans-49"/>
     <use x="190.576172" xlink:href="#DejaVuSans-53"/>
     <use x="254.052734" xlink:href="#DejaVuSans-54"/>
     <use x="315.136719" xlink:href="#DejaVuSans-20"/>
     <use x="346.923828" xlink:href="#DejaVuSans-47"/>
     <use x="424.414062" xlink:href="#DejaVuSans-6c"/>
     <use x="452.197266" xlink:href="#DejaVuSans-6f"/>
     <use x="513.378906" xlink:href="#DejaVuSans-62"/>
     <use x="576.855469" xlink:href="#DejaVuSans-61"/>
     <use x="638.134766" xlink:href="#DejaVuSans-6c"/>
     <use x="665.917969" xlink:href="#DejaVuSans-20"/>
     <use x="697.705078" xlink:href="#DejaVuSans-4d"/>
     <use x="783.984375" xlink:href="#DejaVuSans-6f"/>
     <use x="845.166016" xlink:href="#DejaVuSans-64"/>
     <use x="908.642578" xlink:href="#DejaVuSans-65"/>
     <use x="970.166016" xlink:href="#DejaVuSans-6c"/>
     <use x="997.949219" xlink:href="#DejaVuSans-20"/>
     <use x="1029.736328" xlink:href="#DejaVuSans-41"/>
     <use x="1096.394531" xlink:href="#DejaVuSans-63"/>
     <use x="1151.375" xlink:href="#DejaVuSans-63"/>
     <use x="1206.355469" xlink:href="#DejaVuSans-75"/>
     <use x="1269.734375" xlink:href="#DejaVuSans-72"/>
     <use x="1310.847656" xlink:href="#DejaVuSans-61"/>
     <use x="1372.126953" xlink:href="#DejaVuSans-63"/>
     <use x="1427.107422" xlink:href="#DejaVuSans-79"/>
     <use x="1486.287109" xlink:href="#DejaVuSans-20"/>
     <use x="1518.074219" xlink:href="#DejaVuSans-77"/>
     <use x="1599.861328" xlink:href="#DejaVuSans-69"/>
     <use x="1627.644531" xlink:href="#DejaVuSans-74"/>
     <use x="1666.853516" xlink:href="#DejaVuSans-68"/>
     <use x="1730.232422" xlink:href="#DejaVuSans-20"/>
     <use x="1762.019531" xlink:href="#DejaVuSans-47"/>
     <use x="1839.509766" xlink:href="#DejaVuSans-61"/>
     <use x="1900.789062" xlink:href="#DejaVuSans-75"/>
     <use x="1964.167969" xlink:href="#DejaVuSans-73"/>
     <use x="2016.267578" xlink:href="#DejaVuSans-73"/>
     <use x="2068.367188" xlink:href="#DejaVuSans-69"/>
     <use x="2096.150391" xlink:href="#DejaVuSans-61"/>
     <use x="2157.429688" xlink:href="#DejaVuSans-6e"/>
     <use x="2220.808594" xlink:href="#DejaVuSans-20"/>
     <use x="2252.595703" xlink:href="#DejaVuSans-4e"/>
     <use x="2327.400391" xlink:href="#DejaVuSans-6f"/>
     <use x="2388.582031" xlink:href="#DejaVuSans-69"/>
     <use x="2416.365234" xlink:href="#DejaVuSans-73"/>
     <use x="2468.464844" xlink:href="#DejaVuSans-65"/>
    </g>
   </g>
   <g id="legend_1">
    <g id="line2d_26">
     <path d="M 399.519375 35.416563 
L 419.519375 35.416563 
" style="fill:none;stroke:#0173b2;stroke-linecap:round;stroke-width:1.5;"/>
    </g>
    <g id="line2d_27"/>
    <g id="text_15">
     <!-- gaussian, 1.0e-01 -->
     <g style="fill:#262626;" transform="translate(427.519375 38.916563)scale(0.1 -0.1)">
      <defs>
       <path d="M 750 794 
L 1409 794 
L 1409 256 
L 897 -744 
L 494 -744 
L 750 256 
L 750 794 
z
" id="DejaVuSans-2c" transform="scale(0.015625)"/>
       <path d="M 313 2009 
L 1997 2009 
L 1997 1497 
L 313 1497 
L 313 2009 
z
" id="DejaVuSans-2d" transform="scale(0.015625)"/>
      </defs>
      <use xlink:href="#DejaVuSans-67"/>
      <use x="63.476562" xlink:href="#DejaVuSans-61"/>
      <use x="124.755859" xlink:href="#DejaVuSans-75"/>
      <use x="188.134766" xlink:href="#DejaVuSans-73"/>
      <use x="240.234375" xlink:href="#DejaVuSans-73"/>
      <use x="292.333984" xlink:href="#DejaVuSans-69"/>
      <use x="320.117188" xlink:href="#DejaVuSans-61"/>
      <use x="381.396484" xlink:href="#DejaVuSans-6e"/>
      <use x="444.775391" xlink:href="#DejaVuSans-2c"/>
      <use x="476.5625" xlink:href="#DejaVuSans-20"/>
      <use x="508.349609" xlink:href="#DejaVuSans-31"/>
      <use x="571.972656" xlink:href="#DejaVuSans-2e"/>
      <use x="603.759766" xlink:href="#DejaVuSans-30"/>
      <use x="667.382812" xlink:href="#DejaVuSans-65"/>
      <use x="728.90625" xlink:href="#DejaVuSans-2d"/>
      <use x="764.990234" xlink:href="#DejaVuSans-30"/>
      <use x="828.613281" xlink:href="#DejaVuSans-31"/>
     </g>
    </g>
    <g id="line2d_28">
     <path d="M 399.519375 50.094688 
L 419.519375 50.094688 
" style="fill:none;stroke:#de8f05;stroke-linecap:round;stroke-width:1.5;"/>
    </g>
    <g id="line2d_29"/>
    <g id="text_16">
     <!-- gaussian, 1.0e-02 -->
     <g style="fill:#262626;" transform="translate(427.519375 53.594688)scale(0.1 -0.1)">
      <use xlink:href="#DejaVuSans-67"/>
      <use x="63.476562" xlink:href="#DejaVuSans-61"/>
      <use x="124.755859" xlink:href="#DejaVuSans-75"/>
      <use x="188.134766" xlink:href="#DejaVuSans-73"/>
      <use x="240.234375" xlink:href="#DejaVuSans-73"/>
      <use x="292.333984" xlink:href="#DejaVuSans-69"/>
      <use x="320.117188" xlink:href="#DejaVuSans-61"/>
      <use x="381.396484" xlink:href="#DejaVuSans-6e"/>
      <use x="444.775391" xlink:href="#DejaVuSans-2c"/>
      <use x="476.5625" xlink:href="#DejaVuSans-20"/>
      <use x="508.349609" xlink:href="#DejaVuSans-31"/>
      <use x="571.972656" xlink:href="#DejaVuSans-2e"/>
      <use x="603.759766" xlink:href="#DejaVuSans-30"/>
      <use x="667.382812" xlink:href="#DejaVuSans-65"/>
      <use x="728.90625" xlink:href="#DejaVuSans-2d"/>
      <use x="764.990234" xlink:href="#DejaVuSans-30"/>
      <use x="828.613281" xlink:href="#DejaVuSans-32"/>
     </g>
    </g>
    <g id="line2d_30">
     <path d="M 399.519375 64.772813 
L 419.519375 64.772813 
" style="fill:none;stroke:#029e73;stroke-linecap:round;stroke-width:1.5;"/>
    </g>
    <g id="line2d_31"/>
    <g id="text_17">
     <!-- gaussian, 1.0e-03 -->
     <g style="fill:#262626;" transform="translate(427.519375 68.272813)scale(0.1 -0.1)">
      <defs>
       <path d="M 2597 2516 
Q 3050 2419 3304 2112 
Q 3559 1806 3559 1356 
Q 3559 666 3084 287 
Q 2609 -91 1734 -91 
Q 1441 -91 1130 -33 
Q 819 25 488 141 
L 488 750 
Q 750 597 1062 519 
Q 1375 441 1716 441 
Q 2309 441 2620 675 
Q 2931 909 2931 1356 
Q 2931 1769 2642 2001 
Q 2353 2234 1838 2234 
L 1294 2234 
L 1294 2753 
L 1863 2753 
Q 2328 2753 2575 2939 
Q 2822 3125 2822 3475 
Q 2822 3834 2567 4026 
Q 2313 4219 1838 4219 
Q 1578 4219 1281 4162 
Q 984 4106 628 3988 
L 628 4550 
Q 988 4650 1302 4700 
Q 1616 4750 1894 4750 
Q 2613 4750 3031 4423 
Q 3450 4097 3450 3541 
Q 3450 3153 3228 2886 
Q 3006 2619 2597 2516 
z
" id="DejaVuSans-33" transform="scale(0.015625)"/>
      </defs>
      <use xlink:href="#DejaVuSans-67"/>
      <use x="63.476562" xlink:href="#DejaVuSans-61"/>
      <use x="124.755859" xlink:href="#DejaVuSans-75"/>
      <use x="188.134766" xlink:href="#DejaVuSans-73"/>
      <use x="240.234375" xlink:href="#DejaVuSans-73"/>
      <use x="292.333984" xlink:href="#DejaVuSans-69"/>
      <use x="320.117188" xlink:href="#DejaVuSans-61"/>
      <use x="381.396484" xlink:href="#DejaVuSans-6e"/>
      <use x="444.775391" xlink:href="#DejaVuSans-2c"/>
      <use x="476.5625" xlink:href="#DejaVuSans-20"/>
      <use x="508.349609" xlink:href="#DejaVuSans-31"/>
      <use x="571.972656" xlink:href="#DejaVuSans-2e"/>
      <use x="603.759766" xlink:href="#DejaVuSans-30"/>
      <use x="667.382812" xlink:href="#DejaVuSans-65"/>
      <use x="728.90625" xlink:href="#DejaVuSans-2d"/>
      <use x="764.990234" xlink:href="#DejaVuSans-30"/>
      <use x="828.613281" xlink:href="#DejaVuSans-33"/>
     </g>
    </g>
   </g>
  </g>
 </g>
 <defs>
  <clipPath id="pa4039fb312">
   <rect height="217.44" width="334.8" x="40.28125" y="22.318125"/>
  </clipPath>
 </defs>
</svg>
