<?xml version="1.0" encoding="utf-8" standalone="no"?>
<!DOCTYPE svg PUBLIC "-//W3C//DTD SVG 1.1//EN"
  "http://www.w3.org/Graphics/SVG/1.1/DTD/svg11.dtd">
<svg height="273.814375pt" version="1.1" viewBox="0 0 527.94125 273.814375" width="527.94125pt" xmlns="http://www.w3.org/2000/svg" xmlns:xlink="http://www.w3.org/1999/xlink">
 <metadata>
  <rdf:RDF xmlns:cc="http://creativecommons.org/ns#" xmlns:dc="http://purl.org/dc/elements/1.1/" xmlns:rdf="http://www.w3.org/1999/02/22-rdf-syntax-ns#">
   <cc:Work>
    <dc:type rdf:resource="http://purl.org/dc/dcmitype/StillImage"/>
    <dc:date>2023-06-14T16:53:57.091762</dc:date>
    <dc:format>image/svg+xml</dc:format>
    <dc:creator>
     <cc:Agent>
      <dc:title>Matplotlib v3.4.3, https://matplotlib.org/</dc:title>
     </cc:Agent>
    </dc:creator>
   </cc:Work>
  </rdf:RDF>
 </metadata>
 <defs>
  <style type="text/css">*{stroke-linecap:butt;stroke-linejoin:round;}</style>
 </defs>
 <g id="figure_1">
  <g id="patch_1">
   <path d="M 0 273.814375 
L 527.94125 273.814375 
L 527.94125 0 
L 0 0 
z
" style="fill:#ffffff;"/>
  </g>
  <g id="axes_1">
   <g id="patch_2">
    <path d="M 40.28125 239.758125 
L 375.08125 239.758125 
L 375.08125 22.318125 
L 40.28125 22.318125 
z
" style="fill:#eaeaf2;"/>
   </g>
   <g id="matplotlib.axis_1">
    <g id="xtick_1">
     <g id="line2d_1">
      <path clip-path="url(#pd0e76e15e3)" d="M 55.499432 239.758125 
L 55.499432 22.318125 
" style="fill:none;stroke:#ffffff;stroke-linecap:round;stroke-width:0.8;"/>
     </g>
     <g id="line2d_2"/>
     <g id="text_1">
      <!-- 0 -->
      <g style="fill:#262626;" transform="translate(52.318182 250.856563)scale(0.1 -0.1)">
       <defs>
        <path d="M 2034 4250 
Q 1547 4250 1301 3770 
Q 1056 3291 1056 2328 
Q 1056 1369 1301 889 
Q 1547 409 2034 409 
Q 2525 409 2770 889 
Q 3016 1369 3016 2328 
Q 3016 3291 2770 3770 
Q 2525 4250 2034 4250 
z
M 2034 4750 
Q 2819 4750 3233 4129 
Q 3647 3509 3647 2328 
Q 3647 1150 3233 529 
Q 2819 -91 2034 -91 
Q 1250 -91 836 529 
Q 422 1150 422 2328 
Q 422 3509 836 4129 
Q 1250 4750 2034 4750 
z
" id="DejaVuSans-30" transform="scale(0.015625)"/>
       </defs>
       <use xlink:href="#DejaVuSans-30"/>
      </g>
     </g>
    </g>
    <g id="xtick_2">
     <g id="line2d_3">
      <path clip-path="url(#pd0e76e15e3)" d="M 116.987035 239.758125 
L 116.987035 22.318125 
" style="fill:none;stroke:#ffffff;stroke-linecap:round;stroke-width:0.8;"/>
     </g>
     <g id="line2d_4"/>
     <g id="text_2">
      <!-- 20 -->
      <g style="fill:#262626;" transform="translate(110.624535 250.856563)scale(0.1 -0.1)">
       <defs>
        <path d="M 1228 531 
L 3431 531 
L 3431 0 
L 469 0 
L 469 531 
Q 828 903 1448 1529 
Q 2069 2156 2228 2338 
Q 2531 2678 2651 2914 
Q 2772 3150 2772 3378 
Q 2772 3750 2511 3984 
Q 2250 4219 1831 4219 
Q 1534 4219 1204 4116 
Q 875 4013 500 3803 
L 500 4441 
Q 881 4594 1212 4672 
Q 1544 4750 1819 4750 
Q 2544 4750 2975 4387 
Q 3406 4025 3406 3419 
Q 3406 3131 3298 2873 
Q 3191 2616 2906 2266 
Q 2828 2175 2409 1742 
Q 1991 1309 1228 531 
z
" id="DejaVuSans-32" transform="scale(0.015625)"/>
       </defs>
       <use xlink:href="#DejaVuSans-32"/>
       <use x="63.623047" xlink:href="#DejaVuSans-30"/>
      </g>
     </g>
    </g>
    <g id="xtick_3">
     <g id="line2d_5">
      <path clip-path="url(#pd0e76e15e3)" d="M 178.474638 239.758125 
L 178.474638 22.318125 
" style="fill:none;stroke:#ffffff;stroke-linecap:round;stroke-width:0.8;"/>
     </g>
     <g id="line2d_6"/>
     <g id="text_3">
      <!-- 40 -->
      <g style="fill:#262626;" transform="translate(172.112138 250.856563)scale(0.1 -0.1)">
       <defs>
        <path d="M 2419 4116 
L 825 1625 
L 2419 1625 
L 2419 4116 
z
M 2253 4666 
L 3047 4666 
L 3047 1625 
L 3713 1625 
L 3713 1100 
L 3047 1100 
L 3047 0 
L 2419 0 
L 2419 1100 
L 313 1100 
L 313 1709 
L 2253 4666 
z
" id="DejaVuSans-34" transform="scale(0.015625)"/>
       </defs>
       <use xlink:href="#DejaVuSans-34"/>
       <use x="63.623047" xlink:href="#DejaVuSans-30"/>
      </g>
     </g>
    </g>
    <g id="xtick_4">
     <g id="line2d_7">
      <path clip-path="url(#pd0e76e15e3)" d="M 239.962242 239.758125 
L 239.962242 22.318125 
" style="fill:none;stroke:#ffffff;stroke-linecap:round;stroke-width:0.8;"/>
     </g>
     <g id="line2d_8"/>
     <g id="text_4">
      <!-- 60 -->
      <g style="fill:#262626;" transform="translate(233.599742 250.856563)scale(0.1 -0.1)">
       <defs>
        <path d="M 2113 2584 
Q 1688 2584 1439 2293 
Q 1191 2003 1191 1497 
Q 1191 994 1439 701 
Q 1688 409 2113 409 
Q 2538 409 2786 701 
Q 3034 994 3034 1497 
Q 3034 2003 2786 2293 
Q 2538 2584 2113 2584 
z
M 3366 4563 
L 3366 3988 
Q 3128 4100 2886 4159 
Q 2644 4219 2406 4219 
Q 1781 4219 1451 3797 
Q 1122 3375 1075 2522 
Q 1259 2794 1537 2939 
Q 1816 3084 2150 3084 
Q 2853 3084 3261 2657 
Q 3669 2231 3669 1497 
Q 3669 778 3244 343 
Q 2819 -91 2113 -91 
Q 1303 -91 875 529 
Q 447 1150 447 2328 
Q 447 3434 972 4092 
Q 1497 4750 2381 4750 
Q 2619 4750 2861 4703 
Q 3103 4656 3366 4563 
z
" id="DejaVuSans-36" transform="scale(0.015625)"/>
       </defs>
       <use xlink:href="#DejaVuSans-36"/>
       <use x="63.623047" xlink:href="#DejaVuSans-30"/>
      </g>
     </g>
    </g>
    <g id="xtick_5">
     <g id="line2d_9">
      <path clip-path="url(#pd0e76e15e3)" d="M 301.449845 239.758125 
L 301.449845 22.318125 
" style="fill:none;stroke:#ffffff;stroke-linecap:round;stroke-width:0.8;"/>
     </g>
     <g id="line2d_10"/>
     <g id="text_5">
      <!-- 80 -->
      <g style="fill:#262626;" transform="translate(295.087345 250.856563)scale(0.1 -0.1)">
       <defs>
        <path d="M 2034 2216 
Q 1584 2216 1326 1975 
Q 1069 1734 1069 1313 
Q 1069 891 1326 650 
Q 1584 409 2034 409 
Q 2484 409 2743 651 
Q 3003 894 3003 1313 
Q 3003 1734 2745 1975 
Q 2488 2216 2034 2216 
z
M 1403 2484 
Q 997 2584 770 2862 
Q 544 3141 544 3541 
Q 544 4100 942 4425 
Q 1341 4750 2034 4750 
Q 2731 4750 3128 4425 
Q 3525 4100 3525 3541 
Q 3525 3141 3298 2862 
Q 3072 2584 2669 2484 
Q 3125 2378 3379 2068 
Q 3634 1759 3634 1313 
Q 3634 634 3220 271 
Q 2806 -91 2034 -91 
Q 1263 -91 848 271 
Q 434 634 434 1313 
Q 434 1759 690 2068 
Q 947 2378 1403 2484 
z
M 1172 3481 
Q 1172 3119 1398 2916 
Q 1625 2713 2034 2713 
Q 2441 2713 2670 2916 
Q 2900 3119 2900 3481 
Q 2900 3844 2670 4047 
Q 2441 4250 2034 4250 
Q 1625 4250 1398 4047 
Q 1172 3844 1172 3481 
z
" id="DejaVuSans-38" transform="scale(0.015625)"/>
       </defs>
       <use xlink:href="#DejaVuSans-38"/>
       <use x="63.623047" xlink:href="#DejaVuSans-30"/>
      </g>
     </g>
    </g>
    <g id="xtick_6">
     <g id="line2d_11">
      <path clip-path="url(#pd0e76e15e3)" d="M 362.937448 239.758125 
L 362.937448 22.318125 
" style="fill:none;stroke:#ffffff;stroke-linecap:round;stroke-width:0.8;"/>
     </g>
     <g id="line2d_12"/>
     <g id="text_6">
      <!-- 100 -->
      <g style="fill:#262626;" transform="translate(353.393698 250.856563)scale(0.1 -0.1)">
       <defs>
        <path d="M 794 531 
L 1825 531 
L 1825 4091 
L 703 3866 
L 703 4441 
L 1819 4666 
L 2450 4666 
L 2450 531 
L 3481 531 
L 3481 0 
L 794 0 
L 794 531 
z
" id="DejaVuSans-31" transform="scale(0.015625)"/>
       </defs>
       <use xlink:href="#DejaVuSans-31"/>
       <use x="63.623047" xlink:href="#DejaVuSans-30"/>
       <use x="127.246094" xlink:href="#DejaVuSans-30"/>
      </g>
     </g>
    </g>
    <g id="text_7">
     <!-- Training Round -->
     <g style="fill:#262626;" transform="translate(170.546094 264.534688)scale(0.1 -0.1)">
      <defs>
       <path d="M -19 4666 
L 3928 4666 
L 3928 4134 
L 2272 4134 
L 2272 0 
L 1638 0 
L 1638 4134 
L -19 4134 
L -19 4666 
z
" id="DejaVuSans-54" transform="scale(0.015625)"/>
       <path d="M 2631 2963 
Q 2534 3019 2420 3045 
Q 2306 3072 2169 3072 
Q 1681 3072 1420 2755 
Q 1159 2438 1159 1844 
L 1159 0 
L 581 0 
L 581 3500 
L 1159 3500 
L 1159 2956 
Q 1341 3275 1631 3429 
Q 1922 3584 2338 3584 
Q 2397 3584 2469 3576 
Q 2541 3569 2628 3553 
L 2631 2963 
z
" id="DejaVuSans-72" transform="scale(0.015625)"/>
       <path d="M 2194 1759 
Q 1497 1759 1228 1600 
Q 959 1441 959 1056 
Q 959 750 1161 570 
Q 1363 391 1709 391 
Q 2188 391 2477 730 
Q 2766 1069 2766 1631 
L 2766 1759 
L 2194 1759 
z
M 3341 1997 
L 3341 0 
L 2766 0 
L 2766 531 
Q 2569 213 2275 61 
Q 1981 -91 1556 -91 
Q 1019 -91 701 211 
Q 384 513 384 1019 
Q 384 1609 779 1909 
Q 1175 2209 1959 2209 
L 2766 2209 
L 2766 2266 
Q 2766 2663 2505 2880 
Q 2244 3097 1772 3097 
Q 1472 3097 1187 3025 
Q 903 2953 641 2809 
L 641 3341 
Q 956 3463 1253 3523 
Q 1550 3584 1831 3584 
Q 2591 3584 2966 3190 
Q 3341 2797 3341 1997 
z
" id="DejaVuSans-61" transform="scale(0.015625)"/>
       <path d="M 603 3500 
L 1178 3500 
L 1178 0 
L 603 0 
L 603 3500 
z
M 603 4863 
L 1178 4863 
L 1178 4134 
L 603 4134 
L 603 4863 
z
" id="DejaVuSans-69" transform="scale(0.015625)"/>
       <path d="M 3513 2113 
L 3513 0 
L 2938 0 
L 2938 2094 
Q 2938 2591 2744 2837 
Q 2550 3084 2163 3084 
Q 1697 3084 1428 2787 
Q 1159 2491 1159 1978 
L 1159 0 
L 581 0 
L 581 3500 
L 1159 3500 
L 1159 2956 
Q 1366 3272 1645 3428 
Q 1925 3584 2291 3584 
Q 2894 3584 3203 3211 
Q 3513 2838 3513 2113 
z
" id="DejaVuSans-6e" transform="scale(0.015625)"/>
       <path d="M 2906 1791 
Q 2906 2416 2648 2759 
Q 2391 3103 1925 3103 
Q 1463 3103 1205 2759 
Q 947 2416 947 1791 
Q 947 1169 1205 825 
Q 1463 481 1925 481 
Q 2391 481 2648 825 
Q 2906 1169 2906 1791 
z
M 3481 434 
Q 3481 -459 3084 -895 
Q 2688 -1331 1869 -1331 
Q 1566 -1331 1297 -1286 
Q 1028 -1241 775 -1147 
L 775 -588 
Q 1028 -725 1275 -790 
Q 1522 -856 1778 -856 
Q 2344 -856 2625 -561 
Q 2906 -266 2906 331 
L 2906 616 
Q 2728 306 2450 153 
Q 2172 0 1784 0 
Q 1141 0 747 490 
Q 353 981 353 1791 
Q 353 2603 747 3093 
Q 1141 3584 1784 3584 
Q 2172 3584 2450 3431 
Q 2728 3278 2906 2969 
L 2906 3500 
L 3481 3500 
L 3481 434 
z
" id="DejaVuSans-67" transform="scale(0.015625)"/>
       <path id="DejaVuSans-20" transform="scale(0.015625)"/>
       <path d="M 2841 2188 
Q 3044 2119 3236 1894 
Q 3428 1669 3622 1275 
L 4263 0 
L 3584 0 
L 2988 1197 
Q 2756 1666 2539 1819 
Q 2322 1972 1947 1972 
L 1259 1972 
L 1259 0 
L 628 0 
L 628 4666 
L 2053 4666 
Q 2853 4666 3247 4331 
Q 3641 3997 3641 3322 
Q 3641 2881 3436 2590 
Q 3231 2300 2841 2188 
z
M 1259 4147 
L 1259 2491 
L 2053 2491 
Q 2509 2491 2742 2702 
Q 2975 2913 2975 3322 
Q 2975 3731 2742 3939 
Q 2509 4147 2053 4147 
L 1259 4147 
z
" id="DejaVuSans-52" transform="scale(0.015625)"/>
       <path d="M 1959 3097 
Q 1497 3097 1228 2736 
Q 959 2375 959 1747 
Q 959 1119 1226 758 
Q 1494 397 1959 397 
Q 2419 397 2687 759 
Q 2956 1122 2956 1747 
Q 2956 2369 2687 2733 
Q 2419 3097 1959 3097 
z
M 1959 3584 
Q 2709 3584 3137 3096 
Q 3566 2609 3566 1747 
Q 3566 888 3137 398 
Q 2709 -91 1959 -91 
Q 1206 -91 779 398 
Q 353 888 353 1747 
Q 353 2609 779 3096 
Q 1206 3584 1959 3584 
z
" id="DejaVuSans-6f" transform="scale(0.015625)"/>
       <path d="M 544 1381 
L 544 3500 
L 1119 3500 
L 1119 1403 
Q 1119 906 1312 657 
Q 1506 409 1894 409 
Q 2359 409 2629 706 
Q 2900 1003 2900 1516 
L 2900 3500 
L 3475 3500 
L 3475 0 
L 2900 0 
L 2900 538 
Q 2691 219 2414 64 
Q 2138 -91 1772 -91 
Q 1169 -91 856 284 
Q 544 659 544 1381 
z
M 1991 3584 
L 1991 3584 
z
" id="DejaVuSans-75" transform="scale(0.015625)"/>
       <path d="M 2906 2969 
L 2906 4863 
L 3481 4863 
L 3481 0 
L 2906 0 
L 2906 525 
Q 2725 213 2448 61 
Q 2172 -91 1784 -91 
Q 1150 -91 751 415 
Q 353 922 353 1747 
Q 353 2572 751 3078 
Q 1150 3584 1784 3584 
Q 2172 3584 2448 3432 
Q 2725 3281 2906 2969 
z
M 947 1747 
Q 947 1113 1208 752 
Q 1469 391 1925 391 
Q 2381 391 2643 752 
Q 2906 1113 2906 1747 
Q 2906 2381 2643 2742 
Q 2381 3103 1925 3103 
Q 1469 3103 1208 2742 
Q 947 2381 947 1747 
z
" id="DejaVuSans-64" transform="scale(0.015625)"/>
      </defs>
      <use xlink:href="#DejaVuSans-54"/>
      <use x="46.333984" xlink:href="#DejaVuSans-72"/>
      <use x="87.447266" xlink:href="#DejaVuSans-61"/>
      <use x="148.726562" xlink:href="#DejaVuSans-69"/>
      <use x="176.509766" xlink:href="#DejaVuSans-6e"/>
      <use x="239.888672" xlink:href="#DejaVuSans-69"/>
      <use x="267.671875" xlink:href="#DejaVuSans-6e"/>
      <use x="331.050781" xlink:href="#DejaVuSans-67"/>
      <use x="394.527344" xlink:href="#DejaVuSans-20"/>
      <use x="426.314453" xlink:href="#DejaVuSans-52"/>
      <use x="491.296875" xlink:href="#DejaVuSans-6f"/>
      <use x="552.478516" xlink:href="#DejaVuSans-75"/>
      <use x="615.857422" xlink:href="#DejaVuSans-6e"/>
      <use x="679.236328" xlink:href="#DejaVuSans-64"/>
     </g>
    </g>
   </g>
   <g id="matplotlib.axis_2">
    <g id="ytick_1">
     <g id="line2d_13">
      <path clip-path="url(#pd0e76e15e3)" d="M 40.28125 229.962597 
L 375.08125 229.962597 
" style="fill:none;stroke:#ffffff;stroke-linecap:round;stroke-width:0.8;"/>
     </g>
     <g id="line2d_14"/>
     <g id="text_8">
      <!-- 0.0 -->
      <g style="fill:#262626;" transform="translate(20.878125 233.761815)scale(0.1 -0.1)">
       <defs>
        <path d="M 684 794 
L 1344 794 
L 1344 0 
L 684 0 
L 684 794 
z
" id="DejaVuSans-2e" transform="scale(0.015625)"/>
       </defs>
       <use xlink:href="#DejaVuSans-30"/>
       <use x="63.623047" xlink:href="#DejaVuSans-2e"/>
       <use x="95.410156" xlink:href="#DejaVuSans-30"/>
      </g>
     </g>
    </g>
    <g id="ytick_2">
     <g id="line2d_15">
      <path clip-path="url(#pd0e76e15e3)" d="M 40.28125 183.521016 
L 375.08125 183.521016 
" style="fill:none;stroke:#ffffff;stroke-linecap:round;stroke-width:0.8;"/>
     </g>
     <g id="line2d_16"/>
     <g id="text_9">
      <!-- 0.2 -->
      <g style="fill:#262626;" transform="translate(20.878125 187.320234)scale(0.1 -0.1)">
       <use xlink:href="#DejaVuSans-30"/>
       <use x="63.623047" xlink:href="#DejaVuSans-2e"/>
       <use x="95.410156" xlink:href="#DejaVuSans-32"/>
      </g>
     </g>
    </g>
    <g id="ytick_3">
     <g id="line2d_17">
      <path clip-path="url(#pd0e76e15e3)" d="M 40.28125 137.079435 
L 375.08125 137.079435 
" style="fill:none;stroke:#ffffff;stroke-linecap:round;stroke-width:0.8;"/>
     </g>
     <g id="line2d_18"/>
     <g id="text_10">
      <!-- 0.4 -->
      <g style="fill:#262626;" transform="translate(20.878125 140.878654)scale(0.1 -0.1)">
       <use xlink:href="#DejaVuSans-30"/>
       <use x="63.623047" xlink:href="#DejaVuSans-2e"/>
       <use x="95.410156" xlink:href="#DejaVuSans-34"/>
      </g>
     </g>
    </g>
    <g id="ytick_4">
     <g id="line2d_19">
      <path clip-path="url(#pd0e76e15e3)" d="M 40.28125 90.637854 
L 375.08125 90.637854 
" style="fill:none;stroke:#ffffff;stroke-linecap:round;stroke-width:0.8;"/>
     </g>
     <g id="line2d_20"/>
     <g id="text_11">
      <!-- 0.6 -->
      <g style="fill:#262626;" transform="translate(20.878125 94.437073)scale(0.1 -0.1)">
       <use xlink:href="#DejaVuSans-30"/>
       <use x="63.623047" xlink:href="#DejaVuSans-2e"/>
       <use x="95.410156" xlink:href="#DejaVuSans-36"/>
      </g>
     </g>
    </g>
    <g id="ytick_5">
     <g id="line2d_21">
      <path clip-path="url(#pd0e76e15e3)" d="M 40.28125 44.196273 
L 375.08125 44.196273 
" style="fill:none;stroke:#ffffff;stroke-linecap:round;stroke-width:0.8;"/>
     </g>
     <g id="line2d_22"/>
     <g id="text_12">
      <!-- 0.8 -->
      <g style="fill:#262626;" transform="translate(20.878125 47.995492)scale(0.1 -0.1)">
       <use xlink:href="#DejaVuSans-30"/>
       <use x="63.623047" xlink:href="#DejaVuSans-2e"/>
       <use x="95.410156" xlink:href="#DejaVuSans-38"/>
      </g>
     </g>
    </g>
    <g id="text_13">
     <!-- Global Model Accuracy -->
     <g style="fill:#262626;" transform="translate(14.798438 188.007656)rotate(-90)scale(0.1 -0.1)">
      <defs>
       <path d="M 3809 666 
L 3809 1919 
L 2778 1919 
L 2778 2438 
L 4434 2438 
L 4434 434 
Q 4069 175 3628 42 
Q 3188 -91 2688 -91 
Q 1594 -91 976 548 
Q 359 1188 359 2328 
Q 359 3472 976 4111 
Q 1594 4750 2688 4750 
Q 3144 4750 3555 4637 
Q 3966 4525 4313 4306 
L 4313 3634 
Q 3963 3931 3569 4081 
Q 3175 4231 2741 4231 
Q 1884 4231 1454 3753 
Q 1025 3275 1025 2328 
Q 1025 1384 1454 906 
Q 1884 428 2741 428 
Q 3075 428 3337 486 
Q 3600 544 3809 666 
z
" id="DejaVuSans-47" transform="scale(0.015625)"/>
       <path d="M 603 4863 
L 1178 4863 
L 1178 0 
L 603 0 
L 603 4863 
z
" id="DejaVuSans-6c" transform="scale(0.015625)"/>
       <path d="M 3116 1747 
Q 3116 2381 2855 2742 
Q 2594 3103 2138 3103 
Q 1681 3103 1420 2742 
Q 1159 2381 1159 1747 
Q 1159 1113 1420 752 
Q 1681 391 2138 391 
Q 2594 391 2855 752 
Q 3116 1113 3116 1747 
z
M 1159 2969 
Q 1341 3281 1617 3432 
Q 1894 3584 2278 3584 
Q 2916 3584 3314 3078 
Q 3713 2572 3713 1747 
Q 3713 922 3314 415 
Q 2916 -91 2278 -91 
Q 1894 -91 1617 61 
Q 1341 213 1159 525 
L 1159 0 
L 581 0 
L 581 4863 
L 1159 4863 
L 1159 2969 
z
" id="DejaVuSans-62" transform="scale(0.015625)"/>
       <path d="M 628 4666 
L 1569 4666 
L 2759 1491 
L 3956 4666 
L 4897 4666 
L 4897 0 
L 4281 0 
L 4281 4097 
L 3078 897 
L 2444 897 
L 1241 4097 
L 1241 0 
L 628 0 
L 628 4666 
z
" id="DejaVuSans-4d" transform="scale(0.015625)"/>
       <path d="M 3597 1894 
L 3597 1613 
L 953 1613 
Q 991 1019 1311 708 
Q 1631 397 2203 397 
Q 2534 397 2845 478 
Q 3156 559 3463 722 
L 3463 178 
Q 3153 47 2828 -22 
Q 2503 -91 2169 -91 
Q 1331 -91 842 396 
Q 353 884 353 1716 
Q 353 2575 817 3079 
Q 1281 3584 2069 3584 
Q 2775 3584 3186 3129 
Q 3597 2675 3597 1894 
z
M 3022 2063 
Q 3016 2534 2758 2815 
Q 2500 3097 2075 3097 
Q 1594 3097 1305 2825 
Q 1016 2553 972 2059 
L 3022 2063 
z
" id="DejaVuSans-65" transform="scale(0.015625)"/>
       <path d="M 2188 4044 
L 1331 1722 
L 3047 1722 
L 2188 4044 
z
M 1831 4666 
L 2547 4666 
L 4325 0 
L 3669 0 
L 3244 1197 
L 1141 1197 
L 716 0 
L 50 0 
L 1831 4666 
z
" id="DejaVuSans-41" transform="scale(0.015625)"/>
       <path d="M 3122 3366 
L 3122 2828 
Q 2878 2963 2633 3030 
Q 2388 3097 2138 3097 
Q 1578 3097 1268 2742 
Q 959 2388 959 1747 
Q 959 1106 1268 751 
Q 1578 397 2138 397 
Q 2388 397 2633 464 
Q 2878 531 3122 666 
L 3122 134 
Q 2881 22 2623 -34 
Q 2366 -91 2075 -91 
Q 1284 -91 818 406 
Q 353 903 353 1747 
Q 353 2603 823 3093 
Q 1294 3584 2113 3584 
Q 2378 3584 2631 3529 
Q 2884 3475 3122 3366 
z
" id="DejaVuSans-63" transform="scale(0.015625)"/>
       <path d="M 2059 -325 
Q 1816 -950 1584 -1140 
Q 1353 -1331 966 -1331 
L 506 -1331 
L 506 -850 
L 844 -850 
Q 1081 -850 1212 -737 
Q 1344 -625 1503 -206 
L 1606 56 
L 191 3500 
L 800 3500 
L 1894 763 
L 2988 3500 
L 3597 3500 
L 2059 -325 
z
" id="DejaVuSans-79" transform="scale(0.015625)"/>
      </defs>
      <use xlink:href="#DejaVuSans-47"/>
      <use x="77.490234" xlink:href="#DejaVuSans-6c"/>
      <use x="105.273438" xlink:href="#DejaVuSans-6f"/>
      <use x="166.455078" xlink:href="#DejaVuSans-62"/>
      <use x="229.931641" xlink:href="#DejaVuSans-61"/>
      <use x="291.210938" xlink:href="#DejaVuSans-6c"/>
      <use x="318.994141" xlink:href="#DejaVuSans-20"/>
      <use x="350.78125" xlink:href="#DejaVuSans-4d"/>
      <use x="437.060547" xlink:href="#DejaVuSans-6f"/>
      <use x="498.242188" xlink:href="#DejaVuSans-64"/>
      <use x="561.71875" xlink:href="#DejaVuSans-65"/>
      <use x="623.242188" xlink:href="#DejaVuSans-6c"/>
      <use x="651.025391" xlink:href="#DejaVuSans-20"/>
      <use x="682.8125" xlink:href="#DejaVuSans-41"/>
      <use x="749.470703" xlink:href="#DejaVuSans-63"/>
      <use x="804.451172" xlink:href="#DejaVuSans-63"/>
      <use x="859.431641" xlink:href="#DejaVuSans-75"/>
      <use x="922.810547" xlink:href="#DejaVuSans-72"/>
      <use x="963.923828" xlink:href="#DejaVuSans-61"/>
      <use x="1025.203125" xlink:href="#DejaVuSans-63"/>
      <use x="1080.183594" xlink:href="#DejaVuSans-79"/>
     </g>
    </g>
   </g>
   <g id="PolyCollection_1">
    <defs>
     <path d="M 55.499432 -45.934814 
L 55.499432 -43.939886 
L 58.573812 -50.300589 
L 61.648192 -56.654862 
L 64.722572 -54.611445 
L 67.796952 -54.660571 
L 70.871333 -59.059056 
L 73.945713 -57.702956 
L 77.020093 -73.113728 
L 80.094473 -73.151085 
L 83.168853 -71.654741 
L 86.243233 -70.890542 
L 89.317614 -70.911823 
L 92.391994 -74.50398 
L 95.466374 -76.003759 
L 98.540754 -73.661884 
L 101.615134 -71.496043 
L 104.689514 -77.37619 
L 107.763895 -73.984456 
L 110.838275 -78.551427 
L 113.912655 -86.629825 
L 116.987035 -87.408483 
L 120.061415 -87.85327 
L 123.135795 -93.403521 
L 126.210176 -91.176747 
L 129.284556 -85.729913 
L 132.358936 -87.556487 
L 135.433316 -89.218637 
L 138.507696 -86.194218 
L 141.582076 -84.588511 
L 144.656457 -85.577936 
L 147.730837 -86.774323 
L 150.805217 -87.813302 
L 153.879597 -90.842431 
L 156.953977 -94.688801 
L 160.028357 -90.688165 
L 163.102738 -94.83565 
L 166.177118 -95.157084 
L 169.251498 -98.231627 
L 172.325878 -97.855334 
L 175.400258 -100.865378 
L 178.474638 -102.457225 
L 181.549019 -85.630997 
L 184.623399 -84.270198 
L 187.697779 -88.801593 
L 190.772159 -98.976015 
L 193.846539 -91.328567 
L 196.920919 -100.494034 
L 199.9953 -100.086914 
L 203.06968 -88.445189 
L 206.14406 -85.394518 
L 209.21844 -92.275712 
L 212.29282 -83.270827 
L 215.3672 -88.180403 
L 218.441581 -90.181615 
L 221.515961 -85.46801 
L 224.590341 -83.40332 
L 227.664721 -82.135874 
L 230.739101 -82.384272 
L 233.813481 -81.206276 
L 236.887862 -81.379932 
L 239.962242 -72.495589 
L 243.036622 -70.565099 
L 246.111002 -85.433907 
L 249.185382 -85.328474 
L 252.259762 -84.998455 
L 255.334143 -84.379769 
L 258.408523 -88.347688 
L 261.482903 -84.638475 
L 264.557283 -85.46424 
L 267.631663 -85.506951 
L 270.706043 -82.982804 
L 273.780424 -83.640913 
L 276.854804 -81.039862 
L 279.929184 -81.796974 
L 283.003564 -81.164097 
L 286.077944 -83.377631 
L 289.152324 -83.666609 
L 292.226705 -71.171591 
L 295.301085 -72.848014 
L 298.375465 -73.543256 
L 301.449845 -73.081162 
L 304.524225 -70.707873 
L 307.598605 -67.551609 
L 310.672986 -73.495682 
L 313.747366 -74.351037 
L 316.821746 -76.006877 
L 319.896126 -75.245304 
L 322.970506 -76.365952 
L 326.044886 -70.375307 
L 329.119267 -68.249705 
L 332.193647 -67.195857 
L 335.268027 -67.203707 
L 338.342407 -64.361589 
L 341.416787 -66.044979 
L 344.491167 -64.559601 
L 347.565548 -71.478699 
L 350.639928 -69.54077 
L 353.714308 -69.89169 
L 356.788688 -69.050755 
L 359.863068 -66.129232 
L 359.863068 -119.769242 
L 359.863068 -119.769242 
L 356.788688 -122.507787 
L 353.714308 -124.929373 
L 350.639928 -125.309319 
L 347.565548 -125.072313 
L 344.491167 -111.220414 
L 341.416787 -113.496804 
L 338.342407 -113.276089 
L 335.268027 -113.307544 
L 332.193647 -113.739173 
L 329.119267 -124.046097 
L 326.044886 -124.689574 
L 322.970506 -129.955207 
L 319.896126 -140.573159 
L 316.821746 -139.631625 
L 313.747366 -145.519454 
L 310.672986 -144.981561 
L 307.598605 -124.041764 
L 304.524225 -129.546855 
L 301.449845 -146.986705 
L 298.375465 -145.415818 
L 295.301085 -144.247592 
L 292.226705 -145.401548 
L 289.152324 -157.143229 
L 286.077944 -155.29009 
L 283.003564 -153.637362 
L 279.929184 -153.114784 
L 276.854804 -154.551104 
L 273.780424 -152.321585 
L 270.706043 -152.834565 
L 267.631663 -151.883626 
L 264.557283 -153.029325 
L 261.482903 -153.367453 
L 258.408523 -151.521708 
L 255.334143 -152.964367 
L 252.259762 -154.243981 
L 249.185382 -158.00082 
L 246.111002 -156.298958 
L 243.036622 -149.200899 
L 239.962242 -148.472084 
L 236.887862 -152.986137 
L 233.813481 -152.794065 
L 230.739101 -155.801617 
L 227.664721 -156.78147 
L 224.590341 -154.114971 
L 221.515961 -149.92558 
L 218.441581 -151.97503 
L 215.3672 -160.628998 
L 212.29282 -157.626089 
L 209.21844 -154.246441 
L 206.14406 -144.460913 
L 203.06968 -155.412378 
L 199.9953 -156.240218 
L 196.920919 -153.522629 
L 193.846539 -141.023098 
L 190.772159 -163.440769 
L 187.697779 -148.902465 
L 184.623399 -146.664999 
L 181.549019 -153.321178 
L 178.474638 -163.355599 
L 175.400258 -159.194496 
L 172.325878 -156.968252 
L 169.251498 -152.470268 
L 166.177118 -153.994823 
L 163.102738 -149.753372 
L 160.028357 -148.983855 
L 156.953977 -152.053949 
L 153.879597 -146.80938 
L 150.805217 -143.232194 
L 147.730837 -150.558202 
L 144.656457 -148.341133 
L 141.582076 -147.18844 
L 138.507696 -144.357836 
L 135.433316 -141.304391 
L 132.358936 -149.038778 
L 129.284556 -146.505649 
L 126.210176 -144.065907 
L 123.135795 -137.276247 
L 120.061415 -140.492809 
L 116.987035 -126.186589 
L 113.912655 -128.387521 
L 110.838275 -130.17889 
L 107.763895 -126.966896 
L 104.689514 -117.920899 
L 101.615134 -119.371681 
L 98.540754 -113.972345 
L 95.466374 -119.055317 
L 92.391994 -109.107247 
L 89.317614 -102.650607 
L 86.243233 -105.777668 
L 83.168853 -97.611843 
L 80.094473 -101.630436 
L 77.020093 -95.305297 
L 73.945713 -93.962268 
L 70.871333 -80.513941 
L 67.796952 -81.899529 
L 64.722572 -76.155068 
L 61.648192 -79.38277 
L 58.573812 -70.753828 
L 55.499432 -45.934814 
z
" id="mf970bd22b6" style="stroke:#0173b2;stroke-opacity:0.2;"/>
    </defs>
    <g clip-path="url(#pd0e76e15e3)">
     <use style="fill:#0173b2;fill-opacity:0.2;stroke:#0173b2;stroke-opacity:0.2;" x="0" xlink:href="#mf970bd22b6" y="273.814375"/>
    </g>
   </g>
   <g id="PolyCollection_2">
    <defs>
     <path d="M 55.499432 -45.934814 
L 55.499432 -43.939886 
L 58.573812 -82.02059 
L 61.648192 -77.97686 
L 64.722572 -80.845829 
L 67.796952 -81.462467 
L 70.871333 -83.503996 
L 73.945713 -93.088863 
L 77.020093 -99.057622 
L 80.094473 -103.738418 
L 83.168853 -106.55456 
L 86.243233 -107.636724 
L 89.317614 -108.691017 
L 92.391994 -111.916656 
L 95.466374 -109.153046 
L 98.540754 -111.265273 
L 101.615134 -113.878463 
L 104.689514 -114.280869 
L 107.763895 -118.749558 
L 110.838275 -120.588561 
L 113.912655 -123.767875 
L 116.987035 -124.53013 
L 120.061415 -127.246515 
L 123.135795 -128.191708 
L 126.210176 -128.931403 
L 129.284556 -129.917934 
L 132.358936 -130.559138 
L 135.433316 -130.441945 
L 138.507696 -131.228763 
L 141.582076 -132.756955 
L 144.656457 -131.173906 
L 147.730837 -132.183588 
L 150.805217 -131.159682 
L 153.879597 -132.507068 
L 156.953977 -132.228073 
L 160.028357 -134.944544 
L 163.102738 -134.407627 
L 166.177118 -139.614685 
L 169.251498 -136.345837 
L 172.325878 -140.774666 
L 175.400258 -141.086496 
L 178.474638 -142.644499 
L 181.549019 -145.684102 
L 184.623399 -144.70002 
L 187.697779 -145.342699 
L 190.772159 -145.472669 
L 193.846539 -147.154866 
L 196.920919 -150.712105 
L 199.9953 -150.779847 
L 203.06968 -150.885154 
L 206.14406 -150.591421 
L 209.21844 -150.489048 
L 212.29282 -150.9585 
L 215.3672 -149.462762 
L 218.441581 -152.501623 
L 221.515961 -153.639522 
L 224.590341 -153.619282 
L 227.664721 -153.076162 
L 230.739101 -153.336642 
L 233.813481 -152.702744 
L 236.887862 -153.671018 
L 239.962242 -153.827216 
L 243.036622 -153.860823 
L 246.111002 -155.499556 
L 249.185382 -138.142844 
L 252.259762 -148.717879 
L 255.334143 -155.018229 
L 258.408523 -154.905477 
L 261.482903 -155.829118 
L 264.557283 -154.803863 
L 267.631663 -153.97027 
L 270.706043 -153.381626 
L 273.780424 -152.825529 
L 276.854804 -153.535263 
L 279.929184 -153.988618 
L 283.003564 -153.465494 
L 286.077944 -152.361894 
L 289.152324 -146.994217 
L 292.226705 -144.28633 
L 295.301085 -143.440641 
L 298.375465 -145.401343 
L 301.449845 -146.524015 
L 304.524225 -148.096077 
L 307.598605 -153.364496 
L 310.672986 -153.515879 
L 313.747366 -153.452772 
L 316.821746 -153.242845 
L 319.896126 -153.588597 
L 322.970506 -154.37721 
L 326.044886 -153.653718 
L 329.119267 -152.828607 
L 332.193647 -147.986716 
L 335.268027 -128.701015 
L 338.342407 -130.196675 
L 341.416787 -122.197386 
L 344.491167 -122.291995 
L 347.565548 -122.599428 
L 350.639928 -122.803303 
L 353.714308 -122.91146 
L 356.788688 -127.357293 
L 359.863068 -135.128236 
L 359.863068 -218.035397 
L 359.863068 -218.035397 
L 356.788688 -223.321715 
L 353.714308 -224.290235 
L 350.639928 -224.526106 
L 347.565548 -223.963695 
L 344.491167 -223.063648 
L 341.416787 -222.217814 
L 338.342407 -218.996202 
L 335.268027 -209.11948 
L 332.193647 -216.154545 
L 329.119267 -215.637527 
L 326.044886 -216.461092 
L 322.970506 -216.863808 
L 319.896126 -216.949992 
L 316.821746 -216.384329 
L 313.747366 -216.035077 
L 310.672986 -215.176658 
L 307.598605 -211.316649 
L 304.524225 -208.161726 
L 301.449845 -205.362474 
L 298.375465 -211.320876 
L 295.301085 -211.598071 
L 292.226705 -210.926537 
L 289.152324 -210.500093 
L 286.077944 -210.362899 
L 283.003564 -211.128573 
L 279.929184 -211.296268 
L 276.854804 -211.674155 
L 273.780424 -212.111045 
L 270.706043 -212.321234 
L 267.631663 -211.935772 
L 264.557283 -211.345997 
L 261.482903 -211.017365 
L 258.408523 -210.634837 
L 255.334143 -208.571539 
L 252.259762 -208.637106 
L 249.185382 -212.489723 
L 246.111002 -205.82038 
L 243.036622 -205.676917 
L 239.962242 -205.861459 
L 236.887862 -206.069903 
L 233.813481 -206.266086 
L 230.739101 -205.765708 
L 227.664721 -205.434058 
L 224.590341 -204.623899 
L 221.515961 -203.895425 
L 218.441581 -199.471944 
L 215.3672 -197.918894 
L 212.29282 -199.604404 
L 209.21844 -198.930232 
L 206.14406 -199.00782 
L 203.06968 -198.226451 
L 199.9953 -198.058913 
L 196.920919 -197.08172 
L 193.846539 -194.798931 
L 190.772159 -194.130022 
L 187.697779 -193.574979 
L 184.623399 -191.988462 
L 181.549019 -190.563185 
L 178.474638 -189.521734 
L 175.400258 -191.1494 
L 172.325878 -190.520788 
L 169.251498 -190.148718 
L 166.177118 -190.479092 
L 163.102738 -188.377407 
L 160.028357 -189.309205 
L 156.953977 -186.882271 
L 153.879597 -186.765821 
L 150.805217 -187.573324 
L 147.730837 -186.404288 
L 144.656457 -185.097696 
L 141.582076 -194.31812 
L 138.507696 -193.019181 
L 135.433316 -192.441777 
L 132.358936 -192.214285 
L 129.284556 -193.656607 
L 126.210176 -195.310735 
L 123.135795 -192.457013 
L 120.061415 -188.676775 
L 116.987035 -182.464766 
L 113.912655 -180.510189 
L 110.838275 -179.451709 
L 107.763895 -176.321463 
L 104.689514 -174.526344 
L 101.615134 -172.542813 
L 98.540754 -169.983572 
L 95.466374 -165.350159 
L 92.391994 -157.855314 
L 89.317614 -146.295114 
L 86.243233 -137.497987 
L 83.168853 -134.342356 
L 80.094473 -132.827821 
L 77.020093 -131.233199 
L 73.945713 -126.926758 
L 70.871333 -114.057121 
L 67.796952 -105.753787 
L 64.722572 -99.038461 
L 61.648192 -112.403226 
L 58.573812 -105.944535 
L 55.499432 -45.934814 
z
" id="m05cf1c4bf0" style="stroke:#de8f05;stroke-opacity:0.2;"/>
    </defs>
    <g clip-path="url(#pd0e76e15e3)">
     <use style="fill:#de8f05;fill-opacity:0.2;stroke:#de8f05;stroke-opacity:0.2;" x="0" xlink:href="#m05cf1c4bf0" y="273.814375"/>
    </g>
   </g>
   <g id="PolyCollection_3">
    <defs>
     <path d="M 55.499432 -45.934814 
L 55.499432 -43.939886 
L 58.573812 -91.153614 
L 61.648192 -90.293035 
L 64.722572 -85.076981 
L 67.796952 -89.768144 
L 70.871333 -101.828651 
L 73.945713 -110.293554 
L 77.020093 -119.533708 
L 80.094473 -127.821987 
L 83.168853 -136.853956 
L 86.243233 -144.983524 
L 89.317614 -150.581955 
L 92.391994 -154.777435 
L 95.466374 -160.153435 
L 98.540754 -171.440326 
L 101.615134 -174.448055 
L 104.689514 -175.902911 
L 107.763895 -178.926799 
L 110.838275 -179.915356 
L 113.912655 -182.313723 
L 116.987035 -182.987996 
L 120.061415 -183.373528 
L 123.135795 -183.759657 
L 126.210176 -184.054072 
L 129.284556 -184.595404 
L 132.358936 -185.375463 
L 135.433316 -185.976109 
L 138.507696 -187.59038 
L 141.582076 -191.659868 
L 144.656457 -192.180149 
L 147.730837 -192.359675 
L 150.805217 -192.747657 
L 153.879597 -192.854696 
L 156.953977 -194.222724 
L 160.028357 -195.485532 
L 163.102738 -197.098158 
L 166.177118 -199.070505 
L 169.251498 -199.653316 
L 172.325878 -200.018846 
L 175.400258 -200.659757 
L 178.474638 -201.029442 
L 181.549019 -205.677828 
L 184.623399 -206.4025 
L 187.697779 -206.705254 
L 190.772159 -207.176629 
L 193.846539 -207.686318 
L 196.920919 -207.862465 
L 199.9953 -207.9047 
L 203.06968 -208.120755 
L 206.14406 -208.07491 
L 209.21844 -208.089547 
L 212.29282 -208.331685 
L 215.3672 -208.133375 
L 218.441581 -208.537875 
L 221.515961 -208.490377 
L 224.590341 -208.582369 
L 227.664721 -208.684195 
L 230.739101 -208.726111 
L 233.813481 -208.848108 
L 236.887862 -209.241511 
L 239.962242 -209.739093 
L 243.036622 -211.135389 
L 246.111002 -211.301455 
L 249.185382 -211.408563 
L 252.259762 -211.895099 
L 255.334143 -211.832975 
L 258.408523 -211.942437 
L 261.482903 -212.098959 
L 264.557283 -212.368839 
L 267.631663 -212.543912 
L 270.706043 -212.654014 
L 273.780424 -212.762282 
L 276.854804 -212.915954 
L 279.929184 -212.915482 
L 283.003564 -216.334667 
L 286.077944 -217.971432 
L 289.152324 -218.286423 
L 292.226705 -218.575973 
L 295.301085 -218.773793 
L 298.375465 -221.817165 
L 301.449845 -222.145669 
L 304.524225 -222.413017 
L 307.598605 -222.493628 
L 310.672986 -222.538216 
L 313.747366 -222.674233 
L 316.821746 -222.69891 
L 319.896126 -222.81189 
L 322.970506 -222.903259 
L 326.044886 -222.884241 
L 329.119267 -222.940639 
L 332.193647 -223.0277 
L 335.268027 -223.104311 
L 338.342407 -223.048853 
L 341.416787 -223.151045 
L 344.491167 -223.255324 
L 347.565548 -223.182699 
L 350.639928 -223.172343 
L 353.714308 -223.292793 
L 356.788688 -223.333425 
L 359.863068 -223.35332 
L 359.863068 -241.612614 
L 359.863068 -241.612614 
L 356.788688 -241.510599 
L 353.714308 -241.423517 
L 350.639928 -241.45689 
L 347.565548 -241.446533 
L 344.491167 -241.460986 
L 341.416787 -241.42594 
L 338.342407 -241.16821 
L 335.268027 -241.321739 
L 332.193647 -241.183558 
L 329.119267 -241.137099 
L 326.044886 -241.036757 
L 322.970506 -241.099011 
L 319.896126 -241.074277 
L 316.821746 -240.908607 
L 313.747366 -240.857817 
L 310.672986 -240.680353 
L 307.598605 -240.759772 
L 304.524225 -240.46885 
L 301.449845 -240.34725 
L 298.375465 -240.008157 
L 295.301085 -239.272345 
L 292.226705 -239.110242 
L 289.152324 -239.289494 
L 286.077944 -239.267783 
L 283.003564 -239.493886 
L 279.929184 -240.434252 
L 276.854804 -240.317675 
L 273.780424 -240.030152 
L 270.706043 -240.016511 
L 267.631663 -239.697029 
L 264.557283 -239.378659 
L 261.482903 -239.247981 
L 258.408523 -239.102633 
L 255.334143 -238.707042 
L 252.259762 -238.424321 
L 249.185382 -238.179402 
L 246.111002 -237.793069 
L 243.036622 -237.39603 
L 239.962242 -235.901338 
L 236.887862 -235.220464 
L 233.813481 -235.068179 
L 230.739101 -234.969579 
L 227.664721 -234.970858 
L 224.590341 -234.828866 
L 221.515961 -234.862806 
L 218.441581 -234.71662 
L 215.3672 -234.517379 
L 212.29282 -234.33068 
L 209.21844 -234.195479 
L 206.14406 -233.861804 
L 203.06968 -233.508284 
L 199.9953 -233.416664 
L 196.920919 -232.826132 
L 193.846539 -232.282435 
L 190.772159 -229.947577 
L 187.697779 -229.008289 
L 184.623399 -228.364795 
L 181.549019 -227.533674 
L 178.474638 -225.587356 
L 175.400258 -225.051431 
L 172.325878 -224.949276 
L 169.251498 -224.856195 
L 166.177118 -224.707551 
L 163.102738 -224.851262 
L 160.028357 -224.826822 
L 156.953977 -223.883654 
L 153.879597 -222.917993 
L 150.805217 -222.578032 
L 147.730837 -222.379689 
L 144.656457 -222.042552 
L 141.582076 -221.477261 
L 138.507696 -221.279929 
L 135.433316 -221.152641 
L 132.358936 -219.918845 
L 129.284556 -218.730941 
L 126.210176 -217.977714 
L 123.135795 -217.018207 
L 120.061415 -216.208465 
L 116.987035 -214.945321 
L 113.912655 -212.7228 
L 110.838275 -207.365423 
L 107.763895 -203.291848 
L 104.689514 -200.481512 
L 101.615134 -198.412613 
L 98.540754 -195.673197 
L 95.466374 -190.618457 
L 92.391994 -186.427491 
L 89.317614 -179.912382 
L 86.243233 -168.890532 
L 83.168853 -165.827678 
L 80.094473 -152.045221 
L 77.020093 -142.244504 
L 73.945713 -131.445116 
L 70.871333 -116.683423 
L 67.796952 -109.836402 
L 64.722572 -108.594653 
L 61.648192 -112.870097 
L 58.573812 -106.802256 
L 55.499432 -45.934814 
z
" id="m7aceb3ab39" style="stroke:#029e73;stroke-opacity:0.2;"/>
    </defs>
    <g clip-path="url(#pd0e76e15e3)">
     <use style="fill:#029e73;fill-opacity:0.2;stroke:#029e73;stroke-opacity:0.2;" x="0" xlink:href="#m7aceb3ab39" y="273.814375"/>
    </g>
   </g>
   <g id="line2d_23">
    <path clip-path="url(#pd0e76e15e3)" d="M 55.499432 228.877025 
L 58.573812 213.287166 
L 61.648192 205.795559 
L 64.722572 208.431119 
L 67.796952 205.534325 
L 70.871333 204.027876 
L 73.945713 197.981763 
L 77.020093 189.604863 
L 80.094473 186.423615 
L 83.168853 189.181083 
L 86.243233 185.48027 
L 89.317614 187.03316 
L 92.391994 182.008762 
L 95.466374 176.284837 
L 98.540754 179.997261 
L 101.615134 178.380513 
L 104.689514 176.16583 
L 107.763895 173.338699 
L 110.838275 169.449217 
L 113.912655 166.305702 
L 116.987035 167.016839 
L 120.061415 159.641335 
L 123.135795 158.474491 
L 126.210176 156.193048 
L 129.284556 157.696594 
L 132.358936 155.516742 
L 135.433316 158.552861 
L 138.507696 158.538348 
L 141.582076 157.925899 
L 144.656457 156.854841 
L 147.730837 155.148112 
L 150.805217 158.291627 
L 153.879597 154.988469 
L 156.953977 150.443 
L 160.028357 153.978365 
L 163.102738 151.519864 
L 166.177118 149.238421 
L 169.251498 148.463427 
L 172.325878 146.402582 
L 175.400258 143.784438 
L 178.474638 140.907963 
L 181.549019 154.338287 
L 184.623399 158.346776 
L 187.697779 154.962346 
L 190.772159 142.605983 
L 193.846539 157.638542 
L 196.920919 146.806043 
L 199.9953 145.650809 
L 203.06968 151.885591 
L 206.14406 158.88666 
L 209.21844 150.553299 
L 212.29282 153.365917 
L 215.3672 149.409675 
L 218.441581 152.736053 
L 221.515961 156.11758 
L 224.590341 155.055229 
L 227.664721 154.355703 
L 230.739101 154.72143 
L 233.813481 156.814204 
L 236.887862 156.63134 
L 239.962242 163.330538 
L 243.036622 163.931376 
L 246.111002 152.947943 
L 249.185382 152.149728 
L 252.259762 154.193157 
L 255.334143 155.142307 
L 258.408523 153.879677 
L 261.482903 154.811411 
L 264.557283 154.567593 
L 267.631663 155.119086 
L 270.706043 155.905691 
L 273.780424 155.833126 
L 276.854804 156.018892 
L 279.929184 156.358496 
L 283.003564 156.413646 
L 286.077944 154.480515 
L 289.152324 153.409456 
L 292.226705 165.527806 
L 295.301085 165.266572 
L 298.375465 164.334838 
L 301.449845 163.780441 
L 304.524225 173.687011 
L 307.598605 178.017688 
L 310.672986 164.575753 
L 313.747366 163.87913 
L 316.821746 165.995124 
L 319.896126 165.905144 
L 322.970506 170.653795 
L 326.044886 176.281934 
L 329.119267 177.666474 
L 332.193647 183.34686 
L 335.268027 183.55875 
L 338.342407 184.995536 
L 341.416787 184.043484 
L 344.491167 185.924368 
L 347.565548 175.538869 
L 350.639928 176.38933 
L 353.714308 176.403843 
L 356.788688 178.035104 
L 359.863068 180.865138 
" style="fill:none;stroke:#0173b2;stroke-linecap:round;stroke-width:1.5;"/>
   </g>
   <g id="line2d_24">
    <path clip-path="url(#pd0e76e15e3)" d="M 55.499432 228.877025 
L 58.573812 179.831813 
L 61.648192 178.624332 
L 64.722572 183.87223 
L 67.796952 180.206248 
L 70.871333 175.033817 
L 73.945713 163.806565 
L 77.020093 158.668965 
L 80.094473 155.531255 
L 83.168853 153.365917 
L 86.243233 151.24702 
L 89.317614 146.321309 
L 92.391994 138.92839 
L 95.466374 136.562772 
L 98.540754 133.189952 
L 101.615134 130.603737 
L 104.689514 129.410769 
L 107.763895 126.278865 
L 110.838275 123.79424 
L 113.912655 121.675343 
L 116.987035 120.316927 
L 120.061415 115.85273 
L 123.135795 113.490014 
L 126.210176 111.693306 
L 129.284556 112.027105 
L 132.358936 112.427663 
L 135.433316 112.372514 
L 138.507696 111.690403 
L 141.582076 110.276838 
L 144.656457 115.678574 
L 147.730837 114.520437 
L 150.805217 114.447872 
L 153.879597 114.17793 
L 156.953977 114.259203 
L 160.028357 111.687501 
L 163.102738 112.421858 
L 166.177118 108.767486 
L 169.251498 110.567097 
L 172.325878 108.166648 
L 175.400258 107.696427 
L 178.474638 107.731258 
L 181.549019 105.690731 
L 184.623399 105.470134 
L 187.697779 104.355536 
L 190.772159 104.013029 
L 193.846539 102.837477 
L 196.920919 99.917462 
L 199.9953 99.394995 
L 203.06968 99.258573 
L 206.14406 99.014754 
L 209.21844 99.104735 
L 212.29282 98.532923 
L 215.3672 100.123547 
L 218.441581 97.827591 
L 221.515961 95.046902 
L 224.590341 94.692785 
L 227.664721 94.559265 
L 230.739101 94.2632 
L 233.813481 94.32996 
L 236.887862 93.943914 
L 239.962242 93.970037 
L 243.036622 94.045505 
L 246.111002 93.154407 
L 249.185382 98.498092 
L 252.259762 95.136882 
L 255.334143 92.019491 
L 258.408523 91.044218 
L 261.482903 90.391133 
L 264.557283 90.739445 
L 267.631663 90.861354 
L 270.706043 90.962945 
L 273.780424 91.346088 
L 276.854804 91.209666 
L 279.929184 91.171932 
L 283.003564 91.517342 
L 286.077944 92.451978 
L 289.152324 95.06722 
L 292.226705 96.207941 
L 295.301085 96.295019 
L 298.375465 95.453265 
L 301.449845 97.87113 
L 304.524225 95.685473 
L 307.598605 91.473803 
L 310.672986 89.468107 
L 313.747366 89.070451 
L 316.821746 89.000788 
L 319.896126 88.54508 
L 322.970506 88.193866 
L 326.044886 88.75697 
L 329.119267 89.581308 
L 332.193647 91.743744 
L 335.268027 104.904127 
L 338.342407 99.217936 
L 341.416787 101.606775 
L 344.491167 101.136554 
L 347.565548 100.532813 
L 350.639928 100.14967 
L 353.714308 100.213528 
L 356.788688 98.474871 
L 359.863068 97.232559 
" style="fill:none;stroke:#de8f05;stroke-linecap:round;stroke-width:1.5;"/>
   </g>
   <g id="line2d_25">
    <path clip-path="url(#pd0e76e15e3)" d="M 55.499432 228.877025 
L 58.573812 174.83644 
L 61.648192 172.232809 
L 64.722572 176.978558 
L 67.796952 174.012102 
L 70.871333 164.558338 
L 73.945713 152.94504 
L 77.020093 142.925269 
L 80.094473 133.880771 
L 83.168853 122.473558 
L 86.243233 116.877347 
L 89.317614 108.567207 
L 92.391994 103.211912 
L 95.466374 98.428429 
L 98.540754 90.257614 
L 101.615134 87.384041 
L 104.689514 85.622163 
L 107.763895 82.705052 
L 110.838275 80.173985 
L 113.912655 76.296113 
L 116.987035 74.847717 
L 120.061415 74.023379 
L 123.135795 73.425443 
L 126.210176 72.798482 
L 129.284556 72.151202 
L 132.358936 71.167221 
L 135.433316 70.25 
L 138.507696 69.37922 
L 141.582076 67.24581 
L 144.656457 66.703024 
L 147.730837 66.444693 
L 150.805217 66.151531 
L 153.879597 65.92803 
L 156.953977 64.761186 
L 160.028357 63.658198 
L 163.102738 62.839665 
L 166.177118 61.925347 
L 169.251498 61.559619 
L 172.325878 61.330314 
L 175.400258 60.958781 
L 178.474638 60.505976 
L 181.549019 57.208624 
L 184.623399 56.430727 
L 187.697779 55.957604 
L 190.772159 55.252272 
L 193.846539 53.829999 
L 196.920919 53.470076 
L 199.9953 53.153693 
L 203.06968 52.999855 
L 206.14406 52.846018 
L 209.21844 52.671862 
L 212.29282 52.483193 
L 215.3672 52.488998 
L 218.441581 52.187128 
L 221.515961 52.137784 
L 224.590341 52.108758 
L 227.664721 51.986848 
L 230.739101 51.96653 
L 233.813481 51.856231 
L 236.887862 51.583387 
L 239.962242 50.99416 
L 243.036622 49.548665 
L 246.111002 49.267113 
L 249.185382 49.020392 
L 252.259762 48.654665 
L 255.334143 48.544366 
L 258.408523 48.29184 
L 261.482903 48.140905 
L 264.557283 47.940626 
L 267.631663 47.693905 
L 270.706043 47.479112 
L 273.780424 47.418158 
L 276.854804 47.19756 
L 279.929184 47.139508 
L 283.003564 45.900099 
L 286.077944 45.194767 
L 289.152324 45.026417 
L 292.226705 44.971267 
L 295.301085 44.791306 
L 298.375465 42.901714 
L 301.449845 42.567915 
L 304.524225 42.373441 
L 307.598605 42.187675 
L 310.672986 42.20509 
L 313.747366 42.04835 
L 316.821746 42.010616 
L 319.896126 41.871292 
L 322.970506 41.81324 
L 326.044886 41.853876 
L 329.119267 41.775506 
L 332.193647 41.708746 
L 335.268027 41.60135 
L 338.342407 41.705843 
L 341.416787 41.525882 
L 344.491167 41.45622 
L 347.565548 41.499759 
L 350.639928 41.499759 
L 353.714308 41.45622 
L 356.788688 41.392363 
L 359.863068 41.331408 
" style="fill:none;stroke:#029e73;stroke-linecap:round;stroke-width:1.5;"/>
   </g>
   <g id="patch_3">
    <path d="M 40.28125 239.758125 
L 40.28125 22.318125 
" style="fill:none;"/>
   </g>
   <g id="patch_4">
    <path d="M 375.08125 239.758125 
L 375.08125 22.318125 
" style="fill:none;"/>
   </g>
   <g id="patch_5">
    <path d="M 40.28125 239.758125 
L 375.08125 239.758125 
" style="fill:none;"/>
   </g>
   <g id="patch_6">
    <path d="M 40.28125 22.318125 
L 375.08125 22.318125 
" style="fill:none;"/>
   </g>
   <g id="text_14">
    <!-- MNIST Global Model Accuracy with Laplacian Noise -->
    <g style="fill:#262626;" transform="translate(54.79 16.318125)scale(0.12 -0.12)">
     <defs>
      <path d="M 628 4666 
L 1478 4666 
L 3547 763 
L 3547 4666 
L 4159 4666 
L 4159 0 
L 3309 0 
L 1241 3903 
L 1241 0 
L 628 0 
L 628 4666 
z
" id="DejaVuSans-4e" transform="scale(0.015625)"/>
      <path d="M 628 4666 
L 1259 4666 
L 1259 0 
L 628 0 
L 628 4666 
z
" id="DejaVuSans-49" transform="scale(0.015625)"/>
      <path d="M 3425 4513 
L 3425 3897 
Q 3066 4069 2747 4153 
Q 2428 4238 2131 4238 
Q 1616 4238 1336 4038 
Q 1056 3838 1056 3469 
Q 1056 3159 1242 3001 
Q 1428 2844 1947 2747 
L 2328 2669 
Q 3034 2534 3370 2195 
Q 3706 1856 3706 1288 
Q 3706 609 3251 259 
Q 2797 -91 1919 -91 
Q 1588 -91 1214 -16 
Q 841 59 441 206 
L 441 856 
Q 825 641 1194 531 
Q 1563 422 1919 422 
Q 2459 422 2753 634 
Q 3047 847 3047 1241 
Q 3047 1584 2836 1778 
Q 2625 1972 2144 2069 
L 1759 2144 
Q 1053 2284 737 2584 
Q 422 2884 422 3419 
Q 422 4038 858 4394 
Q 1294 4750 2059 4750 
Q 2388 4750 2728 4690 
Q 3069 4631 3425 4513 
z
" id="DejaVuSans-53" transform="scale(0.015625)"/>
      <path d="M 269 3500 
L 844 3500 
L 1563 769 
L 2278 3500 
L 2956 3500 
L 3675 769 
L 4391 3500 
L 4966 3500 
L 4050 0 
L 3372 0 
L 2619 2869 
L 1863 0 
L 1184 0 
L 269 3500 
z
" id="DejaVuSans-77" transform="scale(0.015625)"/>
      <path d="M 1172 4494 
L 1172 3500 
L 2356 3500 
L 2356 3053 
L 1172 3053 
L 1172 1153 
Q 1172 725 1289 603 
Q 1406 481 1766 481 
L 2356 481 
L 2356 0 
L 1766 0 
Q 1100 0 847 248 
Q 594 497 594 1153 
L 594 3053 
L 172 3053 
L 172 3500 
L 594 3500 
L 594 4494 
L 1172 4494 
z
" id="DejaVuSans-74" transform="scale(0.015625)"/>
      <path d="M 3513 2113 
L 3513 0 
L 2938 0 
L 2938 2094 
Q 2938 2591 2744 2837 
Q 2550 3084 2163 3084 
Q 1697 3084 1428 2787 
Q 1159 2491 1159 1978 
L 1159 0 
L 581 0 
L 581 4863 
L 1159 4863 
L 1159 2956 
Q 1366 3272 1645 3428 
Q 1925 3584 2291 3584 
Q 2894 3584 3203 3211 
Q 3513 2838 3513 2113 
z
" id="DejaVuSans-68" transform="scale(0.015625)"/>
      <path d="M 628 4666 
L 1259 4666 
L 1259 531 
L 3531 531 
L 3531 0 
L 628 0 
L 628 4666 
z
" id="DejaVuSans-4c" transform="scale(0.015625)"/>
      <path d="M 1159 525 
L 1159 -1331 
L 581 -1331 
L 581 3500 
L 1159 3500 
L 1159 2969 
Q 1341 3281 1617 3432 
Q 1894 3584 2278 3584 
Q 2916 3584 3314 3078 
Q 3713 2572 3713 1747 
Q 3713 922 3314 415 
Q 2916 -91 2278 -91 
Q 1894 -91 1617 61 
Q 1341 213 1159 525 
z
M 3116 1747 
Q 3116 2381 2855 2742 
Q 2594 3103 2138 3103 
Q 1681 3103 1420 2742 
Q 1159 2381 1159 1747 
Q 1159 1113 1420 752 
Q 1681 391 2138 391 
Q 2594 391 2855 752 
Q 3116 1113 3116 1747 
z
" id="DejaVuSans-70" transform="scale(0.015625)"/>
      <path d="M 2834 3397 
L 2834 2853 
Q 2591 2978 2328 3040 
Q 2066 3103 1784 3103 
Q 1356 3103 1142 2972 
Q 928 2841 928 2578 
Q 928 2378 1081 2264 
Q 1234 2150 1697 2047 
L 1894 2003 
Q 2506 1872 2764 1633 
Q 3022 1394 3022 966 
Q 3022 478 2636 193 
Q 2250 -91 1575 -91 
Q 1294 -91 989 -36 
Q 684 19 347 128 
L 347 722 
Q 666 556 975 473 
Q 1284 391 1588 391 
Q 1994 391 2212 530 
Q 2431 669 2431 922 
Q 2431 1156 2273 1281 
Q 2116 1406 1581 1522 
L 1381 1569 
Q 847 1681 609 1914 
Q 372 2147 372 2553 
Q 372 3047 722 3315 
Q 1072 3584 1716 3584 
Q 2034 3584 2315 3537 
Q 2597 3491 2834 3397 
z
" id="DejaVuSans-73" transform="scale(0.015625)"/>
     </defs>
     <use xlink:href="#DejaVuSans-4d"/>
     <use x="86.279297" xlink:href="#DejaVuSans-4e"/>
     <use x="161.083984" xlink:href="#DejaVuSans-49"/>
     <use x="190.576172" xlink:href="#DejaVuSans-53"/>
     <use x="254.052734" xlink:href="#DejaVuSans-54"/>
     <use x="315.136719" xlink:href="#DejaVuSans-20"/>
     <use x="346.923828" xlink:href="#DejaVuSans-47"/>
     <use x="424.414062" xlink:href="#DejaVuSans-6c"/>
     <use x="452.197266" xlink:href="#DejaVuSans-6f"/>
     <use x="513.378906" xlink:href="#DejaVuSans-62"/>
     <use x="576.855469" xlink:href="#DejaVuSans-61"/>
     <use x="638.134766" xlink:href="#DejaVuSans-6c"/>
     <use x="665.917969" xlink:href="#DejaVuSans-20"/>
     <use x="697.705078" xlink:href="#DejaVuSans-4d"/>
     <use x="783.984375" xlink:href="#DejaVuSans-6f"/>
     <use x="845.166016" xlink:href="#DejaVuSans-64"/>
     <use x="908.642578" xlink:href="#DejaVuSans-65"/>
     <use x="970.166016" xlink:href="#DejaVuSans-6c"/>
     <use x="997.949219" xlink:href="#DejaVuSans-20"/>
     <use x="1029.736328" xlink:href="#DejaVuSans-41"/>
     <use x="1096.394531" xlink:href="#DejaVuSans-63"/>
     <use x="1151.375" xlink:href="#DejaVuSans-63"/>
     <use x="1206.355469" xlink:href="#DejaVuSans-75"/>
     <use x="1269.734375" xlink:href="#DejaVuSans-72"/>
     <use x="1310.847656" xlink:href="#DejaVuSans-61"/>
     <use x="1372.126953" xlink:href="#DejaVuSans-63"/>
     <use x="1427.107422" xlink:href="#DejaVuSans-79"/>
     <use x="1486.287109" xlink:href="#DejaVuSans-20"/>
     <use x="1518.074219" xlink:href="#DejaVuSans-77"/>
     <use x="1599.861328" xlink:href="#DejaVuSans-69"/>
     <use x="1627.644531" xlink:href="#DejaVuSans-74"/>
     <use x="1666.853516" xlink:href="#DejaVuSans-68"/>
     <use x="1730.232422" xlink:href="#DejaVuSans-20"/>
     <use x="1762.019531" xlink:href="#DejaVuSans-4c"/>
     <use x="1817.732422" xlink:href="#DejaVuSans-61"/>
     <use x="1879.011719" xlink:href="#DejaVuSans-70"/>
     <use x="1942.488281" xlink:href="#DejaVuSans-6c"/>
     <use x="1970.271484" xlink:href="#DejaVuSans-61"/>
     <use x="2031.550781" xlink:href="#DejaVuSans-63"/>
     <use x="2086.53125" xlink:href="#DejaVuSans-69"/>
     <use x="2114.314453" xlink:href="#DejaVuSans-61"/>
     <use x="2175.59375" xlink:href="#DejaVuSans-6e"/>
     <use x="2238.972656" xlink:href="#DejaVuSans-20"/>
     <use x="2270.759766" xlink:href="#DejaVuSans-4e"/>
     <use x="2345.564453" xlink:href="#DejaVuSans-6f"/>
     <use x="2406.746094" xlink:href="#DejaVuSans-69"/>
     <use x="2434.529297" xlink:href="#DejaVuSans-73"/>
     <use x="2486.628906" xlink:href="#DejaVuSans-65"/>
    </g>
   </g>
   <g id="legend_1">
    <g id="line2d_26">
     <path d="M 399.092813 35.416563 
L 419.092813 35.416563 
" style="fill:none;stroke:#0173b2;stroke-linecap:round;stroke-width:1.5;"/>
    </g>
    <g id="line2d_27"/>
    <g id="text_15">
     <!-- laplacian, 1.0e-01 -->
     <g style="fill:#262626;" transform="translate(427.092813 38.916563)scale(0.1 -0.1)">
      <defs>
       <path d="M 750 794 
L 1409 794 
L 1409 256 
L 897 -744 
L 494 -744 
L 750 256 
L 750 794 
z
" id="DejaVuSans-2c" transform="scale(0.015625)"/>
       <path d="M 313 2009 
L 1997 2009 
L 1997 1497 
L 313 1497 
L 313 2009 
z
" id="DejaVuSans-2d" transform="scale(0.015625)"/>
      </defs>
      <use xlink:href="#DejaVuSans-6c"/>
      <use x="27.783203" xlink:href="#DejaVuSans-61"/>
      <use x="89.0625" xlink:href="#DejaVuSans-70"/>
      <use x="152.539062" xlink:href="#DejaVuSans-6c"/>
      <use x="180.322266" xlink:href="#DejaVuSans-61"/>
      <use x="241.601562" xlink:href="#DejaVuSans-63"/>
      <use x="296.582031" xlink:href="#DejaVuSans-69"/>
      <use x="324.365234" xlink:href="#DejaVuSans-61"/>
      <use x="385.644531" xlink:href="#DejaVuSans-6e"/>
      <use x="449.023438" xlink:href="#DejaVuSans-2c"/>
      <use x="480.810547" xlink:href="#DejaVuSans-20"/>
      <use x="512.597656" xlink:href="#DejaVuSans-31"/>
      <use x="576.220703" xlink:href="#DejaVuSans-2e"/>
      <use x="608.007812" xlink:href="#DejaVuSans-30"/>
      <use x="671.630859" xlink:href="#DejaVuSans-65"/>
      <use x="733.154297" xlink:href="#DejaVuSans-2d"/>
      <use x="769.238281" xlink:href="#DejaVuSans-30"/>
      <use x="832.861328" xlink:href="#DejaVuSans-31"/>
     </g>
    </g>
    <g id="line2d_28">
     <path d="M 399.092813 50.094688 
L 419.092813 50.094688 
" style="fill:none;stroke:#de8f05;stroke-linecap:round;stroke-width:1.5;"/>
    </g>
    <g id="line2d_29"/>
    <g id="text_16">
     <!-- laplacian, 1.0e-02 -->
     <g style="fill:#262626;" transform="translate(427.092813 53.594688)scale(0.1 -0.1)">
      <use xlink:href="#DejaVuSans-6c"/>
      <use x="27.783203" xlink:href="#DejaVuSans-61"/>
      <use x="89.0625" xlink:href="#DejaVuSans-70"/>
      <use x="152.539062" xlink:href="#DejaVuSans-6c"/>
      <use x="180.322266" xlink:href="#DejaVuSans-61"/>
      <use x="241.601562" xlink:href="#DejaVuSans-63"/>
      <use x="296.582031" xlink:href="#DejaVuSans-69"/>
      <use x="324.365234" xlink:href="#DejaVuSans-61"/>
      <use x="385.644531" xlink:href="#DejaVuSans-6e"/>
      <use x="449.023438" xlink:href="#DejaVuSans-2c"/>
      <use x="480.810547" xlink:href="#DejaVuSans-20"/>
      <use x="512.597656" xlink:href="#DejaVuSans-31"/>
      <use x="576.220703" xlink:href="#DejaVuSans-2e"/>
      <use x="608.007812" xlink:href="#DejaVuSans-30"/>
      <use x="671.630859" xlink:href="#DejaVuSans-65"/>
      <use x="733.154297" xlink:href="#DejaVuSans-2d"/>
      <use x="769.238281" xlink:href="#DejaVuSans-30"/>
      <use x="832.861328" xlink:href="#DejaVuSans-32"/>
     </g>
    </g>
    <g id="line2d_30">
     <path d="M 399.092813 64.772813 
L 419.092813 64.772813 
" style="fill:none;stroke:#029e73;stroke-linecap:round;stroke-width:1.5;"/>
    </g>
    <g id="line2d_31"/>
    <g id="text_17">
     <!-- laplacian, 1.0e-03 -->
     <g style="fill:#262626;" transform="translate(427.092813 68.272813)scale(0.1 -0.1)">
      <defs>
       <path d="M 2597 2516 
Q 3050 2419 3304 2112 
Q 3559 1806 3559 1356 
Q 3559 666 3084 287 
Q 2609 -91 1734 -91 
Q 1441 -91 1130 -33 
Q 819 25 488 141 
L 488 750 
Q 750 597 1062 519 
Q 1375 441 1716 441 
Q 2309 441 2620 675 
Q 2931 909 2931 1356 
Q 2931 1769 2642 2001 
Q 2353 2234 1838 2234 
L 1294 2234 
L 1294 2753 
L 1863 2753 
Q 2328 2753 2575 2939 
Q 2822 3125 2822 3475 
Q 2822 3834 2567 4026 
Q 2313 4219 1838 4219 
Q 1578 4219 1281 4162 
Q 984 4106 628 3988 
L 628 4550 
Q 988 4650 1302 4700 
Q 1616 4750 1894 4750 
Q 2613 4750 3031 4423 
Q 3450 4097 3450 3541 
Q 3450 3153 3228 2886 
Q 3006 2619 2597 2516 
z
" id="DejaVuSans-33" transform="scale(0.015625)"/>
      </defs>
      <use xlink:href="#DejaVuSans-6c"/>
      <use x="27.783203" xlink:href="#DejaVuSans-61"/>
      <use x="89.0625" xlink:href="#DejaVuSans-70"/>
      <use x="152.539062" xlink:href="#DejaVuSans-6c"/>
      <use x="180.322266" xlink:href="#DejaVuSans-61"/>
      <use x="241.601562" xlink:href="#DejaVuSans-63"/>
      <use x="296.582031" xlink:href="#DejaVuSans-69"/>
      <use x="324.365234" xlink:href="#DejaVuSans-61"/>
      <use x="385.644531" xlink:href="#DejaVuSans-6e"/>
      <use x="449.023438" xlink:href="#DejaVuSans-2c"/>
      <use x="480.810547" xlink:href="#DejaVuSans-20"/>
      <use x="512.597656" xlink:href="#DejaVuSans-31"/>
      <use x="576.220703" xlink:href="#DejaVuSans-2e"/>
      <use x="608.007812" xlink:href="#DejaVuSans-30"/>
      <use x="671.630859" xlink:href="#DejaVuSans-65"/>
      <use x="733.154297" xlink:href="#DejaVuSans-2d"/>
      <use x="769.238281" xlink:href="#DejaVuSans-30"/>
      <use x="832.861328" xlink:href="#DejaVuSans-33"/>
     </g>
    </g>
   </g>
  </g>
 </g>
 <defs>
  <clipPath id="pd0e76e15e3">
   <rect height="217.44" width="334.8" x="40.28125" y="22.318125"/>
  </clipPath>
 </defs>
</svg>
