<?xml version="1.0" encoding="utf-8" standalone="no"?>
<!DOCTYPE svg PUBLIC "-//W3C//DTD SVG 1.1//EN"
  "http://www.w3.org/Graphics/SVG/1.1/DTD/svg11.dtd">
<svg height="273.814375pt" version="1.1" viewBox="0 0 540.66625 273.814375" width="540.66625pt" xmlns="http://www.w3.org/2000/svg" xmlns:xlink="http://www.w3.org/1999/xlink">
 <metadata>
  <rdf:RDF xmlns:cc="http://creativecommons.org/ns#" xmlns:dc="http://purl.org/dc/elements/1.1/" xmlns:rdf="http://www.w3.org/1999/02/22-rdf-syntax-ns#">
   <cc:Work>
    <dc:type rdf:resource="http://purl.org/dc/dcmitype/StillImage"/>
    <dc:date>2023-06-14T17:30:50.838708</dc:date>
    <dc:format>image/svg+xml</dc:format>
    <dc:creator>
     <cc:Agent>
      <dc:title>Matplotlib v3.4.3, https://matplotlib.org/</dc:title>
     </cc:Agent>
    </dc:creator>
   </cc:Work>
  </rdf:RDF>
 </metadata>
 <defs>
  <style type="text/css">*{stroke-linecap:butt;stroke-linejoin:round;}</style>
 </defs>
 <g id="figure_1">
  <g id="patch_1">
   <path d="M 0 273.814375 
L 540.66625 273.814375 
L 540.66625 0 
L 0 0 
z
" style="fill:#ffffff;"/>
  </g>
  <g id="axes_1">
   <g id="patch_2">
    <path d="M 53.00625 239.758125 
L 387.80625 239.758125 
L 387.80625 22.318125 
L 53.00625 22.318125 
z
" style="fill:#eaeaf2;"/>
   </g>
   <g id="matplotlib.axis_1">
    <g id="xtick_1">
     <g id="line2d_1">
      <path clip-path="url(#pde52143953)" d="M 68.224432 239.758125 
L 68.224432 22.318125 
" style="fill:none;stroke:#ffffff;stroke-linecap:round;stroke-width:0.8;"/>
     </g>
     <g id="line2d_2"/>
     <g id="text_1">
      <!-- 0 -->
      <g style="fill:#262626;" transform="translate(65.043182 250.856563)scale(0.1 -0.1)">
       <defs>
        <path d="M 2034 4250 
Q 1547 4250 1301 3770 
Q 1056 3291 1056 2328 
Q 1056 1369 1301 889 
Q 1547 409 2034 409 
Q 2525 409 2770 889 
Q 3016 1369 3016 2328 
Q 3016 3291 2770 3770 
Q 2525 4250 2034 4250 
z
M 2034 4750 
Q 2819 4750 3233 4129 
Q 3647 3509 3647 2328 
Q 3647 1150 3233 529 
Q 2819 -91 2034 -91 
Q 1250 -91 836 529 
Q 422 1150 422 2328 
Q 422 3509 836 4129 
Q 1250 4750 2034 4750 
z
" id="DejaVuSans-30" transform="scale(0.015625)"/>
       </defs>
       <use xlink:href="#DejaVuSans-30"/>
      </g>
     </g>
    </g>
    <g id="xtick_2">
     <g id="line2d_3">
      <path clip-path="url(#pde52143953)" d="M 129.219149 239.758125 
L 129.219149 22.318125 
" style="fill:none;stroke:#ffffff;stroke-linecap:round;stroke-width:0.8;"/>
     </g>
     <g id="line2d_4"/>
     <g id="text_2">
      <!-- 100 -->
      <g style="fill:#262626;" transform="translate(119.675399 250.856563)scale(0.1 -0.1)">
       <defs>
        <path d="M 794 531 
L 1825 531 
L 1825 4091 
L 703 3866 
L 703 4441 
L 1819 4666 
L 2450 4666 
L 2450 531 
L 3481 531 
L 3481 0 
L 794 0 
L 794 531 
z
" id="DejaVuSans-31" transform="scale(0.015625)"/>
       </defs>
       <use xlink:href="#DejaVuSans-31"/>
       <use x="63.623047" xlink:href="#DejaVuSans-30"/>
       <use x="127.246094" xlink:href="#DejaVuSans-30"/>
      </g>
     </g>
    </g>
    <g id="xtick_3">
     <g id="line2d_5">
      <path clip-path="url(#pde52143953)" d="M 190.213865 239.758125 
L 190.213865 22.318125 
" style="fill:none;stroke:#ffffff;stroke-linecap:round;stroke-width:0.8;"/>
     </g>
     <g id="line2d_6"/>
     <g id="text_3">
      <!-- 200 -->
      <g style="fill:#262626;" transform="translate(180.670115 250.856563)scale(0.1 -0.1)">
       <defs>
        <path d="M 1228 531 
L 3431 531 
L 3431 0 
L 469 0 
L 469 531 
Q 828 903 1448 1529 
Q 2069 2156 2228 2338 
Q 2531 2678 2651 2914 
Q 2772 3150 2772 3378 
Q 2772 3750 2511 3984 
Q 2250 4219 1831 4219 
Q 1534 4219 1204 4116 
Q 875 4013 500 3803 
L 500 4441 
Q 881 4594 1212 4672 
Q 1544 4750 1819 4750 
Q 2544 4750 2975 4387 
Q 3406 4025 3406 3419 
Q 3406 3131 3298 2873 
Q 3191 2616 2906 2266 
Q 2828 2175 2409 1742 
Q 1991 1309 1228 531 
z
" id="DejaVuSans-32" transform="scale(0.015625)"/>
       </defs>
       <use xlink:href="#DejaVuSans-32"/>
       <use x="63.623047" xlink:href="#DejaVuSans-30"/>
       <use x="127.246094" xlink:href="#DejaVuSans-30"/>
      </g>
     </g>
    </g>
    <g id="xtick_4">
     <g id="line2d_7">
      <path clip-path="url(#pde52143953)" d="M 251.208582 239.758125 
L 251.208582 22.318125 
" style="fill:none;stroke:#ffffff;stroke-linecap:round;stroke-width:0.8;"/>
     </g>
     <g id="line2d_8"/>
     <g id="text_4">
      <!-- 300 -->
      <g style="fill:#262626;" transform="translate(241.664832 250.856563)scale(0.1 -0.1)">
       <defs>
        <path d="M 2597 2516 
Q 3050 2419 3304 2112 
Q 3559 1806 3559 1356 
Q 3559 666 3084 287 
Q 2609 -91 1734 -91 
Q 1441 -91 1130 -33 
Q 819 25 488 141 
L 488 750 
Q 750 597 1062 519 
Q 1375 441 1716 441 
Q 2309 441 2620 675 
Q 2931 909 2931 1356 
Q 2931 1769 2642 2001 
Q 2353 2234 1838 2234 
L 1294 2234 
L 1294 2753 
L 1863 2753 
Q 2328 2753 2575 2939 
Q 2822 3125 2822 3475 
Q 2822 3834 2567 4026 
Q 2313 4219 1838 4219 
Q 1578 4219 1281 4162 
Q 984 4106 628 3988 
L 628 4550 
Q 988 4650 1302 4700 
Q 1616 4750 1894 4750 
Q 2613 4750 3031 4423 
Q 3450 4097 3450 3541 
Q 3450 3153 3228 2886 
Q 3006 2619 2597 2516 
z
" id="DejaVuSans-33" transform="scale(0.015625)"/>
       </defs>
       <use xlink:href="#DejaVuSans-33"/>
       <use x="63.623047" xlink:href="#DejaVuSans-30"/>
       <use x="127.246094" xlink:href="#DejaVuSans-30"/>
      </g>
     </g>
    </g>
    <g id="xtick_5">
     <g id="line2d_9">
      <path clip-path="url(#pde52143953)" d="M 312.203299 239.758125 
L 312.203299 22.318125 
" style="fill:none;stroke:#ffffff;stroke-linecap:round;stroke-width:0.8;"/>
     </g>
     <g id="line2d_10"/>
     <g id="text_5">
      <!-- 400 -->
      <g style="fill:#262626;" transform="translate(302.659549 250.856563)scale(0.1 -0.1)">
       <defs>
        <path d="M 2419 4116 
L 825 1625 
L 2419 1625 
L 2419 4116 
z
M 2253 4666 
L 3047 4666 
L 3047 1625 
L 3713 1625 
L 3713 1100 
L 3047 1100 
L 3047 0 
L 2419 0 
L 2419 1100 
L 313 1100 
L 313 1709 
L 2253 4666 
z
" id="DejaVuSans-34" transform="scale(0.015625)"/>
       </defs>
       <use xlink:href="#DejaVuSans-34"/>
       <use x="63.623047" xlink:href="#DejaVuSans-30"/>
       <use x="127.246094" xlink:href="#DejaVuSans-30"/>
      </g>
     </g>
    </g>
    <g id="xtick_6">
     <g id="line2d_11">
      <path clip-path="url(#pde52143953)" d="M 373.198015 239.758125 
L 373.198015 22.318125 
" style="fill:none;stroke:#ffffff;stroke-linecap:round;stroke-width:0.8;"/>
     </g>
     <g id="line2d_12"/>
     <g id="text_6">
      <!-- 500 -->
      <g style="fill:#262626;" transform="translate(363.654265 250.856563)scale(0.1 -0.1)">
       <defs>
        <path d="M 691 4666 
L 3169 4666 
L 3169 4134 
L 1269 4134 
L 1269 2991 
Q 1406 3038 1543 3061 
Q 1681 3084 1819 3084 
Q 2600 3084 3056 2656 
Q 3513 2228 3513 1497 
Q 3513 744 3044 326 
Q 2575 -91 1722 -91 
Q 1428 -91 1123 -41 
Q 819 9 494 109 
L 494 744 
Q 775 591 1075 516 
Q 1375 441 1709 441 
Q 2250 441 2565 725 
Q 2881 1009 2881 1497 
Q 2881 1984 2565 2268 
Q 2250 2553 1709 2553 
Q 1456 2553 1204 2497 
Q 953 2441 691 2322 
L 691 4666 
z
" id="DejaVuSans-35" transform="scale(0.015625)"/>
       </defs>
       <use xlink:href="#DejaVuSans-35"/>
       <use x="63.623047" xlink:href="#DejaVuSans-30"/>
       <use x="127.246094" xlink:href="#DejaVuSans-30"/>
      </g>
     </g>
    </g>
    <g id="text_7">
     <!-- Epoch -->
     <g style="fill:#262626;" transform="translate(205.095313 264.534688)scale(0.1 -0.1)">
      <defs>
       <path d="M 628 4666 
L 3578 4666 
L 3578 4134 
L 1259 4134 
L 1259 2753 
L 3481 2753 
L 3481 2222 
L 1259 2222 
L 1259 531 
L 3634 531 
L 3634 0 
L 628 0 
L 628 4666 
z
" id="DejaVuSans-45" transform="scale(0.015625)"/>
       <path d="M 1159 525 
L 1159 -1331 
L 581 -1331 
L 581 3500 
L 1159 3500 
L 1159 2969 
Q 1341 3281 1617 3432 
Q 1894 3584 2278 3584 
Q 2916 3584 3314 3078 
Q 3713 2572 3713 1747 
Q 3713 922 3314 415 
Q 2916 -91 2278 -91 
Q 1894 -91 1617 61 
Q 1341 213 1159 525 
z
M 3116 1747 
Q 3116 2381 2855 2742 
Q 2594 3103 2138 3103 
Q 1681 3103 1420 2742 
Q 1159 2381 1159 1747 
Q 1159 1113 1420 752 
Q 1681 391 2138 391 
Q 2594 391 2855 752 
Q 3116 1113 3116 1747 
z
" id="DejaVuSans-70" transform="scale(0.015625)"/>
       <path d="M 1959 3097 
Q 1497 3097 1228 2736 
Q 959 2375 959 1747 
Q 959 1119 1226 758 
Q 1494 397 1959 397 
Q 2419 397 2687 759 
Q 2956 1122 2956 1747 
Q 2956 2369 2687 2733 
Q 2419 3097 1959 3097 
z
M 1959 3584 
Q 2709 3584 3137 3096 
Q 3566 2609 3566 1747 
Q 3566 888 3137 398 
Q 2709 -91 1959 -91 
Q 1206 -91 779 398 
Q 353 888 353 1747 
Q 353 2609 779 3096 
Q 1206 3584 1959 3584 
z
" id="DejaVuSans-6f" transform="scale(0.015625)"/>
       <path d="M 3122 3366 
L 3122 2828 
Q 2878 2963 2633 3030 
Q 2388 3097 2138 3097 
Q 1578 3097 1268 2742 
Q 959 2388 959 1747 
Q 959 1106 1268 751 
Q 1578 397 2138 397 
Q 2388 397 2633 464 
Q 2878 531 3122 666 
L 3122 134 
Q 2881 22 2623 -34 
Q 2366 -91 2075 -91 
Q 1284 -91 818 406 
Q 353 903 353 1747 
Q 353 2603 823 3093 
Q 1294 3584 2113 3584 
Q 2378 3584 2631 3529 
Q 2884 3475 3122 3366 
z
" id="DejaVuSans-63" transform="scale(0.015625)"/>
       <path d="M 3513 2113 
L 3513 0 
L 2938 0 
L 2938 2094 
Q 2938 2591 2744 2837 
Q 2550 3084 2163 3084 
Q 1697 3084 1428 2787 
Q 1159 2491 1159 1978 
L 1159 0 
L 581 0 
L 581 4863 
L 1159 4863 
L 1159 2956 
Q 1366 3272 1645 3428 
Q 1925 3584 2291 3584 
Q 2894 3584 3203 3211 
Q 3513 2838 3513 2113 
z
" id="DejaVuSans-68" transform="scale(0.015625)"/>
      </defs>
      <use xlink:href="#DejaVuSans-45"/>
      <use x="63.183594" xlink:href="#DejaVuSans-70"/>
      <use x="126.660156" xlink:href="#DejaVuSans-6f"/>
      <use x="187.841797" xlink:href="#DejaVuSans-63"/>
      <use x="242.822266" xlink:href="#DejaVuSans-68"/>
     </g>
    </g>
   </g>
   <g id="matplotlib.axis_2">
    <g id="ytick_1">
     <g id="line2d_13">
      <path clip-path="url(#pde52143953)" d="M 53.00625 232.905921 
L 387.80625 232.905921 
" style="fill:none;stroke:#ffffff;stroke-linecap:round;stroke-width:0.8;"/>
     </g>
     <g id="line2d_14"/>
     <g id="text_8">
      <!-- 0.000 -->
      <g style="fill:#262626;" transform="translate(20.878125 236.70514)scale(0.1 -0.1)">
       <defs>
        <path d="M 684 794 
L 1344 794 
L 1344 0 
L 684 0 
L 684 794 
z
" id="DejaVuSans-2e" transform="scale(0.015625)"/>
       </defs>
       <use xlink:href="#DejaVuSans-30"/>
       <use x="63.623047" xlink:href="#DejaVuSans-2e"/>
       <use x="95.410156" xlink:href="#DejaVuSans-30"/>
       <use x="159.033203" xlink:href="#DejaVuSans-30"/>
       <use x="222.65625" xlink:href="#DejaVuSans-30"/>
      </g>
     </g>
    </g>
    <g id="ytick_2">
     <g id="line2d_15">
      <path clip-path="url(#pde52143953)" d="M 53.00625 205.046057 
L 387.80625 205.046057 
" style="fill:none;stroke:#ffffff;stroke-linecap:round;stroke-width:0.8;"/>
     </g>
     <g id="line2d_16"/>
     <g id="text_9">
      <!-- 0.005 -->
      <g style="fill:#262626;" transform="translate(20.878125 208.845276)scale(0.1 -0.1)">
       <use xlink:href="#DejaVuSans-30"/>
       <use x="63.623047" xlink:href="#DejaVuSans-2e"/>
       <use x="95.410156" xlink:href="#DejaVuSans-30"/>
       <use x="159.033203" xlink:href="#DejaVuSans-30"/>
       <use x="222.65625" xlink:href="#DejaVuSans-35"/>
      </g>
     </g>
    </g>
    <g id="ytick_3">
     <g id="line2d_17">
      <path clip-path="url(#pde52143953)" d="M 53.00625 177.186193 
L 387.80625 177.186193 
" style="fill:none;stroke:#ffffff;stroke-linecap:round;stroke-width:0.8;"/>
     </g>
     <g id="line2d_18"/>
     <g id="text_10">
      <!-- 0.010 -->
      <g style="fill:#262626;" transform="translate(20.878125 180.985412)scale(0.1 -0.1)">
       <use xlink:href="#DejaVuSans-30"/>
       <use x="63.623047" xlink:href="#DejaVuSans-2e"/>
       <use x="95.410156" xlink:href="#DejaVuSans-30"/>
       <use x="159.033203" xlink:href="#DejaVuSans-31"/>
       <use x="222.65625" xlink:href="#DejaVuSans-30"/>
      </g>
     </g>
    </g>
    <g id="ytick_4">
     <g id="line2d_19">
      <path clip-path="url(#pde52143953)" d="M 53.00625 149.326329 
L 387.80625 149.326329 
" style="fill:none;stroke:#ffffff;stroke-linecap:round;stroke-width:0.8;"/>
     </g>
     <g id="line2d_20"/>
     <g id="text_11">
      <!-- 0.015 -->
      <g style="fill:#262626;" transform="translate(20.878125 153.125547)scale(0.1 -0.1)">
       <use xlink:href="#DejaVuSans-30"/>
       <use x="63.623047" xlink:href="#DejaVuSans-2e"/>
       <use x="95.410156" xlink:href="#DejaVuSans-30"/>
       <use x="159.033203" xlink:href="#DejaVuSans-31"/>
       <use x="222.65625" xlink:href="#DejaVuSans-35"/>
      </g>
     </g>
    </g>
    <g id="ytick_5">
     <g id="line2d_21">
      <path clip-path="url(#pde52143953)" d="M 53.00625 121.466465 
L 387.80625 121.466465 
" style="fill:none;stroke:#ffffff;stroke-linecap:round;stroke-width:0.8;"/>
     </g>
     <g id="line2d_22"/>
     <g id="text_12">
      <!-- 0.020 -->
      <g style="fill:#262626;" transform="translate(20.878125 125.265683)scale(0.1 -0.1)">
       <use xlink:href="#DejaVuSans-30"/>
       <use x="63.623047" xlink:href="#DejaVuSans-2e"/>
       <use x="95.410156" xlink:href="#DejaVuSans-30"/>
       <use x="159.033203" xlink:href="#DejaVuSans-32"/>
       <use x="222.65625" xlink:href="#DejaVuSans-30"/>
      </g>
     </g>
    </g>
    <g id="ytick_6">
     <g id="line2d_23">
      <path clip-path="url(#pde52143953)" d="M 53.00625 93.606601 
L 387.80625 93.606601 
" style="fill:none;stroke:#ffffff;stroke-linecap:round;stroke-width:0.8;"/>
     </g>
     <g id="line2d_24"/>
     <g id="text_13">
      <!-- 0.025 -->
      <g style="fill:#262626;" transform="translate(20.878125 97.405819)scale(0.1 -0.1)">
       <use xlink:href="#DejaVuSans-30"/>
       <use x="63.623047" xlink:href="#DejaVuSans-2e"/>
       <use x="95.410156" xlink:href="#DejaVuSans-30"/>
       <use x="159.033203" xlink:href="#DejaVuSans-32"/>
       <use x="222.65625" xlink:href="#DejaVuSans-35"/>
      </g>
     </g>
    </g>
    <g id="ytick_7">
     <g id="line2d_25">
      <path clip-path="url(#pde52143953)" d="M 53.00625 65.746736 
L 387.80625 65.746736 
" style="fill:none;stroke:#ffffff;stroke-linecap:round;stroke-width:0.8;"/>
     </g>
     <g id="line2d_26"/>
     <g id="text_14">
      <!-- 0.030 -->
      <g style="fill:#262626;" transform="translate(20.878125 69.545955)scale(0.1 -0.1)">
       <use xlink:href="#DejaVuSans-30"/>
       <use x="63.623047" xlink:href="#DejaVuSans-2e"/>
       <use x="95.410156" xlink:href="#DejaVuSans-30"/>
       <use x="159.033203" xlink:href="#DejaVuSans-33"/>
       <use x="222.65625" xlink:href="#DejaVuSans-30"/>
      </g>
     </g>
    </g>
    <g id="ytick_8">
     <g id="line2d_27">
      <path clip-path="url(#pde52143953)" d="M 53.00625 37.886872 
L 387.80625 37.886872 
" style="fill:none;stroke:#ffffff;stroke-linecap:round;stroke-width:0.8;"/>
     </g>
     <g id="line2d_28"/>
     <g id="text_15">
      <!-- 0.035 -->
      <g style="fill:#262626;" transform="translate(20.878125 41.686091)scale(0.1 -0.1)">
       <use xlink:href="#DejaVuSans-30"/>
       <use x="63.623047" xlink:href="#DejaVuSans-2e"/>
       <use x="95.410156" xlink:href="#DejaVuSans-30"/>
       <use x="159.033203" xlink:href="#DejaVuSans-33"/>
       <use x="222.65625" xlink:href="#DejaVuSans-35"/>
      </g>
     </g>
    </g>
    <g id="text_16">
     <!-- Test Dataset Loss -->
     <g style="fill:#262626;" transform="translate(14.798438 174.608438)rotate(-90)scale(0.1 -0.1)">
      <defs>
       <path d="M -19 4666 
L 3928 4666 
L 3928 4134 
L 2272 4134 
L 2272 0 
L 1638 0 
L 1638 4134 
L -19 4134 
L -19 4666 
z
" id="DejaVuSans-54" transform="scale(0.015625)"/>
       <path d="M 3597 1894 
L 3597 1613 
L 953 1613 
Q 991 1019 1311 708 
Q 1631 397 2203 397 
Q 2534 397 2845 478 
Q 3156 559 3463 722 
L 3463 178 
Q 3153 47 2828 -22 
Q 2503 -91 2169 -91 
Q 1331 -91 842 396 
Q 353 884 353 1716 
Q 353 2575 817 3079 
Q 1281 3584 2069 3584 
Q 2775 3584 3186 3129 
Q 3597 2675 3597 1894 
z
M 3022 2063 
Q 3016 2534 2758 2815 
Q 2500 3097 2075 3097 
Q 1594 3097 1305 2825 
Q 1016 2553 972 2059 
L 3022 2063 
z
" id="DejaVuSans-65" transform="scale(0.015625)"/>
       <path d="M 2834 3397 
L 2834 2853 
Q 2591 2978 2328 3040 
Q 2066 3103 1784 3103 
Q 1356 3103 1142 2972 
Q 928 2841 928 2578 
Q 928 2378 1081 2264 
Q 1234 2150 1697 2047 
L 1894 2003 
Q 2506 1872 2764 1633 
Q 3022 1394 3022 966 
Q 3022 478 2636 193 
Q 2250 -91 1575 -91 
Q 1294 -91 989 -36 
Q 684 19 347 128 
L 347 722 
Q 666 556 975 473 
Q 1284 391 1588 391 
Q 1994 391 2212 530 
Q 2431 669 2431 922 
Q 2431 1156 2273 1281 
Q 2116 1406 1581 1522 
L 1381 1569 
Q 847 1681 609 1914 
Q 372 2147 372 2553 
Q 372 3047 722 3315 
Q 1072 3584 1716 3584 
Q 2034 3584 2315 3537 
Q 2597 3491 2834 3397 
z
" id="DejaVuSans-73" transform="scale(0.015625)"/>
       <path d="M 1172 4494 
L 1172 3500 
L 2356 3500 
L 2356 3053 
L 1172 3053 
L 1172 1153 
Q 1172 725 1289 603 
Q 1406 481 1766 481 
L 2356 481 
L 2356 0 
L 1766 0 
Q 1100 0 847 248 
Q 594 497 594 1153 
L 594 3053 
L 172 3053 
L 172 3500 
L 594 3500 
L 594 4494 
L 1172 4494 
z
" id="DejaVuSans-74" transform="scale(0.015625)"/>
       <path id="DejaVuSans-20" transform="scale(0.015625)"/>
       <path d="M 1259 4147 
L 1259 519 
L 2022 519 
Q 2988 519 3436 956 
Q 3884 1394 3884 2338 
Q 3884 3275 3436 3711 
Q 2988 4147 2022 4147 
L 1259 4147 
z
M 628 4666 
L 1925 4666 
Q 3281 4666 3915 4102 
Q 4550 3538 4550 2338 
Q 4550 1131 3912 565 
Q 3275 0 1925 0 
L 628 0 
L 628 4666 
z
" id="DejaVuSans-44" transform="scale(0.015625)"/>
       <path d="M 2194 1759 
Q 1497 1759 1228 1600 
Q 959 1441 959 1056 
Q 959 750 1161 570 
Q 1363 391 1709 391 
Q 2188 391 2477 730 
Q 2766 1069 2766 1631 
L 2766 1759 
L 2194 1759 
z
M 3341 1997 
L 3341 0 
L 2766 0 
L 2766 531 
Q 2569 213 2275 61 
Q 1981 -91 1556 -91 
Q 1019 -91 701 211 
Q 384 513 384 1019 
Q 384 1609 779 1909 
Q 1175 2209 1959 2209 
L 2766 2209 
L 2766 2266 
Q 2766 2663 2505 2880 
Q 2244 3097 1772 3097 
Q 1472 3097 1187 3025 
Q 903 2953 641 2809 
L 641 3341 
Q 956 3463 1253 3523 
Q 1550 3584 1831 3584 
Q 2591 3584 2966 3190 
Q 3341 2797 3341 1997 
z
" id="DejaVuSans-61" transform="scale(0.015625)"/>
       <path d="M 628 4666 
L 1259 4666 
L 1259 531 
L 3531 531 
L 3531 0 
L 628 0 
L 628 4666 
z
" id="DejaVuSans-4c" transform="scale(0.015625)"/>
      </defs>
      <use xlink:href="#DejaVuSans-54"/>
      <use x="44.083984" xlink:href="#DejaVuSans-65"/>
      <use x="105.607422" xlink:href="#DejaVuSans-73"/>
      <use x="157.707031" xlink:href="#DejaVuSans-74"/>
      <use x="196.916016" xlink:href="#DejaVuSans-20"/>
      <use x="228.703125" xlink:href="#DejaVuSans-44"/>
      <use x="305.705078" xlink:href="#DejaVuSans-61"/>
      <use x="366.984375" xlink:href="#DejaVuSans-74"/>
      <use x="406.193359" xlink:href="#DejaVuSans-61"/>
      <use x="467.472656" xlink:href="#DejaVuSans-73"/>
      <use x="519.572266" xlink:href="#DejaVuSans-65"/>
      <use x="581.095703" xlink:href="#DejaVuSans-74"/>
      <use x="620.304688" xlink:href="#DejaVuSans-20"/>
      <use x="652.091797" xlink:href="#DejaVuSans-4c"/>
      <use x="706.054688" xlink:href="#DejaVuSans-6f"/>
      <use x="767.236328" xlink:href="#DejaVuSans-73"/>
      <use x="819.335938" xlink:href="#DejaVuSans-73"/>
     </g>
    </g>
   </g>
   <g id="line2d_29">
    <path clip-path="url(#pde52143953)" d="M 68.224432 82.561535 
L 68.834379 82.270187 
L 69.444326 82.322144 
L 70.054273 82.141978 
L 70.66422 82.406812 
L 71.274168 91.925343 
L 71.884115 95.406199 
L 73.713956 95.855164 
L 74.323903 91.556045 
L 74.933851 97.850034 
L 75.543798 94.045039 
L 76.153745 95.538985 
L 76.763692 95.596499 
L 77.373639 100.144189 
L 77.983586 100.273497 
L 78.593534 103.611022 
L 79.203481 103.143799 
L 79.813428 102.273354 
L 80.423375 101.803641 
L 81.033322 100.548648 
L 81.643269 100.421092 
L 82.253217 98.188181 
L 82.863164 104.878307 
L 83.473111 104.938414 
L 84.083058 103.542988 
L 84.693005 100.579833 
L 85.302952 99.477832 
L 85.9129 99.36835 
L 86.522847 103.840828 
L 87.132794 99.279278 
L 87.742741 106.388166 
L 88.352688 102.714599 
L 88.962635 101.090151 
L 89.572583 106.864096 
L 90.18253 99.955931 
L 91.402424 103.895656 
L 92.012371 103.262828 
L 92.622319 94.853282 
L 93.232266 96.356591 
L 93.842213 105.429057 
L 94.45216 100.655482 
L 95.062107 103.177603 
L 95.672054 101.503772 
L 96.282002 98.593247 
L 96.891949 99.694078 
L 97.501896 97.526051 
L 98.111843 100.214677 
L 98.72179 94.159634 
L 99.331737 101.572178 
L 99.941685 102.124642 
L 100.551632 101.461584 
L 101.161579 98.661996 
L 101.771526 101.170668 
L 102.381473 99.943126 
L 102.99142 94.093196 
L 103.601368 98.787359 
L 104.211315 93.294459 
L 104.821262 98.024788 
L 105.431209 98.805956 
L 106.041156 96.472791 
L 106.651103 87.89306 
L 107.261051 97.623996 
L 107.870998 88.428181 
L 108.480945 97.438451 
L 109.090892 93.622846 
L 109.700839 94.513994 
L 110.310786 86.693823 
L 110.920734 85.657502 
L 111.530681 94.568835 
L 112.140628 91.955413 
L 112.750575 88.086955 
L 113.360522 87.364672 
L 113.970469 92.330651 
L 114.580417 92.133072 
L 115.190364 88.043569 
L 115.800311 90.436242 
L 116.410258 80.772615 
L 117.020205 85.896302 
L 117.630152 89.056975 
L 118.2401 81.899 
L 118.850047 83.08146 
L 119.459994 86.853605 
L 120.069941 83.806297 
L 120.679888 82.853789 
L 121.289835 79.451969 
L 121.899783 80.055272 
L 122.50973 83.789329 
L 123.119677 82.091621 
L 123.729624 83.191415 
L 124.339571 83.865488 
L 124.949518 74.831004 
L 125.559466 77.085593 
L 126.169413 78.365199 
L 126.77936 72.537 
L 127.389307 72.564423 
L 127.999254 82.698006 
L 128.609201 78.846733 
L 129.219149 70.484085 
L 129.829096 75.149103 
L 130.439043 80.858517 
L 131.04899 78.911863 
L 131.658937 75.574749 
L 132.268884 74.419178 
L 132.878832 73.59697 
L 133.488779 69.790179 
L 134.098726 68.181413 
L 134.708673 75.671717 
L 135.31862 71.59731 
L 135.928567 69.076422 
L 136.538515 65.386585 
L 137.148462 74.666036 
L 137.758409 67.018838 
L 138.368356 64.769582 
L 138.978303 73.380188 
L 139.58825 70.835073 
L 140.198198 69.232626 
L 140.808145 70.601356 
L 141.418092 56.46896 
L 142.028039 66.570929 
L 142.637986 63.705701 
L 143.247933 71.050164 
L 143.857881 73.988121 
L 144.467828 63.688595 
L 145.077775 61.257491 
L 145.687722 66.741853 
L 146.297669 67.063314 
L 146.907616 50.985628 
L 147.517564 64.748356 
L 148.127511 69.860543 
L 148.737458 57.834337 
L 149.347405 59.720447 
L 149.957352 63.062508 
L 150.567299 56.160944 
L 151.177247 60.920079 
L 151.787194 62.926213 
L 152.397141 60.679388 
L 153.007088 63.137328 
L 153.617035 64.877182 
L 154.226982 64.096359 
L 154.83693 66.185831 
L 155.446877 60.158383 
L 156.056824 67.128722 
L 156.666771 62.998281 
L 157.276718 56.461232 
L 157.886665 58.972926 
L 158.496613 58.355175 
L 159.10656 60.597409 
L 159.716507 62.312317 
L 160.326454 66.541006 
L 160.936401 56.743132 
L 161.546348 50.120713 
L 162.156296 57.556698 
L 162.766243 56.20326 
L 163.37619 54.017952 
L 163.986137 58.855831 
L 164.596084 50.467017 
L 165.206031 56.598307 
L 166.425926 66.869017 
L 167.035873 58.36 
L 167.64582 56.81806 
L 168.255767 62.922934 
L 168.865714 55.915975 
L 169.475662 53.27585 
L 170.085609 58.356464 
L 170.695556 57.825164 
L 171.305503 60.272561 
L 171.91545 58.182887 
L 172.525397 50.038281 
L 173.135345 60.789008 
L 173.745292 52.619064 
L 174.355239 62.792388 
L 174.965186 57.090443 
L 175.575133 63.37953 
L 176.18508 57.713113 
L 176.795028 45.158821 
L 177.404975 60.212094 
L 178.014922 37.846997 
L 178.624869 51.782375 
L 179.234816 53.036368 
L 179.844763 55.524403 
L 180.454711 52.78956 
L 181.064658 55.144484 
L 181.674605 49.893263 
L 182.284552 59.099544 
L 182.894499 55.632384 
L 183.504446 57.526379 
L 184.114394 55.600021 
L 184.724341 48.258407 
L 185.334288 53.124524 
L 185.944235 50.073417 
L 186.554182 56.444439 
L 187.164129 55.778877 
L 187.774077 60.770964 
L 188.384024 50.555188 
L 188.993971 48.897613 
L 189.603918 57.909474 
L 190.213865 59.876272 
L 190.823812 59.399025 
L 191.43376 56.797766 
L 192.043707 64.326323 
L 192.653654 44.806456 
L 193.263601 55.233151 
L 193.873548 49.896441 
L 194.483495 53.403168 
L 195.093443 50.946184 
L 195.70339 49.340571 
L 196.313337 54.560706 
L 196.923284 53.913641 
L 197.533231 54.484562 
L 198.143178 53.446237 
L 198.753126 59.240089 
L 199.363073 52.858543 
L 199.97302 55.765975 
L 200.582967 56.270592 
L 201.192914 52.143456 
L 201.802861 53.088119 
L 202.412809 47.506669 
L 203.022756 57.012915 
L 203.632703 55.308124 
L 204.24265 57.921628 
L 204.852597 56.512305 
L 205.462544 39.441163 
L 206.072492 42.214288 
L 206.682439 55.95629 
L 207.292386 60.969603 
L 207.902333 55.5956 
L 208.51228 55.470314 
L 209.122227 47.469158 
L 209.732175 57.868413 
L 210.342122 54.907078 
L 210.952069 60.677951 
L 211.562016 58.26653 
L 212.171963 54.217516 
L 212.78191 59.298702 
L 213.391858 44.56393 
L 214.001805 49.483347 
L 214.611752 55.835474 
L 215.221699 58.152525 
L 215.831646 56.967764 
L 216.441593 48.692353 
L 217.051541 51.655157 
L 217.661488 53.292803 
L 218.271435 48.058072 
L 219.491329 58.520045 
L 220.101276 59.85007 
L 220.711224 58.041353 
L 221.321171 54.07338 
L 221.931118 51.527362 
L 222.541065 43.701736 
L 223.151012 48.941931 
L 223.760959 56.820686 
L 224.370907 52.775494 
L 224.980854 46.290303 
L 225.590801 52.514265 
L 226.200748 43.340821 
L 226.810695 48.203025 
L 227.420642 44.475031 
L 228.03059 49.58501 
L 228.640537 58.326942 
L 229.250484 55.210952 
L 229.860431 54.67533 
L 230.470378 55.04459 
L 231.080325 49.268155 
L 231.690273 47.563232 
L 232.30022 56.780907 
L 232.910167 53.163435 
L 234.130061 55.775419 
L 234.740008 55.966694 
L 235.349956 56.669214 
L 235.959903 54.371697 
L 237.179797 44.12057 
L 237.789744 49.516312 
L 238.399691 48.996138 
L 239.009639 51.31511 
L 239.619586 57.735298 
L 240.229533 54.438046 
L 240.83948 55.1137 
L 241.449427 53.584181 
L 242.059374 51.329573 
L 242.669322 52.582197 
L 243.279269 55.273942 
L 243.889216 54.59257 
L 244.499163 52.436881 
L 245.10911 56.428358 
L 245.719057 57.410739 
L 246.329005 55.62577 
L 246.938952 42.097787 
L 247.548899 49.188903 
L 248.768793 54.513906 
L 249.37874 52.088873 
L 249.988688 56.368203 
L 250.598635 53.995475 
L 251.208582 53.231298 
L 251.818529 54.273631 
L 253.038423 44.84544 
L 253.648371 45.315713 
L 254.258318 48.051105 
L 254.868265 52.504748 
L 255.478212 51.786158 
L 256.088159 50.520069 
L 256.698106 51.351829 
L 257.308054 52.91121 
L 257.918001 53.059832 
L 258.527948 52.51952 
L 259.137895 54.010843 
L 259.747842 48.344294 
L 260.357789 32.201761 
L 260.967737 49.502625 
L 261.577684 53.745225 
L 262.187631 51.516783 
L 262.797578 54.489898 
L 263.407525 56.051765 
L 264.017472 52.565943 
L 264.62742 52.225059 
L 265.237367 53.344276 
L 265.847314 50.844143 
L 266.457261 54.03522 
L 267.067208 54.557789 
L 267.677155 52.278229 
L 268.287103 38.804277 
L 268.89705 54.792008 
L 269.506997 50.16748 
L 270.116944 52.793352 
L 270.726891 54.866197 
L 271.336838 53.427587 
L 271.946786 54.848655 
L 272.556733 53.256766 
L 273.16668 52.96445 
L 273.776627 49.290663 
L 274.386574 51.53365 
L 274.996521 46.62773 
L 275.606469 51.528807 
L 276.216416 51.535619 
L 276.826363 52.989295 
L 277.43631 56.007491 
L 278.046257 53.490372 
L 278.656204 53.321296 
L 279.266152 51.127036 
L 279.876099 52.807689 
L 280.486046 45.405333 
L 281.095993 40.564511 
L 281.70594 52.369312 
L 282.315887 51.530788 
L 282.925835 52.828652 
L 283.535782 53.626034 
L 284.145729 53.456288 
L 284.755676 53.53574 
L 285.365623 51.384535 
L 285.97557 55.622118 
L 286.585518 38.665932 
L 287.195465 48.496492 
L 287.805412 52.835117 
L 288.415359 52.047289 
L 289.025306 54.300882 
L 289.635253 51.837721 
L 290.245201 50.152642 
L 290.855148 52.404528 
L 291.465095 50.943295 
L 292.075042 51.731205 
L 292.684989 48.897915 
L 293.294936 47.813686 
L 293.904884 50.733851 
L 294.514831 48.248989 
L 295.124778 55.256981 
L 295.734725 52.550039 
L 296.344672 52.453684 
L 296.954619 52.807551 
L 297.564567 53.718166 
L 298.174514 51.261056 
L 298.784461 46.606344 
L 299.394408 52.481446 
L 300.004355 39.796673 
L 300.614302 41.233906 
L 301.22425 35.048771 
L 301.834197 49.765741 
L 303.054091 50.794447 
L 303.664038 50.623763 
L 304.273985 51.282115 
L 304.883933 50.679095 
L 305.49388 51.316122 
L 306.103827 48.411866 
L 306.713774 49.238252 
L 307.323721 48.190753 
L 307.933668 54.67358 
L 308.543616 49.863065 
L 309.153563 53.660998 
L 309.76351 55.288772 
L 310.373457 52.728848 
L 310.983404 54.60639 
L 311.593351 55.02234 
L 312.203299 51.874452 
L 312.813246 53.539598 
L 313.423193 33.787741 
L 314.03314 43.399278 
L 314.643087 49.128516 
L 315.253034 50.134205 
L 315.862982 49.499192 
L 316.472929 50.047644 
L 317.082876 48.333672 
L 317.692823 49.188572 
L 318.30277 49.538169 
L 318.912717 49.097051 
L 319.522665 51.843989 
L 320.132612 47.229416 
L 320.742559 46.643214 
L 321.352506 49.650256 
L 321.962453 47.212325 
L 322.5724 50.641746 
L 323.182348 51.994335 
L 323.792295 49.858063 
L 324.402242 49.432906 
L 325.012189 50.418873 
L 325.622136 52.053357 
L 326.232083 47.924341 
L 326.842031 41.151826 
L 327.451978 47.037774 
L 328.061925 47.084228 
L 328.671872 50.116354 
L 329.281819 51.385975 
L 329.891766 50.593791 
L 330.501714 51.253231 
L 331.111661 49.417142 
L 331.721608 49.9884 
L 332.331555 47.631884 
L 332.941502 47.493753 
L 333.551449 47.523088 
L 334.161397 49.582471 
L 334.771344 48.655916 
L 335.381291 51.180849 
L 335.991238 54.468195 
L 336.601185 52.142742 
L 337.211132 51.03897 
L 337.82108 44.285893 
L 338.431027 48.589349 
L 339.040974 49.883253 
L 339.650921 53.569179 
L 340.260868 52.186272 
L 340.870815 51.847635 
L 341.480763 51.812284 
L 342.09071 50.877401 
L 342.700657 51.192178 
L 343.310604 50.927232 
L 343.920551 46.5499 
L 344.530498 49.510688 
L 345.140446 50.86932 
L 345.750393 48.945594 
L 346.36034 45.258011 
L 346.970287 48.527436 
L 347.580234 47.336647 
L 348.190181 50.462836 
L 348.800129 50.459867 
L 349.410076 52.630415 
L 350.020023 52.536048 
L 350.62997 50.906269 
L 351.239917 50.20934 
L 351.849865 49.895035 
L 352.459812 48.158093 
L 353.069759 52.151994 
L 353.679706 47.909293 
L 354.289653 50.356814 
L 354.8996 53.986955 
L 355.509548 52.977331 
L 356.119495 52.602698 
L 356.729442 51.596117 
L 357.339389 51.331476 
L 357.949336 54.230032 
L 358.559283 36.306559 
L 359.169231 45.452082 
L 359.779178 51.464408 
L 360.389125 51.409558 
L 360.999072 51.038737 
L 361.609019 51.242578 
L 362.828914 48.720027 
L 363.438861 50.670981 
L 364.048808 49.812606 
L 364.658755 51.946993 
L 365.268702 47.233489 
L 365.878649 46.96637 
L 366.488597 51.613626 
L 367.098544 51.917539 
L 367.708491 51.693478 
L 368.318438 49.98056 
L 368.928385 38.240098 
L 369.538332 46.087408 
L 370.14828 46.933853 
L 370.758227 49.861402 
L 371.368174 50.225701 
L 371.978121 48.732416 
L 372.588068 49.132167 
L 372.588068 49.132167 
" style="fill:none;stroke:#0173b2;stroke-linecap:round;stroke-width:1.5;"/>
   </g>
   <g id="line2d_30">
    <path clip-path="url(#pde52143953)" d="M 68.224432 79.654987 
L 68.834379 201.259986 
L 69.444326 213.16831 
L 70.054273 214.994289 
L 70.66422 215.768259 
L 71.884115 218.050216 
L 72.494062 218.118679 
L 73.104009 219.070127 
L 74.323903 219.915154 
L 74.933851 219.979805 
L 75.543798 220.468281 
L 76.153745 220.470878 
L 76.763692 221.866482 
L 77.373639 221.608759 
L 77.983586 221.776993 
L 79.203481 222.47644 
L 79.813428 223.669531 
L 80.423375 223.967271 
L 81.033322 222.796479 
L 82.253217 224.770311 
L 82.863164 224.446163 
L 83.473111 224.882229 
L 84.083058 224.547766 
L 84.693005 224.674268 
L 85.302952 225.190849 
L 85.9129 224.913039 
L 86.522847 225.406812 
L 87.742741 225.48977 
L 88.352688 224.621324 
L 88.962635 225.764174 
L 89.572583 225.186239 
L 90.18253 225.75405 
L 90.792477 225.93021 
L 91.402424 225.541326 
L 92.012371 226.072684 
L 92.622319 226.18782 
L 93.232266 225.368624 
L 93.842213 225.954041 
L 94.45216 226.229676 
L 95.672054 225.940095 
L 96.282002 226.391855 
L 97.501896 226.613771 
L 98.111843 226.080945 
L 98.72179 226.475299 
L 99.331737 226.406235 
L 99.941685 226.172473 
L 101.161579 226.409656 
L 101.771526 226.437785 
L 102.381473 226.347888 
L 104.211315 226.538088 
L 104.821262 226.179259 
L 105.431209 226.837933 
L 106.651103 226.597201 
L 107.261051 226.214444 
L 107.870998 226.403906 
L 108.480945 226.269488 
L 109.090892 226.319385 
L 109.700839 226.79815 
L 110.310786 226.668515 
L 110.920734 226.917614 
L 111.530681 226.961798 
L 112.140628 226.715986 
L 112.750575 226.806621 
L 113.360522 226.633483 
L 113.970469 226.945272 
L 114.580417 226.628401 
L 115.190364 226.577832 
L 116.410258 226.937665 
L 117.020205 226.898108 
L 117.630152 227.10304 
L 118.2401 226.747994 
L 118.850047 226.870731 
L 119.459994 227.138027 
L 121.899783 226.938487 
L 122.50973 226.949044 
L 123.119677 226.834359 
L 123.729624 226.863564 
L 124.339571 227.018278 
L 124.949518 227.057381 
L 125.559466 226.90774 
L 126.169413 226.923635 
L 126.77936 226.824093 
L 127.389307 227.112621 
L 127.999254 226.854193 
L 128.609201 226.807367 
L 129.829096 227.217439 
L 131.04899 226.654704 
L 131.658937 226.770177 
L 132.268884 227.09951 
L 132.878832 227.034942 
L 133.488779 227.108063 
L 134.098726 226.927644 
L 134.708673 226.953619 
L 135.31862 226.676188 
L 135.928567 227.092225 
L 138.368356 226.833735 
L 138.978303 227.05192 
L 139.58825 227.002748 
L 140.198198 226.772656 
L 140.808145 226.909173 
L 141.418092 226.880575 
L 142.028039 227.046988 
L 143.247933 226.930555 
L 144.467828 226.995649 
L 145.077775 226.607367 
L 146.297669 227.100039 
L 146.907616 226.901095 
L 147.517564 226.985896 
L 148.127511 226.935081 
L 148.737458 227.146511 
L 149.347405 226.460119 
L 149.957352 226.982039 
L 150.567299 227.09684 
L 151.177247 226.897225 
L 152.397141 226.666589 
L 153.007088 226.908451 
L 153.617035 226.686707 
L 154.226982 226.834402 
L 154.83693 227.157741 
L 156.056824 227.024136 
L 156.666771 226.910617 
L 157.276718 226.63528 
L 157.886665 226.835908 
L 158.496613 226.909953 
L 159.716507 226.816526 
L 160.326454 226.942363 
L 160.936401 226.849101 
L 161.546348 226.921868 
L 162.156296 226.832926 
L 162.766243 227.033974 
L 163.986137 226.639063 
L 164.596084 227.049013 
L 165.815979 226.901418 
L 166.425926 226.593241 
L 167.035873 226.826549 
L 167.64582 226.650448 
L 168.865714 227.005146 
L 170.085609 226.731616 
L 170.695556 226.956472 
L 171.91545 226.901627 
L 172.525397 226.662373 
L 173.745292 227.071331 
L 174.355239 227.039769 
L 174.965186 226.606188 
L 175.575133 226.819429 
L 176.18508 226.397404 
L 176.795028 227.028891 
L 177.404975 226.912255 
L 178.014922 226.529087 
L 178.624869 226.790665 
L 179.844763 226.868563 
L 180.454711 226.795305 
L 181.064658 226.871474 
L 181.674605 226.731991 
L 182.894499 226.93794 
L 183.504446 226.897727 
L 184.724341 226.432071 
L 185.334288 226.859568 
L 185.944235 226.831388 
L 186.554182 226.458928 
L 187.164129 226.80682 
L 188.384024 226.495016 
L 188.993971 226.711689 
L 190.213865 226.816534 
L 192.043707 226.822463 
L 192.653654 226.869589 
L 193.263601 226.685742 
L 193.873548 226.851507 
L 194.483495 226.812912 
L 195.093443 226.458064 
L 195.70339 226.69615 
L 196.313337 226.57634 
L 196.923284 226.68568 
L 197.533231 226.585349 
L 198.753126 226.684782 
L 199.363073 226.519528 
L 199.97302 226.782986 
L 202.412809 226.628768 
L 203.022756 226.223293 
L 203.632703 226.675369 
L 204.24265 226.641579 
L 204.852597 226.756698 
L 206.072492 226.589258 
L 206.682439 226.714612 
L 207.292386 226.446263 
L 207.902333 226.641427 
L 208.51228 226.671535 
L 209.122227 226.564741 
L 209.732175 226.70924 
L 213.391858 226.76706 
L 214.001805 226.527973 
L 214.611752 226.725324 
L 215.221699 226.552816 
L 215.831646 226.773598 
L 217.051541 226.541836 
L 217.661488 226.531269 
L 218.271435 226.665791 
L 220.101276 226.636576 
L 220.711224 226.523135 
L 221.931118 226.7055 
L 222.541065 226.509348 
L 223.151012 226.589694 
L 223.760959 226.408254 
L 224.370907 226.603963 
L 224.980854 226.66303 
L 226.200748 226.43158 
L 226.810695 226.668182 
L 228.640537 226.490268 
L 229.860431 226.647141 
L 230.470378 226.637546 
L 231.080325 226.384106 
L 231.690273 226.693463 
L 232.910167 226.614165 
L 233.520114 226.66699 
L 234.130061 226.464548 
L 234.740008 226.415687 
L 235.349956 226.567398 
L 236.56985 226.490367 
L 237.789744 226.450513 
L 238.399691 226.361444 
L 239.009639 226.585208 
L 240.229533 226.581863 
L 241.449427 226.415833 
L 243.889216 226.56073 
L 245.719057 226.454396 
L 249.37874 226.268737 
L 249.988688 226.492296 
L 250.598635 226.576748 
L 251.208582 226.449229 
L 251.818529 226.579176 
L 252.428476 226.466284 
L 254.868265 226.420632 
L 255.478212 226.34251 
L 256.698106 226.424339 
L 257.308054 226.271534 
L 257.918001 226.393806 
L 258.527948 226.302848 
L 259.137895 226.478408 
L 262.797578 226.446621 
L 263.407525 226.595131 
L 264.017472 226.292395 
L 264.62742 226.293224 
L 265.237367 226.431972 
L 267.067208 226.386593 
L 269.506997 226.422836 
L 270.116944 226.197419 
L 270.726891 226.379724 
L 271.336838 226.423979 
L 271.946786 226.132339 
L 272.556733 226.33248 
L 274.386574 226.326042 
L 274.996521 226.479182 
L 276.216416 226.397492 
L 278.046257 226.477267 
L 278.656204 226.172171 
L 279.266152 226.468172 
L 279.876099 226.318706 
L 281.70594 226.381407 
L 283.535782 226.183395 
L 284.755676 226.430689 
L 286.585518 226.223145 
L 287.195465 226.418535 
L 288.415359 226.390095 
L 289.635253 226.310603 
L 290.855148 226.42454 
L 292.075042 226.344411 
L 294.514831 226.133018 
L 295.734725 226.28595 
L 296.954619 226.358106 
L 299.394408 226.162215 
L 300.004355 226.329684 
L 300.614302 226.190535 
L 303.664038 226.375065 
L 304.883933 226.318316 
L 310.373457 226.399104 
L 310.983404 226.134952 
L 311.593351 226.136176 
L 312.203299 226.33185 
L 313.423193 226.254215 
L 314.03314 226.361906 
L 314.643087 226.279247 
L 315.253034 226.412352 
L 315.862982 225.907647 
L 317.082876 226.35242 
L 319.522665 226.327006 
L 321.352506 226.106133 
L 321.962453 226.119348 
L 322.5724 226.344513 
L 323.182348 226.346412 
L 323.792295 226.101087 
L 325.622136 226.371879 
L 326.232083 226.265962 
L 326.842031 226.346526 
L 327.451978 226.162913 
L 328.061925 226.25751 
L 328.671872 226.159698 
L 329.281819 226.334646 
L 330.501714 226.31926 
L 331.111661 226.309155 
L 331.721608 226.122874 
L 335.991238 226.284494 
L 337.211132 226.136452 
L 339.650921 226.378065 
L 340.260868 226.277315 
L 340.870815 226.29094 
L 341.480763 226.152558 
L 346.970287 226.205991 
L 347.580234 226.353964 
L 348.190181 226.355082 
L 348.800129 226.154353 
L 349.410076 226.345776 
L 351.849865 226.145009 
L 352.459812 226.27304 
L 354.8996 226.282674 
L 355.509548 226.088335 
L 356.119495 226.257058 
L 356.729442 226.258001 
L 357.339389 226.371118 
L 360.999072 226.116623 
L 361.609019 226.238307 
L 362.218966 226.094523 
L 363.438861 226.32567 
L 364.048808 226.333936 
L 364.658755 226.220642 
L 365.878649 226.247778 
L 367.098544 226.001596 
L 368.318438 226.365264 
L 368.928385 226.301894 
L 370.14828 226.373425 
L 372.588068 226.223398 
L 372.588068 226.223398 
" style="fill:none;stroke:#de8f05;stroke-linecap:round;stroke-width:1.5;"/>
   </g>
   <g id="line2d_31">
    <path clip-path="url(#pde52143953)" d="M 68.224432 82.321758 
L 68.834379 216.64046 
L 69.444326 218.879992 
L 70.054273 219.33111 
L 70.66422 220.884042 
L 71.884115 222.223031 
L 72.494062 223.238216 
L 73.104009 224.743497 
L 73.713956 224.951821 
L 74.323903 225.579137 
L 74.933851 226.828943 
L 75.543798 227.212856 
L 76.153745 226.882179 
L 76.763692 227.534685 
L 77.373639 227.719256 
L 77.983586 227.501321 
L 78.593534 227.949573 
L 79.203481 228.053483 
L 79.813428 228.686705 
L 80.423375 228.105605 
L 81.033322 228.641972 
L 81.643269 228.762125 
L 82.253217 228.750793 
L 82.863164 229.045129 
L 83.473111 228.733528 
L 84.083058 228.885586 
L 84.693005 228.277436 
L 85.302952 229.014609 
L 85.9129 229.285611 
L 86.522847 228.950656 
L 87.742741 229.327003 
L 88.352688 229.375158 
L 88.962635 229.158849 
L 89.572583 229.425917 
L 90.18253 229.470907 
L 90.792477 229.265537 
L 92.012371 229.490629 
L 92.622319 229.274776 
L 93.232266 229.473373 
L 93.842213 229.281747 
L 94.45216 229.292716 
L 95.062107 229.545084 
L 95.672054 229.509751 
L 96.282002 229.663644 
L 96.891949 229.293095 
L 98.72179 229.662499 
L 99.331737 229.588808 
L 99.941685 229.638907 
L 101.161579 229.329419 
L 101.771526 229.527096 
L 102.381473 229.58143 
L 102.99142 229.271804 
L 104.211315 229.789408 
L 104.821262 229.685563 
L 105.431209 229.744129 
L 106.041156 229.669805 
L 106.651103 229.482542 
L 107.261051 229.641419 
L 108.480945 229.662519 
L 109.090892 229.425851 
L 109.700839 229.448327 
L 110.310786 229.613761 
L 110.920734 229.553258 
L 111.530681 229.70505 
L 112.140628 229.631394 
L 112.750575 229.755365 
L 113.360522 229.41532 
L 113.970469 229.661884 
L 115.800311 229.584138 
L 116.410258 229.49352 
L 117.020205 229.677888 
L 117.630152 229.613807 
L 118.2401 229.713796 
L 118.850047 229.545409 
L 119.459994 229.735101 
L 120.679888 229.496232 
L 121.289835 229.687617 
L 121.899783 229.662745 
L 122.50973 229.489375 
L 123.729624 229.697785 
L 124.339571 229.342588 
L 124.949518 229.705031 
L 125.559466 229.587837 
L 126.169413 229.695909 
L 127.999254 229.698765 
L 128.609201 229.841725 
L 129.219149 229.637631 
L 129.829096 229.629211 
L 131.04899 229.731626 
L 131.658937 229.535392 
L 133.488779 229.635095 
L 134.708673 229.812505 
L 135.31862 229.545721 
L 135.928567 229.701065 
L 137.148462 229.640237 
L 138.368356 229.778862 
L 138.978303 229.682156 
L 139.58825 229.716462 
L 140.808145 229.49595 
L 141.418092 229.735711 
L 142.028039 229.839742 
L 143.247933 229.625568 
L 143.857881 229.651444 
L 145.077775 229.365303 
L 145.687722 229.706114 
L 146.297669 229.874489 
L 147.517564 229.515756 
L 148.737458 229.607057 
L 149.347405 229.475315 
L 149.957352 229.706762 
L 151.787194 229.698795 
L 152.397141 229.445621 
L 153.617035 229.666819 
L 154.226982 229.571713 
L 154.83693 229.779524 
L 155.446877 229.779439 
L 156.056824 229.422874 
L 157.276718 229.776914 
L 157.886665 229.548085 
L 159.10656 229.818654 
L 159.716507 229.62406 
L 161.546348 229.659662 
L 163.37619 229.667337 
L 163.986137 229.57882 
L 165.815979 229.750206 
L 167.035873 229.713006 
L 167.64582 229.751702 
L 168.255767 229.590069 
L 168.865714 229.661681 
L 169.475662 229.385342 
L 170.085609 229.583579 
L 171.91545 229.601709 
L 172.525397 229.749739 
L 173.135345 229.548476 
L 175.575133 229.670931 
L 176.18508 229.396926 
L 176.795028 229.661335 
L 178.624869 229.574783 
L 179.234816 229.698849 
L 179.844763 229.391104 
L 180.454711 229.643322 
L 181.674605 229.598709 
L 182.284552 229.707298 
L 184.724341 229.449586 
L 185.334288 229.62572 
L 186.554182 229.533839 
L 187.164129 229.682239 
L 187.774077 229.483895 
L 189.603918 229.6528 
L 190.213865 229.461893 
L 190.823812 229.660235 
L 192.653654 229.471297 
L 194.483495 229.617621 
L 195.093443 229.517429 
L 195.70339 229.588953 
L 196.313337 229.484353 
L 196.923284 229.586244 
L 197.533231 229.468496 
L 199.97302 229.574567 
L 201.192914 229.441922 
L 201.802861 229.606918 
L 202.412809 229.628978 
L 203.022756 229.317014 
L 203.632703 229.611658 
L 204.852597 229.34747 
L 205.462544 229.552165 
L 206.072492 229.368162 
L 207.902333 229.489005 
L 209.732175 229.487865 
L 210.342122 229.484212 
L 210.952069 229.366106 
L 211.562016 229.480385 
L 214.001805 229.434393 
L 214.611752 229.251223 
L 215.221699 229.40034 
L 215.831646 229.424873 
L 216.441593 229.337536 
L 217.051541 229.466182 
L 217.661488 229.294805 
L 218.271435 229.502867 
L 218.881382 229.49068 
L 219.491329 229.356281 
L 220.711224 229.478465 
L 221.321171 229.39268 
L 221.931118 229.500651 
L 222.541065 229.360378 
L 224.980854 229.513624 
L 225.590801 229.405967 
L 226.200748 229.51763 
L 226.810695 229.414252 
L 228.640537 229.412141 
L 229.860431 229.411386 
L 230.470378 229.443983 
L 231.080325 229.276644 
L 231.690273 229.427711 
L 232.910167 229.318515 
L 238.399691 229.281304 
L 239.009639 229.373603 
L 240.83948 229.29448 
L 241.449427 229.411774 
L 242.059374 229.24667 
L 242.669322 229.43836 
L 243.889216 229.391731 
L 244.499163 229.165017 
L 245.10911 229.39584 
L 248.768793 229.319409 
L 249.988688 229.304743 
L 250.598635 229.209437 
L 252.428476 229.312765 
L 254.258318 229.144793 
L 254.868265 229.287287 
L 260.357789 229.31244 
L 260.967737 229.147477 
L 261.577684 229.315319 
L 262.187631 229.22299 
L 262.797578 229.255769 
L 263.407525 229.154625 
L 266.457261 229.310717 
L 267.067208 229.177149 
L 267.677155 229.312589 
L 268.287103 229.304551 
L 268.89705 229.177229 
L 270.726891 229.224108 
L 271.336838 229.145094 
L 274.996521 229.301355 
L 276.216416 229.242616 
L 277.43631 229.340027 
L 278.046257 229.231342 
L 278.656204 229.274622 
L 279.266152 229.106858 
L 279.876099 229.248932 
L 281.70594 229.249373 
L 282.315887 229.297742 
L 282.925835 229.17241 
L 284.145729 229.245572 
L 284.755676 229.22173 
L 285.365623 229.335042 
L 285.97557 229.066394 
L 286.585518 229.248838 
L 287.195465 229.124315 
L 289.025306 229.287088 
L 289.635253 229.156238 
L 291.465095 229.26506 
L 292.075042 229.13595 
L 292.684989 229.300583 
L 295.734725 229.238869 
L 296.344672 229.319509 
L 298.174514 229.072299 
L 299.394408 229.21238 
L 300.004355 229.251274 
L 301.22425 228.873373 
L 301.834197 229.168388 
L 302.444144 229.239353 
L 303.664038 228.999824 
L 304.883933 229.258214 
L 306.103827 229.010301 
L 306.713774 229.20679 
L 312.203299 229.221546 
L 313.423193 229.158284 
L 314.643087 229.173962 
L 316.472929 229.224191 
L 317.692823 229.132732 
L 318.30277 228.910867 
L 318.912717 229.220271 
L 321.962453 229.241276 
L 323.182348 229.1046 
L 323.792295 229.218451 
L 324.402242 229.188562 
L 325.012189 229.025029 
L 325.622136 229.221677 
L 326.232083 229.155179 
L 326.842031 229.250346 
L 327.451978 229.146999 
L 328.671872 229.19317 
L 329.281819 229.113669 
L 329.891766 229.182896 
L 330.501714 229.073521 
L 332.331555 229.198759 
L 332.941502 229.078341 
L 335.991238 229.194027 
L 337.211132 229.173501 
L 338.431027 229.244078 
L 339.650921 229.177232 
L 342.09071 229.199673 
L 345.750393 229.227668 
L 347.580234 229.131175 
L 348.190181 229.231891 
L 348.800129 229.157905 
L 349.410076 229.212164 
L 350.020023 229.14415 
L 351.239917 229.216807 
L 351.849865 229.049408 
L 353.069759 229.174737 
L 353.679706 229.119769 
L 354.8996 229.213885 
L 356.119495 229.222805 
L 357.949336 229.068341 
L 359.169231 229.233776 
L 368.318438 229.150694 
L 368.928385 229.224299 
L 370.14828 229.062152 
L 370.758227 229.215695 
L 371.368174 229.166664 
L 371.978121 229.231902 
L 372.588068 229.162109 
L 372.588068 229.162109 
" style="fill:none;stroke:#029e73;stroke-linecap:round;stroke-width:1.5;"/>
   </g>
   <g id="patch_3">
    <path d="M 53.00625 239.758125 
L 53.00625 22.318125 
" style="fill:none;"/>
   </g>
   <g id="patch_4">
    <path d="M 387.80625 239.758125 
L 387.80625 22.318125 
" style="fill:none;"/>
   </g>
   <g id="patch_5">
    <path d="M 53.00625 239.758125 
L 387.80625 239.758125 
" style="fill:none;"/>
   </g>
   <g id="patch_6">
    <path d="M 53.00625 22.318125 
L 387.80625 22.318125 
" style="fill:none;"/>
   </g>
   <g id="text_17">
    <!-- CIFAR-10 Label Distribution Predictor Loss with Gaussian Noise -->
    <g style="fill:#262626;" transform="translate(32.310937 16.318125)scale(0.12 -0.12)">
     <defs>
      <path d="M 4122 4306 
L 4122 3641 
Q 3803 3938 3442 4084 
Q 3081 4231 2675 4231 
Q 1875 4231 1450 3742 
Q 1025 3253 1025 2328 
Q 1025 1406 1450 917 
Q 1875 428 2675 428 
Q 3081 428 3442 575 
Q 3803 722 4122 1019 
L 4122 359 
Q 3791 134 3420 21 
Q 3050 -91 2638 -91 
Q 1578 -91 968 557 
Q 359 1206 359 2328 
Q 359 3453 968 4101 
Q 1578 4750 2638 4750 
Q 3056 4750 3426 4639 
Q 3797 4528 4122 4306 
z
" id="DejaVuSans-43" transform="scale(0.015625)"/>
      <path d="M 628 4666 
L 1259 4666 
L 1259 0 
L 628 0 
L 628 4666 
z
" id="DejaVuSans-49" transform="scale(0.015625)"/>
      <path d="M 628 4666 
L 3309 4666 
L 3309 4134 
L 1259 4134 
L 1259 2759 
L 3109 2759 
L 3109 2228 
L 1259 2228 
L 1259 0 
L 628 0 
L 628 4666 
z
" id="DejaVuSans-46" transform="scale(0.015625)"/>
      <path d="M 2188 4044 
L 1331 1722 
L 3047 1722 
L 2188 4044 
z
M 1831 4666 
L 2547 4666 
L 4325 0 
L 3669 0 
L 3244 1197 
L 1141 1197 
L 716 0 
L 50 0 
L 1831 4666 
z
" id="DejaVuSans-41" transform="scale(0.015625)"/>
      <path d="M 2841 2188 
Q 3044 2119 3236 1894 
Q 3428 1669 3622 1275 
L 4263 0 
L 3584 0 
L 2988 1197 
Q 2756 1666 2539 1819 
Q 2322 1972 1947 1972 
L 1259 1972 
L 1259 0 
L 628 0 
L 628 4666 
L 2053 4666 
Q 2853 4666 3247 4331 
Q 3641 3997 3641 3322 
Q 3641 2881 3436 2590 
Q 3231 2300 2841 2188 
z
M 1259 4147 
L 1259 2491 
L 2053 2491 
Q 2509 2491 2742 2702 
Q 2975 2913 2975 3322 
Q 2975 3731 2742 3939 
Q 2509 4147 2053 4147 
L 1259 4147 
z
" id="DejaVuSans-52" transform="scale(0.015625)"/>
      <path d="M 313 2009 
L 1997 2009 
L 1997 1497 
L 313 1497 
L 313 2009 
z
" id="DejaVuSans-2d" transform="scale(0.015625)"/>
      <path d="M 3116 1747 
Q 3116 2381 2855 2742 
Q 2594 3103 2138 3103 
Q 1681 3103 1420 2742 
Q 1159 2381 1159 1747 
Q 1159 1113 1420 752 
Q 1681 391 2138 391 
Q 2594 391 2855 752 
Q 3116 1113 3116 1747 
z
M 1159 2969 
Q 1341 3281 1617 3432 
Q 1894 3584 2278 3584 
Q 2916 3584 3314 3078 
Q 3713 2572 3713 1747 
Q 3713 922 3314 415 
Q 2916 -91 2278 -91 
Q 1894 -91 1617 61 
Q 1341 213 1159 525 
L 1159 0 
L 581 0 
L 581 4863 
L 1159 4863 
L 1159 2969 
z
" id="DejaVuSans-62" transform="scale(0.015625)"/>
      <path d="M 603 4863 
L 1178 4863 
L 1178 0 
L 603 0 
L 603 4863 
z
" id="DejaVuSans-6c" transform="scale(0.015625)"/>
      <path d="M 603 3500 
L 1178 3500 
L 1178 0 
L 603 0 
L 603 3500 
z
M 603 4863 
L 1178 4863 
L 1178 4134 
L 603 4134 
L 603 4863 
z
" id="DejaVuSans-69" transform="scale(0.015625)"/>
      <path d="M 2631 2963 
Q 2534 3019 2420 3045 
Q 2306 3072 2169 3072 
Q 1681 3072 1420 2755 
Q 1159 2438 1159 1844 
L 1159 0 
L 581 0 
L 581 3500 
L 1159 3500 
L 1159 2956 
Q 1341 3275 1631 3429 
Q 1922 3584 2338 3584 
Q 2397 3584 2469 3576 
Q 2541 3569 2628 3553 
L 2631 2963 
z
" id="DejaVuSans-72" transform="scale(0.015625)"/>
      <path d="M 544 1381 
L 544 3500 
L 1119 3500 
L 1119 1403 
Q 1119 906 1312 657 
Q 1506 409 1894 409 
Q 2359 409 2629 706 
Q 2900 1003 2900 1516 
L 2900 3500 
L 3475 3500 
L 3475 0 
L 2900 0 
L 2900 538 
Q 2691 219 2414 64 
Q 2138 -91 1772 -91 
Q 1169 -91 856 284 
Q 544 659 544 1381 
z
M 1991 3584 
L 1991 3584 
z
" id="DejaVuSans-75" transform="scale(0.015625)"/>
      <path d="M 3513 2113 
L 3513 0 
L 2938 0 
L 2938 2094 
Q 2938 2591 2744 2837 
Q 2550 3084 2163 3084 
Q 1697 3084 1428 2787 
Q 1159 2491 1159 1978 
L 1159 0 
L 581 0 
L 581 3500 
L 1159 3500 
L 1159 2956 
Q 1366 3272 1645 3428 
Q 1925 3584 2291 3584 
Q 2894 3584 3203 3211 
Q 3513 2838 3513 2113 
z
" id="DejaVuSans-6e" transform="scale(0.015625)"/>
      <path d="M 1259 4147 
L 1259 2394 
L 2053 2394 
Q 2494 2394 2734 2622 
Q 2975 2850 2975 3272 
Q 2975 3691 2734 3919 
Q 2494 4147 2053 4147 
L 1259 4147 
z
M 628 4666 
L 2053 4666 
Q 2838 4666 3239 4311 
Q 3641 3956 3641 3272 
Q 3641 2581 3239 2228 
Q 2838 1875 2053 1875 
L 1259 1875 
L 1259 0 
L 628 0 
L 628 4666 
z
" id="DejaVuSans-50" transform="scale(0.015625)"/>
      <path d="M 2906 2969 
L 2906 4863 
L 3481 4863 
L 3481 0 
L 2906 0 
L 2906 525 
Q 2725 213 2448 61 
Q 2172 -91 1784 -91 
Q 1150 -91 751 415 
Q 353 922 353 1747 
Q 353 2572 751 3078 
Q 1150 3584 1784 3584 
Q 2172 3584 2448 3432 
Q 2725 3281 2906 2969 
z
M 947 1747 
Q 947 1113 1208 752 
Q 1469 391 1925 391 
Q 2381 391 2643 752 
Q 2906 1113 2906 1747 
Q 2906 2381 2643 2742 
Q 2381 3103 1925 3103 
Q 1469 3103 1208 2742 
Q 947 2381 947 1747 
z
" id="DejaVuSans-64" transform="scale(0.015625)"/>
      <path d="M 269 3500 
L 844 3500 
L 1563 769 
L 2278 3500 
L 2956 3500 
L 3675 769 
L 4391 3500 
L 4966 3500 
L 4050 0 
L 3372 0 
L 2619 2869 
L 1863 0 
L 1184 0 
L 269 3500 
z
" id="DejaVuSans-77" transform="scale(0.015625)"/>
      <path d="M 3809 666 
L 3809 1919 
L 2778 1919 
L 2778 2438 
L 4434 2438 
L 4434 434 
Q 4069 175 3628 42 
Q 3188 -91 2688 -91 
Q 1594 -91 976 548 
Q 359 1188 359 2328 
Q 359 3472 976 4111 
Q 1594 4750 2688 4750 
Q 3144 4750 3555 4637 
Q 3966 4525 4313 4306 
L 4313 3634 
Q 3963 3931 3569 4081 
Q 3175 4231 2741 4231 
Q 1884 4231 1454 3753 
Q 1025 3275 1025 2328 
Q 1025 1384 1454 906 
Q 1884 428 2741 428 
Q 3075 428 3337 486 
Q 3600 544 3809 666 
z
" id="DejaVuSans-47" transform="scale(0.015625)"/>
      <path d="M 628 4666 
L 1478 4666 
L 3547 763 
L 3547 4666 
L 4159 4666 
L 4159 0 
L 3309 0 
L 1241 3903 
L 1241 0 
L 628 0 
L 628 4666 
z
" id="DejaVuSans-4e" transform="scale(0.015625)"/>
     </defs>
     <use xlink:href="#DejaVuSans-43"/>
     <use x="69.824219" xlink:href="#DejaVuSans-49"/>
     <use x="99.316406" xlink:href="#DejaVuSans-46"/>
     <use x="147.710938" xlink:href="#DejaVuSans-41"/>
     <use x="216.119141" xlink:href="#DejaVuSans-52"/>
     <use x="281.601562" xlink:href="#DejaVuSans-2d"/>
     <use x="317.685547" xlink:href="#DejaVuSans-31"/>
     <use x="381.308594" xlink:href="#DejaVuSans-30"/>
     <use x="444.931641" xlink:href="#DejaVuSans-20"/>
     <use x="476.71875" xlink:href="#DejaVuSans-4c"/>
     <use x="532.431641" xlink:href="#DejaVuSans-61"/>
     <use x="593.710938" xlink:href="#DejaVuSans-62"/>
     <use x="657.1875" xlink:href="#DejaVuSans-65"/>
     <use x="718.710938" xlink:href="#DejaVuSans-6c"/>
     <use x="746.494141" xlink:href="#DejaVuSans-20"/>
     <use x="778.28125" xlink:href="#DejaVuSans-44"/>
     <use x="855.283203" xlink:href="#DejaVuSans-69"/>
     <use x="883.066406" xlink:href="#DejaVuSans-73"/>
     <use x="935.166016" xlink:href="#DejaVuSans-74"/>
     <use x="974.375" xlink:href="#DejaVuSans-72"/>
     <use x="1015.488281" xlink:href="#DejaVuSans-69"/>
     <use x="1043.271484" xlink:href="#DejaVuSans-62"/>
     <use x="1106.748047" xlink:href="#DejaVuSans-75"/>
     <use x="1170.126953" xlink:href="#DejaVuSans-74"/>
     <use x="1209.335938" xlink:href="#DejaVuSans-69"/>
     <use x="1237.119141" xlink:href="#DejaVuSans-6f"/>
     <use x="1298.300781" xlink:href="#DejaVuSans-6e"/>
     <use x="1361.679688" xlink:href="#DejaVuSans-20"/>
     <use x="1393.466797" xlink:href="#DejaVuSans-50"/>
     <use x="1452.019531" xlink:href="#DejaVuSans-72"/>
     <use x="1490.882812" xlink:href="#DejaVuSans-65"/>
     <use x="1552.40625" xlink:href="#DejaVuSans-64"/>
     <use x="1615.882812" xlink:href="#DejaVuSans-69"/>
     <use x="1643.666016" xlink:href="#DejaVuSans-63"/>
     <use x="1698.646484" xlink:href="#DejaVuSans-74"/>
     <use x="1737.855469" xlink:href="#DejaVuSans-6f"/>
     <use x="1799.037109" xlink:href="#DejaVuSans-72"/>
     <use x="1840.150391" xlink:href="#DejaVuSans-20"/>
     <use x="1871.9375" xlink:href="#DejaVuSans-4c"/>
     <use x="1925.900391" xlink:href="#DejaVuSans-6f"/>
     <use x="1987.082031" xlink:href="#DejaVuSans-73"/>
     <use x="2039.181641" xlink:href="#DejaVuSans-73"/>
     <use x="2091.28125" xlink:href="#DejaVuSans-20"/>
     <use x="2123.068359" xlink:href="#DejaVuSans-77"/>
     <use x="2204.855469" xlink:href="#DejaVuSans-69"/>
     <use x="2232.638672" xlink:href="#DejaVuSans-74"/>
     <use x="2271.847656" xlink:href="#DejaVuSans-68"/>
     <use x="2335.226562" xlink:href="#DejaVuSans-20"/>
     <use x="2367.013672" xlink:href="#DejaVuSans-47"/>
     <use x="2444.503906" xlink:href="#DejaVuSans-61"/>
     <use x="2505.783203" xlink:href="#DejaVuSans-75"/>
     <use x="2569.162109" xlink:href="#DejaVuSans-73"/>
     <use x="2621.261719" xlink:href="#DejaVuSans-73"/>
     <use x="2673.361328" xlink:href="#DejaVuSans-69"/>
     <use x="2701.144531" xlink:href="#DejaVuSans-61"/>
     <use x="2762.423828" xlink:href="#DejaVuSans-6e"/>
     <use x="2825.802734" xlink:href="#DejaVuSans-20"/>
     <use x="2857.589844" xlink:href="#DejaVuSans-4e"/>
     <use x="2932.394531" xlink:href="#DejaVuSans-6f"/>
     <use x="2993.576172" xlink:href="#DejaVuSans-69"/>
     <use x="3021.359375" xlink:href="#DejaVuSans-73"/>
     <use x="3073.458984" xlink:href="#DejaVuSans-65"/>
    </g>
   </g>
   <g id="legend_1">
    <g id="line2d_32">
     <path d="M 412.244375 35.416563 
L 432.244375 35.416563 
" style="fill:none;stroke:#0173b2;stroke-linecap:round;stroke-width:1.5;"/>
    </g>
    <g id="line2d_33"/>
    <g id="text_18">
     <!-- gaussian, 1.0e-01 -->
     <g style="fill:#262626;" transform="translate(440.244375 38.916563)scale(0.1 -0.1)">
      <defs>
       <path d="M 2906 1791 
Q 2906 2416 2648 2759 
Q 2391 3103 1925 3103 
Q 1463 3103 1205 2759 
Q 947 2416 947 1791 
Q 947 1169 1205 825 
Q 1463 481 1925 481 
Q 2391 481 2648 825 
Q 2906 1169 2906 1791 
z
M 3481 434 
Q 3481 -459 3084 -895 
Q 2688 -1331 1869 -1331 
Q 1566 -1331 1297 -1286 
Q 1028 -1241 775 -1147 
L 775 -588 
Q 1028 -725 1275 -790 
Q 1522 -856 1778 -856 
Q 2344 -856 2625 -561 
Q 2906 -266 2906 331 
L 2906 616 
Q 2728 306 2450 153 
Q 2172 0 1784 0 
Q 1141 0 747 490 
Q 353 981 353 1791 
Q 353 2603 747 3093 
Q 1141 3584 1784 3584 
Q 2172 3584 2450 3431 
Q 2728 3278 2906 2969 
L 2906 3500 
L 3481 3500 
L 3481 434 
z
" id="DejaVuSans-67" transform="scale(0.015625)"/>
       <path d="M 750 794 
L 1409 794 
L 1409 256 
L 897 -744 
L 494 -744 
L 750 256 
L 750 794 
z
" id="DejaVuSans-2c" transform="scale(0.015625)"/>
      </defs>
      <use xlink:href="#DejaVuSans-67"/>
      <use x="63.476562" xlink:href="#DejaVuSans-61"/>
      <use x="124.755859" xlink:href="#DejaVuSans-75"/>
      <use x="188.134766" xlink:href="#DejaVuSans-73"/>
      <use x="240.234375" xlink:href="#DejaVuSans-73"/>
      <use x="292.333984" xlink:href="#DejaVuSans-69"/>
      <use x="320.117188" xlink:href="#DejaVuSans-61"/>
      <use x="381.396484" xlink:href="#DejaVuSans-6e"/>
      <use x="444.775391" xlink:href="#DejaVuSans-2c"/>
      <use x="476.5625" xlink:href="#DejaVuSans-20"/>
      <use x="508.349609" xlink:href="#DejaVuSans-31"/>
      <use x="571.972656" xlink:href="#DejaVuSans-2e"/>
      <use x="603.759766" xlink:href="#DejaVuSans-30"/>
      <use x="667.382812" xlink:href="#DejaVuSans-65"/>
      <use x="728.90625" xlink:href="#DejaVuSans-2d"/>
      <use x="764.990234" xlink:href="#DejaVuSans-30"/>
      <use x="828.613281" xlink:href="#DejaVuSans-31"/>
     </g>
    </g>
    <g id="line2d_34">
     <path d="M 412.244375 50.094688 
L 432.244375 50.094688 
" style="fill:none;stroke:#de8f05;stroke-linecap:round;stroke-width:1.5;"/>
    </g>
    <g id="line2d_35"/>
    <g id="text_19">
     <!-- gaussian, 1.0e-02 -->
     <g style="fill:#262626;" transform="translate(440.244375 53.594688)scale(0.1 -0.1)">
      <use xlink:href="#DejaVuSans-67"/>
      <use x="63.476562" xlink:href="#DejaVuSans-61"/>
      <use x="124.755859" xlink:href="#DejaVuSans-75"/>
      <use x="188.134766" xlink:href="#DejaVuSans-73"/>
      <use x="240.234375" xlink:href="#DejaVuSans-73"/>
      <use x="292.333984" xlink:href="#DejaVuSans-69"/>
      <use x="320.117188" xlink:href="#DejaVuSans-61"/>
      <use x="381.396484" xlink:href="#DejaVuSans-6e"/>
      <use x="444.775391" xlink:href="#DejaVuSans-2c"/>
      <use x="476.5625" xlink:href="#DejaVuSans-20"/>
      <use x="508.349609" xlink:href="#DejaVuSans-31"/>
      <use x="571.972656" xlink:href="#DejaVuSans-2e"/>
      <use x="603.759766" xlink:href="#DejaVuSans-30"/>
      <use x="667.382812" xlink:href="#DejaVuSans-65"/>
      <use x="728.90625" xlink:href="#DejaVuSans-2d"/>
      <use x="764.990234" xlink:href="#DejaVuSans-30"/>
      <use x="828.613281" xlink:href="#DejaVuSans-32"/>
     </g>
    </g>
    <g id="line2d_36">
     <path d="M 412.244375 64.772813 
L 432.244375 64.772813 
" style="fill:none;stroke:#029e73;stroke-linecap:round;stroke-width:1.5;"/>
    </g>
    <g id="line2d_37"/>
    <g id="text_20">
     <!-- gaussian, 1.0e-03 -->
     <g style="fill:#262626;" transform="translate(440.244375 68.272813)scale(0.1 -0.1)">
      <use xlink:href="#DejaVuSans-67"/>
      <use x="63.476562" xlink:href="#DejaVuSans-61"/>
      <use x="124.755859" xlink:href="#DejaVuSans-75"/>
      <use x="188.134766" xlink:href="#DejaVuSans-73"/>
      <use x="240.234375" xlink:href="#DejaVuSans-73"/>
      <use x="292.333984" xlink:href="#DejaVuSans-69"/>
      <use x="320.117188" xlink:href="#DejaVuSans-61"/>
      <use x="381.396484" xlink:href="#DejaVuSans-6e"/>
      <use x="444.775391" xlink:href="#DejaVuSans-2c"/>
      <use x="476.5625" xlink:href="#DejaVuSans-20"/>
      <use x="508.349609" xlink:href="#DejaVuSans-31"/>
      <use x="571.972656" xlink:href="#DejaVuSans-2e"/>
      <use x="603.759766" xlink:href="#DejaVuSans-30"/>
      <use x="667.382812" xlink:href="#DejaVuSans-65"/>
      <use x="728.90625" xlink:href="#DejaVuSans-2d"/>
      <use x="764.990234" xlink:href="#DejaVuSans-30"/>
      <use x="828.613281" xlink:href="#DejaVuSans-33"/>
     </g>
    </g>
   </g>
  </g>
 </g>
 <defs>
  <clipPath id="pde52143953">
   <rect height="217.44" width="334.8" x="53.00625" y="22.318125"/>
  </clipPath>
 </defs>
</svg>
