<?xml version="1.0" encoding="utf-8" standalone="no"?>
<!DOCTYPE svg PUBLIC "-//W3C//DTD SVG 1.1//EN"
  "http://www.w3.org/Graphics/SVG/1.1/DTD/svg11.dtd">
<svg height="273.814375pt" version="1.1" viewBox="0 0 540.66625 273.814375" width="540.66625pt" xmlns="http://www.w3.org/2000/svg" xmlns:xlink="http://www.w3.org/1999/xlink">
 <metadata>
  <rdf:RDF xmlns:cc="http://creativecommons.org/ns#" xmlns:dc="http://purl.org/dc/elements/1.1/" xmlns:rdf="http://www.w3.org/1999/02/22-rdf-syntax-ns#">
   <cc:Work>
    <dc:type rdf:resource="http://purl.org/dc/dcmitype/StillImage"/>
    <dc:date>2023-06-14T16:34:44.587208</dc:date>
    <dc:format>image/svg+xml</dc:format>
    <dc:creator>
     <cc:Agent>
      <dc:title>Matplotlib v3.4.3, https://matplotlib.org/</dc:title>
     </cc:Agent>
    </dc:creator>
   </cc:Work>
  </rdf:RDF>
 </metadata>
 <defs>
  <style type="text/css">*{stroke-linecap:butt;stroke-linejoin:round;}</style>
 </defs>
 <g id="figure_1">
  <g id="patch_1">
   <path d="M 0 273.814375 
L 540.66625 273.814375 
L 540.66625 0 
L 0 0 
z
" style="fill:#ffffff;"/>
  </g>
  <g id="axes_1">
   <g id="patch_2">
    <path d="M 53.00625 239.758125 
L 387.80625 239.758125 
L 387.80625 22.318125 
L 53.00625 22.318125 
z
" style="fill:#eaeaf2;"/>
   </g>
   <g id="matplotlib.axis_1">
    <g id="xtick_1">
     <g id="line2d_1">
      <path clip-path="url(#p0b30155b40)" d="M 68.224432 239.758125 
L 68.224432 22.318125 
" style="fill:none;stroke:#ffffff;stroke-linecap:round;stroke-width:0.8;"/>
     </g>
     <g id="line2d_2"/>
     <g id="text_1">
      <!-- 0 -->
      <g style="fill:#262626;" transform="translate(65.043182 250.856563)scale(0.1 -0.1)">
       <defs>
        <path d="M 2034 4250 
Q 1547 4250 1301 3770 
Q 1056 3291 1056 2328 
Q 1056 1369 1301 889 
Q 1547 409 2034 409 
Q 2525 409 2770 889 
Q 3016 1369 3016 2328 
Q 3016 3291 2770 3770 
Q 2525 4250 2034 4250 
z
M 2034 4750 
Q 2819 4750 3233 4129 
Q 3647 3509 3647 2328 
Q 3647 1150 3233 529 
Q 2819 -91 2034 -91 
Q 1250 -91 836 529 
Q 422 1150 422 2328 
Q 422 3509 836 4129 
Q 1250 4750 2034 4750 
z
" id="DejaVuSans-30" transform="scale(0.015625)"/>
       </defs>
       <use xlink:href="#DejaVuSans-30"/>
      </g>
     </g>
    </g>
    <g id="xtick_2">
     <g id="line2d_3">
      <path clip-path="url(#p0b30155b40)" d="M 129.219149 239.758125 
L 129.219149 22.318125 
" style="fill:none;stroke:#ffffff;stroke-linecap:round;stroke-width:0.8;"/>
     </g>
     <g id="line2d_4"/>
     <g id="text_2">
      <!-- 100 -->
      <g style="fill:#262626;" transform="translate(119.675399 250.856563)scale(0.1 -0.1)">
       <defs>
        <path d="M 794 531 
L 1825 531 
L 1825 4091 
L 703 3866 
L 703 4441 
L 1819 4666 
L 2450 4666 
L 2450 531 
L 3481 531 
L 3481 0 
L 794 0 
L 794 531 
z
" id="DejaVuSans-31" transform="scale(0.015625)"/>
       </defs>
       <use xlink:href="#DejaVuSans-31"/>
       <use x="63.623047" xlink:href="#DejaVuSans-30"/>
       <use x="127.246094" xlink:href="#DejaVuSans-30"/>
      </g>
     </g>
    </g>
    <g id="xtick_3">
     <g id="line2d_5">
      <path clip-path="url(#p0b30155b40)" d="M 190.213865 239.758125 
L 190.213865 22.318125 
" style="fill:none;stroke:#ffffff;stroke-linecap:round;stroke-width:0.8;"/>
     </g>
     <g id="line2d_6"/>
     <g id="text_3">
      <!-- 200 -->
      <g style="fill:#262626;" transform="translate(180.670115 250.856563)scale(0.1 -0.1)">
       <defs>
        <path d="M 1228 531 
L 3431 531 
L 3431 0 
L 469 0 
L 469 531 
Q 828 903 1448 1529 
Q 2069 2156 2228 2338 
Q 2531 2678 2651 2914 
Q 2772 3150 2772 3378 
Q 2772 3750 2511 3984 
Q 2250 4219 1831 4219 
Q 1534 4219 1204 4116 
Q 875 4013 500 3803 
L 500 4441 
Q 881 4594 1212 4672 
Q 1544 4750 1819 4750 
Q 2544 4750 2975 4387 
Q 3406 4025 3406 3419 
Q 3406 3131 3298 2873 
Q 3191 2616 2906 2266 
Q 2828 2175 2409 1742 
Q 1991 1309 1228 531 
z
" id="DejaVuSans-32" transform="scale(0.015625)"/>
       </defs>
       <use xlink:href="#DejaVuSans-32"/>
       <use x="63.623047" xlink:href="#DejaVuSans-30"/>
       <use x="127.246094" xlink:href="#DejaVuSans-30"/>
      </g>
     </g>
    </g>
    <g id="xtick_4">
     <g id="line2d_7">
      <path clip-path="url(#p0b30155b40)" d="M 251.208582 239.758125 
L 251.208582 22.318125 
" style="fill:none;stroke:#ffffff;stroke-linecap:round;stroke-width:0.8;"/>
     </g>
     <g id="line2d_8"/>
     <g id="text_4">
      <!-- 300 -->
      <g style="fill:#262626;" transform="translate(241.664832 250.856563)scale(0.1 -0.1)">
       <defs>
        <path d="M 2597 2516 
Q 3050 2419 3304 2112 
Q 3559 1806 3559 1356 
Q 3559 666 3084 287 
Q 2609 -91 1734 -91 
Q 1441 -91 1130 -33 
Q 819 25 488 141 
L 488 750 
Q 750 597 1062 519 
Q 1375 441 1716 441 
Q 2309 441 2620 675 
Q 2931 909 2931 1356 
Q 2931 1769 2642 2001 
Q 2353 2234 1838 2234 
L 1294 2234 
L 1294 2753 
L 1863 2753 
Q 2328 2753 2575 2939 
Q 2822 3125 2822 3475 
Q 2822 3834 2567 4026 
Q 2313 4219 1838 4219 
Q 1578 4219 1281 4162 
Q 984 4106 628 3988 
L 628 4550 
Q 988 4650 1302 4700 
Q 1616 4750 1894 4750 
Q 2613 4750 3031 4423 
Q 3450 4097 3450 3541 
Q 3450 3153 3228 2886 
Q 3006 2619 2597 2516 
z
" id="DejaVuSans-33" transform="scale(0.015625)"/>
       </defs>
       <use xlink:href="#DejaVuSans-33"/>
       <use x="63.623047" xlink:href="#DejaVuSans-30"/>
       <use x="127.246094" xlink:href="#DejaVuSans-30"/>
      </g>
     </g>
    </g>
    <g id="xtick_5">
     <g id="line2d_9">
      <path clip-path="url(#p0b30155b40)" d="M 312.203299 239.758125 
L 312.203299 22.318125 
" style="fill:none;stroke:#ffffff;stroke-linecap:round;stroke-width:0.8;"/>
     </g>
     <g id="line2d_10"/>
     <g id="text_5">
      <!-- 400 -->
      <g style="fill:#262626;" transform="translate(302.659549 250.856563)scale(0.1 -0.1)">
       <defs>
        <path d="M 2419 4116 
L 825 1625 
L 2419 1625 
L 2419 4116 
z
M 2253 4666 
L 3047 4666 
L 3047 1625 
L 3713 1625 
L 3713 1100 
L 3047 1100 
L 3047 0 
L 2419 0 
L 2419 1100 
L 313 1100 
L 313 1709 
L 2253 4666 
z
" id="DejaVuSans-34" transform="scale(0.015625)"/>
       </defs>
       <use xlink:href="#DejaVuSans-34"/>
       <use x="63.623047" xlink:href="#DejaVuSans-30"/>
       <use x="127.246094" xlink:href="#DejaVuSans-30"/>
      </g>
     </g>
    </g>
    <g id="xtick_6">
     <g id="line2d_11">
      <path clip-path="url(#p0b30155b40)" d="M 373.198015 239.758125 
L 373.198015 22.318125 
" style="fill:none;stroke:#ffffff;stroke-linecap:round;stroke-width:0.8;"/>
     </g>
     <g id="line2d_12"/>
     <g id="text_6">
      <!-- 500 -->
      <g style="fill:#262626;" transform="translate(363.654265 250.856563)scale(0.1 -0.1)">
       <defs>
        <path d="M 691 4666 
L 3169 4666 
L 3169 4134 
L 1269 4134 
L 1269 2991 
Q 1406 3038 1543 3061 
Q 1681 3084 1819 3084 
Q 2600 3084 3056 2656 
Q 3513 2228 3513 1497 
Q 3513 744 3044 326 
Q 2575 -91 1722 -91 
Q 1428 -91 1123 -41 
Q 819 9 494 109 
L 494 744 
Q 775 591 1075 516 
Q 1375 441 1709 441 
Q 2250 441 2565 725 
Q 2881 1009 2881 1497 
Q 2881 1984 2565 2268 
Q 2250 2553 1709 2553 
Q 1456 2553 1204 2497 
Q 953 2441 691 2322 
L 691 4666 
z
" id="DejaVuSans-35" transform="scale(0.015625)"/>
       </defs>
       <use xlink:href="#DejaVuSans-35"/>
       <use x="63.623047" xlink:href="#DejaVuSans-30"/>
       <use x="127.246094" xlink:href="#DejaVuSans-30"/>
      </g>
     </g>
    </g>
    <g id="text_7">
     <!-- Epoch -->
     <g style="fill:#262626;" transform="translate(205.095313 264.534688)scale(0.1 -0.1)">
      <defs>
       <path d="M 628 4666 
L 3578 4666 
L 3578 4134 
L 1259 4134 
L 1259 2753 
L 3481 2753 
L 3481 2222 
L 1259 2222 
L 1259 531 
L 3634 531 
L 3634 0 
L 628 0 
L 628 4666 
z
" id="DejaVuSans-45" transform="scale(0.015625)"/>
       <path d="M 1159 525 
L 1159 -1331 
L 581 -1331 
L 581 3500 
L 1159 3500 
L 1159 2969 
Q 1341 3281 1617 3432 
Q 1894 3584 2278 3584 
Q 2916 3584 3314 3078 
Q 3713 2572 3713 1747 
Q 3713 922 3314 415 
Q 2916 -91 2278 -91 
Q 1894 -91 1617 61 
Q 1341 213 1159 525 
z
M 3116 1747 
Q 3116 2381 2855 2742 
Q 2594 3103 2138 3103 
Q 1681 3103 1420 2742 
Q 1159 2381 1159 1747 
Q 1159 1113 1420 752 
Q 1681 391 2138 391 
Q 2594 391 2855 752 
Q 3116 1113 3116 1747 
z
" id="DejaVuSans-70" transform="scale(0.015625)"/>
       <path d="M 1959 3097 
Q 1497 3097 1228 2736 
Q 959 2375 959 1747 
Q 959 1119 1226 758 
Q 1494 397 1959 397 
Q 2419 397 2687 759 
Q 2956 1122 2956 1747 
Q 2956 2369 2687 2733 
Q 2419 3097 1959 3097 
z
M 1959 3584 
Q 2709 3584 3137 3096 
Q 3566 2609 3566 1747 
Q 3566 888 3137 398 
Q 2709 -91 1959 -91 
Q 1206 -91 779 398 
Q 353 888 353 1747 
Q 353 2609 779 3096 
Q 1206 3584 1959 3584 
z
" id="DejaVuSans-6f" transform="scale(0.015625)"/>
       <path d="M 3122 3366 
L 3122 2828 
Q 2878 2963 2633 3030 
Q 2388 3097 2138 3097 
Q 1578 3097 1268 2742 
Q 959 2388 959 1747 
Q 959 1106 1268 751 
Q 1578 397 2138 397 
Q 2388 397 2633 464 
Q 2878 531 3122 666 
L 3122 134 
Q 2881 22 2623 -34 
Q 2366 -91 2075 -91 
Q 1284 -91 818 406 
Q 353 903 353 1747 
Q 353 2603 823 3093 
Q 1294 3584 2113 3584 
Q 2378 3584 2631 3529 
Q 2884 3475 3122 3366 
z
" id="DejaVuSans-63" transform="scale(0.015625)"/>
       <path d="M 3513 2113 
L 3513 0 
L 2938 0 
L 2938 2094 
Q 2938 2591 2744 2837 
Q 2550 3084 2163 3084 
Q 1697 3084 1428 2787 
Q 1159 2491 1159 1978 
L 1159 0 
L 581 0 
L 581 4863 
L 1159 4863 
L 1159 2956 
Q 1366 3272 1645 3428 
Q 1925 3584 2291 3584 
Q 2894 3584 3203 3211 
Q 3513 2838 3513 2113 
z
" id="DejaVuSans-68" transform="scale(0.015625)"/>
      </defs>
      <use xlink:href="#DejaVuSans-45"/>
      <use x="63.183594" xlink:href="#DejaVuSans-70"/>
      <use x="126.660156" xlink:href="#DejaVuSans-6f"/>
      <use x="187.841797" xlink:href="#DejaVuSans-63"/>
      <use x="242.822266" xlink:href="#DejaVuSans-68"/>
     </g>
    </g>
   </g>
   <g id="matplotlib.axis_2">
    <g id="ytick_1">
     <g id="line2d_13">
      <path clip-path="url(#p0b30155b40)" d="M 53.00625 235.040795 
L 387.80625 235.040795 
" style="fill:none;stroke:#ffffff;stroke-linecap:round;stroke-width:0.8;"/>
     </g>
     <g id="line2d_14"/>
     <g id="text_8">
      <!-- 0.000 -->
      <g style="fill:#262626;" transform="translate(20.878125 238.840014)scale(0.1 -0.1)">
       <defs>
        <path d="M 684 794 
L 1344 794 
L 1344 0 
L 684 0 
L 684 794 
z
" id="DejaVuSans-2e" transform="scale(0.015625)"/>
       </defs>
       <use xlink:href="#DejaVuSans-30"/>
       <use x="63.623047" xlink:href="#DejaVuSans-2e"/>
       <use x="95.410156" xlink:href="#DejaVuSans-30"/>
       <use x="159.033203" xlink:href="#DejaVuSans-30"/>
       <use x="222.65625" xlink:href="#DejaVuSans-30"/>
      </g>
     </g>
    </g>
    <g id="ytick_2">
     <g id="line2d_15">
      <path clip-path="url(#p0b30155b40)" d="M 53.00625 198.244849 
L 387.80625 198.244849 
" style="fill:none;stroke:#ffffff;stroke-linecap:round;stroke-width:0.8;"/>
     </g>
     <g id="line2d_16"/>
     <g id="text_9">
      <!-- 0.005 -->
      <g style="fill:#262626;" transform="translate(20.878125 202.044068)scale(0.1 -0.1)">
       <use xlink:href="#DejaVuSans-30"/>
       <use x="63.623047" xlink:href="#DejaVuSans-2e"/>
       <use x="95.410156" xlink:href="#DejaVuSans-30"/>
       <use x="159.033203" xlink:href="#DejaVuSans-30"/>
       <use x="222.65625" xlink:href="#DejaVuSans-35"/>
      </g>
     </g>
    </g>
    <g id="ytick_3">
     <g id="line2d_17">
      <path clip-path="url(#p0b30155b40)" d="M 53.00625 161.448904 
L 387.80625 161.448904 
" style="fill:none;stroke:#ffffff;stroke-linecap:round;stroke-width:0.8;"/>
     </g>
     <g id="line2d_18"/>
     <g id="text_10">
      <!-- 0.010 -->
      <g style="fill:#262626;" transform="translate(20.878125 165.248122)scale(0.1 -0.1)">
       <use xlink:href="#DejaVuSans-30"/>
       <use x="63.623047" xlink:href="#DejaVuSans-2e"/>
       <use x="95.410156" xlink:href="#DejaVuSans-30"/>
       <use x="159.033203" xlink:href="#DejaVuSans-31"/>
       <use x="222.65625" xlink:href="#DejaVuSans-30"/>
      </g>
     </g>
    </g>
    <g id="ytick_4">
     <g id="line2d_19">
      <path clip-path="url(#p0b30155b40)" d="M 53.00625 124.652958 
L 387.80625 124.652958 
" style="fill:none;stroke:#ffffff;stroke-linecap:round;stroke-width:0.8;"/>
     </g>
     <g id="line2d_20"/>
     <g id="text_11">
      <!-- 0.015 -->
      <g style="fill:#262626;" transform="translate(20.878125 128.452176)scale(0.1 -0.1)">
       <use xlink:href="#DejaVuSans-30"/>
       <use x="63.623047" xlink:href="#DejaVuSans-2e"/>
       <use x="95.410156" xlink:href="#DejaVuSans-30"/>
       <use x="159.033203" xlink:href="#DejaVuSans-31"/>
       <use x="222.65625" xlink:href="#DejaVuSans-35"/>
      </g>
     </g>
    </g>
    <g id="ytick_5">
     <g id="line2d_21">
      <path clip-path="url(#p0b30155b40)" d="M 53.00625 87.857012 
L 387.80625 87.857012 
" style="fill:none;stroke:#ffffff;stroke-linecap:round;stroke-width:0.8;"/>
     </g>
     <g id="line2d_22"/>
     <g id="text_12">
      <!-- 0.020 -->
      <g style="fill:#262626;" transform="translate(20.878125 91.65623)scale(0.1 -0.1)">
       <use xlink:href="#DejaVuSans-30"/>
       <use x="63.623047" xlink:href="#DejaVuSans-2e"/>
       <use x="95.410156" xlink:href="#DejaVuSans-30"/>
       <use x="159.033203" xlink:href="#DejaVuSans-32"/>
       <use x="222.65625" xlink:href="#DejaVuSans-30"/>
      </g>
     </g>
    </g>
    <g id="ytick_6">
     <g id="line2d_23">
      <path clip-path="url(#p0b30155b40)" d="M 53.00625 51.061066 
L 387.80625 51.061066 
" style="fill:none;stroke:#ffffff;stroke-linecap:round;stroke-width:0.8;"/>
     </g>
     <g id="line2d_24"/>
     <g id="text_13">
      <!-- 0.025 -->
      <g style="fill:#262626;" transform="translate(20.878125 54.860285)scale(0.1 -0.1)">
       <use xlink:href="#DejaVuSans-30"/>
       <use x="63.623047" xlink:href="#DejaVuSans-2e"/>
       <use x="95.410156" xlink:href="#DejaVuSans-30"/>
       <use x="159.033203" xlink:href="#DejaVuSans-32"/>
       <use x="222.65625" xlink:href="#DejaVuSans-35"/>
      </g>
     </g>
    </g>
    <g id="text_14">
     <!-- Test Dataset Loss -->
     <g style="fill:#262626;" transform="translate(14.798438 174.608438)rotate(-90)scale(0.1 -0.1)">
      <defs>
       <path d="M -19 4666 
L 3928 4666 
L 3928 4134 
L 2272 4134 
L 2272 0 
L 1638 0 
L 1638 4134 
L -19 4134 
L -19 4666 
z
" id="DejaVuSans-54" transform="scale(0.015625)"/>
       <path d="M 3597 1894 
L 3597 1613 
L 953 1613 
Q 991 1019 1311 708 
Q 1631 397 2203 397 
Q 2534 397 2845 478 
Q 3156 559 3463 722 
L 3463 178 
Q 3153 47 2828 -22 
Q 2503 -91 2169 -91 
Q 1331 -91 842 396 
Q 353 884 353 1716 
Q 353 2575 817 3079 
Q 1281 3584 2069 3584 
Q 2775 3584 3186 3129 
Q 3597 2675 3597 1894 
z
M 3022 2063 
Q 3016 2534 2758 2815 
Q 2500 3097 2075 3097 
Q 1594 3097 1305 2825 
Q 1016 2553 972 2059 
L 3022 2063 
z
" id="DejaVuSans-65" transform="scale(0.015625)"/>
       <path d="M 2834 3397 
L 2834 2853 
Q 2591 2978 2328 3040 
Q 2066 3103 1784 3103 
Q 1356 3103 1142 2972 
Q 928 2841 928 2578 
Q 928 2378 1081 2264 
Q 1234 2150 1697 2047 
L 1894 2003 
Q 2506 1872 2764 1633 
Q 3022 1394 3022 966 
Q 3022 478 2636 193 
Q 2250 -91 1575 -91 
Q 1294 -91 989 -36 
Q 684 19 347 128 
L 347 722 
Q 666 556 975 473 
Q 1284 391 1588 391 
Q 1994 391 2212 530 
Q 2431 669 2431 922 
Q 2431 1156 2273 1281 
Q 2116 1406 1581 1522 
L 1381 1569 
Q 847 1681 609 1914 
Q 372 2147 372 2553 
Q 372 3047 722 3315 
Q 1072 3584 1716 3584 
Q 2034 3584 2315 3537 
Q 2597 3491 2834 3397 
z
" id="DejaVuSans-73" transform="scale(0.015625)"/>
       <path d="M 1172 4494 
L 1172 3500 
L 2356 3500 
L 2356 3053 
L 1172 3053 
L 1172 1153 
Q 1172 725 1289 603 
Q 1406 481 1766 481 
L 2356 481 
L 2356 0 
L 1766 0 
Q 1100 0 847 248 
Q 594 497 594 1153 
L 594 3053 
L 172 3053 
L 172 3500 
L 594 3500 
L 594 4494 
L 1172 4494 
z
" id="DejaVuSans-74" transform="scale(0.015625)"/>
       <path id="DejaVuSans-20" transform="scale(0.015625)"/>
       <path d="M 1259 4147 
L 1259 519 
L 2022 519 
Q 2988 519 3436 956 
Q 3884 1394 3884 2338 
Q 3884 3275 3436 3711 
Q 2988 4147 2022 4147 
L 1259 4147 
z
M 628 4666 
L 1925 4666 
Q 3281 4666 3915 4102 
Q 4550 3538 4550 2338 
Q 4550 1131 3912 565 
Q 3275 0 1925 0 
L 628 0 
L 628 4666 
z
" id="DejaVuSans-44" transform="scale(0.015625)"/>
       <path d="M 2194 1759 
Q 1497 1759 1228 1600 
Q 959 1441 959 1056 
Q 959 750 1161 570 
Q 1363 391 1709 391 
Q 2188 391 2477 730 
Q 2766 1069 2766 1631 
L 2766 1759 
L 2194 1759 
z
M 3341 1997 
L 3341 0 
L 2766 0 
L 2766 531 
Q 2569 213 2275 61 
Q 1981 -91 1556 -91 
Q 1019 -91 701 211 
Q 384 513 384 1019 
Q 384 1609 779 1909 
Q 1175 2209 1959 2209 
L 2766 2209 
L 2766 2266 
Q 2766 2663 2505 2880 
Q 2244 3097 1772 3097 
Q 1472 3097 1187 3025 
Q 903 2953 641 2809 
L 641 3341 
Q 956 3463 1253 3523 
Q 1550 3584 1831 3584 
Q 2591 3584 2966 3190 
Q 3341 2797 3341 1997 
z
" id="DejaVuSans-61" transform="scale(0.015625)"/>
       <path d="M 628 4666 
L 1259 4666 
L 1259 531 
L 3531 531 
L 3531 0 
L 628 0 
L 628 4666 
z
" id="DejaVuSans-4c" transform="scale(0.015625)"/>
      </defs>
      <use xlink:href="#DejaVuSans-54"/>
      <use x="44.083984" xlink:href="#DejaVuSans-65"/>
      <use x="105.607422" xlink:href="#DejaVuSans-73"/>
      <use x="157.707031" xlink:href="#DejaVuSans-74"/>
      <use x="196.916016" xlink:href="#DejaVuSans-20"/>
      <use x="228.703125" xlink:href="#DejaVuSans-44"/>
      <use x="305.705078" xlink:href="#DejaVuSans-61"/>
      <use x="366.984375" xlink:href="#DejaVuSans-74"/>
      <use x="406.193359" xlink:href="#DejaVuSans-61"/>
      <use x="467.472656" xlink:href="#DejaVuSans-73"/>
      <use x="519.572266" xlink:href="#DejaVuSans-65"/>
      <use x="581.095703" xlink:href="#DejaVuSans-74"/>
      <use x="620.304688" xlink:href="#DejaVuSans-20"/>
      <use x="652.091797" xlink:href="#DejaVuSans-4c"/>
      <use x="706.054688" xlink:href="#DejaVuSans-6f"/>
      <use x="767.236328" xlink:href="#DejaVuSans-73"/>
      <use x="819.335938" xlink:href="#DejaVuSans-73"/>
     </g>
    </g>
   </g>
   <g id="line2d_25">
    <path clip-path="url(#p0b30155b40)" d="M 68.224432 35.934867 
L 68.834379 36.273767 
L 69.444326 35.799179 
L 70.054273 36.585158 
L 70.66422 35.746579 
L 71.274168 36.411891 
L 71.884115 35.682489 
L 72.494062 36.937994 
L 73.713956 35.523603 
L 74.323903 36.686174 
L 74.933851 36.033509 
L 75.543798 35.76592 
L 76.153745 36.161286 
L 76.763692 36.833697 
L 77.983586 35.984247 
L 78.593534 35.036282 
L 79.203481 36.345292 
L 79.813428 36.24904 
L 80.423375 35.221772 
L 81.033322 35.883808 
L 81.643269 36.072831 
L 82.253217 36.545748 
L 82.863164 35.609273 
L 83.473111 36.17604 
L 84.083058 36.279304 
L 84.693005 35.605495 
L 85.302952 35.630605 
L 85.9129 35.987489 
L 86.522847 35.468635 
L 87.132794 35.604632 
L 87.742741 35.353722 
L 88.962635 37.546055 
L 89.572583 39.64046 
L 90.792477 51.829308 
L 92.012371 60.181273 
L 92.622319 59.74906 
L 93.232266 64.418941 
L 93.842213 67.453183 
L 94.45216 71.661326 
L 95.062107 66.753091 
L 95.672054 63.074645 
L 96.282002 67.354851 
L 96.891949 65.99733 
L 97.501896 69.640437 
L 98.111843 63.134454 
L 98.72179 67.370916 
L 99.331737 66.488307 
L 99.941685 75.134554 
L 100.551632 74.900558 
L 101.161579 66.360051 
L 101.771526 69.569552 
L 102.381473 70.640376 
L 102.99142 73.987021 
L 103.601368 69.587185 
L 104.211315 69.347365 
L 104.821262 70.062641 
L 105.431209 67.774042 
L 106.041156 66.865769 
L 106.651103 64.480373 
L 107.261051 76.428704 
L 107.870998 72.753626 
L 108.480945 74.762681 
L 109.090892 64.127272 
L 109.700839 74.51973 
L 111.530681 84.390715 
L 112.140628 82.919895 
L 112.750575 64.52612 
L 113.360522 82.600897 
L 113.970469 92.935304 
L 114.580417 77.871512 
L 115.190364 80.297355 
L 115.800311 83.870503 
L 116.410258 83.946328 
L 117.020205 80.180934 
L 117.630152 97.726746 
L 118.2401 99.134559 
L 118.850047 95.116274 
L 119.459994 107.596043 
L 120.069941 113.641984 
L 120.679888 97.727382 
L 121.289835 106.238508 
L 121.899783 107.147885 
L 122.50973 89.004593 
L 123.119677 99.835667 
L 123.729624 96.877843 
L 124.339571 120.433592 
L 124.949518 113.204089 
L 125.559466 112.850968 
L 126.169413 92.640424 
L 126.77936 91.461397 
L 127.389307 118.144716 
L 127.999254 116.328992 
L 128.609201 87.807817 
L 129.219149 104.262368 
L 129.829096 62.381495 
L 130.439043 120.269792 
L 131.04899 116.211393 
L 131.658937 94.705659 
L 132.268884 119.94731 
L 132.878832 109.968052 
L 133.488779 114.423804 
L 134.098726 110.742727 
L 134.708673 120.857279 
L 135.31862 107.171929 
L 135.928567 100.386469 
L 136.538515 78.268782 
L 137.148462 123.646338 
L 137.758409 128.433471 
L 138.368356 118.847732 
L 138.978303 104.983928 
L 139.58825 127.235636 
L 140.198198 118.76746 
L 140.808145 118.654634 
L 141.418092 108.027891 
L 142.028039 128.018655 
L 142.637986 119.602439 
L 143.247933 103.007541 
L 143.857881 114.752697 
L 144.467828 121.593202 
L 145.077775 114.720385 
L 145.687722 129.777314 
L 146.297669 124.192706 
L 146.907616 128.466548 
L 147.517564 121.565713 
L 148.127511 116.813493 
L 148.737458 116.391709 
L 149.347405 123.767531 
L 149.957352 118.415497 
L 150.567299 130.403496 
L 151.177247 120.683422 
L 151.787194 118.593793 
L 152.397141 96.707422 
L 153.007088 125.20909 
L 153.617035 132.076507 
L 154.226982 126.902264 
L 154.83693 118.376621 
L 155.446877 125.701024 
L 156.056824 134.545096 
L 156.666771 130.547206 
L 157.276718 109.431552 
L 157.886665 113.572109 
L 158.496613 106.6311 
L 159.10656 129.483723 
L 159.716507 132.877045 
L 160.326454 95.921902 
L 160.936401 117.379207 
L 161.546348 128.508144 
L 162.156296 116.760521 
L 162.766243 92.07981 
L 163.37619 89.63078 
L 164.596084 126.883285 
L 165.206031 113.536731 
L 165.815979 124.129626 
L 166.425926 127.106541 
L 167.035873 116.635932 
L 167.64582 127.377308 
L 168.255767 111.584775 
L 169.475662 127.581664 
L 170.085609 121.84417 
L 170.695556 122.598296 
L 171.305503 131.350357 
L 171.91545 111.099414 
L 172.525397 127.91361 
L 173.135345 124.381571 
L 173.745292 117.807952 
L 174.355239 122.686114 
L 174.965186 122.891222 
L 175.575133 131.243647 
L 176.18508 91.121471 
L 177.404975 121.777365 
L 178.014922 117.162068 
L 178.624869 121.705723 
L 179.234816 114.106404 
L 179.844763 123.239306 
L 180.454711 105.936923 
L 181.064658 113.774313 
L 181.674605 97.720376 
L 182.284552 127.06761 
L 182.894499 114.160031 
L 183.504446 105.495083 
L 184.114394 116.373223 
L 184.724341 112.538008 
L 185.334288 126.694521 
L 185.944235 118.19589 
L 186.554182 123.598788 
L 187.164129 110.624501 
L 187.774077 123.077763 
L 188.993971 104.727316 
L 189.603918 117.971036 
L 190.213865 114.978077 
L 190.823812 125.745592 
L 191.43376 120.467787 
L 192.043707 113.827335 
L 192.653654 121.229738 
L 193.263601 105.774278 
L 193.873548 123.283001 
L 194.483495 123.517618 
L 195.093443 119.988285 
L 195.70339 118.90563 
L 196.313337 87.799399 
L 196.923284 118.240448 
L 197.533231 118.239132 
L 198.143178 118.482473 
L 198.753126 126.229706 
L 199.363073 113.127591 
L 199.97302 112.658186 
L 200.582967 109.780797 
L 201.192914 110.870758 
L 201.802861 114.826696 
L 202.412809 117.875478 
L 203.022756 112.487736 
L 203.632703 115.495653 
L 204.24265 115.434865 
L 204.852597 121.159374 
L 205.462544 114.347056 
L 206.072492 115.111035 
L 206.682439 106.557955 
L 207.292386 104.309894 
L 207.902333 116.048326 
L 208.51228 112.51085 
L 209.122227 116.235737 
L 209.732175 109.447755 
L 210.342122 111.102052 
L 210.952069 91.436461 
L 211.562016 121.292905 
L 212.171963 102.654188 
L 212.78191 116.103602 
L 213.391858 119.44292 
L 214.611752 117.585982 
L 215.221699 108.491226 
L 215.831646 113.064998 
L 216.441593 108.188948 
L 217.051541 115.633425 
L 217.661488 118.786743 
L 218.271435 111.329786 
L 218.881382 109.149108 
L 219.491329 117.749541 
L 220.101276 107.380734 
L 220.711224 115.392514 
L 221.321171 120.075154 
L 221.931118 119.181941 
L 223.151012 115.707859 
L 223.760959 115.597264 
L 224.370907 92.68912 
L 224.980854 114.471133 
L 225.590801 112.243478 
L 226.200748 120.505498 
L 226.810695 105.49867 
L 227.420642 114.305981 
L 228.03059 108.194716 
L 228.640537 105.839939 
L 229.250484 114.712679 
L 229.860431 114.346868 
L 230.470378 118.64213 
L 231.080325 109.726358 
L 231.690273 104.186059 
L 232.30022 108.535502 
L 232.910167 117.402346 
L 233.520114 111.468027 
L 234.130061 111.120148 
L 234.740008 119.871569 
L 235.349956 115.301615 
L 236.56985 113.369546 
L 237.179797 110.024587 
L 237.789744 118.257321 
L 238.399691 119.260319 
L 239.009639 108.898107 
L 239.619586 108.520265 
L 240.229533 117.737732 
L 240.83948 91.44083 
L 241.449427 111.305017 
L 242.059374 114.617992 
L 242.669322 110.026276 
L 243.279269 116.051361 
L 243.889216 103.471218 
L 244.499163 108.962128 
L 245.10911 116.75898 
L 245.719057 116.133924 
L 246.329005 114.556251 
L 246.938952 105.551656 
L 247.548899 112.381264 
L 248.158846 122.164681 
L 248.768793 115.021279 
L 249.37874 112.896871 
L 249.988688 106.403638 
L 250.598635 104.088677 
L 251.208582 114.930424 
L 251.818529 108.194329 
L 252.428476 122.468321 
L 253.038423 122.868681 
L 253.648371 122.428311 
L 254.258318 88.614594 
L 254.868265 106.232849 
L 255.478212 116.392302 
L 256.088159 96.422107 
L 256.698106 110.155038 
L 257.308054 115.65529 
L 257.918001 67.951497 
L 258.527948 111.739359 
L 259.137895 118.108862 
L 259.747842 117.023841 
L 260.357789 119.9898 
L 260.967737 120.918203 
L 261.577684 118.674244 
L 262.187631 109.970653 
L 262.797578 99.462932 
L 263.407525 113.835413 
L 264.017472 116.946597 
L 264.62742 115.093006 
L 265.237367 118.112365 
L 265.847314 123.170456 
L 266.457261 121.878481 
L 267.067208 121.01405 
L 267.677155 114.468244 
L 268.287103 112.793807 
L 268.89705 113.852189 
L 269.506997 121.254703 
L 270.116944 112.028987 
L 270.726891 119.890196 
L 271.336838 117.823373 
L 271.946786 117.102938 
L 272.556733 114.326796 
L 273.16668 117.054236 
L 273.776627 111.208757 
L 274.386574 119.006699 
L 274.996521 119.412081 
L 275.606469 122.43405 
L 276.216416 118.452985 
L 276.826363 121.817465 
L 277.43631 120.595656 
L 278.046257 113.403173 
L 278.656204 100.739271 
L 279.266152 116.116094 
L 279.876099 121.967246 
L 280.486046 121.524211 
L 281.095993 120.588099 
L 281.70594 121.170282 
L 282.315887 120.897716 
L 282.925835 95.542777 
L 283.535782 113.277606 
L 284.145729 108.604414 
L 284.755676 117.431411 
L 285.365623 111.427981 
L 285.97557 120.682976 
L 287.195465 122.383518 
L 287.805412 118.094159 
L 288.415359 96.379581 
L 289.025306 109.83574 
L 289.635253 110.736224 
L 290.245201 115.058039 
L 290.855148 120.408031 
L 291.465095 120.848021 
L 292.075042 120.168141 
L 292.684989 122.598549 
L 293.294936 118.883871 
L 293.904884 121.527969 
L 294.514831 101.708331 
L 295.124778 109.347579 
L 295.734725 115.527648 
L 296.344672 118.686877 
L 296.954619 120.734512 
L 297.564567 120.025552 
L 298.174514 120.480079 
L 298.784461 119.970295 
L 299.394408 119.298182 
L 300.004355 107.921436 
L 300.614302 116.982224 
L 301.22425 122.602109 
L 301.834197 121.822961 
L 302.444144 121.514693 
L 303.054091 120.960896 
L 303.664038 116.469708 
L 304.273985 116.79023 
L 304.883933 114.31179 
L 305.49388 117.533464 
L 306.103827 111.933628 
L 306.713774 121.230108 
L 307.323721 117.977223 
L 307.933668 121.04306 
L 309.153563 120.196218 
L 309.76351 118.975952 
L 310.373457 118.744188 
L 310.983404 100.973015 
L 311.593351 118.294002 
L 312.203299 118.225841 
L 312.813246 120.27759 
L 313.423193 120.15813 
L 314.03314 119.813513 
L 314.643087 117.821677 
L 315.253034 119.875139 
L 315.862982 112.912682 
L 316.472929 119.010861 
L 317.082876 108.685733 
L 317.692823 115.632125 
L 318.30277 113.871916 
L 318.912717 119.369435 
L 320.132612 119.10164 
L 320.742559 116.739607 
L 321.352506 119.122104 
L 321.962453 116.389733 
L 322.5724 90.049352 
L 323.182348 112.757825 
L 323.792295 119.34374 
L 324.402242 119.679159 
L 325.012189 120.862852 
L 325.622136 121.786884 
L 326.232083 120.460809 
L 326.842031 120.948654 
L 327.451978 116.458114 
L 328.061925 116.85895 
L 328.671872 89.213641 
L 329.281819 118.490856 
L 329.891766 120.991848 
L 330.501714 121.034048 
L 331.721608 121.600758 
L 332.331555 119.285968 
L 332.941502 120.492383 
L 333.551449 118.604651 
L 334.161397 118.857275 
L 334.771344 115.035948 
L 335.381291 114.057696 
L 336.601185 120.183997 
L 337.211132 119.653205 
L 337.82108 119.596649 
L 338.431027 120.598375 
L 339.040974 118.535331 
L 339.650921 118.475954 
L 340.260868 119.235325 
L 340.870815 115.945569 
L 341.480763 108.714003 
L 342.09071 118.394196 
L 342.700657 119.225971 
L 344.530498 118.31627 
L 345.140446 119.450698 
L 345.750393 118.224841 
L 346.970287 112.769759 
L 347.580234 121.595834 
L 348.190181 121.185026 
L 348.800129 121.949 
L 349.410076 120.632411 
L 350.020023 121.629714 
L 350.62997 119.01817 
L 351.849865 118.614636 
L 352.459812 120.642885 
L 353.069759 116.142656 
L 353.679706 107.87912 
L 354.289653 122.384724 
L 354.8996 120.028121 
L 356.119495 123.142918 
L 356.729442 122.646995 
L 357.339389 122.305881 
L 357.949336 123.173697 
L 358.559283 121.012263 
L 359.169231 122.047391 
L 359.779178 89.494296 
L 360.389125 114.692367 
L 360.999072 120.608821 
L 362.218966 122.493763 
L 362.828914 121.404071 
L 363.438861 122.273317 
L 364.048808 121.677941 
L 364.658755 122.300381 
L 365.268702 120.250747 
L 365.878649 119.592434 
L 366.488597 120.286067 
L 367.098544 115.078196 
L 367.708491 120.061892 
L 368.318438 121.303249 
L 368.928385 120.492062 
L 369.538332 120.790812 
L 370.758227 121.996285 
L 371.368174 121.451353 
L 371.978121 121.78287 
L 372.588068 120.784358 
L 372.588068 120.784358 
" style="fill:none;stroke:#0173b2;stroke-linecap:round;stroke-width:1.5;"/>
   </g>
   <g id="line2d_26">
    <path clip-path="url(#p0b30155b40)" d="M 68.224432 34.631534 
L 68.834379 33.626105 
L 69.444326 63.404717 
L 70.054273 77.013582 
L 70.66422 72.67468 
L 71.274168 49.487155 
L 71.884115 87.293369 
L 72.494062 92.263726 
L 73.104009 94.814383 
L 73.713956 107.475413 
L 74.933851 152.039476 
L 75.543798 153.382627 
L 76.763692 164.696583 
L 77.373639 180.379276 
L 77.983586 177.09284 
L 78.593534 179.283103 
L 79.203481 171.96637 
L 79.813428 175.097645 
L 80.423375 184.089274 
L 81.033322 173.135633 
L 81.643269 184.539437 
L 82.253217 180.749077 
L 82.863164 182.766981 
L 83.473111 179.762368 
L 84.083058 174.73757 
L 84.693005 189.663511 
L 85.302952 186.489334 
L 85.9129 187.086717 
L 86.522847 182.468221 
L 87.132794 182.362367 
L 87.742741 178.788671 
L 88.352688 186.323833 
L 88.962635 187.872316 
L 89.572583 188.752036 
L 90.18253 180.37469 
L 90.792477 182.762033 
L 92.012371 195.067091 
L 92.622319 188.809926 
L 93.232266 194.483163 
L 93.842213 190.712756 
L 94.45216 183.791163 
L 95.062107 189.879253 
L 95.672054 190.073359 
L 96.282002 194.499072 
L 96.891949 184.423729 
L 97.501896 188.378781 
L 98.111843 194.35731 
L 98.72179 188.76098 
L 99.331737 194.359396 
L 99.941685 188.667522 
L 100.551632 190.693921 
L 101.161579 185.754842 
L 101.771526 193.757375 
L 102.381473 195.982764 
L 102.99142 191.918388 
L 104.211315 198.413916 
L 104.821262 194.938169 
L 105.431209 196.234435 
L 106.041156 199.858516 
L 106.651103 195.30303 
L 107.261051 197.377522 
L 107.870998 200.087062 
L 108.480945 201.249489 
L 109.090892 202.043167 
L 109.700839 196.045035 
L 110.310786 199.583283 
L 110.920734 183.594851 
L 111.530681 198.442419 
L 112.140628 199.596053 
L 112.750575 194.007125 
L 113.360522 196.97968 
L 113.970469 197.183693 
L 114.580417 202.068348 
L 115.190364 200.351345 
L 115.800311 196.916502 
L 116.410258 198.102282 
L 117.020205 194.579648 
L 117.630152 202.478913 
L 118.2401 201.67057 
L 118.850047 186.761433 
L 119.459994 201.313092 
L 120.069941 199.492733 
L 120.679888 200.952038 
L 121.289835 194.30369 
L 121.899783 196.307074 
L 122.50973 201.494178 
L 123.119677 202.46214 
L 123.729624 204.136341 
L 124.339571 193.604064 
L 124.949518 203.672666 
L 125.559466 202.415365 
L 126.169413 202.529132 
L 127.389307 206.469834 
L 127.999254 204.58662 
L 128.609201 200.320285 
L 129.219149 203.351062 
L 129.829096 202.899732 
L 130.439043 206.295212 
L 131.04899 205.065343 
L 132.268884 194.247032 
L 132.878832 205.031117 
L 133.488779 203.2821 
L 134.098726 207.64905 
L 134.708673 205.701932 
L 135.31862 204.167188 
L 135.928567 204.772521 
L 136.538515 205.211075 
L 137.148462 206.885617 
L 137.758409 205.414738 
L 138.368356 206.425596 
L 138.978303 206.571254 
L 139.58825 204.660812 
L 140.198198 206.697162 
L 140.808145 203.413257 
L 141.418092 201.659961 
L 142.637986 207.368901 
L 143.247933 205.135577 
L 143.857881 205.368857 
L 144.467828 202.72222 
L 145.077775 201.082011 
L 145.687722 205.473762 
L 146.297669 208.081764 
L 146.907616 208.043823 
L 147.517564 206.450866 
L 148.127511 205.85159 
L 148.737458 207.480615 
L 149.347405 207.123871 
L 149.957352 203.604385 
L 150.567299 197.227769 
L 151.177247 196.917376 
L 151.787194 209.257214 
L 152.397141 202.569567 
L 153.007088 207.39878 
L 153.617035 201.108921 
L 154.226982 209.124842 
L 154.83693 207.890188 
L 155.446877 207.919908 
L 156.056824 201.261734 
L 156.666771 199.042017 
L 157.276718 208.298156 
L 157.886665 205.547269 
L 158.496613 206.800322 
L 159.10656 206.39284 
L 159.716507 208.518208 
L 160.326454 209.913814 
L 160.936401 203.888648 
L 161.546348 205.797506 
L 162.156296 202.361288 
L 162.766243 200.793348 
L 163.37619 206.230619 
L 163.986137 205.456603 
L 164.596084 209.766897 
L 165.815979 202.685699 
L 166.425926 206.473742 
L 167.035873 207.395325 
L 167.64582 209.576228 
L 168.255767 199.62211 
L 168.865714 208.883288 
L 169.475662 205.858461 
L 170.085609 208.20326 
L 170.695556 199.392717 
L 171.305503 207.283737 
L 171.91545 197.361411 
L 172.525397 208.474221 
L 173.135345 201.753596 
L 173.745292 209.016349 
L 174.355239 205.283041 
L 174.965186 198.8416 
L 175.575133 207.285973 
L 176.18508 205.049418 
L 176.795028 207.058989 
L 177.404975 208.462374 
L 178.014922 193.877878 
L 178.624869 208.695612 
L 179.234816 204.073198 
L 179.844763 207.299697 
L 180.454711 209.753966 
L 181.064658 209.742397 
L 181.674605 198.281845 
L 182.284552 197.958628 
L 182.894499 198.763918 
L 183.504446 203.323943 
L 184.114394 205.506838 
L 184.724341 209.308147 
L 185.334288 207.60533 
L 185.944235 206.991302 
L 186.554182 208.912997 
L 187.164129 208.268839 
L 187.774077 209.827244 
L 188.384024 209.339833 
L 188.993971 205.3107 
L 189.603918 208.82819 
L 190.213865 205.856704 
L 190.823812 199.540146 
L 191.43376 201.637126 
L 192.043707 207.547214 
L 192.653654 208.649277 
L 193.263601 205.804382 
L 193.873548 207.59497 
L 194.483495 207.610247 
L 195.093443 207.768358 
L 195.70339 208.429091 
L 196.313337 206.420933 
L 196.923284 210.546974 
L 197.533231 206.633493 
L 198.143178 195.164384 
L 198.753126 206.864256 
L 199.363073 209.382367 
L 199.97302 208.504613 
L 200.582967 201.936912 
L 201.802861 208.28926 
L 202.412809 207.033431 
L 203.022756 208.467461 
L 203.632703 202.837879 
L 204.24265 209.497047 
L 204.852597 207.657222 
L 205.462544 206.812846 
L 206.072492 202.931841 
L 206.682439 208.249701 
L 207.292386 207.892815 
L 207.902333 208.951477 
L 208.51228 208.622626 
L 209.122227 207.832516 
L 209.732175 206.142625 
L 210.342122 207.730063 
L 210.952069 198.897836 
L 211.562016 208.609622 
L 212.171963 209.831262 
L 212.78191 208.130646 
L 213.391858 208.385246 
L 214.001805 198.080462 
L 214.611752 207.921992 
L 215.221699 207.213112 
L 215.831646 195.514713 
L 216.441593 206.846037 
L 217.051541 203.059179 
L 217.661488 209.344148 
L 218.271435 208.749619 
L 218.881382 205.947253 
L 219.491329 206.715611 
L 220.101276 207.753037 
L 220.711224 209.079955 
L 221.321171 209.496345 
L 221.931118 209.226222 
L 222.541065 208.752761 
L 223.151012 208.494037 
L 223.760959 209.632609 
L 224.370907 209.567949 
L 224.980854 206.871097 
L 225.590801 209.459246 
L 226.200748 209.017828 
L 226.810695 201.341826 
L 227.420642 209.841838 
L 228.03059 200.662509 
L 228.640537 206.489613 
L 229.250484 207.38217 
L 229.860431 209.949817 
L 231.080325 206.436789 
L 231.690273 209.298089 
L 232.30022 208.741118 
L 232.910167 209.535158 
L 233.520114 208.265992 
L 234.130061 202.877405 
L 234.740008 209.263659 
L 235.349956 208.080883 
L 235.959903 209.326818 
L 236.56985 209.235733 
L 237.179797 204.891584 
L 237.789744 209.169412 
L 238.399691 206.319812 
L 239.009639 207.707259 
L 239.619586 205.782981 
L 240.229533 208.34235 
L 240.83948 203.925826 
L 241.449427 206.839198 
L 242.059374 208.635292 
L 242.669322 209.779736 
L 243.279269 209.233184 
L 243.889216 207.126918 
L 244.499163 206.258267 
L 245.10911 208.108706 
L 245.719057 206.453766 
L 246.329005 206.611404 
L 246.938952 209.288655 
L 247.548899 203.971209 
L 248.158846 207.196386 
L 248.768793 207.665433 
L 249.37874 208.355461 
L 249.988688 195.233893 
L 250.598635 208.322047 
L 251.208582 207.242308 
L 251.818529 206.85554 
L 252.428476 208.274748 
L 253.038423 207.996357 
L 253.648371 206.657449 
L 254.258318 206.479876 
L 254.868265 191.639265 
L 255.478212 207.250581 
L 256.088159 207.249486 
L 256.698106 208.475384 
L 257.308054 207.789272 
L 257.918001 205.449003 
L 258.527948 206.113079 
L 259.137895 207.418719 
L 259.747842 206.127632 
L 260.357789 207.789979 
L 260.967737 207.828276 
L 261.577684 208.950163 
L 262.187631 207.462197 
L 262.797578 208.445908 
L 263.407525 208.547627 
L 264.62742 204.979842 
L 265.237367 207.422591 
L 265.847314 207.019971 
L 266.457261 206.385142 
L 267.067208 205.386908 
L 267.677155 207.017661 
L 268.287103 207.865838 
L 268.89705 208.203599 
L 269.506997 203.009086 
L 270.116944 206.784796 
L 270.726891 206.793217 
L 271.336838 204.984005 
L 271.946786 208.08056 
L 273.16668 208.113737 
L 273.776627 206.191188 
L 274.386574 204.926904 
L 274.996521 206.326722 
L 275.606469 205.625654 
L 276.216416 202.178293 
L 276.826363 205.955525 
L 277.43631 208.12306 
L 278.046257 207.664602 
L 278.656204 207.894481 
L 279.266152 207.627708 
L 279.876099 202.736805 
L 280.486046 203.167467 
L 281.095993 206.912217 
L 281.70594 207.614462 
L 282.315887 205.616032 
L 282.925835 207.613908 
L 283.535782 208.038997 
L 284.145729 207.377558 
L 284.755676 191.013036 
L 285.365623 204.744823 
L 285.97557 207.682101 
L 286.585518 207.983703 
L 287.195465 204.125994 
L 287.805412 206.779561 
L 288.415359 207.074094 
L 289.025306 202.57817 
L 289.635253 207.301845 
L 290.245201 204.574337 
L 290.855148 207.886579 
L 291.465095 206.154221 
L 292.075042 206.620557 
L 292.684989 207.447522 
L 293.294936 198.708989 
L 293.904884 207.110155 
L 294.514831 207.701305 
L 295.124778 207.668861 
L 295.734725 207.982977 
L 296.954619 206.558471 
L 297.564567 205.796555 
L 298.174514 207.143488 
L 298.784461 207.169187 
L 299.394408 206.757847 
L 300.004355 195.942223 
L 300.614302 206.157407 
L 301.22425 207.262326 
L 301.834197 207.246572 
L 302.444144 207.020751 
L 303.054091 207.038413 
L 303.664038 207.256217 
L 304.273985 206.256714 
L 304.883933 206.632861 
L 305.49388 206.762278 
L 306.103827 208.505307 
L 306.713774 206.274143 
L 307.323721 207.763934 
L 307.933668 207.101483 
L 308.543616 205.847525 
L 309.153563 195.282841 
L 309.76351 206.192807 
L 310.983404 206.805402 
L 311.593351 207.655781 
L 312.203299 206.539073 
L 312.813246 205.16644 
L 313.423193 202.318301 
L 314.03314 207.677489 
L 315.253034 206.289643 
L 315.862982 206.707909 
L 316.472929 206.443231 
L 317.082876 204.342713 
L 317.692823 204.719139 
L 318.30277 206.822873 
L 318.912717 207.481049 
L 319.522665 206.8636 
L 320.742559 206.294371 
L 321.352506 205.358933 
L 321.962453 205.865756 
L 322.5724 203.786807 
L 323.182348 205.86671 
L 323.792295 206.786 
L 324.402242 206.960644 
L 325.012189 206.970063 
L 325.622136 206.551521 
L 326.232083 206.317123 
L 326.842031 204.384626 
L 327.451978 205.699177 
L 328.061925 207.406042 
L 328.671872 204.761741 
L 329.281819 206.00979 
L 329.891766 204.191419 
L 330.501714 205.653936 
L 331.111661 206.803776 
L 331.721608 205.730783 
L 332.331555 190.987808 
L 332.941502 204.733105 
L 333.551449 206.637104 
L 334.161397 207.091866 
L 334.771344 206.85428 
L 335.381291 206.910304 
L 335.991238 206.258024 
L 336.601185 206.874038 
L 337.211132 203.975411 
L 337.82108 206.935688 
L 338.431027 206.828274 
L 339.040974 207.20075 
L 339.650921 205.170777 
L 340.260868 206.298818 
L 340.870815 205.322587 
L 341.480763 203.483814 
L 342.09071 205.438091 
L 342.700657 206.721551 
L 343.920551 206.851118 
L 344.530498 204.328871 
L 345.140446 206.502955 
L 345.750393 205.879112 
L 346.36034 204.430956 
L 346.970287 199.773255 
L 347.580234 204.430495 
L 348.190181 206.630535 
L 348.800129 206.769505 
L 349.410076 206.456284 
L 350.020023 205.890222 
L 350.62997 206.398905 
L 351.239917 206.626301 
L 351.849865 206.568844 
L 352.459812 204.989458 
L 353.069759 205.666394 
L 353.679706 205.489317 
L 354.289653 194.629366 
L 354.8996 206.194924 
L 355.509548 205.212631 
L 356.119495 206.489464 
L 357.339389 206.149397 
L 357.949336 206.445895 
L 358.559283 204.698137 
L 359.169231 205.98063 
L 359.779178 206.650437 
L 360.389125 205.853873 
L 360.999072 205.823287 
L 361.609019 203.90352 
L 362.218966 203.611646 
L 362.828914 203.856897 
L 363.438861 206.33943 
L 364.658755 206.211301 
L 365.268702 205.976703 
L 365.878649 205.451877 
L 366.488597 205.947576 
L 367.098544 205.617061 
L 367.708491 203.55118 
L 368.318438 203.0619 
L 368.928385 205.485202 
L 370.14828 206.588467 
L 370.758227 206.088798 
L 371.368174 206.065254 
L 371.978121 206.379641 
L 372.588068 205.932689 
L 372.588068 205.932689 
" style="fill:none;stroke:#de8f05;stroke-linecap:round;stroke-width:1.5;"/>
   </g>
   <g id="line2d_27">
    <path clip-path="url(#p0b30155b40)" d="M 68.224432 32.201761 
L 68.834379 151.759244 
L 69.444326 181.032356 
L 70.054273 197.847823 
L 70.66422 204.83218 
L 71.274168 205.525009 
L 71.884115 208.960878 
L 72.494062 211.654427 
L 73.104009 213.087415 
L 73.713956 211.523226 
L 74.323903 214.517185 
L 74.933851 214.066253 
L 75.543798 215.344324 
L 76.153745 215.166527 
L 76.763692 215.964694 
L 77.373639 216.514183 
L 77.983586 217.407842 
L 78.593534 218.013913 
L 79.203481 218.427158 
L 79.813428 219.061323 
L 81.033322 219.17652 
L 81.643269 219.788239 
L 82.253217 218.816076 
L 82.863164 220.37039 
L 83.473111 219.935381 
L 84.083058 221.313073 
L 84.693005 221.058787 
L 85.302952 220.388874 
L 85.9129 221.739296 
L 86.522847 220.580288 
L 87.132794 221.500849 
L 87.742741 222.959746 
L 88.352688 222.789994 
L 88.962635 222.432959 
L 89.572583 220.907935 
L 90.18253 222.383273 
L 90.792477 223.555339 
L 91.402424 222.765117 
L 92.012371 223.663205 
L 92.622319 223.795167 
L 93.232266 224.108531 
L 93.842213 223.635619 
L 94.45216 224.571717 
L 95.062107 224.285861 
L 95.672054 224.2383 
L 96.282002 225.088245 
L 96.891949 225.449375 
L 97.501896 225.633489 
L 98.72179 224.850581 
L 99.941685 226.348383 
L 100.551632 226.234687 
L 101.161579 224.857064 
L 101.771526 226.036779 
L 102.381473 225.78978 
L 103.601368 226.568906 
L 104.211315 225.350539 
L 104.821262 226.014577 
L 105.431209 226.154603 
L 106.041156 226.103479 
L 106.651103 226.674048 
L 107.261051 225.988678 
L 107.870998 225.765806 
L 108.480945 227.167831 
L 109.090892 226.44382 
L 109.700839 227.130423 
L 110.310786 227.185347 
L 110.920734 227.581935 
L 111.530681 226.84818 
L 113.970469 227.389961 
L 114.580417 227.344014 
L 115.190364 227.589753 
L 115.800311 227.479511 
L 116.410258 227.553648 
L 117.020205 227.893741 
L 117.630152 227.986524 
L 118.2401 226.807676 
L 118.850047 228.196216 
L 119.459994 227.105708 
L 120.069941 227.838105 
L 120.679888 227.797585 
L 121.289835 227.295353 
L 121.899783 227.974183 
L 122.50973 228.280356 
L 123.119677 228.321691 
L 123.729624 228.046302 
L 124.339571 228.484961 
L 125.559466 227.997802 
L 126.169413 228.325866 
L 126.77936 227.804022 
L 127.389307 227.863638 
L 127.999254 228.868372 
L 128.609201 228.966955 
L 129.219149 228.39341 
L 129.829096 228.68413 
L 130.439043 228.337414 
L 131.04899 228.42234 
L 131.658937 229.119992 
L 132.268884 227.712246 
L 132.878832 228.793522 
L 133.488779 227.870114 
L 134.098726 228.844246 
L 134.708673 228.691417 
L 135.928567 229.058735 
L 136.538515 227.766262 
L 137.148462 228.044313 
L 137.758409 228.911963 
L 138.368356 228.492103 
L 138.978303 228.557963 
L 139.58825 228.741032 
L 140.198198 227.962636 
L 140.808145 228.960272 
L 141.418092 229.147533 
L 142.028039 228.894376 
L 142.637986 228.242968 
L 143.247933 229.127313 
L 143.857881 228.651591 
L 144.467828 229.253064 
L 145.077775 229.119228 
L 146.297669 228.247616 
L 146.907616 228.610922 
L 147.517564 229.156212 
L 148.127511 229.372982 
L 148.737458 228.133908 
L 149.347405 229.228362 
L 149.957352 229.32483 
L 150.567299 228.528696 
L 151.177247 229.439662 
L 151.787194 229.056256 
L 152.397141 229.401333 
L 153.007088 228.473787 
L 153.617035 229.082482 
L 154.226982 228.798078 
L 154.83693 229.415702 
L 155.446877 228.371882 
L 156.056824 228.657735 
L 156.666771 229.206805 
L 157.276718 229.43561 
L 157.886665 228.945645 
L 158.496613 229.231065 
L 159.10656 228.699664 
L 160.326454 229.005427 
L 160.936401 228.78071 
L 161.546348 229.451142 
L 162.156296 229.269278 
L 162.766243 229.467829 
L 163.37619 228.835115 
L 163.986137 229.716743 
L 165.206031 229.231856 
L 165.815979 229.584923 
L 166.425926 229.107367 
L 167.035873 229.454774 
L 167.64582 229.108062 
L 168.255767 229.251165 
L 168.865714 228.300393 
L 169.475662 229.229382 
L 170.085609 229.436184 
L 170.695556 228.505643 
L 171.305503 229.343548 
L 171.91545 229.272319 
L 172.525397 228.746108 
L 173.135345 229.465753 
L 173.745292 229.485494 
L 174.355239 229.364118 
L 174.965186 229.714325 
L 175.575133 228.877973 
L 176.18508 229.694687 
L 176.795028 229.006414 
L 177.404975 229.416134 
L 178.014922 229.494085 
L 178.624869 229.444709 
L 179.234816 229.253867 
L 179.844763 229.35791 
L 180.454711 228.918433 
L 181.064658 229.286757 
L 181.674605 224.759148 
L 182.284552 229.395782 
L 182.894499 229.610891 
L 183.504446 229.381173 
L 184.114394 228.806349 
L 184.724341 229.387869 
L 185.334288 229.366393 
L 186.554182 229.834812 
L 187.164129 229.28301 
L 187.774077 229.490474 
L 188.384024 229.379426 
L 188.993971 229.00326 
L 189.603918 229.301009 
L 190.213865 229.101168 
L 190.823812 229.354799 
L 191.43376 229.06629 
L 192.043707 229.479694 
L 192.653654 229.506146 
L 193.263601 229.405846 
L 193.873548 229.14111 
L 194.483495 229.335178 
L 196.313337 229.409465 
L 196.923284 229.530521 
L 198.143178 228.845711 
L 198.753126 228.996971 
L 199.363073 229.493996 
L 199.97302 229.560826 
L 201.192914 229.398282 
L 201.802861 229.574556 
L 202.412809 228.987273 
L 203.022756 229.205897 
L 203.632703 229.017921 
L 204.852597 229.420892 
L 205.462544 229.477315 
L 206.682439 229.874489 
L 207.292386 229.108394 
L 207.902333 229.613429 
L 208.51228 229.414881 
L 209.122227 229.457133 
L 209.732175 229.672188 
L 210.342122 229.54006 
L 210.952069 229.747792 
L 211.562016 229.257329 
L 212.78191 229.602867 
L 213.391858 229.467321 
L 214.001805 226.357235 
L 214.611752 229.27761 
L 215.221699 229.193453 
L 215.831646 229.686495 
L 216.441593 228.126196 
L 217.051541 229.561612 
L 217.661488 228.880522 
L 218.271435 228.805368 
L 218.881382 229.573995 
L 219.491329 229.145248 
L 220.101276 229.581814 
L 221.931118 229.616587 
L 222.541065 229.237807 
L 223.760959 229.125824 
L 224.370907 229.433811 
L 224.980854 229.197957 
L 225.590801 229.35796 
L 226.200748 229.36184 
L 226.810695 229.645134 
L 227.420642 229.538767 
L 228.03059 228.950517 
L 228.640537 229.31054 
L 229.250484 229.35464 
L 229.860431 228.508837 
L 230.470378 229.456259 
L 231.080325 229.357173 
L 231.690273 228.821666 
L 232.30022 229.29597 
L 232.910167 229.175825 
L 233.520114 229.250916 
L 234.130061 229.587002 
L 234.740008 229.630452 
L 236.56985 229.23593 
L 237.179797 229.555055 
L 237.789744 229.362447 
L 238.399691 229.50682 
L 239.009639 229.49383 
L 239.619586 229.147404 
L 240.229533 228.661028 
L 240.83948 229.650298 
L 242.059374 229.473905 
L 242.669322 229.192613 
L 243.279269 229.561622 
L 243.889216 229.406869 
L 244.499163 229.379675 
L 245.10911 229.094079 
L 246.329005 229.671635 
L 246.938952 228.701523 
L 247.548899 229.512637 
L 249.37874 229.406502 
L 249.988688 229.53348 
L 250.598635 229.19037 
L 251.208582 229.642099 
L 251.818529 229.22042 
L 252.428476 229.702015 
L 253.038423 229.260717 
L 253.648371 229.186195 
L 254.258318 228.588256 
L 254.868265 229.164148 
L 255.478212 229.441373 
L 256.088159 229.022398 
L 256.698106 229.522947 
L 257.918001 229.408578 
L 258.527948 229.493349 
L 259.137895 229.263269 
L 259.747842 229.503531 
L 260.357789 229.555454 
L 260.967737 229.368008 
L 261.577684 228.722196 
L 262.187631 229.511829 
L 262.797578 229.081762 
L 264.017472 229.509213 
L 265.237367 229.388771 
L 265.847314 229.473593 
L 267.067208 229.441569 
L 267.677155 229.536884 
L 268.287103 229.505824 
L 268.89705 228.785558 
L 269.506997 229.410713 
L 270.116944 228.845438 
L 270.726891 229.41413 
L 271.946786 229.456085 
L 272.556733 228.389277 
L 273.16668 229.401479 
L 273.776627 229.638828 
L 274.386574 229.487977 
L 274.996521 229.178074 
L 275.606469 229.181182 
L 276.216416 229.563572 
L 276.826363 229.4067 
L 277.43631 228.799977 
L 278.046257 229.454278 
L 278.656204 229.149981 
L 279.266152 229.22748 
L 279.876099 229.471582 
L 280.486046 229.582454 
L 283.535782 228.987743 
L 284.145729 229.569325 
L 285.365623 229.334163 
L 285.97557 229.590723 
L 286.585518 229.290386 
L 287.805412 229.204308 
L 288.415359 228.611921 
L 289.025306 229.118522 
L 289.635253 229.061937 
L 290.245201 229.487728 
L 291.465095 229.303035 
L 292.075042 229.234034 
L 292.684989 229.465435 
L 293.294936 229.090878 
L 293.904884 229.387015 
L 295.734725 229.397725 
L 296.344672 228.651479 
L 296.954619 229.376028 
L 297.564567 229.410448 
L 298.174514 229.168435 
L 298.784461 229.506662 
L 299.394408 229.460563 
L 300.614302 229.013675 
L 301.22425 229.458628 
L 302.444144 229.452595 
L 303.054091 229.153014 
L 303.664038 229.118161 
L 304.273985 229.288026 
L 304.883933 229.041649 
L 306.713774 229.361481 
L 307.323721 229.344422 
L 307.933668 229.032462 
L 309.153563 229.280771 
L 309.76351 229.157367 
L 310.373457 229.496642 
L 311.593351 229.146103 
L 312.203299 229.253448 
L 312.813246 229.107545 
L 313.423193 229.201122 
L 314.03314 228.980806 
L 314.643087 227.977031 
L 315.253034 229.43498 
L 315.862982 229.283888 
L 317.692823 229.559344 
L 318.30277 229.361664 
L 318.912717 228.776343 
L 319.522665 229.461047 
L 320.132612 229.305916 
L 320.742559 229.429237 
L 321.962453 229.150115 
L 322.5724 229.466633 
L 323.792295 229.417197 
L 324.402242 229.069777 
L 325.012189 229.411888 
L 325.622136 229.337824 
L 326.232083 229.118393 
L 326.842031 229.285242 
L 327.451978 228.662212 
L 328.061925 229.358342 
L 328.671872 228.950945 
L 329.281819 229.480242 
L 329.891766 228.94982 
L 330.501714 229.281031 
L 331.111661 229.405574 
L 331.721608 229.402429 
L 332.331555 228.79467 
L 332.941502 229.271165 
L 334.161397 229.360966 
L 335.991238 229.219253 
L 336.601185 229.264721 
L 337.211132 229.120328 
L 337.82108 229.340386 
L 338.431027 229.365823 
L 339.040974 229.086752 
L 339.650921 228.267588 
L 340.260868 229.405353 
L 340.870815 229.471664 
L 341.480763 229.116153 
L 342.09071 229.288332 
L 342.700657 228.95428 
L 343.310604 228.838877 
L 343.920551 229.339419 
L 344.530498 229.042431 
L 345.140446 229.379805 
L 345.750393 229.383208 
L 347.580234 228.593921 
L 348.190181 229.300487 
L 348.800129 229.034965 
L 349.410076 229.445075 
L 350.020023 229.020729 
L 350.62997 229.418872 
L 351.239917 229.381845 
L 352.459812 229.171564 
L 353.069759 228.575391 
L 353.679706 229.340392 
L 354.289653 229.39101 
L 355.509548 229.26408 
L 356.119495 228.93784 
L 356.729442 229.199739 
L 357.339389 229.323774 
L 357.949336 229.146918 
L 358.559283 229.296264 
L 359.169231 229.314318 
L 359.779178 229.026742 
L 360.389125 229.272679 
L 360.999072 229.126759 
L 361.609019 229.433346 
L 362.828914 229.344039 
L 363.438861 229.092025 
L 364.048808 229.31374 
L 364.658755 229.27008 
L 365.268702 228.950471 
L 365.878649 229.290888 
L 367.098544 229.503182 
L 368.318438 229.236779 
L 370.14828 229.314035 
L 370.758227 229.038675 
L 371.368174 229.130015 
L 371.978121 229.019213 
L 372.588068 229.388874 
L 372.588068 229.388874 
" style="fill:none;stroke:#029e73;stroke-linecap:round;stroke-width:1.5;"/>
   </g>
   <g id="patch_3">
    <path d="M 53.00625 239.758125 
L 53.00625 22.318125 
" style="fill:none;"/>
   </g>
   <g id="patch_4">
    <path d="M 387.80625 239.758125 
L 387.80625 22.318125 
" style="fill:none;"/>
   </g>
   <g id="patch_5">
    <path d="M 53.00625 239.758125 
L 387.80625 239.758125 
" style="fill:none;"/>
   </g>
   <g id="patch_6">
    <path d="M 53.00625 22.318125 
L 387.80625 22.318125 
" style="fill:none;"/>
   </g>
   <g id="text_15">
    <!-- MNIST Label Distribution Predictor Loss with Gaussian Noise -->
    <g style="fill:#262626;" transform="translate(40.097813 16.318125)scale(0.12 -0.12)">
     <defs>
      <path d="M 628 4666 
L 1569 4666 
L 2759 1491 
L 3956 4666 
L 4897 4666 
L 4897 0 
L 4281 0 
L 4281 4097 
L 3078 897 
L 2444 897 
L 1241 4097 
L 1241 0 
L 628 0 
L 628 4666 
z
" id="DejaVuSans-4d" transform="scale(0.015625)"/>
      <path d="M 628 4666 
L 1478 4666 
L 3547 763 
L 3547 4666 
L 4159 4666 
L 4159 0 
L 3309 0 
L 1241 3903 
L 1241 0 
L 628 0 
L 628 4666 
z
" id="DejaVuSans-4e" transform="scale(0.015625)"/>
      <path d="M 628 4666 
L 1259 4666 
L 1259 0 
L 628 0 
L 628 4666 
z
" id="DejaVuSans-49" transform="scale(0.015625)"/>
      <path d="M 3425 4513 
L 3425 3897 
Q 3066 4069 2747 4153 
Q 2428 4238 2131 4238 
Q 1616 4238 1336 4038 
Q 1056 3838 1056 3469 
Q 1056 3159 1242 3001 
Q 1428 2844 1947 2747 
L 2328 2669 
Q 3034 2534 3370 2195 
Q 3706 1856 3706 1288 
Q 3706 609 3251 259 
Q 2797 -91 1919 -91 
Q 1588 -91 1214 -16 
Q 841 59 441 206 
L 441 856 
Q 825 641 1194 531 
Q 1563 422 1919 422 
Q 2459 422 2753 634 
Q 3047 847 3047 1241 
Q 3047 1584 2836 1778 
Q 2625 1972 2144 2069 
L 1759 2144 
Q 1053 2284 737 2584 
Q 422 2884 422 3419 
Q 422 4038 858 4394 
Q 1294 4750 2059 4750 
Q 2388 4750 2728 4690 
Q 3069 4631 3425 4513 
z
" id="DejaVuSans-53" transform="scale(0.015625)"/>
      <path d="M 3116 1747 
Q 3116 2381 2855 2742 
Q 2594 3103 2138 3103 
Q 1681 3103 1420 2742 
Q 1159 2381 1159 1747 
Q 1159 1113 1420 752 
Q 1681 391 2138 391 
Q 2594 391 2855 752 
Q 3116 1113 3116 1747 
z
M 1159 2969 
Q 1341 3281 1617 3432 
Q 1894 3584 2278 3584 
Q 2916 3584 3314 3078 
Q 3713 2572 3713 1747 
Q 3713 922 3314 415 
Q 2916 -91 2278 -91 
Q 1894 -91 1617 61 
Q 1341 213 1159 525 
L 1159 0 
L 581 0 
L 581 4863 
L 1159 4863 
L 1159 2969 
z
" id="DejaVuSans-62" transform="scale(0.015625)"/>
      <path d="M 603 4863 
L 1178 4863 
L 1178 0 
L 603 0 
L 603 4863 
z
" id="DejaVuSans-6c" transform="scale(0.015625)"/>
      <path d="M 603 3500 
L 1178 3500 
L 1178 0 
L 603 0 
L 603 3500 
z
M 603 4863 
L 1178 4863 
L 1178 4134 
L 603 4134 
L 603 4863 
z
" id="DejaVuSans-69" transform="scale(0.015625)"/>
      <path d="M 2631 2963 
Q 2534 3019 2420 3045 
Q 2306 3072 2169 3072 
Q 1681 3072 1420 2755 
Q 1159 2438 1159 1844 
L 1159 0 
L 581 0 
L 581 3500 
L 1159 3500 
L 1159 2956 
Q 1341 3275 1631 3429 
Q 1922 3584 2338 3584 
Q 2397 3584 2469 3576 
Q 2541 3569 2628 3553 
L 2631 2963 
z
" id="DejaVuSans-72" transform="scale(0.015625)"/>
      <path d="M 544 1381 
L 544 3500 
L 1119 3500 
L 1119 1403 
Q 1119 906 1312 657 
Q 1506 409 1894 409 
Q 2359 409 2629 706 
Q 2900 1003 2900 1516 
L 2900 3500 
L 3475 3500 
L 3475 0 
L 2900 0 
L 2900 538 
Q 2691 219 2414 64 
Q 2138 -91 1772 -91 
Q 1169 -91 856 284 
Q 544 659 544 1381 
z
M 1991 3584 
L 1991 3584 
z
" id="DejaVuSans-75" transform="scale(0.015625)"/>
      <path d="M 3513 2113 
L 3513 0 
L 2938 0 
L 2938 2094 
Q 2938 2591 2744 2837 
Q 2550 3084 2163 3084 
Q 1697 3084 1428 2787 
Q 1159 2491 1159 1978 
L 1159 0 
L 581 0 
L 581 3500 
L 1159 3500 
L 1159 2956 
Q 1366 3272 1645 3428 
Q 1925 3584 2291 3584 
Q 2894 3584 3203 3211 
Q 3513 2838 3513 2113 
z
" id="DejaVuSans-6e" transform="scale(0.015625)"/>
      <path d="M 1259 4147 
L 1259 2394 
L 2053 2394 
Q 2494 2394 2734 2622 
Q 2975 2850 2975 3272 
Q 2975 3691 2734 3919 
Q 2494 4147 2053 4147 
L 1259 4147 
z
M 628 4666 
L 2053 4666 
Q 2838 4666 3239 4311 
Q 3641 3956 3641 3272 
Q 3641 2581 3239 2228 
Q 2838 1875 2053 1875 
L 1259 1875 
L 1259 0 
L 628 0 
L 628 4666 
z
" id="DejaVuSans-50" transform="scale(0.015625)"/>
      <path d="M 2906 2969 
L 2906 4863 
L 3481 4863 
L 3481 0 
L 2906 0 
L 2906 525 
Q 2725 213 2448 61 
Q 2172 -91 1784 -91 
Q 1150 -91 751 415 
Q 353 922 353 1747 
Q 353 2572 751 3078 
Q 1150 3584 1784 3584 
Q 2172 3584 2448 3432 
Q 2725 3281 2906 2969 
z
M 947 1747 
Q 947 1113 1208 752 
Q 1469 391 1925 391 
Q 2381 391 2643 752 
Q 2906 1113 2906 1747 
Q 2906 2381 2643 2742 
Q 2381 3103 1925 3103 
Q 1469 3103 1208 2742 
Q 947 2381 947 1747 
z
" id="DejaVuSans-64" transform="scale(0.015625)"/>
      <path d="M 269 3500 
L 844 3500 
L 1563 769 
L 2278 3500 
L 2956 3500 
L 3675 769 
L 4391 3500 
L 4966 3500 
L 4050 0 
L 3372 0 
L 2619 2869 
L 1863 0 
L 1184 0 
L 269 3500 
z
" id="DejaVuSans-77" transform="scale(0.015625)"/>
      <path d="M 3809 666 
L 3809 1919 
L 2778 1919 
L 2778 2438 
L 4434 2438 
L 4434 434 
Q 4069 175 3628 42 
Q 3188 -91 2688 -91 
Q 1594 -91 976 548 
Q 359 1188 359 2328 
Q 359 3472 976 4111 
Q 1594 4750 2688 4750 
Q 3144 4750 3555 4637 
Q 3966 4525 4313 4306 
L 4313 3634 
Q 3963 3931 3569 4081 
Q 3175 4231 2741 4231 
Q 1884 4231 1454 3753 
Q 1025 3275 1025 2328 
Q 1025 1384 1454 906 
Q 1884 428 2741 428 
Q 3075 428 3337 486 
Q 3600 544 3809 666 
z
" id="DejaVuSans-47" transform="scale(0.015625)"/>
     </defs>
     <use xlink:href="#DejaVuSans-4d"/>
     <use x="86.279297" xlink:href="#DejaVuSans-4e"/>
     <use x="161.083984" xlink:href="#DejaVuSans-49"/>
     <use x="190.576172" xlink:href="#DejaVuSans-53"/>
     <use x="254.052734" xlink:href="#DejaVuSans-54"/>
     <use x="315.136719" xlink:href="#DejaVuSans-20"/>
     <use x="346.923828" xlink:href="#DejaVuSans-4c"/>
     <use x="402.636719" xlink:href="#DejaVuSans-61"/>
     <use x="463.916016" xlink:href="#DejaVuSans-62"/>
     <use x="527.392578" xlink:href="#DejaVuSans-65"/>
     <use x="588.916016" xlink:href="#DejaVuSans-6c"/>
     <use x="616.699219" xlink:href="#DejaVuSans-20"/>
     <use x="648.486328" xlink:href="#DejaVuSans-44"/>
     <use x="725.488281" xlink:href="#DejaVuSans-69"/>
     <use x="753.271484" xlink:href="#DejaVuSans-73"/>
     <use x="805.371094" xlink:href="#DejaVuSans-74"/>
     <use x="844.580078" xlink:href="#DejaVuSans-72"/>
     <use x="885.693359" xlink:href="#DejaVuSans-69"/>
     <use x="913.476562" xlink:href="#DejaVuSans-62"/>
     <use x="976.953125" xlink:href="#DejaVuSans-75"/>
     <use x="1040.332031" xlink:href="#DejaVuSans-74"/>
     <use x="1079.541016" xlink:href="#DejaVuSans-69"/>
     <use x="1107.324219" xlink:href="#DejaVuSans-6f"/>
     <use x="1168.505859" xlink:href="#DejaVuSans-6e"/>
     <use x="1231.884766" xlink:href="#DejaVuSans-20"/>
     <use x="1263.671875" xlink:href="#DejaVuSans-50"/>
     <use x="1322.224609" xlink:href="#DejaVuSans-72"/>
     <use x="1361.087891" xlink:href="#DejaVuSans-65"/>
     <use x="1422.611328" xlink:href="#DejaVuSans-64"/>
     <use x="1486.087891" xlink:href="#DejaVuSans-69"/>
     <use x="1513.871094" xlink:href="#DejaVuSans-63"/>
     <use x="1568.851562" xlink:href="#DejaVuSans-74"/>
     <use x="1608.060547" xlink:href="#DejaVuSans-6f"/>
     <use x="1669.242188" xlink:href="#DejaVuSans-72"/>
     <use x="1710.355469" xlink:href="#DejaVuSans-20"/>
     <use x="1742.142578" xlink:href="#DejaVuSans-4c"/>
     <use x="1796.105469" xlink:href="#DejaVuSans-6f"/>
     <use x="1857.287109" xlink:href="#DejaVuSans-73"/>
     <use x="1909.386719" xlink:href="#DejaVuSans-73"/>
     <use x="1961.486328" xlink:href="#DejaVuSans-20"/>
     <use x="1993.273438" xlink:href="#DejaVuSans-77"/>
     <use x="2075.060547" xlink:href="#DejaVuSans-69"/>
     <use x="2102.84375" xlink:href="#DejaVuSans-74"/>
     <use x="2142.052734" xlink:href="#DejaVuSans-68"/>
     <use x="2205.431641" xlink:href="#DejaVuSans-20"/>
     <use x="2237.21875" xlink:href="#DejaVuSans-47"/>
     <use x="2314.708984" xlink:href="#DejaVuSans-61"/>
     <use x="2375.988281" xlink:href="#DejaVuSans-75"/>
     <use x="2439.367188" xlink:href="#DejaVuSans-73"/>
     <use x="2491.466797" xlink:href="#DejaVuSans-73"/>
     <use x="2543.566406" xlink:href="#DejaVuSans-69"/>
     <use x="2571.349609" xlink:href="#DejaVuSans-61"/>
     <use x="2632.628906" xlink:href="#DejaVuSans-6e"/>
     <use x="2696.007812" xlink:href="#DejaVuSans-20"/>
     <use x="2727.794922" xlink:href="#DejaVuSans-4e"/>
     <use x="2802.599609" xlink:href="#DejaVuSans-6f"/>
     <use x="2863.78125" xlink:href="#DejaVuSans-69"/>
     <use x="2891.564453" xlink:href="#DejaVuSans-73"/>
     <use x="2943.664062" xlink:href="#DejaVuSans-65"/>
    </g>
   </g>
   <g id="legend_1">
    <g id="line2d_28">
     <path d="M 412.244375 35.416563 
L 432.244375 35.416563 
" style="fill:none;stroke:#0173b2;stroke-linecap:round;stroke-width:1.5;"/>
    </g>
    <g id="line2d_29"/>
    <g id="text_16">
     <!-- gaussian, 1.0e-01 -->
     <g style="fill:#262626;" transform="translate(440.244375 38.916563)scale(0.1 -0.1)">
      <defs>
       <path d="M 2906 1791 
Q 2906 2416 2648 2759 
Q 2391 3103 1925 3103 
Q 1463 3103 1205 2759 
Q 947 2416 947 1791 
Q 947 1169 1205 825 
Q 1463 481 1925 481 
Q 2391 481 2648 825 
Q 2906 1169 2906 1791 
z
M 3481 434 
Q 3481 -459 3084 -895 
Q 2688 -1331 1869 -1331 
Q 1566 -1331 1297 -1286 
Q 1028 -1241 775 -1147 
L 775 -588 
Q 1028 -725 1275 -790 
Q 1522 -856 1778 -856 
Q 2344 -856 2625 -561 
Q 2906 -266 2906 331 
L 2906 616 
Q 2728 306 2450 153 
Q 2172 0 1784 0 
Q 1141 0 747 490 
Q 353 981 353 1791 
Q 353 2603 747 3093 
Q 1141 3584 1784 3584 
Q 2172 3584 2450 3431 
Q 2728 3278 2906 2969 
L 2906 3500 
L 3481 3500 
L 3481 434 
z
" id="DejaVuSans-67" transform="scale(0.015625)"/>
       <path d="M 750 794 
L 1409 794 
L 1409 256 
L 897 -744 
L 494 -744 
L 750 256 
L 750 794 
z
" id="DejaVuSans-2c" transform="scale(0.015625)"/>
       <path d="M 313 2009 
L 1997 2009 
L 1997 1497 
L 313 1497 
L 313 2009 
z
" id="DejaVuSans-2d" transform="scale(0.015625)"/>
      </defs>
      <use xlink:href="#DejaVuSans-67"/>
      <use x="63.476562" xlink:href="#DejaVuSans-61"/>
      <use x="124.755859" xlink:href="#DejaVuSans-75"/>
      <use x="188.134766" xlink:href="#DejaVuSans-73"/>
      <use x="240.234375" xlink:href="#DejaVuSans-73"/>
      <use x="292.333984" xlink:href="#DejaVuSans-69"/>
      <use x="320.117188" xlink:href="#DejaVuSans-61"/>
      <use x="381.396484" xlink:href="#DejaVuSans-6e"/>
      <use x="444.775391" xlink:href="#DejaVuSans-2c"/>
      <use x="476.5625" xlink:href="#DejaVuSans-20"/>
      <use x="508.349609" xlink:href="#DejaVuSans-31"/>
      <use x="571.972656" xlink:href="#DejaVuSans-2e"/>
      <use x="603.759766" xlink:href="#DejaVuSans-30"/>
      <use x="667.382812" xlink:href="#DejaVuSans-65"/>
      <use x="728.90625" xlink:href="#DejaVuSans-2d"/>
      <use x="764.990234" xlink:href="#DejaVuSans-30"/>
      <use x="828.613281" xlink:href="#DejaVuSans-31"/>
     </g>
    </g>
    <g id="line2d_30">
     <path d="M 412.244375 50.094688 
L 432.244375 50.094688 
" style="fill:none;stroke:#de8f05;stroke-linecap:round;stroke-width:1.5;"/>
    </g>
    <g id="line2d_31"/>
    <g id="text_17">
     <!-- gaussian, 1.0e-02 -->
     <g style="fill:#262626;" transform="translate(440.244375 53.594688)scale(0.1 -0.1)">
      <use xlink:href="#DejaVuSans-67"/>
      <use x="63.476562" xlink:href="#DejaVuSans-61"/>
      <use x="124.755859" xlink:href="#DejaVuSans-75"/>
      <use x="188.134766" xlink:href="#DejaVuSans-73"/>
      <use x="240.234375" xlink:href="#DejaVuSans-73"/>
      <use x="292.333984" xlink:href="#DejaVuSans-69"/>
      <use x="320.117188" xlink:href="#DejaVuSans-61"/>
      <use x="381.396484" xlink:href="#DejaVuSans-6e"/>
      <use x="444.775391" xlink:href="#DejaVuSans-2c"/>
      <use x="476.5625" xlink:href="#DejaVuSans-20"/>
      <use x="508.349609" xlink:href="#DejaVuSans-31"/>
      <use x="571.972656" xlink:href="#DejaVuSans-2e"/>
      <use x="603.759766" xlink:href="#DejaVuSans-30"/>
      <use x="667.382812" xlink:href="#DejaVuSans-65"/>
      <use x="728.90625" xlink:href="#DejaVuSans-2d"/>
      <use x="764.990234" xlink:href="#DejaVuSans-30"/>
      <use x="828.613281" xlink:href="#DejaVuSans-32"/>
     </g>
    </g>
    <g id="line2d_32">
     <path d="M 412.244375 64.772813 
L 432.244375 64.772813 
" style="fill:none;stroke:#029e73;stroke-linecap:round;stroke-width:1.5;"/>
    </g>
    <g id="line2d_33"/>
    <g id="text_18">
     <!-- gaussian, 1.0e-03 -->
     <g style="fill:#262626;" transform="translate(440.244375 68.272813)scale(0.1 -0.1)">
      <use xlink:href="#DejaVuSans-67"/>
      <use x="63.476562" xlink:href="#DejaVuSans-61"/>
      <use x="124.755859" xlink:href="#DejaVuSans-75"/>
      <use x="188.134766" xlink:href="#DejaVuSans-73"/>
      <use x="240.234375" xlink:href="#DejaVuSans-73"/>
      <use x="292.333984" xlink:href="#DejaVuSans-69"/>
      <use x="320.117188" xlink:href="#DejaVuSans-61"/>
      <use x="381.396484" xlink:href="#DejaVuSans-6e"/>
      <use x="444.775391" xlink:href="#DejaVuSans-2c"/>
      <use x="476.5625" xlink:href="#DejaVuSans-20"/>
      <use x="508.349609" xlink:href="#DejaVuSans-31"/>
      <use x="571.972656" xlink:href="#DejaVuSans-2e"/>
      <use x="603.759766" xlink:href="#DejaVuSans-30"/>
      <use x="667.382812" xlink:href="#DejaVuSans-65"/>
      <use x="728.90625" xlink:href="#DejaVuSans-2d"/>
      <use x="764.990234" xlink:href="#DejaVuSans-30"/>
      <use x="828.613281" xlink:href="#DejaVuSans-33"/>
     </g>
    </g>
   </g>
  </g>
 </g>
 <defs>
  <clipPath id="p0b30155b40">
   <rect height="217.44" width="334.8" x="53.00625" y="22.318125"/>
  </clipPath>
 </defs>
</svg>
