<?xml version="1.0" encoding="utf-8" standalone="no"?>
<!DOCTYPE svg PUBLIC "-//W3C//DTD SVG 1.1//EN"
  "http://www.w3.org/Graphics/SVG/1.1/DTD/svg11.dtd">
<svg height="273.814375pt" version="1.1" viewBox="0 0 540.66625 273.814375" width="540.66625pt" xmlns="http://www.w3.org/2000/svg" xmlns:xlink="http://www.w3.org/1999/xlink">
 <metadata>
  <rdf:RDF xmlns:cc="http://creativecommons.org/ns#" xmlns:dc="http://purl.org/dc/elements/1.1/" xmlns:rdf="http://www.w3.org/1999/02/22-rdf-syntax-ns#">
   <cc:Work>
    <dc:type rdf:resource="http://purl.org/dc/dcmitype/StillImage"/>
    <dc:date>2023-06-14T16:34:44.780654</dc:date>
    <dc:format>image/svg+xml</dc:format>
    <dc:creator>
     <cc:Agent>
      <dc:title>Matplotlib v3.4.3, https://matplotlib.org/</dc:title>
     </cc:Agent>
    </dc:creator>
   </cc:Work>
  </rdf:RDF>
 </metadata>
 <defs>
  <style type="text/css">*{stroke-linecap:butt;stroke-linejoin:round;}</style>
 </defs>
 <g id="figure_1">
  <g id="patch_1">
   <path d="M 0 273.814375 
L 540.66625 273.814375 
L 540.66625 0 
L 0 0 
z
" style="fill:#ffffff;"/>
  </g>
  <g id="axes_1">
   <g id="patch_2">
    <path d="M 53.00625 239.758125 
L 387.80625 239.758125 
L 387.80625 22.318125 
L 53.00625 22.318125 
z
" style="fill:#eaeaf2;"/>
   </g>
   <g id="matplotlib.axis_1">
    <g id="xtick_1">
     <g id="line2d_1">
      <path clip-path="url(#p6206eb694d)" d="M 68.224432 239.758125 
L 68.224432 22.318125 
" style="fill:none;stroke:#ffffff;stroke-linecap:round;stroke-width:0.8;"/>
     </g>
     <g id="line2d_2"/>
     <g id="text_1">
      <!-- 0 -->
      <g style="fill:#262626;" transform="translate(65.043182 250.856563)scale(0.1 -0.1)">
       <defs>
        <path d="M 2034 4250 
Q 1547 4250 1301 3770 
Q 1056 3291 1056 2328 
Q 1056 1369 1301 889 
Q 1547 409 2034 409 
Q 2525 409 2770 889 
Q 3016 1369 3016 2328 
Q 3016 3291 2770 3770 
Q 2525 4250 2034 4250 
z
M 2034 4750 
Q 2819 4750 3233 4129 
Q 3647 3509 3647 2328 
Q 3647 1150 3233 529 
Q 2819 -91 2034 -91 
Q 1250 -91 836 529 
Q 422 1150 422 2328 
Q 422 3509 836 4129 
Q 1250 4750 2034 4750 
z
" id="DejaVuSans-30" transform="scale(0.015625)"/>
       </defs>
       <use xlink:href="#DejaVuSans-30"/>
      </g>
     </g>
    </g>
    <g id="xtick_2">
     <g id="line2d_3">
      <path clip-path="url(#p6206eb694d)" d="M 129.219149 239.758125 
L 129.219149 22.318125 
" style="fill:none;stroke:#ffffff;stroke-linecap:round;stroke-width:0.8;"/>
     </g>
     <g id="line2d_4"/>
     <g id="text_2">
      <!-- 100 -->
      <g style="fill:#262626;" transform="translate(119.675399 250.856563)scale(0.1 -0.1)">
       <defs>
        <path d="M 794 531 
L 1825 531 
L 1825 4091 
L 703 3866 
L 703 4441 
L 1819 4666 
L 2450 4666 
L 2450 531 
L 3481 531 
L 3481 0 
L 794 0 
L 794 531 
z
" id="DejaVuSans-31" transform="scale(0.015625)"/>
       </defs>
       <use xlink:href="#DejaVuSans-31"/>
       <use x="63.623047" xlink:href="#DejaVuSans-30"/>
       <use x="127.246094" xlink:href="#DejaVuSans-30"/>
      </g>
     </g>
    </g>
    <g id="xtick_3">
     <g id="line2d_5">
      <path clip-path="url(#p6206eb694d)" d="M 190.213865 239.758125 
L 190.213865 22.318125 
" style="fill:none;stroke:#ffffff;stroke-linecap:round;stroke-width:0.8;"/>
     </g>
     <g id="line2d_6"/>
     <g id="text_3">
      <!-- 200 -->
      <g style="fill:#262626;" transform="translate(180.670115 250.856563)scale(0.1 -0.1)">
       <defs>
        <path d="M 1228 531 
L 3431 531 
L 3431 0 
L 469 0 
L 469 531 
Q 828 903 1448 1529 
Q 2069 2156 2228 2338 
Q 2531 2678 2651 2914 
Q 2772 3150 2772 3378 
Q 2772 3750 2511 3984 
Q 2250 4219 1831 4219 
Q 1534 4219 1204 4116 
Q 875 4013 500 3803 
L 500 4441 
Q 881 4594 1212 4672 
Q 1544 4750 1819 4750 
Q 2544 4750 2975 4387 
Q 3406 4025 3406 3419 
Q 3406 3131 3298 2873 
Q 3191 2616 2906 2266 
Q 2828 2175 2409 1742 
Q 1991 1309 1228 531 
z
" id="DejaVuSans-32" transform="scale(0.015625)"/>
       </defs>
       <use xlink:href="#DejaVuSans-32"/>
       <use x="63.623047" xlink:href="#DejaVuSans-30"/>
       <use x="127.246094" xlink:href="#DejaVuSans-30"/>
      </g>
     </g>
    </g>
    <g id="xtick_4">
     <g id="line2d_7">
      <path clip-path="url(#p6206eb694d)" d="M 251.208582 239.758125 
L 251.208582 22.318125 
" style="fill:none;stroke:#ffffff;stroke-linecap:round;stroke-width:0.8;"/>
     </g>
     <g id="line2d_8"/>
     <g id="text_4">
      <!-- 300 -->
      <g style="fill:#262626;" transform="translate(241.664832 250.856563)scale(0.1 -0.1)">
       <defs>
        <path d="M 2597 2516 
Q 3050 2419 3304 2112 
Q 3559 1806 3559 1356 
Q 3559 666 3084 287 
Q 2609 -91 1734 -91 
Q 1441 -91 1130 -33 
Q 819 25 488 141 
L 488 750 
Q 750 597 1062 519 
Q 1375 441 1716 441 
Q 2309 441 2620 675 
Q 2931 909 2931 1356 
Q 2931 1769 2642 2001 
Q 2353 2234 1838 2234 
L 1294 2234 
L 1294 2753 
L 1863 2753 
Q 2328 2753 2575 2939 
Q 2822 3125 2822 3475 
Q 2822 3834 2567 4026 
Q 2313 4219 1838 4219 
Q 1578 4219 1281 4162 
Q 984 4106 628 3988 
L 628 4550 
Q 988 4650 1302 4700 
Q 1616 4750 1894 4750 
Q 2613 4750 3031 4423 
Q 3450 4097 3450 3541 
Q 3450 3153 3228 2886 
Q 3006 2619 2597 2516 
z
" id="DejaVuSans-33" transform="scale(0.015625)"/>
       </defs>
       <use xlink:href="#DejaVuSans-33"/>
       <use x="63.623047" xlink:href="#DejaVuSans-30"/>
       <use x="127.246094" xlink:href="#DejaVuSans-30"/>
      </g>
     </g>
    </g>
    <g id="xtick_5">
     <g id="line2d_9">
      <path clip-path="url(#p6206eb694d)" d="M 312.203299 239.758125 
L 312.203299 22.318125 
" style="fill:none;stroke:#ffffff;stroke-linecap:round;stroke-width:0.8;"/>
     </g>
     <g id="line2d_10"/>
     <g id="text_5">
      <!-- 400 -->
      <g style="fill:#262626;" transform="translate(302.659549 250.856563)scale(0.1 -0.1)">
       <defs>
        <path d="M 2419 4116 
L 825 1625 
L 2419 1625 
L 2419 4116 
z
M 2253 4666 
L 3047 4666 
L 3047 1625 
L 3713 1625 
L 3713 1100 
L 3047 1100 
L 3047 0 
L 2419 0 
L 2419 1100 
L 313 1100 
L 313 1709 
L 2253 4666 
z
" id="DejaVuSans-34" transform="scale(0.015625)"/>
       </defs>
       <use xlink:href="#DejaVuSans-34"/>
       <use x="63.623047" xlink:href="#DejaVuSans-30"/>
       <use x="127.246094" xlink:href="#DejaVuSans-30"/>
      </g>
     </g>
    </g>
    <g id="xtick_6">
     <g id="line2d_11">
      <path clip-path="url(#p6206eb694d)" d="M 373.198015 239.758125 
L 373.198015 22.318125 
" style="fill:none;stroke:#ffffff;stroke-linecap:round;stroke-width:0.8;"/>
     </g>
     <g id="line2d_12"/>
     <g id="text_6">
      <!-- 500 -->
      <g style="fill:#262626;" transform="translate(363.654265 250.856563)scale(0.1 -0.1)">
       <defs>
        <path d="M 691 4666 
L 3169 4666 
L 3169 4134 
L 1269 4134 
L 1269 2991 
Q 1406 3038 1543 3061 
Q 1681 3084 1819 3084 
Q 2600 3084 3056 2656 
Q 3513 2228 3513 1497 
Q 3513 744 3044 326 
Q 2575 -91 1722 -91 
Q 1428 -91 1123 -41 
Q 819 9 494 109 
L 494 744 
Q 775 591 1075 516 
Q 1375 441 1709 441 
Q 2250 441 2565 725 
Q 2881 1009 2881 1497 
Q 2881 1984 2565 2268 
Q 2250 2553 1709 2553 
Q 1456 2553 1204 2497 
Q 953 2441 691 2322 
L 691 4666 
z
" id="DejaVuSans-35" transform="scale(0.015625)"/>
       </defs>
       <use xlink:href="#DejaVuSans-35"/>
       <use x="63.623047" xlink:href="#DejaVuSans-30"/>
       <use x="127.246094" xlink:href="#DejaVuSans-30"/>
      </g>
     </g>
    </g>
    <g id="text_7">
     <!-- Epoch -->
     <g style="fill:#262626;" transform="translate(205.095313 264.534688)scale(0.1 -0.1)">
      <defs>
       <path d="M 628 4666 
L 3578 4666 
L 3578 4134 
L 1259 4134 
L 1259 2753 
L 3481 2753 
L 3481 2222 
L 1259 2222 
L 1259 531 
L 3634 531 
L 3634 0 
L 628 0 
L 628 4666 
z
" id="DejaVuSans-45" transform="scale(0.015625)"/>
       <path d="M 1159 525 
L 1159 -1331 
L 581 -1331 
L 581 3500 
L 1159 3500 
L 1159 2969 
Q 1341 3281 1617 3432 
Q 1894 3584 2278 3584 
Q 2916 3584 3314 3078 
Q 3713 2572 3713 1747 
Q 3713 922 3314 415 
Q 2916 -91 2278 -91 
Q 1894 -91 1617 61 
Q 1341 213 1159 525 
z
M 3116 1747 
Q 3116 2381 2855 2742 
Q 2594 3103 2138 3103 
Q 1681 3103 1420 2742 
Q 1159 2381 1159 1747 
Q 1159 1113 1420 752 
Q 1681 391 2138 391 
Q 2594 391 2855 752 
Q 3116 1113 3116 1747 
z
" id="DejaVuSans-70" transform="scale(0.015625)"/>
       <path d="M 1959 3097 
Q 1497 3097 1228 2736 
Q 959 2375 959 1747 
Q 959 1119 1226 758 
Q 1494 397 1959 397 
Q 2419 397 2687 759 
Q 2956 1122 2956 1747 
Q 2956 2369 2687 2733 
Q 2419 3097 1959 3097 
z
M 1959 3584 
Q 2709 3584 3137 3096 
Q 3566 2609 3566 1747 
Q 3566 888 3137 398 
Q 2709 -91 1959 -91 
Q 1206 -91 779 398 
Q 353 888 353 1747 
Q 353 2609 779 3096 
Q 1206 3584 1959 3584 
z
" id="DejaVuSans-6f" transform="scale(0.015625)"/>
       <path d="M 3122 3366 
L 3122 2828 
Q 2878 2963 2633 3030 
Q 2388 3097 2138 3097 
Q 1578 3097 1268 2742 
Q 959 2388 959 1747 
Q 959 1106 1268 751 
Q 1578 397 2138 397 
Q 2388 397 2633 464 
Q 2878 531 3122 666 
L 3122 134 
Q 2881 22 2623 -34 
Q 2366 -91 2075 -91 
Q 1284 -91 818 406 
Q 353 903 353 1747 
Q 353 2603 823 3093 
Q 1294 3584 2113 3584 
Q 2378 3584 2631 3529 
Q 2884 3475 3122 3366 
z
" id="DejaVuSans-63" transform="scale(0.015625)"/>
       <path d="M 3513 2113 
L 3513 0 
L 2938 0 
L 2938 2094 
Q 2938 2591 2744 2837 
Q 2550 3084 2163 3084 
Q 1697 3084 1428 2787 
Q 1159 2491 1159 1978 
L 1159 0 
L 581 0 
L 581 4863 
L 1159 4863 
L 1159 2956 
Q 1366 3272 1645 3428 
Q 1925 3584 2291 3584 
Q 2894 3584 3203 3211 
Q 3513 2838 3513 2113 
z
" id="DejaVuSans-68" transform="scale(0.015625)"/>
      </defs>
      <use xlink:href="#DejaVuSans-45"/>
      <use x="63.183594" xlink:href="#DejaVuSans-70"/>
      <use x="126.660156" xlink:href="#DejaVuSans-6f"/>
      <use x="187.841797" xlink:href="#DejaVuSans-63"/>
      <use x="242.822266" xlink:href="#DejaVuSans-68"/>
     </g>
    </g>
   </g>
   <g id="matplotlib.axis_2">
    <g id="ytick_1">
     <g id="line2d_13">
      <path clip-path="url(#p6206eb694d)" d="M 53.00625 216.329876 
L 387.80625 216.329876 
" style="fill:none;stroke:#ffffff;stroke-linecap:round;stroke-width:0.8;"/>
     </g>
     <g id="line2d_14"/>
     <g id="text_8">
      <!-- 0.005 -->
      <g style="fill:#262626;" transform="translate(20.878125 220.129095)scale(0.1 -0.1)">
       <defs>
        <path d="M 684 794 
L 1344 794 
L 1344 0 
L 684 0 
L 684 794 
z
" id="DejaVuSans-2e" transform="scale(0.015625)"/>
       </defs>
       <use xlink:href="#DejaVuSans-30"/>
       <use x="63.623047" xlink:href="#DejaVuSans-2e"/>
       <use x="95.410156" xlink:href="#DejaVuSans-30"/>
       <use x="159.033203" xlink:href="#DejaVuSans-30"/>
       <use x="222.65625" xlink:href="#DejaVuSans-35"/>
      </g>
     </g>
    </g>
    <g id="ytick_2">
     <g id="line2d_15">
      <path clip-path="url(#p6206eb694d)" d="M 53.00625 187.499699 
L 387.80625 187.499699 
" style="fill:none;stroke:#ffffff;stroke-linecap:round;stroke-width:0.8;"/>
     </g>
     <g id="line2d_16"/>
     <g id="text_9">
      <!-- 0.010 -->
      <g style="fill:#262626;" transform="translate(20.878125 191.298918)scale(0.1 -0.1)">
       <use xlink:href="#DejaVuSans-30"/>
       <use x="63.623047" xlink:href="#DejaVuSans-2e"/>
       <use x="95.410156" xlink:href="#DejaVuSans-30"/>
       <use x="159.033203" xlink:href="#DejaVuSans-31"/>
       <use x="222.65625" xlink:href="#DejaVuSans-30"/>
      </g>
     </g>
    </g>
    <g id="ytick_3">
     <g id="line2d_17">
      <path clip-path="url(#p6206eb694d)" d="M 53.00625 158.669522 
L 387.80625 158.669522 
" style="fill:none;stroke:#ffffff;stroke-linecap:round;stroke-width:0.8;"/>
     </g>
     <g id="line2d_18"/>
     <g id="text_10">
      <!-- 0.015 -->
      <g style="fill:#262626;" transform="translate(20.878125 162.46874)scale(0.1 -0.1)">
       <use xlink:href="#DejaVuSans-30"/>
       <use x="63.623047" xlink:href="#DejaVuSans-2e"/>
       <use x="95.410156" xlink:href="#DejaVuSans-30"/>
       <use x="159.033203" xlink:href="#DejaVuSans-31"/>
       <use x="222.65625" xlink:href="#DejaVuSans-35"/>
      </g>
     </g>
    </g>
    <g id="ytick_4">
     <g id="line2d_19">
      <path clip-path="url(#p6206eb694d)" d="M 53.00625 129.839344 
L 387.80625 129.839344 
" style="fill:none;stroke:#ffffff;stroke-linecap:round;stroke-width:0.8;"/>
     </g>
     <g id="line2d_20"/>
     <g id="text_11">
      <!-- 0.020 -->
      <g style="fill:#262626;" transform="translate(20.878125 133.638563)scale(0.1 -0.1)">
       <use xlink:href="#DejaVuSans-30"/>
       <use x="63.623047" xlink:href="#DejaVuSans-2e"/>
       <use x="95.410156" xlink:href="#DejaVuSans-30"/>
       <use x="159.033203" xlink:href="#DejaVuSans-32"/>
       <use x="222.65625" xlink:href="#DejaVuSans-30"/>
      </g>
     </g>
    </g>
    <g id="ytick_5">
     <g id="line2d_21">
      <path clip-path="url(#p6206eb694d)" d="M 53.00625 101.009167 
L 387.80625 101.009167 
" style="fill:none;stroke:#ffffff;stroke-linecap:round;stroke-width:0.8;"/>
     </g>
     <g id="line2d_22"/>
     <g id="text_12">
      <!-- 0.025 -->
      <g style="fill:#262626;" transform="translate(20.878125 104.808386)scale(0.1 -0.1)">
       <use xlink:href="#DejaVuSans-30"/>
       <use x="63.623047" xlink:href="#DejaVuSans-2e"/>
       <use x="95.410156" xlink:href="#DejaVuSans-30"/>
       <use x="159.033203" xlink:href="#DejaVuSans-32"/>
       <use x="222.65625" xlink:href="#DejaVuSans-35"/>
      </g>
     </g>
    </g>
    <g id="ytick_6">
     <g id="line2d_23">
      <path clip-path="url(#p6206eb694d)" d="M 53.00625 72.17899 
L 387.80625 72.17899 
" style="fill:none;stroke:#ffffff;stroke-linecap:round;stroke-width:0.8;"/>
     </g>
     <g id="line2d_24"/>
     <g id="text_13">
      <!-- 0.030 -->
      <g style="fill:#262626;" transform="translate(20.878125 75.978209)scale(0.1 -0.1)">
       <use xlink:href="#DejaVuSans-30"/>
       <use x="63.623047" xlink:href="#DejaVuSans-2e"/>
       <use x="95.410156" xlink:href="#DejaVuSans-30"/>
       <use x="159.033203" xlink:href="#DejaVuSans-33"/>
       <use x="222.65625" xlink:href="#DejaVuSans-30"/>
      </g>
     </g>
    </g>
    <g id="ytick_7">
     <g id="line2d_25">
      <path clip-path="url(#p6206eb694d)" d="M 53.00625 43.348813 
L 387.80625 43.348813 
" style="fill:none;stroke:#ffffff;stroke-linecap:round;stroke-width:0.8;"/>
     </g>
     <g id="line2d_26"/>
     <g id="text_14">
      <!-- 0.035 -->
      <g style="fill:#262626;" transform="translate(20.878125 47.148031)scale(0.1 -0.1)">
       <use xlink:href="#DejaVuSans-30"/>
       <use x="63.623047" xlink:href="#DejaVuSans-2e"/>
       <use x="95.410156" xlink:href="#DejaVuSans-30"/>
       <use x="159.033203" xlink:href="#DejaVuSans-33"/>
       <use x="222.65625" xlink:href="#DejaVuSans-35"/>
      </g>
     </g>
    </g>
    <g id="text_15">
     <!-- Test Dataset Loss -->
     <g style="fill:#262626;" transform="translate(14.798438 174.608438)rotate(-90)scale(0.1 -0.1)">
      <defs>
       <path d="M -19 4666 
L 3928 4666 
L 3928 4134 
L 2272 4134 
L 2272 0 
L 1638 0 
L 1638 4134 
L -19 4134 
L -19 4666 
z
" id="DejaVuSans-54" transform="scale(0.015625)"/>
       <path d="M 3597 1894 
L 3597 1613 
L 953 1613 
Q 991 1019 1311 708 
Q 1631 397 2203 397 
Q 2534 397 2845 478 
Q 3156 559 3463 722 
L 3463 178 
Q 3153 47 2828 -22 
Q 2503 -91 2169 -91 
Q 1331 -91 842 396 
Q 353 884 353 1716 
Q 353 2575 817 3079 
Q 1281 3584 2069 3584 
Q 2775 3584 3186 3129 
Q 3597 2675 3597 1894 
z
M 3022 2063 
Q 3016 2534 2758 2815 
Q 2500 3097 2075 3097 
Q 1594 3097 1305 2825 
Q 1016 2553 972 2059 
L 3022 2063 
z
" id="DejaVuSans-65" transform="scale(0.015625)"/>
       <path d="M 2834 3397 
L 2834 2853 
Q 2591 2978 2328 3040 
Q 2066 3103 1784 3103 
Q 1356 3103 1142 2972 
Q 928 2841 928 2578 
Q 928 2378 1081 2264 
Q 1234 2150 1697 2047 
L 1894 2003 
Q 2506 1872 2764 1633 
Q 3022 1394 3022 966 
Q 3022 478 2636 193 
Q 2250 -91 1575 -91 
Q 1294 -91 989 -36 
Q 684 19 347 128 
L 347 722 
Q 666 556 975 473 
Q 1284 391 1588 391 
Q 1994 391 2212 530 
Q 2431 669 2431 922 
Q 2431 1156 2273 1281 
Q 2116 1406 1581 1522 
L 1381 1569 
Q 847 1681 609 1914 
Q 372 2147 372 2553 
Q 372 3047 722 3315 
Q 1072 3584 1716 3584 
Q 2034 3584 2315 3537 
Q 2597 3491 2834 3397 
z
" id="DejaVuSans-73" transform="scale(0.015625)"/>
       <path d="M 1172 4494 
L 1172 3500 
L 2356 3500 
L 2356 3053 
L 1172 3053 
L 1172 1153 
Q 1172 725 1289 603 
Q 1406 481 1766 481 
L 2356 481 
L 2356 0 
L 1766 0 
Q 1100 0 847 248 
Q 594 497 594 1153 
L 594 3053 
L 172 3053 
L 172 3500 
L 594 3500 
L 594 4494 
L 1172 4494 
z
" id="DejaVuSans-74" transform="scale(0.015625)"/>
       <path id="DejaVuSans-20" transform="scale(0.015625)"/>
       <path d="M 1259 4147 
L 1259 519 
L 2022 519 
Q 2988 519 3436 956 
Q 3884 1394 3884 2338 
Q 3884 3275 3436 3711 
Q 2988 4147 2022 4147 
L 1259 4147 
z
M 628 4666 
L 1925 4666 
Q 3281 4666 3915 4102 
Q 4550 3538 4550 2338 
Q 4550 1131 3912 565 
Q 3275 0 1925 0 
L 628 0 
L 628 4666 
z
" id="DejaVuSans-44" transform="scale(0.015625)"/>
       <path d="M 2194 1759 
Q 1497 1759 1228 1600 
Q 959 1441 959 1056 
Q 959 750 1161 570 
Q 1363 391 1709 391 
Q 2188 391 2477 730 
Q 2766 1069 2766 1631 
L 2766 1759 
L 2194 1759 
z
M 3341 1997 
L 3341 0 
L 2766 0 
L 2766 531 
Q 2569 213 2275 61 
Q 1981 -91 1556 -91 
Q 1019 -91 701 211 
Q 384 513 384 1019 
Q 384 1609 779 1909 
Q 1175 2209 1959 2209 
L 2766 2209 
L 2766 2266 
Q 2766 2663 2505 2880 
Q 2244 3097 1772 3097 
Q 1472 3097 1187 3025 
Q 903 2953 641 2809 
L 641 3341 
Q 956 3463 1253 3523 
Q 1550 3584 1831 3584 
Q 2591 3584 2966 3190 
Q 3341 2797 3341 1997 
z
" id="DejaVuSans-61" transform="scale(0.015625)"/>
       <path d="M 628 4666 
L 1259 4666 
L 1259 531 
L 3531 531 
L 3531 0 
L 628 0 
L 628 4666 
z
" id="DejaVuSans-4c" transform="scale(0.015625)"/>
      </defs>
      <use xlink:href="#DejaVuSans-54"/>
      <use x="44.083984" xlink:href="#DejaVuSans-65"/>
      <use x="105.607422" xlink:href="#DejaVuSans-73"/>
      <use x="157.707031" xlink:href="#DejaVuSans-74"/>
      <use x="196.916016" xlink:href="#DejaVuSans-20"/>
      <use x="228.703125" xlink:href="#DejaVuSans-44"/>
      <use x="305.705078" xlink:href="#DejaVuSans-61"/>
      <use x="366.984375" xlink:href="#DejaVuSans-74"/>
      <use x="406.193359" xlink:href="#DejaVuSans-61"/>
      <use x="467.472656" xlink:href="#DejaVuSans-73"/>
      <use x="519.572266" xlink:href="#DejaVuSans-65"/>
      <use x="581.095703" xlink:href="#DejaVuSans-74"/>
      <use x="620.304688" xlink:href="#DejaVuSans-20"/>
      <use x="652.091797" xlink:href="#DejaVuSans-4c"/>
      <use x="706.054688" xlink:href="#DejaVuSans-6f"/>
      <use x="767.236328" xlink:href="#DejaVuSans-73"/>
      <use x="819.335938" xlink:href="#DejaVuSans-73"/>
     </g>
    </g>
   </g>
   <g id="line2d_27">
    <path clip-path="url(#p6206eb694d)" d="M 68.224432 87.835612 
L 68.834379 86.831789 
L 69.444326 87.074556 
L 70.054273 86.535429 
L 70.66422 87.465768 
L 71.274168 86.456281 
L 71.884115 86.681648 
L 72.494062 86.531003 
L 73.104009 86.666777 
L 73.713956 86.472459 
L 74.323903 87.145419 
L 74.933851 86.319656 
L 75.543798 86.945163 
L 76.153745 86.701855 
L 76.763692 86.913694 
L 77.373639 86.409308 
L 77.983586 86.381475 
L 78.593534 86.813461 
L 79.813428 86.306183 
L 80.423375 87.023936 
L 81.033322 87.460582 
L 81.643269 86.378202 
L 82.253217 85.809428 
L 82.863164 86.450648 
L 83.473111 86.637903 
L 84.083058 86.430186 
L 84.693005 86.613653 
L 85.302952 85.603804 
L 85.9129 86.2498 
L 86.522847 86.349863 
L 87.132794 85.281052 
L 87.742741 85.802499 
L 88.352688 86.133352 
L 88.962635 85.242878 
L 89.572583 85.921244 
L 90.18253 85.54735 
L 90.792477 83.982619 
L 91.402424 85.129839 
L 92.012371 85.6263 
L 92.622319 84.123592 
L 93.232266 83.117597 
L 93.842213 84.468456 
L 94.45216 85.093841 
L 95.062107 84.263221 
L 95.672054 84.544553 
L 96.282002 83.906749 
L 96.891949 84.26188 
L 97.501896 84.902724 
L 98.111843 84.0396 
L 98.72179 84.913584 
L 99.331737 82.43721 
L 99.941685 82.177089 
L 100.551632 84.035725 
L 101.161579 83.195004 
L 101.771526 84.476778 
L 102.381473 84.397469 
L 102.99142 82.135976 
L 103.601368 82.684101 
L 104.211315 84.710351 
L 104.821262 83.1455 
L 105.431209 82.088285 
L 106.041156 82.001754 
L 106.651103 86.192609 
L 107.261051 83.976817 
L 107.870998 85.489059 
L 108.480945 86.014202 
L 109.090892 84.860628 
L 109.700839 84.996358 
L 110.310786 82.854086 
L 110.920734 86.651244 
L 111.530681 83.699637 
L 112.140628 87.410393 
L 112.750575 84.106336 
L 113.360522 87.168025 
L 113.970469 86.822118 
L 114.580417 90.430396 
L 115.190364 91.238276 
L 115.800311 93.527 
L 116.410258 86.837852 
L 117.020205 92.215713 
L 117.630152 91.82649 
L 118.2401 92.873106 
L 118.850047 86.351881 
L 119.459994 92.996117 
L 120.069941 94.386016 
L 120.679888 92.259312 
L 121.289835 93.449378 
L 121.899783 93.612878 
L 122.50973 90.0839 
L 123.119677 93.905562 
L 123.729624 95.700708 
L 124.339571 94.326651 
L 124.949518 90.57189 
L 125.559466 93.069664 
L 126.169413 93.917395 
L 126.77936 91.700585 
L 127.389307 84.352268 
L 127.999254 92.001622 
L 128.609201 92.075669 
L 129.219149 84.525374 
L 129.829096 86.998102 
L 130.439043 75.320255 
L 131.04899 92.963808 
L 131.658937 88.501985 
L 132.268884 91.298 
L 132.878832 86.786107 
L 133.488779 80.714854 
L 134.098726 92.334686 
L 134.708673 87.411089 
L 135.31862 88.478609 
L 135.928567 91.972209 
L 136.538515 88.143961 
L 137.148462 88.235809 
L 137.758409 89.626048 
L 138.368356 82.713242 
L 138.978303 86.011874 
L 139.58825 87.853149 
L 140.198198 84.91565 
L 140.808145 87.149258 
L 141.418092 76.898512 
L 142.028039 85.160276 
L 142.637986 84.101761 
L 143.247933 85.144668 
L 143.857881 87.53948 
L 144.467828 82.496759 
L 145.077775 81.79492 
L 145.687722 83.500572 
L 146.297669 76.994761 
L 146.907616 82.943748 
L 147.517564 74.226919 
L 148.127511 84.241299 
L 148.737458 79.636079 
L 149.347405 85.939302 
L 149.957352 73.351972 
L 150.567299 82.555589 
L 151.177247 81.930872 
L 151.787194 79.056638 
L 152.397141 82.955459 
L 153.007088 75.735308 
L 153.617035 74.134514 
L 154.226982 77.466752 
L 154.83693 79.557484 
L 155.446877 72.956145 
L 156.056824 80.211307 
L 156.666771 79.260691 
L 157.276718 81.597849 
L 157.886665 80.742314 
L 158.496613 77.902182 
L 159.10656 66.707478 
L 159.716507 76.492534 
L 160.326454 76.723506 
L 160.936401 81.5837 
L 161.546348 80.01484 
L 162.156296 76.730461 
L 162.766243 77.311769 
L 163.37619 74.883922 
L 163.986137 78.57148 
L 164.596084 77.535517 
L 165.815979 68.593671 
L 166.425926 69.357787 
L 167.035873 79.382811 
L 167.64582 72.67448 
L 168.255767 78.425036 
L 168.865714 74.375507 
L 169.475662 65.539586 
L 170.085609 69.093865 
L 170.695556 74.83522 
L 171.305503 76.788354 
L 171.91545 66.918961 
L 172.525397 74.854782 
L 173.135345 78.085775 
L 173.745292 73.134129 
L 174.355239 76.985405 
L 174.965186 69.339916 
L 175.575133 70.59728 
L 176.18508 75.344226 
L 176.795028 74.449149 
L 177.404975 71.428552 
L 178.014922 72.478412 
L 178.624869 70.315019 
L 179.234816 75.257606 
L 179.844763 73.522876 
L 180.454711 75.607046 
L 181.064658 73.761343 
L 181.674605 67.862723 
L 182.284552 66.928883 
L 182.894499 59.370831 
L 183.504446 76.813316 
L 184.114394 73.092652 
L 184.724341 71.721268 
L 185.334288 73.002636 
L 185.944235 66.255498 
L 186.554182 72.688198 
L 187.164129 70.983609 
L 187.774077 74.126785 
L 188.384024 66.131953 
L 188.993971 73.640911 
L 189.603918 73.168052 
L 190.213865 69.896447 
L 190.823812 72.267387 
L 191.43376 67.471686 
L 192.043707 70.307732 
L 192.653654 71.665788 
L 193.263601 69.36069 
L 193.873548 76.532786 
L 194.483495 71.514784 
L 195.093443 70.607257 
L 195.70339 72.843949 
L 196.313337 67.872927 
L 196.923284 61.707211 
L 197.533231 70.486148 
L 198.143178 70.121075 
L 198.753126 63.661856 
L 199.363073 64.455697 
L 199.97302 70.357022 
L 200.582967 71.194081 
L 201.192914 69.953524 
L 201.802861 71.921103 
L 203.022756 62.259393 
L 203.632703 67.363746 
L 204.24265 70.104514 
L 204.852597 68.612341 
L 205.462544 71.543493 
L 206.072492 70.080967 
L 206.682439 63.558431 
L 207.292386 71.859188 
L 207.902333 63.283304 
L 208.51228 68.258321 
L 209.122227 65.265509 
L 209.732175 71.132582 
L 210.342122 66.21782 
L 210.952069 67.312531 
L 211.562016 61.625182 
L 212.171963 59.742756 
L 212.78191 69.770536 
L 213.391858 68.73603 
L 214.001805 66.040717 
L 214.611752 69.097547 
L 215.221699 65.070714 
L 215.831646 66.941988 
L 216.441593 67.345025 
L 217.051541 61.613144 
L 217.661488 64.712407 
L 218.271435 66.116955 
L 218.881382 60.108082 
L 219.491329 70.064481 
L 220.101276 67.883153 
L 220.711224 68.880207 
L 221.321171 70.694489 
L 221.931118 60.993186 
L 222.541065 69.334171 
L 223.151012 66.036684 
L 223.760959 69.839391 
L 224.370907 68.128694 
L 225.590801 69.977904 
L 226.200748 69.80497 
L 226.810695 62.115965 
L 227.420642 66.202897 
L 228.03059 68.530796 
L 228.640537 68.171573 
L 229.250484 62.99734 
L 229.860431 66.688367 
L 230.470378 63.454879 
L 231.080325 66.750965 
L 231.690273 69.410865 
L 232.30022 71.025665 
L 232.910167 60.450114 
L 233.520114 66.98209 
L 234.130061 62.382039 
L 234.740008 64.306943 
L 235.349956 62.679195 
L 235.959903 65.71913 
L 236.56985 69.378751 
L 237.179797 67.354634 
L 237.789744 68.964161 
L 238.399691 67.518104 
L 239.009639 68.965125 
L 239.619586 66.176007 
L 240.229533 62.284569 
L 240.83948 67.774649 
L 241.449427 67.802048 
L 242.059374 67.234725 
L 242.669322 68.75858 
L 243.279269 61.224972 
L 243.889216 63.512792 
L 244.499163 68.015513 
L 245.10911 63.514901 
L 245.719057 50.802795 
L 246.329005 69.516832 
L 246.938952 69.44375 
L 248.158846 70.436133 
L 248.768793 70.508513 
L 249.37874 68.532008 
L 249.988688 71.26218 
L 250.598635 58.149516 
L 251.208582 64.871449 
L 251.818529 67.845844 
L 252.428476 68.089797 
L 253.038423 71.059527 
L 253.648371 68.285594 
L 254.258318 67.465036 
L 254.868265 64.870399 
L 255.478212 56.676398 
L 256.088159 61.472812 
L 256.698106 70.066592 
L 257.308054 68.637078 
L 257.918001 63.474634 
L 258.527948 61.518056 
L 259.137895 65.333551 
L 259.747842 76.683564 
L 260.357789 68.029787 
L 260.967737 64.009574 
L 262.187631 72.182803 
L 262.797578 70.323825 
L 263.407525 64.199712 
L 264.017472 73.062041 
L 264.62742 63.545165 
L 265.237367 74.119318 
L 265.847314 62.943225 
L 266.457261 69.287302 
L 267.677155 60.7223 
L 268.287103 62.865483 
L 268.89705 67.722561 
L 269.506997 70.291718 
L 270.116944 69.43111 
L 270.726891 64.63454 
L 271.336838 65.914868 
L 271.946786 68.931573 
L 272.556733 70.430762 
L 273.16668 67.315022 
L 273.776627 68.732819 
L 274.386574 66.368543 
L 274.996521 53.729003 
L 275.606469 64.866199 
L 276.216416 71.126927 
L 276.826363 68.727881 
L 277.43631 71.94938 
L 278.046257 62.87711 
L 278.656204 67.947339 
L 279.266152 64.441241 
L 280.486046 66.531237 
L 281.095993 63.510168 
L 281.70594 59.149587 
L 282.315887 61.855065 
L 282.925835 59.85807 
L 283.535782 68.804482 
L 284.145729 68.122442 
L 284.755676 67.081571 
L 285.365623 69.042797 
L 285.97557 62.96827 
L 286.585518 70.103123 
L 287.195465 71.178922 
L 287.805412 66.390409 
L 288.415359 71.344302 
L 289.025306 70.681825 
L 289.635253 62.348508 
L 290.245201 68.204909 
L 290.855148 65.183813 
L 291.465095 68.932707 
L 292.075042 64.204067 
L 292.684989 64.76958 
L 293.294936 67.365154 
L 293.904884 69.043422 
L 294.514831 70.072186 
L 295.124778 70.424106 
L 295.734725 67.679258 
L 296.344672 68.853848 
L 296.954619 61.064691 
L 297.564567 71.646363 
L 298.174514 74.19505 
L 299.394408 64.356059 
L 300.004355 68.894253 
L 300.614302 71.274963 
L 301.22425 63.781121 
L 301.834197 71.473915 
L 302.444144 70.664311 
L 303.054091 63.368774 
L 303.664038 69.267607 
L 304.273985 69.968066 
L 304.883933 69.568182 
L 305.49388 63.70044 
L 306.103827 67.739621 
L 306.713774 69.533937 
L 307.323721 32.201761 
L 307.933668 66.207633 
L 308.543616 68.217616 
L 309.153563 73.833834 
L 309.76351 61.089135 
L 310.373457 69.317293 
L 310.983404 73.530594 
L 311.593351 70.35313 
L 312.203299 74.105547 
L 312.813246 68.087878 
L 313.423193 67.162578 
L 314.03314 68.095366 
L 314.643087 69.626463 
L 315.253034 65.894911 
L 315.862982 70.884958 
L 316.472929 63.081078 
L 317.082876 61.231798 
L 317.692823 72.165867 
L 318.30277 69.543915 
L 318.912717 73.221948 
L 319.522665 72.299925 
L 320.132612 70.693056 
L 320.742559 68.530168 
L 321.962453 61.670342 
L 322.5724 68.5775 
L 323.182348 68.115441 
L 323.792295 70.547732 
L 324.402242 70.086766 
L 325.012189 72.8898 
L 326.232083 69.533771 
L 326.842031 68.528291 
L 327.451978 72.351289 
L 328.061925 69.427837 
L 328.671872 72.150108 
L 329.281819 73.928522 
L 329.891766 71.122817 
L 330.501714 72.362781 
L 331.111661 76.333101 
L 331.721608 65.201277 
L 332.331555 73.321247 
L 332.941502 71.584066 
L 333.551449 74.917753 
L 334.161397 70.251558 
L 334.771344 69.794641 
L 335.381291 74.036124 
L 335.991238 61.146722 
L 336.601185 72.013814 
L 337.211132 72.471329 
L 337.82108 74.847026 
L 338.431027 75.176589 
L 339.040974 70.255848 
L 339.650921 69.28372 
L 340.260868 70.127377 
L 340.870815 71.540399 
L 341.480763 74.446121 
L 342.09071 64.769834 
L 342.700657 71.773902 
L 343.310604 70.431955 
L 343.920551 61.734757 
L 344.530498 65.15212 
L 345.140446 70.773839 
L 345.750393 71.959061 
L 346.36034 72.845696 
L 346.970287 67.195474 
L 347.580234 73.04108 
L 348.190181 72.173764 
L 348.800129 77.71614 
L 349.410076 73.610396 
L 350.020023 72.80021 
L 350.62997 72.222215 
L 351.239917 66.269125 
L 351.849865 69.099803 
L 352.459812 68.189066 
L 353.069759 71.664405 
L 353.679706 74.085072 
L 354.289653 74.281227 
L 354.8996 73.043663 
L 355.509548 72.772467 
L 356.119495 63.371644 
L 356.729442 72.192041 
L 357.339389 65.792194 
L 357.949336 72.295905 
L 358.559283 76.156603 
L 359.169231 75.697907 
L 359.779178 74.187212 
L 360.389125 70.672474 
L 360.999072 69.354653 
L 361.609019 70.935319 
L 362.218966 68.343554 
L 362.828914 73.709807 
L 363.438861 72.121479 
L 364.048808 76.028977 
L 364.658755 75.271192 
L 365.268702 74.919082 
L 365.878649 75.369186 
L 366.488597 65.888608 
L 367.098544 72.1089 
L 367.708491 73.369122 
L 368.318438 68.148034 
L 368.928385 73.907294 
L 369.538332 71.594491 
L 370.14828 70.446769 
L 370.758227 77.692988 
L 371.368174 70.909427 
L 371.978121 76.710317 
L 372.588068 73.274516 
L 372.588068 73.274516 
" style="fill:none;stroke:#0173b2;stroke-linecap:round;stroke-width:1.5;"/>
   </g>
   <g id="line2d_28">
    <path clip-path="url(#p6206eb694d)" d="M 68.224432 89.027849 
L 68.834379 88.454982 
L 69.444326 91.285805 
L 70.054273 113.66173 
L 70.66422 121.138015 
L 71.274168 125.220509 
L 71.884115 133.657589 
L 72.494062 161.274387 
L 73.104009 165.393582 
L 74.323903 187.111569 
L 74.933851 176.999824 
L 75.543798 185.346256 
L 76.153745 190.309996 
L 76.763692 198.900143 
L 77.373639 189.055115 
L 77.983586 207.05871 
L 78.593534 207.544769 
L 79.203481 211.495213 
L 79.813428 204.114668 
L 80.423375 209.65406 
L 81.033322 194.693502 
L 81.643269 215.708858 
L 82.253217 213.95418 
L 82.863164 208.277519 
L 83.473111 215.519616 
L 84.083058 217.928912 
L 84.693005 210.575043 
L 85.302952 214.94643 
L 85.9129 209.917015 
L 86.522847 218.761396 
L 87.132794 211.432299 
L 87.742741 217.329277 
L 88.352688 220.017731 
L 88.962635 219.14186 
L 89.572583 216.123619 
L 90.18253 221.400502 
L 90.792477 213.007266 
L 91.402424 206.949212 
L 92.012371 219.72186 
L 92.622319 220.068456 
L 93.232266 217.113715 
L 93.842213 220.777259 
L 94.45216 216.737656 
L 95.062107 208.800581 
L 95.672054 221.110759 
L 96.282002 199.966419 
L 96.891949 218.260472 
L 97.501896 206.06946 
L 98.111843 223.969617 
L 98.72179 219.5064 
L 99.331737 222.27926 
L 99.941685 223.113916 
L 100.551632 217.077763 
L 101.161579 225.364819 
L 101.771526 219.840339 
L 102.381473 217.248083 
L 102.99142 222.392348 
L 103.601368 216.909375 
L 104.211315 224.306098 
L 104.821262 217.972275 
L 105.431209 223.563292 
L 106.041156 221.810121 
L 106.651103 218.203948 
L 107.261051 223.5872 
L 107.870998 223.277003 
L 108.480945 226.011939 
L 109.090892 214.886917 
L 109.700839 224.782577 
L 110.310786 224.419991 
L 110.920734 225.71326 
L 111.530681 221.251951 
L 112.140628 224.266708 
L 112.750575 226.442022 
L 113.360522 218.202824 
L 113.970469 223.558727 
L 114.580417 224.391296 
L 115.190364 223.225557 
L 115.800311 223.838029 
L 116.410258 227.203765 
L 117.020205 226.669745 
L 117.630152 220.334618 
L 118.2401 221.634364 
L 118.850047 223.807037 
L 119.459994 223.926836 
L 120.069941 226.274291 
L 120.679888 226.841304 
L 121.289835 218.024415 
L 121.899783 227.051462 
L 122.50973 227.631083 
L 123.119677 224.733305 
L 123.729624 227.675808 
L 124.339571 226.358685 
L 124.949518 226.91906 
L 125.559466 227.134362 
L 126.169413 222.178015 
L 126.77936 226.993255 
L 127.389307 226.819647 
L 127.999254 227.378614 
L 128.609201 227.358923 
L 129.219149 213.033972 
L 129.829096 228.887688 
L 130.439043 224.975454 
L 131.04899 224.849006 
L 131.658937 219.249204 
L 132.268884 228.917764 
L 132.878832 229.405547 
L 133.488779 226.477943 
L 134.098726 227.656911 
L 134.708673 228.065145 
L 135.928567 229.346848 
L 136.538515 224.076754 
L 137.148462 226.217713 
L 137.758409 229.675361 
L 138.368356 224.632484 
L 138.978303 228.383809 
L 139.58825 227.051449 
L 140.198198 224.623197 
L 140.808145 229.036759 
L 141.418092 225.369139 
L 142.637986 227.503268 
L 143.247933 226.590402 
L 143.857881 227.907619 
L 144.467828 226.162468 
L 145.077775 228.995888 
L 145.687722 227.792132 
L 146.297669 224.637048 
L 146.907616 227.076313 
L 147.517564 228.018071 
L 148.737458 227.320564 
L 149.347405 228.595882 
L 149.957352 228.307356 
L 150.567299 227.022115 
L 151.177247 223.785528 
L 151.787194 226.432225 
L 152.397141 226.633356 
L 153.007088 227.238966 
L 153.617035 227.4127 
L 154.226982 227.762987 
L 154.83693 225.682312 
L 155.446877 226.938569 
L 156.056824 223.988815 
L 156.666771 226.57446 
L 157.276718 227.052894 
L 157.886665 228.746509 
L 158.496613 228.392698 
L 159.10656 229.236473 
L 159.716507 228.165088 
L 160.326454 222.711169 
L 160.936401 225.53067 
L 161.546348 229.062297 
L 162.156296 229.833572 
L 162.766243 223.870944 
L 163.986137 227.699886 
L 164.596084 226.255155 
L 165.206031 228.975029 
L 165.815979 228.728007 
L 166.425926 225.960318 
L 167.035873 217.412309 
L 167.64582 228.608686 
L 168.255767 227.704719 
L 168.865714 228.846449 
L 169.475662 229.146065 
L 170.085609 229.82376 
L 170.695556 227.959035 
L 171.305503 227.219482 
L 171.91545 228.923976 
L 172.525397 227.915738 
L 173.745292 228.527178 
L 174.355239 229.460266 
L 174.965186 226.233065 
L 175.575133 228.908305 
L 176.18508 223.860245 
L 176.795028 223.575676 
L 177.404975 228.177564 
L 178.014922 226.621841 
L 179.234816 225.219235 
L 179.844763 229.563783 
L 180.454711 227.972445 
L 181.064658 229.055822 
L 181.674605 229.727438 
L 182.284552 228.723328 
L 182.894499 226.347894 
L 183.504446 227.720303 
L 184.114394 228.153642 
L 184.724341 225.623876 
L 185.334288 225.434134 
L 185.944235 229.24882 
L 186.554182 228.365609 
L 187.774077 228.817636 
L 188.384024 227.263556 
L 188.993971 228.740619 
L 189.603918 228.675356 
L 190.213865 227.81934 
L 190.823812 228.167278 
L 191.43376 222.281883 
L 192.043707 226.940817 
L 192.653654 228.640414 
L 193.263601 229.096615 
L 193.873548 228.309801 
L 194.483495 229.6691 
L 195.093443 224.445917 
L 195.70339 227.968392 
L 196.313337 226.925143 
L 196.923284 229.471175 
L 198.753126 227.70766 
L 199.363073 228.625303 
L 199.97302 228.976172 
L 200.582967 227.887149 
L 201.192914 228.718754 
L 201.802861 228.915385 
L 202.412809 227.577961 
L 203.022756 229.387453 
L 203.632703 228.425747 
L 204.24265 229.324584 
L 204.852597 228.669885 
L 205.462544 226.740308 
L 206.072492 229.13342 
L 206.682439 227.578812 
L 207.292386 229.759312 
L 207.902333 225.779481 
L 208.51228 229.602984 
L 209.122227 226.758692 
L 209.732175 228.318265 
L 210.342122 227.956137 
L 210.952069 229.619086 
L 211.562016 227.757473 
L 212.171963 229.084285 
L 212.78191 226.100221 
L 213.391858 229.341677 
L 214.001805 228.239839 
L 214.611752 229.050403 
L 215.221699 228.850288 
L 215.831646 229.614342 
L 216.441593 227.229636 
L 217.051541 227.903514 
L 217.661488 226.721289 
L 218.271435 224.223792 
L 218.881382 228.395376 
L 219.491329 224.82445 
L 220.101276 228.087431 
L 220.711224 229.874489 
L 221.931118 225.782614 
L 223.151012 229.731183 
L 223.760959 224.891601 
L 224.370907 228.889485 
L 224.980854 228.994819 
L 225.590801 228.793307 
L 226.200748 229.382443 
L 226.810695 227.642354 
L 227.420642 225.373234 
L 228.03059 228.881934 
L 228.640537 229.05038 
L 229.250484 227.74226 
L 229.860431 228.941323 
L 230.470378 226.651209 
L 231.080325 229.193385 
L 231.690273 229.461517 
L 232.30022 229.032375 
L 232.910167 228.992931 
L 233.520114 229.132539 
L 234.130061 229.552181 
L 234.740008 225.08298 
L 235.349956 228.442289 
L 235.959903 227.824274 
L 236.56985 229.445642 
L 237.179797 229.021266 
L 237.789744 228.915104 
L 238.399691 229.651523 
L 239.009639 228.353911 
L 239.619586 228.754341 
L 240.83948 228.947601 
L 241.449427 227.484168 
L 243.889216 229.107372 
L 244.499163 228.955284 
L 245.10911 227.964731 
L 245.719057 220.356808 
L 246.329005 227.154709 
L 246.938952 228.536062 
L 247.548899 229.247315 
L 248.158846 229.21544 
L 248.768793 227.564426 
L 249.988688 228.243141 
L 250.598635 228.249246 
L 251.208582 227.033289 
L 251.818529 229.423926 
L 252.428476 228.516215 
L 253.038423 228.388736 
L 253.648371 229.076538 
L 254.258318 226.079492 
L 254.868265 228.654825 
L 255.478212 229.091486 
L 256.088159 228.461121 
L 256.698106 229.310422 
L 257.308054 228.279089 
L 257.918001 228.96166 
L 258.527948 228.447223 
L 259.137895 228.644579 
L 259.747842 222.847038 
L 260.357789 226.996442 
L 260.967737 228.612779 
L 261.577684 228.373415 
L 262.187631 229.306103 
L 262.797578 229.180668 
L 263.407525 229.206818 
L 264.017472 228.148701 
L 264.62742 228.126283 
L 265.237367 229.138432 
L 265.847314 228.058528 
L 266.457261 229.261657 
L 267.067208 223.577498 
L 267.677155 226.588838 
L 268.287103 228.491124 
L 268.89705 228.280834 
L 269.506997 229.088606 
L 270.116944 225.711092 
L 270.726891 229.24519 
L 271.336838 229.179463 
L 271.946786 226.874683 
L 272.556733 228.210199 
L 273.16668 229.170745 
L 273.776627 222.221112 
L 274.386574 229.22447 
L 274.996521 229.243518 
L 275.606469 228.561281 
L 276.216416 228.871047 
L 276.826363 228.358049 
L 277.43631 225.810662 
L 278.046257 226.340647 
L 279.266152 228.956802 
L 279.876099 229.201986 
L 281.095993 228.538767 
L 281.70594 227.640963 
L 282.315887 229.233925 
L 282.925835 224.566247 
L 283.535782 227.752783 
L 284.145729 228.310761 
L 284.755676 229.044267 
L 285.97557 228.465485 
L 286.585518 228.644841 
L 287.195465 228.604702 
L 287.805412 224.270545 
L 288.415359 227.99822 
L 289.025306 228.512102 
L 290.245201 228.545768 
L 291.465095 228.101059 
L 292.075042 226.632348 
L 292.684989 228.68483 
L 293.294936 228.092299 
L 293.904884 228.629628 
L 294.514831 228.451223 
L 295.734725 228.426731 
L 296.344672 226.137809 
L 296.954619 225.637665 
L 297.564567 228.534686 
L 298.174514 227.909166 
L 298.784461 227.646454 
L 299.394408 228.328129 
L 300.004355 228.390035 
L 300.614302 228.226869 
L 301.22425 228.467498 
L 301.834197 223.071931 
L 302.444144 228.348859 
L 303.054091 228.607263 
L 303.664038 228.583833 
L 304.273985 228.108142 
L 304.883933 228.682438 
L 306.103827 226.184341 
L 306.713774 219.209717 
L 307.323721 228.199288 
L 307.933668 228.389278 
L 308.543616 228.21156 
L 309.153563 228.497619 
L 310.373457 228.040937 
L 310.983404 228.160162 
L 311.593351 226.933459 
L 312.203299 226.796998 
L 312.813246 226.086199 
L 313.423193 228.227502 
L 314.03314 228.638461 
L 314.643087 228.619236 
L 315.253034 228.285285 
L 315.862982 228.250613 
L 316.472929 226.676019 
L 317.082876 226.514341 
L 317.692823 228.104064 
L 318.30277 228.259806 
L 318.912717 228.690301 
L 319.522665 227.776128 
L 320.132612 227.502199 
L 320.742559 227.707837 
L 321.352506 228.311982 
L 321.962453 227.39663 
L 322.5724 226.705613 
L 323.182348 228.239819 
L 323.792295 228.250397 
L 324.402242 228.069962 
L 325.012189 228.318177 
L 325.622136 227.06597 
L 326.232083 228.006387 
L 327.451978 228.037372 
L 328.061925 227.690157 
L 328.671872 227.993837 
L 329.891766 228.129881 
L 330.501714 225.987626 
L 331.111661 226.614717 
L 331.721608 227.940983 
L 332.331555 228.336173 
L 332.941502 228.004161 
L 333.551449 215.503864 
L 334.161397 226.831467 
L 334.771344 227.951215 
L 335.381291 228.266875 
L 335.991238 227.988183 
L 336.601185 227.952441 
L 337.211132 228.206655 
L 337.82108 227.925635 
L 339.040974 224.62105 
L 339.650921 227.889263 
L 340.260868 228.194694 
L 340.870815 227.941997 
L 342.09071 227.948136 
L 343.310604 227.135092 
L 343.920551 218.562724 
L 344.530498 227.194792 
L 345.140446 228.16478 
L 345.750393 227.861145 
L 346.36034 227.799187 
L 346.970287 227.866607 
L 347.580234 225.667044 
L 348.190181 227.444884 
L 348.800129 227.416994 
L 349.410076 227.917476 
L 350.020023 228.008834 
L 350.62997 227.697445 
L 351.239917 227.773396 
L 351.849865 228.180025 
L 352.459812 226.948271 
L 353.069759 226.383762 
L 353.679706 227.860861 
L 354.289653 227.702366 
L 354.8996 227.858852 
L 355.509548 227.684652 
L 356.119495 227.836296 
L 356.729442 225.888069 
L 357.339389 221.321747 
L 357.949336 227.551887 
L 359.169231 227.925848 
L 360.389125 227.798984 
L 360.999072 228.068302 
L 361.609019 225.965029 
L 362.218966 227.76874 
L 362.828914 227.990974 
L 364.048808 227.775647 
L 365.268702 227.536846 
L 365.878649 227.961287 
L 366.488597 226.825578 
L 367.098544 225.140249 
L 367.708491 225.699007 
L 368.318438 227.627415 
L 368.928385 227.882151 
L 369.538332 227.543706 
L 370.14828 227.871452 
L 370.758227 227.554803 
L 371.368174 227.788145 
L 371.978121 225.597754 
L 372.588068 227.788757 
L 372.588068 227.788757 
" style="fill:none;stroke:#de8f05;stroke-linecap:round;stroke-width:1.5;"/>
   </g>
   <g id="line2d_29">
    <path clip-path="url(#p6206eb694d)" d="M 68.224432 91.07458 
L 68.834379 158.575474 
L 69.444326 177.257651 
L 70.054273 184.129517 
L 70.66422 188.622988 
L 71.274168 197.648551 
L 71.884115 190.979558 
L 72.494062 199.715133 
L 73.104009 191.550706 
L 73.713956 196.018321 
L 74.323903 197.319323 
L 74.933851 200.854738 
L 75.543798 200.257748 
L 76.153745 201.351883 
L 76.763692 198.689725 
L 77.373639 201.253509 
L 77.983586 199.744316 
L 79.813428 204.01063 
L 80.423375 202.985256 
L 81.033322 205.54974 
L 81.643269 198.375286 
L 82.253217 206.104405 
L 82.863164 205.579747 
L 83.473111 197.25656 
L 84.083058 205.621002 
L 84.693005 207.409395 
L 85.302952 209.639001 
L 85.9129 205.917141 
L 86.522847 203.07149 
L 87.132794 209.679982 
L 87.742741 207.239399 
L 88.352688 205.269204 
L 88.962635 210.979284 
L 89.572583 206.810752 
L 90.18253 209.857911 
L 90.792477 210.480478 
L 91.402424 208.425528 
L 92.012371 210.282666 
L 92.622319 209.411819 
L 93.232266 212.060692 
L 93.842213 211.583137 
L 94.45216 211.462429 
L 95.062107 210.911782 
L 95.672054 213.062154 
L 96.282002 210.885375 
L 96.891949 210.658471 
L 97.501896 212.492536 
L 98.111843 211.561401 
L 98.72179 204.708098 
L 99.331737 210.773452 
L 99.941685 213.73245 
L 100.551632 211.59298 
L 101.161579 213.111064 
L 101.771526 211.889732 
L 102.381473 202.08459 
L 102.99142 212.899679 
L 103.601368 210.809637 
L 104.211315 213.725678 
L 104.821262 212.328761 
L 105.431209 212.907784 
L 106.041156 214.026321 
L 106.651103 206.792386 
L 107.261051 212.767202 
L 107.870998 214.99832 
L 108.480945 215.054245 
L 109.090892 212.844713 
L 109.700839 213.145287 
L 110.310786 213.905854 
L 110.920734 213.713369 
L 111.530681 216.03333 
L 112.750575 215.261631 
L 113.360522 214.275875 
L 113.970469 214.269345 
L 114.580417 214.383572 
L 115.190364 195.694278 
L 115.800311 214.428347 
L 116.410258 216.694773 
L 117.020205 215.712815 
L 117.630152 216.141333 
L 118.2401 215.036587 
L 118.850047 215.14833 
L 119.459994 208.521378 
L 120.069941 214.945424 
L 120.679888 211.121984 
L 121.289835 213.722901 
L 121.899783 214.784689 
L 122.50973 216.345127 
L 123.119677 213.045799 
L 123.729624 215.396965 
L 124.339571 214.3316 
L 124.949518 214.838141 
L 125.559466 215.626287 
L 126.169413 215.52527 
L 126.77936 217.474063 
L 127.389307 209.570268 
L 127.999254 204.637932 
L 128.609201 214.859003 
L 129.219149 216.192453 
L 129.829096 216.214987 
L 130.439043 214.627077 
L 131.04899 216.001231 
L 131.658937 215.603981 
L 132.268884 216.166574 
L 132.878832 216.345834 
L 133.488779 215.672557 
L 134.098726 214.58062 
L 134.708673 216.734102 
L 135.31862 217.561861 
L 135.928567 216.617916 
L 137.148462 216.823421 
L 137.758409 215.306123 
L 138.368356 215.616808 
L 138.978303 215.120855 
L 139.58825 213.501152 
L 140.198198 217.855907 
L 140.808145 215.000624 
L 142.028039 216.974076 
L 142.637986 216.188295 
L 143.857881 212.593741 
L 144.467828 216.35711 
L 145.077775 216.788967 
L 145.687722 218.426542 
L 146.297669 216.538509 
L 146.907616 216.589275 
L 147.517564 216.805595 
L 148.127511 216.539433 
L 148.737458 216.934552 
L 149.347405 214.176561 
L 149.957352 217.119946 
L 150.567299 217.94289 
L 151.177247 217.02163 
L 151.787194 212.551381 
L 152.397141 218.205859 
L 153.007088 217.651493 
L 153.617035 214.197384 
L 154.226982 216.798688 
L 154.83693 216.92275 
L 155.446877 218.36911 
L 156.056824 216.223639 
L 156.666771 217.143261 
L 157.276718 219.544268 
L 157.886665 218.541551 
L 158.496613 218.049899 
L 159.10656 210.127962 
L 159.716507 217.51228 
L 160.326454 218.117517 
L 160.936401 216.401143 
L 162.156296 216.972043 
L 162.766243 216.522277 
L 163.37619 217.570011 
L 163.986137 216.179562 
L 164.596084 217.138621 
L 165.206031 216.938777 
L 165.815979 216.33711 
L 166.425926 211.716323 
L 167.035873 212.359074 
L 167.64582 217.461375 
L 168.255767 218.19721 
L 168.865714 217.505563 
L 169.475662 218.490745 
L 170.085609 218.339104 
L 170.695556 212.94923 
L 171.305503 215.83126 
L 171.91545 218.095348 
L 172.525397 218.198268 
L 173.135345 217.936245 
L 173.745292 216.697545 
L 174.965186 218.015904 
L 175.575133 215.941608 
L 176.18508 217.80483 
L 177.404975 215.935506 
L 178.014922 216.163231 
L 178.624869 211.537843 
L 179.234816 216.647233 
L 179.844763 209.510508 
L 180.454711 215.941485 
L 181.064658 216.756127 
L 181.674605 215.993107 
L 182.284552 217.920303 
L 182.894499 214.049202 
L 183.504446 218.212717 
L 184.114394 218.022486 
L 184.724341 216.835177 
L 185.334288 217.162571 
L 185.944235 217.642934 
L 186.554182 218.471928 
L 187.164129 216.191171 
L 187.774077 217.295554 
L 188.384024 215.33723 
L 188.993971 214.48232 
L 189.603918 212.352133 
L 190.213865 215.652301 
L 190.823812 217.336527 
L 191.43376 218.381899 
L 192.043707 216.778603 
L 192.653654 214.700138 
L 193.263601 216.320066 
L 193.873548 216.863179 
L 194.483495 215.906647 
L 195.093443 218.33523 
L 195.70339 219.286008 
L 196.313337 217.116863 
L 196.923284 218.758218 
L 197.533231 218.869115 
L 198.143178 217.433309 
L 198.753126 219.846392 
L 199.363073 217.50029 
L 199.97302 215.826896 
L 200.582967 217.715936 
L 201.192914 218.286841 
L 201.802861 207.441762 
L 202.412809 218.175196 
L 203.022756 219.025823 
L 203.632703 216.727671 
L 204.24265 209.030142 
L 204.852597 217.881254 
L 205.462544 217.238184 
L 206.072492 217.822841 
L 206.682439 212.094815 
L 207.292386 211.490361 
L 207.902333 217.316522 
L 208.51228 215.646256 
L 209.122227 218.451 
L 209.732175 215.914997 
L 210.342122 217.465888 
L 210.952069 217.720294 
L 211.562016 215.795388 
L 212.171963 217.080022 
L 212.78191 215.918589 
L 213.391858 217.493315 
L 214.001805 216.643281 
L 214.611752 216.568842 
L 215.221699 205.826039 
L 215.831646 216.640577 
L 216.441593 218.427019 
L 217.051541 217.842675 
L 217.661488 211.397156 
L 218.881382 216.737366 
L 219.491329 217.439304 
L 220.101276 215.38015 
L 220.711224 217.763077 
L 221.321171 217.339649 
L 221.931118 215.150756 
L 222.541065 217.251847 
L 223.151012 216.85936 
L 223.760959 216.747771 
L 224.370907 216.032924 
L 224.980854 214.579407 
L 225.590801 216.301768 
L 226.200748 217.548942 
L 226.810695 216.714672 
L 227.420642 218.005225 
L 228.03059 216.306374 
L 228.640537 218.31505 
L 229.860431 213.943545 
L 230.470378 216.196288 
L 231.080325 215.721894 
L 231.690273 216.565138 
L 232.30022 216.48564 
L 232.910167 214.785039 
L 233.520114 216.25774 
L 234.740008 216.357656 
L 235.349956 217.617656 
L 235.959903 217.59548 
L 236.56985 215.496095 
L 237.179797 216.957325 
L 237.789744 217.246306 
L 238.399691 213.261286 
L 239.009639 217.998554 
L 239.619586 216.323094 
L 240.229533 216.581794 
L 240.83948 218.092488 
L 241.449427 214.700816 
L 242.059374 216.896918 
L 242.669322 216.4928 
L 243.279269 217.283632 
L 243.889216 216.90927 
L 244.499163 216.008753 
L 245.10911 216.581296 
L 245.719057 210.081859 
L 246.329005 214.69747 
L 246.938952 216.379187 
L 247.548899 216.436298 
L 248.158846 216.857997 
L 248.768793 217.899691 
L 249.37874 217.233823 
L 249.988688 215.611818 
L 250.598635 215.801966 
L 251.208582 216.540456 
L 251.818529 217.038383 
L 253.038423 215.752766 
L 253.648371 216.16897 
L 254.258318 216.400653 
L 254.868265 216.797069 
L 256.088159 214.07028 
L 257.308054 216.7793 
L 257.918001 216.468611 
L 258.527948 217.379111 
L 259.137895 216.515179 
L 259.747842 217.601265 
L 260.357789 215.868028 
L 260.967737 216.941297 
L 261.577684 217.679314 
L 262.797578 217.988376 
L 263.407525 216.5031 
L 264.017472 216.186913 
L 264.62742 217.1049 
L 265.237367 217.137849 
L 265.847314 215.825245 
L 266.457261 217.489708 
L 267.067208 216.459079 
L 267.677155 216.273839 
L 268.287103 216.963264 
L 268.89705 216.480455 
L 269.506997 217.579924 
L 270.726891 215.399462 
L 271.946786 216.085926 
L 273.16668 214.680489 
L 273.776627 217.278898 
L 274.386574 213.889797 
L 274.996521 217.047131 
L 275.606469 215.278551 
L 276.216416 212.568933 
L 276.826363 214.717708 
L 277.43631 215.021984 
L 278.046257 215.545557 
L 278.656204 215.89579 
L 279.266152 213.582474 
L 279.876099 216.096036 
L 280.486046 215.899256 
L 281.095993 215.477462 
L 281.70594 216.207678 
L 282.315887 213.549944 
L 282.925835 216.794953 
L 283.535782 215.257367 
L 284.145729 215.922151 
L 284.755676 214.666777 
L 285.365623 216.391594 
L 285.97557 216.537377 
L 286.585518 217.130617 
L 287.195465 215.421755 
L 287.805412 213.168625 
L 289.025306 216.05094 
L 289.635253 215.383866 
L 290.245201 217.004904 
L 290.855148 215.006415 
L 291.465095 215.229007 
L 292.075042 215.766093 
L 292.684989 215.052983 
L 293.294936 212.61351 
L 293.904884 213.292506 
L 294.514831 216.389359 
L 295.124778 216.846222 
L 295.734725 216.350463 
L 296.344672 217.273427 
L 296.954619 215.98432 
L 297.564567 209.836286 
L 298.174514 216.277682 
L 298.784461 216.379727 
L 299.394408 211.660712 
L 300.004355 215.702886 
L 300.614302 217.758091 
L 301.22425 216.368011 
L 301.834197 215.689401 
L 302.444144 216.672273 
L 303.054091 215.332393 
L 303.664038 216.719925 
L 304.273985 211.555844 
L 304.883933 211.858025 
L 305.49388 215.304957 
L 306.103827 216.615501 
L 306.713774 214.320698 
L 307.323721 214.318783 
L 307.933668 214.934341 
L 308.543616 215.934589 
L 309.153563 214.081481 
L 309.76351 215.36067 
L 310.373457 215.827266 
L 310.983404 215.868669 
L 311.593351 215.135502 
L 312.203299 216.538058 
L 312.813246 215.901375 
L 313.423193 216.726318 
L 314.03314 214.181142 
L 314.643087 213.314924 
L 315.253034 214.116605 
L 315.862982 215.743478 
L 317.082876 216.19639 
L 317.692823 217.042765 
L 318.30277 214.054903 
L 318.912717 215.473168 
L 319.522665 212.036942 
L 320.132612 214.509437 
L 320.742559 215.770391 
L 321.352506 216.237932 
L 322.5724 214.910291 
L 323.182348 215.834583 
L 323.792295 215.46314 
L 324.402242 216.153221 
L 325.012189 214.105847 
L 325.622136 216.236291 
L 326.232083 216.97989 
L 326.842031 216.99152 
L 327.451978 216.090308 
L 328.061925 214.790975 
L 328.671872 214.295562 
L 329.281819 214.207063 
L 329.891766 215.195162 
L 330.501714 215.633928 
L 331.111661 215.514061 
L 331.721608 216.205212 
L 332.941502 215.747306 
L 333.551449 216.101991 
L 334.161397 214.697519 
L 334.771344 214.596062 
L 335.381291 215.543514 
L 335.991238 215.506296 
L 336.601185 215.238072 
L 337.211132 215.454915 
L 337.82108 215.073305 
L 338.431027 215.181855 
L 339.040974 215.996271 
L 339.650921 215.635277 
L 340.260868 210.440703 
L 340.870815 212.145091 
L 341.480763 215.847259 
L 342.700657 215.685662 
L 343.310604 215.679131 
L 343.920551 213.999795 
L 344.530498 215.987525 
L 345.140446 215.549495 
L 345.750393 214.033215 
L 346.36034 214.059081 
L 346.970287 215.877024 
L 347.580234 216.456415 
L 348.190181 215.983171 
L 348.800129 214.865226 
L 349.410076 216.069605 
L 350.020023 215.723559 
L 350.62997 215.691346 
L 351.239917 214.386356 
L 351.849865 215.120073 
L 352.459812 216.276124 
L 353.069759 215.740828 
L 353.679706 214.060118 
L 354.289653 216.518678 
L 354.8996 216.101832 
L 355.509548 214.908616 
L 356.119495 215.875832 
L 356.729442 215.353587 
L 357.339389 213.274815 
L 357.949336 213.867472 
L 358.559283 216.143433 
L 359.169231 214.916007 
L 360.389125 215.007335 
L 360.999072 214.349606 
L 361.609019 214.752963 
L 362.218966 212.604358 
L 363.438861 216.831279 
L 364.658755 215.329603 
L 365.268702 215.589306 
L 365.878649 214.515601 
L 367.098544 213.441622 
L 367.708491 214.927955 
L 368.318438 215.518717 
L 368.928385 215.558115 
L 369.538332 215.921072 
L 370.14828 214.689404 
L 370.758227 214.260804 
L 371.368174 215.633707 
L 371.978121 215.700638 
L 372.588068 213.046039 
L 372.588068 213.046039 
" style="fill:none;stroke:#029e73;stroke-linecap:round;stroke-width:1.5;"/>
   </g>
   <g id="patch_3">
    <path d="M 53.00625 239.758125 
L 53.00625 22.318125 
" style="fill:none;"/>
   </g>
   <g id="patch_4">
    <path d="M 387.80625 239.758125 
L 387.80625 22.318125 
" style="fill:none;"/>
   </g>
   <g id="patch_5">
    <path d="M 53.00625 239.758125 
L 387.80625 239.758125 
" style="fill:none;"/>
   </g>
   <g id="patch_6">
    <path d="M 53.00625 22.318125 
L 387.80625 22.318125 
" style="fill:none;"/>
   </g>
   <g id="text_16">
    <!-- MNIST Label Distribution Predictor Loss with Laplacian Noise -->
    <g style="fill:#262626;" transform="translate(39.005625 16.318125)scale(0.12 -0.12)">
     <defs>
      <path d="M 628 4666 
L 1569 4666 
L 2759 1491 
L 3956 4666 
L 4897 4666 
L 4897 0 
L 4281 0 
L 4281 4097 
L 3078 897 
L 2444 897 
L 1241 4097 
L 1241 0 
L 628 0 
L 628 4666 
z
" id="DejaVuSans-4d" transform="scale(0.015625)"/>
      <path d="M 628 4666 
L 1478 4666 
L 3547 763 
L 3547 4666 
L 4159 4666 
L 4159 0 
L 3309 0 
L 1241 3903 
L 1241 0 
L 628 0 
L 628 4666 
z
" id="DejaVuSans-4e" transform="scale(0.015625)"/>
      <path d="M 628 4666 
L 1259 4666 
L 1259 0 
L 628 0 
L 628 4666 
z
" id="DejaVuSans-49" transform="scale(0.015625)"/>
      <path d="M 3425 4513 
L 3425 3897 
Q 3066 4069 2747 4153 
Q 2428 4238 2131 4238 
Q 1616 4238 1336 4038 
Q 1056 3838 1056 3469 
Q 1056 3159 1242 3001 
Q 1428 2844 1947 2747 
L 2328 2669 
Q 3034 2534 3370 2195 
Q 3706 1856 3706 1288 
Q 3706 609 3251 259 
Q 2797 -91 1919 -91 
Q 1588 -91 1214 -16 
Q 841 59 441 206 
L 441 856 
Q 825 641 1194 531 
Q 1563 422 1919 422 
Q 2459 422 2753 634 
Q 3047 847 3047 1241 
Q 3047 1584 2836 1778 
Q 2625 1972 2144 2069 
L 1759 2144 
Q 1053 2284 737 2584 
Q 422 2884 422 3419 
Q 422 4038 858 4394 
Q 1294 4750 2059 4750 
Q 2388 4750 2728 4690 
Q 3069 4631 3425 4513 
z
" id="DejaVuSans-53" transform="scale(0.015625)"/>
      <path d="M 3116 1747 
Q 3116 2381 2855 2742 
Q 2594 3103 2138 3103 
Q 1681 3103 1420 2742 
Q 1159 2381 1159 1747 
Q 1159 1113 1420 752 
Q 1681 391 2138 391 
Q 2594 391 2855 752 
Q 3116 1113 3116 1747 
z
M 1159 2969 
Q 1341 3281 1617 3432 
Q 1894 3584 2278 3584 
Q 2916 3584 3314 3078 
Q 3713 2572 3713 1747 
Q 3713 922 3314 415 
Q 2916 -91 2278 -91 
Q 1894 -91 1617 61 
Q 1341 213 1159 525 
L 1159 0 
L 581 0 
L 581 4863 
L 1159 4863 
L 1159 2969 
z
" id="DejaVuSans-62" transform="scale(0.015625)"/>
      <path d="M 603 4863 
L 1178 4863 
L 1178 0 
L 603 0 
L 603 4863 
z
" id="DejaVuSans-6c" transform="scale(0.015625)"/>
      <path d="M 603 3500 
L 1178 3500 
L 1178 0 
L 603 0 
L 603 3500 
z
M 603 4863 
L 1178 4863 
L 1178 4134 
L 603 4134 
L 603 4863 
z
" id="DejaVuSans-69" transform="scale(0.015625)"/>
      <path d="M 2631 2963 
Q 2534 3019 2420 3045 
Q 2306 3072 2169 3072 
Q 1681 3072 1420 2755 
Q 1159 2438 1159 1844 
L 1159 0 
L 581 0 
L 581 3500 
L 1159 3500 
L 1159 2956 
Q 1341 3275 1631 3429 
Q 1922 3584 2338 3584 
Q 2397 3584 2469 3576 
Q 2541 3569 2628 3553 
L 2631 2963 
z
" id="DejaVuSans-72" transform="scale(0.015625)"/>
      <path d="M 544 1381 
L 544 3500 
L 1119 3500 
L 1119 1403 
Q 1119 906 1312 657 
Q 1506 409 1894 409 
Q 2359 409 2629 706 
Q 2900 1003 2900 1516 
L 2900 3500 
L 3475 3500 
L 3475 0 
L 2900 0 
L 2900 538 
Q 2691 219 2414 64 
Q 2138 -91 1772 -91 
Q 1169 -91 856 284 
Q 544 659 544 1381 
z
M 1991 3584 
L 1991 3584 
z
" id="DejaVuSans-75" transform="scale(0.015625)"/>
      <path d="M 3513 2113 
L 3513 0 
L 2938 0 
L 2938 2094 
Q 2938 2591 2744 2837 
Q 2550 3084 2163 3084 
Q 1697 3084 1428 2787 
Q 1159 2491 1159 1978 
L 1159 0 
L 581 0 
L 581 3500 
L 1159 3500 
L 1159 2956 
Q 1366 3272 1645 3428 
Q 1925 3584 2291 3584 
Q 2894 3584 3203 3211 
Q 3513 2838 3513 2113 
z
" id="DejaVuSans-6e" transform="scale(0.015625)"/>
      <path d="M 1259 4147 
L 1259 2394 
L 2053 2394 
Q 2494 2394 2734 2622 
Q 2975 2850 2975 3272 
Q 2975 3691 2734 3919 
Q 2494 4147 2053 4147 
L 1259 4147 
z
M 628 4666 
L 2053 4666 
Q 2838 4666 3239 4311 
Q 3641 3956 3641 3272 
Q 3641 2581 3239 2228 
Q 2838 1875 2053 1875 
L 1259 1875 
L 1259 0 
L 628 0 
L 628 4666 
z
" id="DejaVuSans-50" transform="scale(0.015625)"/>
      <path d="M 2906 2969 
L 2906 4863 
L 3481 4863 
L 3481 0 
L 2906 0 
L 2906 525 
Q 2725 213 2448 61 
Q 2172 -91 1784 -91 
Q 1150 -91 751 415 
Q 353 922 353 1747 
Q 353 2572 751 3078 
Q 1150 3584 1784 3584 
Q 2172 3584 2448 3432 
Q 2725 3281 2906 2969 
z
M 947 1747 
Q 947 1113 1208 752 
Q 1469 391 1925 391 
Q 2381 391 2643 752 
Q 2906 1113 2906 1747 
Q 2906 2381 2643 2742 
Q 2381 3103 1925 3103 
Q 1469 3103 1208 2742 
Q 947 2381 947 1747 
z
" id="DejaVuSans-64" transform="scale(0.015625)"/>
      <path d="M 269 3500 
L 844 3500 
L 1563 769 
L 2278 3500 
L 2956 3500 
L 3675 769 
L 4391 3500 
L 4966 3500 
L 4050 0 
L 3372 0 
L 2619 2869 
L 1863 0 
L 1184 0 
L 269 3500 
z
" id="DejaVuSans-77" transform="scale(0.015625)"/>
     </defs>
     <use xlink:href="#DejaVuSans-4d"/>
     <use x="86.279297" xlink:href="#DejaVuSans-4e"/>
     <use x="161.083984" xlink:href="#DejaVuSans-49"/>
     <use x="190.576172" xlink:href="#DejaVuSans-53"/>
     <use x="254.052734" xlink:href="#DejaVuSans-54"/>
     <use x="315.136719" xlink:href="#DejaVuSans-20"/>
     <use x="346.923828" xlink:href="#DejaVuSans-4c"/>
     <use x="402.636719" xlink:href="#DejaVuSans-61"/>
     <use x="463.916016" xlink:href="#DejaVuSans-62"/>
     <use x="527.392578" xlink:href="#DejaVuSans-65"/>
     <use x="588.916016" xlink:href="#DejaVuSans-6c"/>
     <use x="616.699219" xlink:href="#DejaVuSans-20"/>
     <use x="648.486328" xlink:href="#DejaVuSans-44"/>
     <use x="725.488281" xlink:href="#DejaVuSans-69"/>
     <use x="753.271484" xlink:href="#DejaVuSans-73"/>
     <use x="805.371094" xlink:href="#DejaVuSans-74"/>
     <use x="844.580078" xlink:href="#DejaVuSans-72"/>
     <use x="885.693359" xlink:href="#DejaVuSans-69"/>
     <use x="913.476562" xlink:href="#DejaVuSans-62"/>
     <use x="976.953125" xlink:href="#DejaVuSans-75"/>
     <use x="1040.332031" xlink:href="#DejaVuSans-74"/>
     <use x="1079.541016" xlink:href="#DejaVuSans-69"/>
     <use x="1107.324219" xlink:href="#DejaVuSans-6f"/>
     <use x="1168.505859" xlink:href="#DejaVuSans-6e"/>
     <use x="1231.884766" xlink:href="#DejaVuSans-20"/>
     <use x="1263.671875" xlink:href="#DejaVuSans-50"/>
     <use x="1322.224609" xlink:href="#DejaVuSans-72"/>
     <use x="1361.087891" xlink:href="#DejaVuSans-65"/>
     <use x="1422.611328" xlink:href="#DejaVuSans-64"/>
     <use x="1486.087891" xlink:href="#DejaVuSans-69"/>
     <use x="1513.871094" xlink:href="#DejaVuSans-63"/>
     <use x="1568.851562" xlink:href="#DejaVuSans-74"/>
     <use x="1608.060547" xlink:href="#DejaVuSans-6f"/>
     <use x="1669.242188" xlink:href="#DejaVuSans-72"/>
     <use x="1710.355469" xlink:href="#DejaVuSans-20"/>
     <use x="1742.142578" xlink:href="#DejaVuSans-4c"/>
     <use x="1796.105469" xlink:href="#DejaVuSans-6f"/>
     <use x="1857.287109" xlink:href="#DejaVuSans-73"/>
     <use x="1909.386719" xlink:href="#DejaVuSans-73"/>
     <use x="1961.486328" xlink:href="#DejaVuSans-20"/>
     <use x="1993.273438" xlink:href="#DejaVuSans-77"/>
     <use x="2075.060547" xlink:href="#DejaVuSans-69"/>
     <use x="2102.84375" xlink:href="#DejaVuSans-74"/>
     <use x="2142.052734" xlink:href="#DejaVuSans-68"/>
     <use x="2205.431641" xlink:href="#DejaVuSans-20"/>
     <use x="2237.21875" xlink:href="#DejaVuSans-4c"/>
     <use x="2292.931641" xlink:href="#DejaVuSans-61"/>
     <use x="2354.210938" xlink:href="#DejaVuSans-70"/>
     <use x="2417.6875" xlink:href="#DejaVuSans-6c"/>
     <use x="2445.470703" xlink:href="#DejaVuSans-61"/>
     <use x="2506.75" xlink:href="#DejaVuSans-63"/>
     <use x="2561.730469" xlink:href="#DejaVuSans-69"/>
     <use x="2589.513672" xlink:href="#DejaVuSans-61"/>
     <use x="2650.792969" xlink:href="#DejaVuSans-6e"/>
     <use x="2714.171875" xlink:href="#DejaVuSans-20"/>
     <use x="2745.958984" xlink:href="#DejaVuSans-4e"/>
     <use x="2820.763672" xlink:href="#DejaVuSans-6f"/>
     <use x="2881.945312" xlink:href="#DejaVuSans-69"/>
     <use x="2909.728516" xlink:href="#DejaVuSans-73"/>
     <use x="2961.828125" xlink:href="#DejaVuSans-65"/>
    </g>
   </g>
   <g id="legend_1">
    <g id="line2d_30">
     <path d="M 411.817812 35.416563 
L 431.817812 35.416563 
" style="fill:none;stroke:#0173b2;stroke-linecap:round;stroke-width:1.5;"/>
    </g>
    <g id="line2d_31"/>
    <g id="text_17">
     <!-- laplacian, 1.0e-01 -->
     <g style="fill:#262626;" transform="translate(439.817812 38.916563)scale(0.1 -0.1)">
      <defs>
       <path d="M 750 794 
L 1409 794 
L 1409 256 
L 897 -744 
L 494 -744 
L 750 256 
L 750 794 
z
" id="DejaVuSans-2c" transform="scale(0.015625)"/>
       <path d="M 313 2009 
L 1997 2009 
L 1997 1497 
L 313 1497 
L 313 2009 
z
" id="DejaVuSans-2d" transform="scale(0.015625)"/>
      </defs>
      <use xlink:href="#DejaVuSans-6c"/>
      <use x="27.783203" xlink:href="#DejaVuSans-61"/>
      <use x="89.0625" xlink:href="#DejaVuSans-70"/>
      <use x="152.539062" xlink:href="#DejaVuSans-6c"/>
      <use x="180.322266" xlink:href="#DejaVuSans-61"/>
      <use x="241.601562" xlink:href="#DejaVuSans-63"/>
      <use x="296.582031" xlink:href="#DejaVuSans-69"/>
      <use x="324.365234" xlink:href="#DejaVuSans-61"/>
      <use x="385.644531" xlink:href="#DejaVuSans-6e"/>
      <use x="449.023438" xlink:href="#DejaVuSans-2c"/>
      <use x="480.810547" xlink:href="#DejaVuSans-20"/>
      <use x="512.597656" xlink:href="#DejaVuSans-31"/>
      <use x="576.220703" xlink:href="#DejaVuSans-2e"/>
      <use x="608.007812" xlink:href="#DejaVuSans-30"/>
      <use x="671.630859" xlink:href="#DejaVuSans-65"/>
      <use x="733.154297" xlink:href="#DejaVuSans-2d"/>
      <use x="769.238281" xlink:href="#DejaVuSans-30"/>
      <use x="832.861328" xlink:href="#DejaVuSans-31"/>
     </g>
    </g>
    <g id="line2d_32">
     <path d="M 411.817812 50.094688 
L 431.817812 50.094688 
" style="fill:none;stroke:#de8f05;stroke-linecap:round;stroke-width:1.5;"/>
    </g>
    <g id="line2d_33"/>
    <g id="text_18">
     <!-- laplacian, 1.0e-02 -->
     <g style="fill:#262626;" transform="translate(439.817812 53.594688)scale(0.1 -0.1)">
      <use xlink:href="#DejaVuSans-6c"/>
      <use x="27.783203" xlink:href="#DejaVuSans-61"/>
      <use x="89.0625" xlink:href="#DejaVuSans-70"/>
      <use x="152.539062" xlink:href="#DejaVuSans-6c"/>
      <use x="180.322266" xlink:href="#DejaVuSans-61"/>
      <use x="241.601562" xlink:href="#DejaVuSans-63"/>
      <use x="296.582031" xlink:href="#DejaVuSans-69"/>
      <use x="324.365234" xlink:href="#DejaVuSans-61"/>
      <use x="385.644531" xlink:href="#DejaVuSans-6e"/>
      <use x="449.023438" xlink:href="#DejaVuSans-2c"/>
      <use x="480.810547" xlink:href="#DejaVuSans-20"/>
      <use x="512.597656" xlink:href="#DejaVuSans-31"/>
      <use x="576.220703" xlink:href="#DejaVuSans-2e"/>
      <use x="608.007812" xlink:href="#DejaVuSans-30"/>
      <use x="671.630859" xlink:href="#DejaVuSans-65"/>
      <use x="733.154297" xlink:href="#DejaVuSans-2d"/>
      <use x="769.238281" xlink:href="#DejaVuSans-30"/>
      <use x="832.861328" xlink:href="#DejaVuSans-32"/>
     </g>
    </g>
    <g id="line2d_34">
     <path d="M 411.817812 64.772813 
L 431.817812 64.772813 
" style="fill:none;stroke:#029e73;stroke-linecap:round;stroke-width:1.5;"/>
    </g>
    <g id="line2d_35"/>
    <g id="text_19">
     <!-- laplacian, 1.0e-03 -->
     <g style="fill:#262626;" transform="translate(439.817812 68.272813)scale(0.1 -0.1)">
      <use xlink:href="#DejaVuSans-6c"/>
      <use x="27.783203" xlink:href="#DejaVuSans-61"/>
      <use x="89.0625" xlink:href="#DejaVuSans-70"/>
      <use x="152.539062" xlink:href="#DejaVuSans-6c"/>
      <use x="180.322266" xlink:href="#DejaVuSans-61"/>
      <use x="241.601562" xlink:href="#DejaVuSans-63"/>
      <use x="296.582031" xlink:href="#DejaVuSans-69"/>
      <use x="324.365234" xlink:href="#DejaVuSans-61"/>
      <use x="385.644531" xlink:href="#DejaVuSans-6e"/>
      <use x="449.023438" xlink:href="#DejaVuSans-2c"/>
      <use x="480.810547" xlink:href="#DejaVuSans-20"/>
      <use x="512.597656" xlink:href="#DejaVuSans-31"/>
      <use x="576.220703" xlink:href="#DejaVuSans-2e"/>
      <use x="608.007812" xlink:href="#DejaVuSans-30"/>
      <use x="671.630859" xlink:href="#DejaVuSans-65"/>
      <use x="733.154297" xlink:href="#DejaVuSans-2d"/>
      <use x="769.238281" xlink:href="#DejaVuSans-30"/>
      <use x="832.861328" xlink:href="#DejaVuSans-33"/>
     </g>
    </g>
   </g>
  </g>
 </g>
 <defs>
  <clipPath id="p6206eb694d">
   <rect height="217.44" width="334.8" x="53.00625" y="22.318125"/>
  </clipPath>
 </defs>
</svg>
