<?xml version="1.0" encoding="utf-8" standalone="no"?>
<!DOCTYPE svg PUBLIC "-//W3C//DTD SVG 1.1//EN"
  "http://www.w3.org/Graphics/SVG/1.1/DTD/svg11.dtd">
<svg height="273.814375pt" version="1.1" viewBox="0 0 540.66625 273.814375" width="540.66625pt" xmlns="http://www.w3.org/2000/svg" xmlns:xlink="http://www.w3.org/1999/xlink">
 <metadata>
  <rdf:RDF xmlns:cc="http://creativecommons.org/ns#" xmlns:dc="http://purl.org/dc/elements/1.1/" xmlns:rdf="http://www.w3.org/1999/02/22-rdf-syntax-ns#">
   <cc:Work>
    <dc:type rdf:resource="http://purl.org/dc/dcmitype/StillImage"/>
    <dc:date>2023-06-14T17:30:51.043398</dc:date>
    <dc:format>image/svg+xml</dc:format>
    <dc:creator>
     <cc:Agent>
      <dc:title>Matplotlib v3.4.3, https://matplotlib.org/</dc:title>
     </cc:Agent>
    </dc:creator>
   </cc:Work>
  </rdf:RDF>
 </metadata>
 <defs>
  <style type="text/css">*{stroke-linecap:butt;stroke-linejoin:round;}</style>
 </defs>
 <g id="figure_1">
  <g id="patch_1">
   <path d="M 0 273.814375 
L 540.66625 273.814375 
L 540.66625 0 
L 0 0 
z
" style="fill:#ffffff;"/>
  </g>
  <g id="axes_1">
   <g id="patch_2">
    <path d="M 53.00625 239.758125 
L 387.80625 239.758125 
L 387.80625 22.318125 
L 53.00625 22.318125 
z
" style="fill:#eaeaf2;"/>
   </g>
   <g id="matplotlib.axis_1">
    <g id="xtick_1">
     <g id="line2d_1">
      <path clip-path="url(#p1a4fc0c5e1)" d="M 68.224432 239.758125 
L 68.224432 22.318125 
" style="fill:none;stroke:#ffffff;stroke-linecap:round;stroke-width:0.8;"/>
     </g>
     <g id="line2d_2"/>
     <g id="text_1">
      <!-- 0 -->
      <g style="fill:#262626;" transform="translate(65.043182 250.856563)scale(0.1 -0.1)">
       <defs>
        <path d="M 2034 4250 
Q 1547 4250 1301 3770 
Q 1056 3291 1056 2328 
Q 1056 1369 1301 889 
Q 1547 409 2034 409 
Q 2525 409 2770 889 
Q 3016 1369 3016 2328 
Q 3016 3291 2770 3770 
Q 2525 4250 2034 4250 
z
M 2034 4750 
Q 2819 4750 3233 4129 
Q 3647 3509 3647 2328 
Q 3647 1150 3233 529 
Q 2819 -91 2034 -91 
Q 1250 -91 836 529 
Q 422 1150 422 2328 
Q 422 3509 836 4129 
Q 1250 4750 2034 4750 
z
" id="DejaVuSans-30" transform="scale(0.015625)"/>
       </defs>
       <use xlink:href="#DejaVuSans-30"/>
      </g>
     </g>
    </g>
    <g id="xtick_2">
     <g id="line2d_3">
      <path clip-path="url(#p1a4fc0c5e1)" d="M 129.219149 239.758125 
L 129.219149 22.318125 
" style="fill:none;stroke:#ffffff;stroke-linecap:round;stroke-width:0.8;"/>
     </g>
     <g id="line2d_4"/>
     <g id="text_2">
      <!-- 100 -->
      <g style="fill:#262626;" transform="translate(119.675399 250.856563)scale(0.1 -0.1)">
       <defs>
        <path d="M 794 531 
L 1825 531 
L 1825 4091 
L 703 3866 
L 703 4441 
L 1819 4666 
L 2450 4666 
L 2450 531 
L 3481 531 
L 3481 0 
L 794 0 
L 794 531 
z
" id="DejaVuSans-31" transform="scale(0.015625)"/>
       </defs>
       <use xlink:href="#DejaVuSans-31"/>
       <use x="63.623047" xlink:href="#DejaVuSans-30"/>
       <use x="127.246094" xlink:href="#DejaVuSans-30"/>
      </g>
     </g>
    </g>
    <g id="xtick_3">
     <g id="line2d_5">
      <path clip-path="url(#p1a4fc0c5e1)" d="M 190.213865 239.758125 
L 190.213865 22.318125 
" style="fill:none;stroke:#ffffff;stroke-linecap:round;stroke-width:0.8;"/>
     </g>
     <g id="line2d_6"/>
     <g id="text_3">
      <!-- 200 -->
      <g style="fill:#262626;" transform="translate(180.670115 250.856563)scale(0.1 -0.1)">
       <defs>
        <path d="M 1228 531 
L 3431 531 
L 3431 0 
L 469 0 
L 469 531 
Q 828 903 1448 1529 
Q 2069 2156 2228 2338 
Q 2531 2678 2651 2914 
Q 2772 3150 2772 3378 
Q 2772 3750 2511 3984 
Q 2250 4219 1831 4219 
Q 1534 4219 1204 4116 
Q 875 4013 500 3803 
L 500 4441 
Q 881 4594 1212 4672 
Q 1544 4750 1819 4750 
Q 2544 4750 2975 4387 
Q 3406 4025 3406 3419 
Q 3406 3131 3298 2873 
Q 3191 2616 2906 2266 
Q 2828 2175 2409 1742 
Q 1991 1309 1228 531 
z
" id="DejaVuSans-32" transform="scale(0.015625)"/>
       </defs>
       <use xlink:href="#DejaVuSans-32"/>
       <use x="63.623047" xlink:href="#DejaVuSans-30"/>
       <use x="127.246094" xlink:href="#DejaVuSans-30"/>
      </g>
     </g>
    </g>
    <g id="xtick_4">
     <g id="line2d_7">
      <path clip-path="url(#p1a4fc0c5e1)" d="M 251.208582 239.758125 
L 251.208582 22.318125 
" style="fill:none;stroke:#ffffff;stroke-linecap:round;stroke-width:0.8;"/>
     </g>
     <g id="line2d_8"/>
     <g id="text_4">
      <!-- 300 -->
      <g style="fill:#262626;" transform="translate(241.664832 250.856563)scale(0.1 -0.1)">
       <defs>
        <path d="M 2597 2516 
Q 3050 2419 3304 2112 
Q 3559 1806 3559 1356 
Q 3559 666 3084 287 
Q 2609 -91 1734 -91 
Q 1441 -91 1130 -33 
Q 819 25 488 141 
L 488 750 
Q 750 597 1062 519 
Q 1375 441 1716 441 
Q 2309 441 2620 675 
Q 2931 909 2931 1356 
Q 2931 1769 2642 2001 
Q 2353 2234 1838 2234 
L 1294 2234 
L 1294 2753 
L 1863 2753 
Q 2328 2753 2575 2939 
Q 2822 3125 2822 3475 
Q 2822 3834 2567 4026 
Q 2313 4219 1838 4219 
Q 1578 4219 1281 4162 
Q 984 4106 628 3988 
L 628 4550 
Q 988 4650 1302 4700 
Q 1616 4750 1894 4750 
Q 2613 4750 3031 4423 
Q 3450 4097 3450 3541 
Q 3450 3153 3228 2886 
Q 3006 2619 2597 2516 
z
" id="DejaVuSans-33" transform="scale(0.015625)"/>
       </defs>
       <use xlink:href="#DejaVuSans-33"/>
       <use x="63.623047" xlink:href="#DejaVuSans-30"/>
       <use x="127.246094" xlink:href="#DejaVuSans-30"/>
      </g>
     </g>
    </g>
    <g id="xtick_5">
     <g id="line2d_9">
      <path clip-path="url(#p1a4fc0c5e1)" d="M 312.203299 239.758125 
L 312.203299 22.318125 
" style="fill:none;stroke:#ffffff;stroke-linecap:round;stroke-width:0.8;"/>
     </g>
     <g id="line2d_10"/>
     <g id="text_5">
      <!-- 400 -->
      <g style="fill:#262626;" transform="translate(302.659549 250.856563)scale(0.1 -0.1)">
       <defs>
        <path d="M 2419 4116 
L 825 1625 
L 2419 1625 
L 2419 4116 
z
M 2253 4666 
L 3047 4666 
L 3047 1625 
L 3713 1625 
L 3713 1100 
L 3047 1100 
L 3047 0 
L 2419 0 
L 2419 1100 
L 313 1100 
L 313 1709 
L 2253 4666 
z
" id="DejaVuSans-34" transform="scale(0.015625)"/>
       </defs>
       <use xlink:href="#DejaVuSans-34"/>
       <use x="63.623047" xlink:href="#DejaVuSans-30"/>
       <use x="127.246094" xlink:href="#DejaVuSans-30"/>
      </g>
     </g>
    </g>
    <g id="xtick_6">
     <g id="line2d_11">
      <path clip-path="url(#p1a4fc0c5e1)" d="M 373.198015 239.758125 
L 373.198015 22.318125 
" style="fill:none;stroke:#ffffff;stroke-linecap:round;stroke-width:0.8;"/>
     </g>
     <g id="line2d_12"/>
     <g id="text_6">
      <!-- 500 -->
      <g style="fill:#262626;" transform="translate(363.654265 250.856563)scale(0.1 -0.1)">
       <defs>
        <path d="M 691 4666 
L 3169 4666 
L 3169 4134 
L 1269 4134 
L 1269 2991 
Q 1406 3038 1543 3061 
Q 1681 3084 1819 3084 
Q 2600 3084 3056 2656 
Q 3513 2228 3513 1497 
Q 3513 744 3044 326 
Q 2575 -91 1722 -91 
Q 1428 -91 1123 -41 
Q 819 9 494 109 
L 494 744 
Q 775 591 1075 516 
Q 1375 441 1709 441 
Q 2250 441 2565 725 
Q 2881 1009 2881 1497 
Q 2881 1984 2565 2268 
Q 2250 2553 1709 2553 
Q 1456 2553 1204 2497 
Q 953 2441 691 2322 
L 691 4666 
z
" id="DejaVuSans-35" transform="scale(0.015625)"/>
       </defs>
       <use xlink:href="#DejaVuSans-35"/>
       <use x="63.623047" xlink:href="#DejaVuSans-30"/>
       <use x="127.246094" xlink:href="#DejaVuSans-30"/>
      </g>
     </g>
    </g>
    <g id="text_7">
     <!-- Epoch -->
     <g style="fill:#262626;" transform="translate(205.095313 264.534688)scale(0.1 -0.1)">
      <defs>
       <path d="M 628 4666 
L 3578 4666 
L 3578 4134 
L 1259 4134 
L 1259 2753 
L 3481 2753 
L 3481 2222 
L 1259 2222 
L 1259 531 
L 3634 531 
L 3634 0 
L 628 0 
L 628 4666 
z
" id="DejaVuSans-45" transform="scale(0.015625)"/>
       <path d="M 1159 525 
L 1159 -1331 
L 581 -1331 
L 581 3500 
L 1159 3500 
L 1159 2969 
Q 1341 3281 1617 3432 
Q 1894 3584 2278 3584 
Q 2916 3584 3314 3078 
Q 3713 2572 3713 1747 
Q 3713 922 3314 415 
Q 2916 -91 2278 -91 
Q 1894 -91 1617 61 
Q 1341 213 1159 525 
z
M 3116 1747 
Q 3116 2381 2855 2742 
Q 2594 3103 2138 3103 
Q 1681 3103 1420 2742 
Q 1159 2381 1159 1747 
Q 1159 1113 1420 752 
Q 1681 391 2138 391 
Q 2594 391 2855 752 
Q 3116 1113 3116 1747 
z
" id="DejaVuSans-70" transform="scale(0.015625)"/>
       <path d="M 1959 3097 
Q 1497 3097 1228 2736 
Q 959 2375 959 1747 
Q 959 1119 1226 758 
Q 1494 397 1959 397 
Q 2419 397 2687 759 
Q 2956 1122 2956 1747 
Q 2956 2369 2687 2733 
Q 2419 3097 1959 3097 
z
M 1959 3584 
Q 2709 3584 3137 3096 
Q 3566 2609 3566 1747 
Q 3566 888 3137 398 
Q 2709 -91 1959 -91 
Q 1206 -91 779 398 
Q 353 888 353 1747 
Q 353 2609 779 3096 
Q 1206 3584 1959 3584 
z
" id="DejaVuSans-6f" transform="scale(0.015625)"/>
       <path d="M 3122 3366 
L 3122 2828 
Q 2878 2963 2633 3030 
Q 2388 3097 2138 3097 
Q 1578 3097 1268 2742 
Q 959 2388 959 1747 
Q 959 1106 1268 751 
Q 1578 397 2138 397 
Q 2388 397 2633 464 
Q 2878 531 3122 666 
L 3122 134 
Q 2881 22 2623 -34 
Q 2366 -91 2075 -91 
Q 1284 -91 818 406 
Q 353 903 353 1747 
Q 353 2603 823 3093 
Q 1294 3584 2113 3584 
Q 2378 3584 2631 3529 
Q 2884 3475 3122 3366 
z
" id="DejaVuSans-63" transform="scale(0.015625)"/>
       <path d="M 3513 2113 
L 3513 0 
L 2938 0 
L 2938 2094 
Q 2938 2591 2744 2837 
Q 2550 3084 2163 3084 
Q 1697 3084 1428 2787 
Q 1159 2491 1159 1978 
L 1159 0 
L 581 0 
L 581 4863 
L 1159 4863 
L 1159 2956 
Q 1366 3272 1645 3428 
Q 1925 3584 2291 3584 
Q 2894 3584 3203 3211 
Q 3513 2838 3513 2113 
z
" id="DejaVuSans-68" transform="scale(0.015625)"/>
      </defs>
      <use xlink:href="#DejaVuSans-45"/>
      <use x="63.183594" xlink:href="#DejaVuSans-70"/>
      <use x="126.660156" xlink:href="#DejaVuSans-6f"/>
      <use x="187.841797" xlink:href="#DejaVuSans-63"/>
      <use x="242.822266" xlink:href="#DejaVuSans-68"/>
     </g>
    </g>
   </g>
   <g id="matplotlib.axis_2">
    <g id="ytick_1">
     <g id="line2d_13">
      <path clip-path="url(#p1a4fc0c5e1)" d="M 53.00625 233.223329 
L 387.80625 233.223329 
" style="fill:none;stroke:#ffffff;stroke-linecap:round;stroke-width:0.8;"/>
     </g>
     <g id="line2d_14"/>
     <g id="text_8">
      <!-- 0.000 -->
      <g style="fill:#262626;" transform="translate(20.878125 237.022548)scale(0.1 -0.1)">
       <defs>
        <path d="M 684 794 
L 1344 794 
L 1344 0 
L 684 0 
L 684 794 
z
" id="DejaVuSans-2e" transform="scale(0.015625)"/>
       </defs>
       <use xlink:href="#DejaVuSans-30"/>
       <use x="63.623047" xlink:href="#DejaVuSans-2e"/>
       <use x="95.410156" xlink:href="#DejaVuSans-30"/>
       <use x="159.033203" xlink:href="#DejaVuSans-30"/>
       <use x="222.65625" xlink:href="#DejaVuSans-30"/>
      </g>
     </g>
    </g>
    <g id="ytick_2">
     <g id="line2d_15">
      <path clip-path="url(#p1a4fc0c5e1)" d="M 53.00625 207.586087 
L 387.80625 207.586087 
" style="fill:none;stroke:#ffffff;stroke-linecap:round;stroke-width:0.8;"/>
     </g>
     <g id="line2d_16"/>
     <g id="text_9">
      <!-- 0.005 -->
      <g style="fill:#262626;" transform="translate(20.878125 211.385306)scale(0.1 -0.1)">
       <use xlink:href="#DejaVuSans-30"/>
       <use x="63.623047" xlink:href="#DejaVuSans-2e"/>
       <use x="95.410156" xlink:href="#DejaVuSans-30"/>
       <use x="159.033203" xlink:href="#DejaVuSans-30"/>
       <use x="222.65625" xlink:href="#DejaVuSans-35"/>
      </g>
     </g>
    </g>
    <g id="ytick_3">
     <g id="line2d_17">
      <path clip-path="url(#p1a4fc0c5e1)" d="M 53.00625 181.948845 
L 387.80625 181.948845 
" style="fill:none;stroke:#ffffff;stroke-linecap:round;stroke-width:0.8;"/>
     </g>
     <g id="line2d_18"/>
     <g id="text_10">
      <!-- 0.010 -->
      <g style="fill:#262626;" transform="translate(20.878125 185.748063)scale(0.1 -0.1)">
       <use xlink:href="#DejaVuSans-30"/>
       <use x="63.623047" xlink:href="#DejaVuSans-2e"/>
       <use x="95.410156" xlink:href="#DejaVuSans-30"/>
       <use x="159.033203" xlink:href="#DejaVuSans-31"/>
       <use x="222.65625" xlink:href="#DejaVuSans-30"/>
      </g>
     </g>
    </g>
    <g id="ytick_4">
     <g id="line2d_19">
      <path clip-path="url(#p1a4fc0c5e1)" d="M 53.00625 156.311602 
L 387.80625 156.311602 
" style="fill:none;stroke:#ffffff;stroke-linecap:round;stroke-width:0.8;"/>
     </g>
     <g id="line2d_20"/>
     <g id="text_11">
      <!-- 0.015 -->
      <g style="fill:#262626;" transform="translate(20.878125 160.110821)scale(0.1 -0.1)">
       <use xlink:href="#DejaVuSans-30"/>
       <use x="63.623047" xlink:href="#DejaVuSans-2e"/>
       <use x="95.410156" xlink:href="#DejaVuSans-30"/>
       <use x="159.033203" xlink:href="#DejaVuSans-31"/>
       <use x="222.65625" xlink:href="#DejaVuSans-35"/>
      </g>
     </g>
    </g>
    <g id="ytick_5">
     <g id="line2d_21">
      <path clip-path="url(#p1a4fc0c5e1)" d="M 53.00625 130.67436 
L 387.80625 130.67436 
" style="fill:none;stroke:#ffffff;stroke-linecap:round;stroke-width:0.8;"/>
     </g>
     <g id="line2d_22"/>
     <g id="text_12">
      <!-- 0.020 -->
      <g style="fill:#262626;" transform="translate(20.878125 134.473579)scale(0.1 -0.1)">
       <use xlink:href="#DejaVuSans-30"/>
       <use x="63.623047" xlink:href="#DejaVuSans-2e"/>
       <use x="95.410156" xlink:href="#DejaVuSans-30"/>
       <use x="159.033203" xlink:href="#DejaVuSans-32"/>
       <use x="222.65625" xlink:href="#DejaVuSans-30"/>
      </g>
     </g>
    </g>
    <g id="ytick_6">
     <g id="line2d_23">
      <path clip-path="url(#p1a4fc0c5e1)" d="M 53.00625 105.037118 
L 387.80625 105.037118 
" style="fill:none;stroke:#ffffff;stroke-linecap:round;stroke-width:0.8;"/>
     </g>
     <g id="line2d_24"/>
     <g id="text_13">
      <!-- 0.025 -->
      <g style="fill:#262626;" transform="translate(20.878125 108.836337)scale(0.1 -0.1)">
       <use xlink:href="#DejaVuSans-30"/>
       <use x="63.623047" xlink:href="#DejaVuSans-2e"/>
       <use x="95.410156" xlink:href="#DejaVuSans-30"/>
       <use x="159.033203" xlink:href="#DejaVuSans-32"/>
       <use x="222.65625" xlink:href="#DejaVuSans-35"/>
      </g>
     </g>
    </g>
    <g id="ytick_7">
     <g id="line2d_25">
      <path clip-path="url(#p1a4fc0c5e1)" d="M 53.00625 79.399876 
L 387.80625 79.399876 
" style="fill:none;stroke:#ffffff;stroke-linecap:round;stroke-width:0.8;"/>
     </g>
     <g id="line2d_26"/>
     <g id="text_14">
      <!-- 0.030 -->
      <g style="fill:#262626;" transform="translate(20.878125 83.199094)scale(0.1 -0.1)">
       <use xlink:href="#DejaVuSans-30"/>
       <use x="63.623047" xlink:href="#DejaVuSans-2e"/>
       <use x="95.410156" xlink:href="#DejaVuSans-30"/>
       <use x="159.033203" xlink:href="#DejaVuSans-33"/>
       <use x="222.65625" xlink:href="#DejaVuSans-30"/>
      </g>
     </g>
    </g>
    <g id="ytick_8">
     <g id="line2d_27">
      <path clip-path="url(#p1a4fc0c5e1)" d="M 53.00625 53.762633 
L 387.80625 53.762633 
" style="fill:none;stroke:#ffffff;stroke-linecap:round;stroke-width:0.8;"/>
     </g>
     <g id="line2d_28"/>
     <g id="text_15">
      <!-- 0.035 -->
      <g style="fill:#262626;" transform="translate(20.878125 57.561852)scale(0.1 -0.1)">
       <use xlink:href="#DejaVuSans-30"/>
       <use x="63.623047" xlink:href="#DejaVuSans-2e"/>
       <use x="95.410156" xlink:href="#DejaVuSans-30"/>
       <use x="159.033203" xlink:href="#DejaVuSans-33"/>
       <use x="222.65625" xlink:href="#DejaVuSans-35"/>
      </g>
     </g>
    </g>
    <g id="ytick_9">
     <g id="line2d_29">
      <path clip-path="url(#p1a4fc0c5e1)" d="M 53.00625 28.125391 
L 387.80625 28.125391 
" style="fill:none;stroke:#ffffff;stroke-linecap:round;stroke-width:0.8;"/>
     </g>
     <g id="line2d_30"/>
     <g id="text_16">
      <!-- 0.040 -->
      <g style="fill:#262626;" transform="translate(20.878125 31.92461)scale(0.1 -0.1)">
       <use xlink:href="#DejaVuSans-30"/>
       <use x="63.623047" xlink:href="#DejaVuSans-2e"/>
       <use x="95.410156" xlink:href="#DejaVuSans-30"/>
       <use x="159.033203" xlink:href="#DejaVuSans-34"/>
       <use x="222.65625" xlink:href="#DejaVuSans-30"/>
      </g>
     </g>
    </g>
    <g id="text_17">
     <!-- Test Dataset Loss -->
     <g style="fill:#262626;" transform="translate(14.798438 174.608438)rotate(-90)scale(0.1 -0.1)">
      <defs>
       <path d="M -19 4666 
L 3928 4666 
L 3928 4134 
L 2272 4134 
L 2272 0 
L 1638 0 
L 1638 4134 
L -19 4134 
L -19 4666 
z
" id="DejaVuSans-54" transform="scale(0.015625)"/>
       <path d="M 3597 1894 
L 3597 1613 
L 953 1613 
Q 991 1019 1311 708 
Q 1631 397 2203 397 
Q 2534 397 2845 478 
Q 3156 559 3463 722 
L 3463 178 
Q 3153 47 2828 -22 
Q 2503 -91 2169 -91 
Q 1331 -91 842 396 
Q 353 884 353 1716 
Q 353 2575 817 3079 
Q 1281 3584 2069 3584 
Q 2775 3584 3186 3129 
Q 3597 2675 3597 1894 
z
M 3022 2063 
Q 3016 2534 2758 2815 
Q 2500 3097 2075 3097 
Q 1594 3097 1305 2825 
Q 1016 2553 972 2059 
L 3022 2063 
z
" id="DejaVuSans-65" transform="scale(0.015625)"/>
       <path d="M 2834 3397 
L 2834 2853 
Q 2591 2978 2328 3040 
Q 2066 3103 1784 3103 
Q 1356 3103 1142 2972 
Q 928 2841 928 2578 
Q 928 2378 1081 2264 
Q 1234 2150 1697 2047 
L 1894 2003 
Q 2506 1872 2764 1633 
Q 3022 1394 3022 966 
Q 3022 478 2636 193 
Q 2250 -91 1575 -91 
Q 1294 -91 989 -36 
Q 684 19 347 128 
L 347 722 
Q 666 556 975 473 
Q 1284 391 1588 391 
Q 1994 391 2212 530 
Q 2431 669 2431 922 
Q 2431 1156 2273 1281 
Q 2116 1406 1581 1522 
L 1381 1569 
Q 847 1681 609 1914 
Q 372 2147 372 2553 
Q 372 3047 722 3315 
Q 1072 3584 1716 3584 
Q 2034 3584 2315 3537 
Q 2597 3491 2834 3397 
z
" id="DejaVuSans-73" transform="scale(0.015625)"/>
       <path d="M 1172 4494 
L 1172 3500 
L 2356 3500 
L 2356 3053 
L 1172 3053 
L 1172 1153 
Q 1172 725 1289 603 
Q 1406 481 1766 481 
L 2356 481 
L 2356 0 
L 1766 0 
Q 1100 0 847 248 
Q 594 497 594 1153 
L 594 3053 
L 172 3053 
L 172 3500 
L 594 3500 
L 594 4494 
L 1172 4494 
z
" id="DejaVuSans-74" transform="scale(0.015625)"/>
       <path id="DejaVuSans-20" transform="scale(0.015625)"/>
       <path d="M 1259 4147 
L 1259 519 
L 2022 519 
Q 2988 519 3436 956 
Q 3884 1394 3884 2338 
Q 3884 3275 3436 3711 
Q 2988 4147 2022 4147 
L 1259 4147 
z
M 628 4666 
L 1925 4666 
Q 3281 4666 3915 4102 
Q 4550 3538 4550 2338 
Q 4550 1131 3912 565 
Q 3275 0 1925 0 
L 628 0 
L 628 4666 
z
" id="DejaVuSans-44" transform="scale(0.015625)"/>
       <path d="M 2194 1759 
Q 1497 1759 1228 1600 
Q 959 1441 959 1056 
Q 959 750 1161 570 
Q 1363 391 1709 391 
Q 2188 391 2477 730 
Q 2766 1069 2766 1631 
L 2766 1759 
L 2194 1759 
z
M 3341 1997 
L 3341 0 
L 2766 0 
L 2766 531 
Q 2569 213 2275 61 
Q 1981 -91 1556 -91 
Q 1019 -91 701 211 
Q 384 513 384 1019 
Q 384 1609 779 1909 
Q 1175 2209 1959 2209 
L 2766 2209 
L 2766 2266 
Q 2766 2663 2505 2880 
Q 2244 3097 1772 3097 
Q 1472 3097 1187 3025 
Q 903 2953 641 2809 
L 641 3341 
Q 956 3463 1253 3523 
Q 1550 3584 1831 3584 
Q 2591 3584 2966 3190 
Q 3341 2797 3341 1997 
z
" id="DejaVuSans-61" transform="scale(0.015625)"/>
       <path d="M 628 4666 
L 1259 4666 
L 1259 531 
L 3531 531 
L 3531 0 
L 628 0 
L 628 4666 
z
" id="DejaVuSans-4c" transform="scale(0.015625)"/>
      </defs>
      <use xlink:href="#DejaVuSans-54"/>
      <use x="44.083984" xlink:href="#DejaVuSans-65"/>
      <use x="105.607422" xlink:href="#DejaVuSans-73"/>
      <use x="157.707031" xlink:href="#DejaVuSans-74"/>
      <use x="196.916016" xlink:href="#DejaVuSans-20"/>
      <use x="228.703125" xlink:href="#DejaVuSans-44"/>
      <use x="305.705078" xlink:href="#DejaVuSans-61"/>
      <use x="366.984375" xlink:href="#DejaVuSans-74"/>
      <use x="406.193359" xlink:href="#DejaVuSans-61"/>
      <use x="467.472656" xlink:href="#DejaVuSans-73"/>
      <use x="519.572266" xlink:href="#DejaVuSans-65"/>
      <use x="581.095703" xlink:href="#DejaVuSans-74"/>
      <use x="620.304688" xlink:href="#DejaVuSans-20"/>
      <use x="652.091797" xlink:href="#DejaVuSans-4c"/>
      <use x="706.054688" xlink:href="#DejaVuSans-6f"/>
      <use x="767.236328" xlink:href="#DejaVuSans-73"/>
      <use x="819.335938" xlink:href="#DejaVuSans-73"/>
     </g>
    </g>
   </g>
   <g id="line2d_31">
    <path clip-path="url(#p1a4fc0c5e1)" d="M 68.224432 92.696103 
L 68.834379 93.11823 
L 69.444326 92.955657 
L 70.054273 92.999477 
L 70.66422 92.390013 
L 71.274168 92.354517 
L 71.884115 92.449534 
L 72.494062 92.678771 
L 73.104009 92.422132 
L 73.713956 92.585565 
L 74.323903 92.246974 
L 74.933851 92.99258 
L 75.543798 93.289211 
L 76.153745 92.341521 
L 76.763692 92.621139 
L 77.373639 93.493933 
L 79.203481 98.375564 
L 79.813428 99.555181 
L 80.423375 102.302668 
L 81.033322 102.646389 
L 81.643269 106.069878 
L 82.253217 106.28323 
L 82.863164 106.891347 
L 84.083058 102.489723 
L 84.693005 105.926733 
L 85.9129 103.841215 
L 87.132794 108.642327 
L 88.352688 103.654613 
L 88.962635 106.292289 
L 89.572583 99.710672 
L 90.18253 104.79743 
L 90.792477 96.992644 
L 91.402424 101.204402 
L 92.012371 101.563162 
L 92.622319 89.197391 
L 93.232266 101.306194 
L 93.842213 97.617337 
L 94.45216 99.158664 
L 95.062107 97.497386 
L 95.672054 96.65015 
L 96.282002 99.234364 
L 96.891949 93.115877 
L 97.501896 91.000344 
L 98.111843 91.522621 
L 98.72179 94.478067 
L 99.331737 89.136776 
L 99.941685 84.969382 
L 100.551632 76.686904 
L 101.161579 91.762223 
L 101.771526 91.731391 
L 102.381473 92.122676 
L 102.99142 86.042332 
L 103.601368 82.324997 
L 104.211315 85.979699 
L 104.821262 71.978004 
L 105.431209 83.252569 
L 106.041156 80.929969 
L 106.651103 76.867107 
L 107.261051 83.212095 
L 107.870998 69.658487 
L 108.480945 72.507165 
L 109.090892 73.872655 
L 109.700839 79.343546 
L 110.310786 81.007863 
L 110.920734 84.376084 
L 111.530681 77.588625 
L 112.140628 74.617644 
L 112.750575 75.636074 
L 113.360522 69.124898 
L 113.970469 72.947949 
L 114.580417 65.423276 
L 115.190364 78.964242 
L 115.800311 69.225846 
L 116.410258 76.50733 
L 117.020205 62.082385 
L 117.630152 72.853951 
L 118.2401 78.02147 
L 118.850047 67.81179 
L 119.459994 72.14332 
L 120.069941 70.482423 
L 120.679888 71.8727 
L 121.289835 67.623559 
L 121.899783 74.536536 
L 122.50973 65.274579 
L 123.119677 60.720916 
L 123.729624 61.682616 
L 124.339571 68.313563 
L 124.949518 67.803996 
L 125.559466 64.172466 
L 126.169413 63.903408 
L 126.77936 64.757879 
L 127.389307 64.953687 
L 127.999254 57.525752 
L 128.609201 60.449646 
L 129.219149 59.026589 
L 129.829096 72.75934 
L 130.439043 69.707076 
L 131.04899 58.742455 
L 131.658937 65.490483 
L 132.268884 65.043796 
L 132.878832 62.327009 
L 133.488779 62.811292 
L 134.098726 62.4139 
L 134.708673 67.51702 
L 135.31862 60.866867 
L 135.928567 66.245896 
L 136.538515 61.542306 
L 137.148462 61.018705 
L 137.758409 63.843559 
L 138.368356 63.31184 
L 138.978303 62.146611 
L 139.58825 62.172836 
L 140.198198 67.478215 
L 140.808145 63.236191 
L 141.418092 62.32638 
L 142.028039 60.720706 
L 142.637986 64.520259 
L 143.247933 65.242225 
L 143.857881 66.805428 
L 144.467828 55.204141 
L 145.077775 56.420116 
L 145.687722 51.27479 
L 146.297669 62.194629 
L 146.907616 61.694599 
L 147.517564 64.610861 
L 148.127511 57.981094 
L 148.737458 58.098118 
L 149.347405 62.671586 
L 149.957352 64.6493 
L 150.567299 58.669384 
L 151.177247 61.128823 
L 151.787194 56.635624 
L 153.007088 66.863279 
L 153.617035 63.778034 
L 154.226982 55.492029 
L 155.446877 59.107862 
L 156.056824 53.829556 
L 156.666771 60.728798 
L 157.276718 54.798765 
L 157.886665 62.403394 
L 158.496613 60.199844 
L 159.10656 65.596323 
L 159.716507 62.378546 
L 160.326454 65.653572 
L 160.936401 61.00846 
L 161.546348 58.754958 
L 162.156296 53.472122 
L 162.766243 59.96637 
L 163.37619 60.307047 
L 163.986137 59.099602 
L 164.596084 55.701644 
L 165.206031 60.089902 
L 165.815979 65.661659 
L 166.425926 61.835952 
L 167.035873 43.250727 
L 167.64582 60.10256 
L 168.255767 50.954974 
L 168.865714 57.948322 
L 169.475662 60.343062 
L 170.085609 60.119106 
L 170.695556 64.913598 
L 171.305503 60.504173 
L 171.91545 57.324163 
L 172.525397 62.636868 
L 173.135345 63.933932 
L 173.745292 51.630472 
L 174.355239 45.639778 
L 174.965186 59.116304 
L 175.575133 58.46036 
L 176.18508 58.670443 
L 176.795028 59.586009 
L 177.404975 61.838646 
L 178.014922 50.010082 
L 178.624869 60.11357 
L 179.234816 55.077104 
L 179.844763 60.171014 
L 180.454711 58.954602 
L 181.064658 62.346605 
L 181.674605 52.628268 
L 182.284552 57.953064 
L 182.894499 53.618646 
L 183.504446 59.969743 
L 184.114394 58.040111 
L 184.724341 59.074386 
L 185.334288 56.976274 
L 185.944235 63.517349 
L 186.554182 54.669057 
L 187.164129 59.218197 
L 187.774077 53.12803 
L 188.384024 60.755233 
L 189.603918 51.337422 
L 190.823812 64.258666 
L 191.43376 61.516272 
L 192.043707 56.477326 
L 192.653654 59.520904 
L 193.263601 63.385613 
L 193.873548 57.580695 
L 194.483495 62.34059 
L 195.093443 58.08898 
L 195.70339 56.895817 
L 196.313337 57.098349 
L 196.923284 51.448071 
L 197.533231 49.992185 
L 198.143178 58.704 
L 198.753126 56.790179 
L 199.363073 56.581007 
L 200.582967 58.697324 
L 201.192914 60.361274 
L 203.022756 57.435314 
L 203.632703 48.446662 
L 204.24265 47.060578 
L 204.852597 55.863503 
L 205.462544 58.179011 
L 206.072492 57.367758 
L 206.682439 59.044508 
L 207.292386 56.674454 
L 207.902333 56.744063 
L 208.51228 55.638945 
L 209.122227 61.90856 
L 209.732175 57.486538 
L 210.342122 59.47685 
L 211.562016 59.924114 
L 212.171963 56.781107 
L 212.78191 56.091583 
L 213.391858 52.154945 
L 214.001805 54.301194 
L 214.611752 54.173165 
L 215.221699 58.967257 
L 215.831646 60.200843 
L 216.441593 57.090771 
L 217.051541 58.346644 
L 217.661488 57.71914 
L 218.271435 58.784323 
L 218.881382 55.233706 
L 219.491329 52.963076 
L 220.101276 58.689233 
L 220.711224 59.949062 
L 221.321171 62.280341 
L 221.931118 58.577215 
L 222.541065 58.666927 
L 223.151012 54.409841 
L 223.760959 58.820745 
L 224.370907 53.020956 
L 224.980854 37.441691 
L 225.590801 56.503883 
L 226.200748 53.607448 
L 226.810695 55.82425 
L 227.420642 57.591672 
L 228.03059 57.76073 
L 228.640537 56.465066 
L 229.250484 54.378085 
L 229.860431 56.643246 
L 230.470378 56.777677 
L 231.080325 54.328247 
L 231.690273 49.859581 
L 232.30022 57.721316 
L 232.910167 59.766845 
L 233.520114 57.179501 
L 234.130061 56.481499 
L 234.740008 57.067626 
L 235.349956 59.321031 
L 235.959903 55.571765 
L 236.56985 58.266403 
L 237.179797 54.292888 
L 237.789744 52.622692 
L 238.399691 52.956479 
L 239.009639 59.209513 
L 239.619586 58.075576 
L 240.229533 58.597009 
L 240.83948 58.25362 
L 241.449427 59.132554 
L 242.059374 57.96832 
L 242.669322 58.961778 
L 243.279269 53.765171 
L 243.889216 54.95518 
L 244.499163 60.001541 
L 245.10911 58.650788 
L 245.719057 54.653431 
L 246.329005 58.893174 
L 246.938952 58.578589 
L 247.548899 59.921334 
L 248.158846 57.612657 
L 248.768793 58.337903 
L 249.37874 32.201761 
L 249.988688 52.661793 
L 250.598635 52.028755 
L 251.208582 56.276802 
L 251.818529 56.47725 
L 252.428476 56.403124 
L 253.038423 57.722334 
L 254.258318 55.142496 
L 254.868265 56.112457 
L 256.088159 56.681604 
L 256.698106 54.776111 
L 257.308054 51.420772 
L 257.918001 51.915471 
L 258.527948 57.729921 
L 259.137895 56.500466 
L 259.747842 57.814631 
L 260.357789 57.289563 
L 260.967737 55.306684 
L 261.577684 53.780597 
L 262.187631 56.589058 
L 262.797578 52.556554 
L 263.407525 52.367535 
L 264.017472 38.503552 
L 264.62742 45.884058 
L 265.237367 49.021431 
L 265.847314 54.179144 
L 266.457261 54.738315 
L 267.067208 54.128572 
L 267.677155 53.707765 
L 268.287103 54.567776 
L 268.89705 54.322415 
L 269.506997 52.608569 
L 270.116944 57.871129 
L 270.726891 49.305931 
L 271.336838 53.750207 
L 271.946786 53.501333 
L 272.556733 53.093801 
L 273.16668 55.893549 
L 273.776627 53.502396 
L 274.386574 54.136943 
L 274.996521 53.231835 
L 275.606469 54.314479 
L 276.216416 54.774607 
L 277.43631 52.101032 
L 278.046257 52.778558 
L 278.656204 54.42152 
L 279.266152 42.679747 
L 279.876099 49.722459 
L 280.486046 40.618361 
L 281.095993 53.229754 
L 281.70594 54.235861 
L 282.315887 55.901313 
L 282.925835 54.505451 
L 283.535782 54.688996 
L 284.145729 54.630373 
L 284.755676 52.99896 
L 285.365623 53.609273 
L 285.97557 51.120486 
L 286.585518 49.721827 
L 287.195465 54.322938 
L 287.805412 52.102518 
L 288.415359 52.659479 
L 289.025306 50.313559 
L 289.635253 54.677844 
L 290.245201 52.992789 
L 290.855148 46.381518 
L 291.465095 47.861913 
L 292.075042 50.99854 
L 292.684989 55.954482 
L 293.904884 52.320371 
L 294.514831 53.653363 
L 295.124778 52.706593 
L 295.734725 53.873162 
L 296.344672 52.143157 
L 296.954619 52.625119 
L 297.564567 50.480203 
L 298.174514 44.042314 
L 298.784461 47.917134 
L 300.004355 59.466045 
L 300.614302 56.124906 
L 301.22425 56.202093 
L 301.834197 54.586008 
L 302.444144 54.797126 
L 303.054091 54.486918 
L 303.664038 53.579991 
L 304.273985 53.408266 
L 304.883933 55.662423 
L 305.49388 53.821891 
L 306.103827 53.462246 
L 306.713774 58.720117 
L 307.323721 56.456742 
L 307.933668 61.340387 
L 308.543616 46.346701 
L 309.153563 51.703724 
L 309.76351 55.817258 
L 310.373457 56.136208 
L 310.983404 54.697086 
L 311.593351 55.519505 
L 312.203299 55.052825 
L 312.813246 52.48719 
L 314.03314 53.503163 
L 314.643087 51.397574 
L 315.253034 54.083863 
L 315.862982 55.012588 
L 316.472929 44.04742 
L 317.082876 49.575831 
L 318.30277 56.151707 
L 318.912717 53.365796 
L 319.522665 54.814061 
L 320.132612 52.909183 
L 320.742559 53.733571 
L 321.352506 53.90627 
L 321.962453 52.431037 
L 322.5724 53.0487 
L 323.182348 54.645528 
L 323.792295 55.782091 
L 324.402242 53.617215 
L 325.012189 35.219457 
L 325.622136 54.323916 
L 326.232083 53.889498 
L 326.842031 53.78363 
L 327.451978 51.639432 
L 328.061925 52.38463 
L 329.281819 52.499983 
L 329.891766 53.041989 
L 330.501714 51.028331 
L 331.111661 53.014351 
L 331.721608 51.791756 
L 332.331555 52.001873 
L 332.941502 53.487587 
L 333.551449 52.468079 
L 334.771344 55.954431 
L 335.381291 48.058085 
L 335.991238 55.573197 
L 336.601185 55.957709 
L 337.211132 54.936546 
L 338.431027 54.677501 
L 339.040974 53.805608 
L 339.650921 53.381896 
L 340.260868 53.358117 
L 340.870815 52.432922 
L 341.480763 53.796433 
L 342.09071 53.059554 
L 342.700657 51.29838 
L 343.310604 56.296835 
L 343.920551 55.085039 
L 344.530498 56.567644 
L 345.140446 57.224818 
L 345.750393 46.879169 
L 346.36034 55.69969 
L 346.970287 53.534689 
L 347.580234 55.559854 
L 348.190181 53.930145 
L 348.800129 54.464872 
L 349.410076 53.933919 
L 350.020023 52.892326 
L 350.62997 54.682984 
L 351.239917 52.364648 
L 351.849865 53.890896 
L 352.459812 53.223403 
L 353.069759 54.530629 
L 353.679706 48.710309 
L 354.289653 51.385828 
L 354.8996 48.913431 
L 355.509548 54.927911 
L 356.119495 53.920999 
L 356.729442 54.870976 
L 357.339389 53.482262 
L 358.559283 53.331849 
L 359.169231 54.376178 
L 359.779178 54.954367 
L 360.389125 53.422055 
L 360.999072 54.934804 
L 361.609019 55.162452 
L 362.218966 56.245592 
L 363.438861 56.544418 
L 364.048808 52.491459 
L 364.658755 38.2463 
L 365.268702 49.933606 
L 365.878649 49.881042 
L 366.488597 54.383837 
L 367.098544 55.358361 
L 367.708491 54.741524 
L 368.318438 55.45822 
L 368.928385 53.630599 
L 369.538332 54.245545 
L 370.14828 53.715827 
L 370.758227 54.302041 
L 371.368174 52.764342 
L 371.978121 54.319215 
L 372.588068 58.052017 
L 372.588068 58.052017 
" style="fill:none;stroke:#0173b2;stroke-linecap:round;stroke-width:1.5;"/>
   </g>
   <g id="line2d_32">
    <path clip-path="url(#p1a4fc0c5e1)" d="M 68.224432 92.850817 
L 68.834379 190.461623 
L 69.444326 208.217162 
L 70.66422 211.775504 
L 71.274168 217.029633 
L 71.884115 217.812054 
L 72.494062 218.274195 
L 73.104009 219.048299 
L 73.713956 218.461223 
L 74.323903 219.405576 
L 74.933851 219.040943 
L 75.543798 219.960377 
L 76.153745 220.360413 
L 76.763692 220.296372 
L 77.373639 220.391709 
L 77.983586 220.88594 
L 78.593534 220.744066 
L 79.203481 221.125663 
L 79.813428 221.908043 
L 81.033322 220.766737 
L 81.643269 220.95409 
L 82.863164 222.568285 
L 84.083058 222.046108 
L 84.693005 222.490217 
L 85.302952 222.285767 
L 85.9129 223.075938 
L 86.522847 222.458834 
L 87.132794 222.865902 
L 87.742741 222.883315 
L 88.352688 223.056366 
L 88.962635 222.71107 
L 89.572583 223.01648 
L 90.18253 222.673059 
L 90.792477 223.054577 
L 91.402424 222.897383 
L 92.012371 223.315958 
L 92.622319 223.87757 
L 93.232266 223.309277 
L 93.842213 222.928943 
L 94.45216 223.501111 
L 95.062107 223.169261 
L 95.672054 223.202953 
L 96.891949 223.886333 
L 97.501896 223.624694 
L 98.111843 223.883106 
L 98.72179 223.787823 
L 99.331737 223.903947 
L 99.941685 223.338421 
L 100.551632 223.462794 
L 101.161579 223.466413 
L 101.771526 223.764214 
L 102.381473 223.912199 
L 102.99142 223.534654 
L 103.601368 224.072254 
L 104.211315 223.760244 
L 104.821262 224.334831 
L 105.431209 224.140377 
L 106.041156 224.233651 
L 106.651103 224.002655 
L 107.261051 221.363696 
L 107.870998 223.794231 
L 108.480945 223.995128 
L 109.090892 223.832583 
L 110.920734 224.576068 
L 111.530681 224.258971 
L 112.140628 224.249628 
L 112.750575 223.49255 
L 113.360522 224.215564 
L 114.580417 223.791264 
L 115.190364 221.398028 
L 115.800311 224.53261 
L 116.410258 224.36999 
L 117.020205 224.362837 
L 117.630152 223.565623 
L 118.2401 224.285449 
L 118.850047 223.818026 
L 119.459994 224.241697 
L 120.069941 223.956038 
L 120.679888 224.61943 
L 121.289835 223.982261 
L 121.899783 224.619536 
L 122.50973 224.399305 
L 123.119677 224.557629 
L 123.729624 224.188373 
L 124.339571 224.439435 
L 124.949518 224.489582 
L 125.559466 224.127032 
L 126.169413 224.739176 
L 126.77936 224.434978 
L 127.389307 224.358571 
L 127.999254 223.801308 
L 128.609201 224.737239 
L 129.219149 224.075699 
L 129.829096 224.583023 
L 131.04899 224.431263 
L 131.658937 224.555931 
L 132.268884 224.353437 
L 133.488779 224.673896 
L 134.708673 224.128566 
L 135.31862 224.488747 
L 135.928567 224.465955 
L 136.538515 224.600493 
L 137.148462 224.905832 
L 137.758409 224.314941 
L 138.978303 224.114216 
L 139.58825 223.575183 
L 140.198198 224.707509 
L 140.808145 224.502229 
L 143.247933 224.360823 
L 144.467828 224.68688 
L 145.077775 224.390172 
L 146.297669 224.510875 
L 146.907616 224.503496 
L 147.517564 224.272691 
L 148.127511 224.562228 
L 148.737458 224.701135 
L 149.347405 224.434857 
L 149.957352 224.478006 
L 150.567299 223.998852 
L 151.177247 224.40877 
L 151.787194 224.373585 
L 152.397141 224.512547 
L 153.007088 224.036379 
L 154.226982 224.446847 
L 155.446877 224.478348 
L 156.666771 224.225544 
L 157.276718 224.23492 
L 158.496613 224.580763 
L 159.10656 224.297504 
L 159.716507 224.295341 
L 160.326454 223.882378 
L 160.936401 223.843171 
L 161.546348 224.377922 
L 162.156296 224.376877 
L 162.766243 223.804798 
L 163.37619 224.427223 
L 163.986137 224.081478 
L 165.206031 224.122499 
L 165.815979 223.972855 
L 166.425926 224.380434 
L 167.035873 224.531336 
L 167.64582 224.204333 
L 168.255767 224.078641 
L 168.865714 224.28813 
L 169.475662 224.218864 
L 170.085609 224.431018 
L 170.695556 224.017928 
L 171.305503 224.336339 
L 171.91545 223.800152 
L 172.525397 224.54435 
L 173.135345 224.142776 
L 173.745292 224.63788 
L 174.355239 224.105661 
L 175.575133 223.973869 
L 176.18508 223.781436 
L 176.795028 224.474241 
L 177.404975 224.377459 
L 178.014922 223.754375 
L 178.624869 223.79113 
L 179.234816 224.135912 
L 179.844763 224.314008 
L 180.454711 222.207164 
L 181.064658 224.289566 
L 181.674605 224.214368 
L 182.284552 223.832352 
L 182.894499 224.301805 
L 183.504446 224.048128 
L 184.114394 223.928351 
L 185.334288 224.166035 
L 186.554182 223.559453 
L 187.164129 224.008912 
L 187.774077 223.99437 
L 188.993971 223.501126 
L 189.603918 224.193276 
L 190.213865 223.761884 
L 190.823812 223.807452 
L 191.43376 224.201341 
L 192.043707 224.125182 
L 192.653654 223.840319 
L 193.263601 224.083422 
L 194.483495 223.773582 
L 195.093443 224.048533 
L 195.70339 224.021486 
L 196.313337 224.16403 
L 196.923284 223.865387 
L 197.533231 224.153602 
L 198.143178 224.023676 
L 198.753126 223.778512 
L 200.582967 224.03921 
L 201.192914 223.830051 
L 203.022756 224.045741 
L 203.632703 223.923932 
L 204.24265 223.546002 
L 204.852597 223.819927 
L 205.462544 223.741885 
L 206.072492 224.052003 
L 206.682439 223.909672 
L 207.292386 223.494714 
L 208.51228 223.82538 
L 209.122227 223.57411 
L 209.732175 223.92654 
L 210.342122 224.091467 
L 211.562016 223.730207 
L 214.001805 223.670669 
L 214.611752 223.929983 
L 215.221699 223.281241 
L 215.831646 223.664866 
L 217.051541 223.848487 
L 217.661488 223.612926 
L 219.491329 223.845982 
L 220.101276 223.765141 
L 220.711224 223.564379 
L 221.321171 223.784337 
L 221.931118 223.750831 
L 222.541065 223.526722 
L 224.370907 223.890405 
L 225.590801 223.615034 
L 226.200748 223.379603 
L 226.810695 223.523943 
L 227.420642 223.441718 
L 228.03059 223.781369 
L 228.640537 223.676411 
L 229.250484 223.876556 
L 230.470378 223.616733 
L 231.080325 223.74238 
L 232.910167 223.480346 
L 233.520114 223.391253 
L 234.130061 223.455802 
L 234.740008 223.358422 
L 235.349956 223.478695 
L 235.959903 223.758119 
L 237.179797 223.310434 
L 237.789744 223.474596 
L 238.399691 223.30981 
L 239.619586 223.588039 
L 240.229533 223.336005 
L 242.059374 223.391293 
L 242.669322 223.727258 
L 243.279269 223.583339 
L 244.499163 223.634625 
L 245.10911 223.411371 
L 246.329005 223.601182 
L 246.938952 223.362182 
L 247.548899 223.491143 
L 248.158846 223.489935 
L 248.768793 223.642013 
L 249.37874 223.248977 
L 249.988688 223.21909 
L 250.598635 223.557487 
L 251.208582 223.703983 
L 252.428476 223.416502 
L 253.038423 222.94271 
L 253.648371 223.517222 
L 254.258318 223.605842 
L 254.868265 222.883444 
L 255.478212 223.503855 
L 256.088159 223.178665 
L 256.698106 223.572521 
L 257.308054 223.184712 
L 257.918001 223.355572 
L 258.527948 223.130607 
L 259.137895 223.491753 
L 259.747842 223.531485 
L 260.357789 223.323522 
L 260.967737 223.587272 
L 261.577684 223.320524 
L 262.187631 223.460534 
L 262.797578 223.410446 
L 263.407525 223.51927 
L 264.017472 223.394286 
L 265.847314 223.422354 
L 267.067208 223.402613 
L 267.677155 223.554778 
L 268.287103 223.554895 
L 269.506997 223.036598 
L 270.726891 223.097973 
L 271.336838 223.334878 
L 272.556733 223.349888 
L 274.386574 223.144021 
L 274.996521 223.371713 
L 275.606469 223.245026 
L 276.216416 223.389376 
L 278.046257 223.231011 
L 278.656204 222.830695 
L 279.266152 223.271173 
L 280.486046 223.310248 
L 281.095993 223.035969 
L 281.70594 223.331071 
L 282.315887 223.284688 
L 282.925835 223.416446 
L 284.145729 222.991196 
L 285.97557 223.340282 
L 286.585518 223.050845 
L 287.195465 223.284678 
L 287.805412 223.260848 
L 288.415359 223.421054 
L 290.245201 223.238161 
L 290.855148 223.010688 
L 291.465095 223.012872 
L 292.075042 223.149989 
L 292.684989 223.429137 
L 293.294936 223.183828 
L 293.904884 223.295501 
L 294.514831 222.257763 
L 295.124778 223.215766 
L 296.344672 223.353126 
L 297.564567 223.105131 
L 298.174514 223.311723 
L 298.784461 222.936669 
L 299.394408 223.060932 
L 300.004355 223.038995 
L 300.614302 223.268143 
L 301.834197 223.220751 
L 303.054091 223.017685 
L 303.664038 222.632664 
L 304.273985 223.253159 
L 304.883933 223.160838 
L 305.49388 223.274222 
L 306.103827 222.949517 
L 306.713774 222.903404 
L 307.323721 222.974513 
L 307.933668 223.331955 
L 308.543616 223.15654 
L 309.153563 223.121065 
L 309.76351 222.370563 
L 310.373457 223.154548 
L 312.203299 223.011467 
L 312.813246 223.372583 
L 313.423193 223.246003 
L 314.03314 222.948446 
L 315.253034 223.294277 
L 315.862982 223.151241 
L 317.082876 223.101654 
L 317.692823 222.92324 
L 318.30277 222.357074 
L 318.912717 223.152485 
L 319.522665 222.985153 
L 320.742559 222.944026 
L 321.352506 223.15828 
L 322.5724 222.942427 
L 323.182348 223.11614 
L 325.012189 223.079813 
L 325.622136 223.123826 
L 326.232083 223.026041 
L 326.842031 223.206998 
L 327.451978 223.085187 
L 328.061925 223.103696 
L 328.671872 222.833228 
L 329.281819 222.790234 
L 329.891766 223.048819 
L 331.111661 223.165028 
L 331.721608 223.108161 
L 332.331555 223.204659 
L 332.941502 223.004791 
L 334.771344 223.102715 
L 335.381291 222.979761 
L 335.991238 223.059977 
L 337.82108 222.932024 
L 338.431027 223.215492 
L 339.040974 222.61769 
L 339.650921 223.188387 
L 340.260868 223.031671 
L 342.09071 223.185526 
L 342.700657 222.84305 
L 344.530498 223.185629 
L 346.36034 223.067123 
L 346.970287 222.260066 
L 347.580234 222.948071 
L 348.190181 223.084656 
L 348.800129 222.973755 
L 350.020023 223.021132 
L 351.239917 222.737554 
L 351.849865 223.021844 
L 352.459812 223.182259 
L 353.069759 222.899228 
L 353.679706 222.781458 
L 354.289653 223.067706 
L 354.8996 222.873497 
L 355.509548 222.876294 
L 356.119495 223.046996 
L 357.339389 222.985888 
L 357.949336 223.084849 
L 358.559283 222.897118 
L 359.169231 222.965146 
L 359.779178 222.903808 
L 360.389125 223.028163 
L 362.828914 222.889158 
L 363.438861 222.687862 
L 365.268702 223.063708 
L 367.098544 222.990982 
L 368.318438 222.988843 
L 369.538332 223.116153 
L 370.14828 223.047977 
L 370.758227 223.130408 
L 372.588068 223.095818 
L 372.588068 223.095818 
" style="fill:none;stroke:#de8f05;stroke-linecap:round;stroke-width:1.5;"/>
   </g>
   <g id="line2d_33">
    <path clip-path="url(#p1a4fc0c5e1)" d="M 68.224432 93.582698 
L 68.834379 217.951599 
L 69.444326 219.990077 
L 70.054273 221.160566 
L 70.66422 220.937452 
L 71.274168 222.527754 
L 71.884115 222.860252 
L 72.494062 224.037902 
L 73.713956 224.901986 
L 74.323903 225.675463 
L 74.933851 225.186155 
L 75.543798 226.653431 
L 76.153745 226.803297 
L 76.763692 226.429442 
L 78.593534 227.555758 
L 79.203481 227.767743 
L 79.813428 227.816839 
L 80.423375 227.508199 
L 81.033322 228.648885 
L 81.643269 228.61125 
L 82.253217 228.85173 
L 82.863164 228.190213 
L 83.473111 228.208603 
L 84.083058 228.916279 
L 87.742741 229.267557 
L 88.352688 229.106485 
L 89.572583 229.235802 
L 90.18253 229.178854 
L 90.792477 229.605793 
L 91.402424 229.388674 
L 92.012371 229.366158 
L 92.622319 229.585843 
L 93.232266 229.414851 
L 94.45216 229.477228 
L 96.282002 229.24117 
L 96.891949 229.432527 
L 97.501896 229.050602 
L 98.111843 229.518221 
L 99.331737 229.661729 
L 101.161579 229.621703 
L 101.771526 229.322273 
L 102.381473 229.559532 
L 102.99142 229.497132 
L 103.601368 229.694353 
L 104.211315 229.57859 
L 104.821262 229.579901 
L 105.431209 229.72271 
L 106.041156 229.571784 
L 107.261051 229.608316 
L 107.870998 229.743374 
L 108.480945 229.525879 
L 109.700839 229.57233 
L 110.310786 229.686299 
L 110.920734 229.530505 
L 111.530681 229.76181 
L 112.750575 229.614294 
L 113.360522 229.765893 
L 113.970469 229.70931 
L 115.190364 229.776345 
L 115.800311 229.427936 
L 116.410258 229.84158 
L 117.020205 229.514081 
L 117.630152 229.605936 
L 118.2401 229.556526 
L 118.850047 229.765132 
L 120.069941 229.704094 
L 120.679888 229.610117 
L 121.289835 229.284746 
L 122.50973 229.874489 
L 123.729624 229.763272 
L 124.339571 229.730476 
L 124.949518 229.579519 
L 125.559466 229.794073 
L 126.169413 229.726762 
L 126.77936 229.802067 
L 127.389307 229.520398 
L 128.609201 229.867292 
L 129.219149 229.69169 
L 130.439043 229.768898 
L 131.04899 229.493546 
L 131.658937 229.678142 
L 133.488779 229.705948 
L 134.098726 229.454926 
L 134.708673 229.833422 
L 135.928567 229.726545 
L 137.148462 229.8055 
L 138.368356 229.697611 
L 138.978303 229.651975 
L 140.198198 229.772493 
L 140.808145 229.623686 
L 141.418092 229.797789 
L 142.637986 229.791568 
L 145.687722 229.739992 
L 146.907616 229.840678 
L 147.517564 229.573224 
L 148.127511 229.733608 
L 150.567299 229.574324 
L 151.177247 229.791299 
L 152.397141 229.816547 
L 153.007088 229.488781 
L 153.617035 229.541005 
L 154.226982 229.743741 
L 156.056824 229.661997 
L 156.666771 229.728306 
L 157.276718 229.607385 
L 157.886665 229.763715 
L 158.496613 229.666753 
L 159.716507 229.795659 
L 160.936401 229.688212 
L 162.766243 229.740944 
L 163.986137 229.64941 
L 164.596084 229.755897 
L 165.206031 229.637602 
L 166.425926 229.732789 
L 168.255767 229.769398 
L 168.865714 229.572906 
L 169.475662 229.736855 
L 170.085609 229.674214 
L 171.305503 229.734151 
L 171.91545 229.649947 
L 173.135345 229.70415 
L 173.745292 229.411473 
L 174.355239 229.481068 
L 174.965186 229.409507 
L 175.575133 229.588876 
L 176.18508 229.440628 
L 176.795028 229.778898 
L 177.404975 229.60226 
L 178.014922 229.720818 
L 181.674605 229.631632 
L 182.284552 229.751449 
L 182.894499 229.600292 
L 183.504446 229.684364 
L 186.554182 229.471862 
L 187.164129 229.646843 
L 188.993971 229.560365 
L 189.603918 229.207725 
L 190.213865 229.660002 
L 190.823812 229.558837 
L 191.43376 229.647682 
L 192.653654 229.624807 
L 193.263601 229.700483 
L 194.483495 229.59789 
L 195.70339 229.420051 
L 196.313337 229.611997 
L 197.533231 229.68235 
L 199.363073 229.482444 
L 199.97302 229.692053 
L 201.802861 229.580887 
L 203.632703 229.572872 
L 205.462544 229.403303 
L 206.072492 229.64309 
L 206.682439 229.427525 
L 207.292386 229.539761 
L 216.441593 229.462579 
L 217.051541 229.389075 
L 217.661488 229.570553 
L 218.271435 229.489745 
L 218.881382 229.527082 
L 219.491329 229.442858 
L 220.711224 229.523685 
L 221.321171 229.230253 
L 221.931118 229.438216 
L 230.470378 229.432249 
L 231.080325 229.563466 
L 231.690273 229.45219 
L 233.520114 229.50335 
L 234.130061 229.323589 
L 234.740008 229.495331 
L 235.349956 229.377701 
L 239.619586 229.443046 
L 240.229533 229.248688 
L 240.83948 229.529957 
L 242.059374 229.311333 
L 243.889216 229.465305 
L 245.10911 229.26672 
L 246.329005 229.481911 
L 246.938952 229.291234 
L 247.548899 229.45327 
L 250.598635 229.403382 
L 252.428476 229.305897 
L 253.038423 229.215073 
L 254.258318 229.405216 
L 255.478212 229.271447 
L 256.088159 229.394354 
L 257.918001 229.274038 
L 258.527948 229.36531 
L 259.137895 229.286674 
L 260.357789 229.28373 
L 260.967737 229.205077 
L 261.577684 229.403768 
L 262.187631 229.29437 
L 264.017472 229.320663 
L 267.067208 229.324247 
L 268.89705 229.301249 
L 270.726891 229.316877 
L 271.946786 229.278869 
L 274.996521 229.283919 
L 276.216416 229.315352 
L 277.43631 229.217968 
L 278.046257 229.329579 
L 282.925835 229.303882 
L 283.535782 229.31901 
L 284.145729 229.208164 
L 287.195465 229.279525 
L 289.025306 229.245984 
L 290.855148 229.305523 
L 291.465095 229.194193 
L 292.075042 229.290347 
L 293.294936 229.257921 
L 293.904884 229.259996 
L 294.514831 229.130102 
L 297.564567 229.2501 
L 300.614302 229.18291 
L 301.834197 229.218773 
L 303.054091 229.095343 
L 303.664038 229.218636 
L 304.273985 229.129675 
L 304.883933 229.280121 
L 305.49388 229.208257 
L 306.103827 229.299562 
L 307.323721 229.179171 
L 307.933668 229.270909 
L 309.153563 229.213792 
L 311.593351 229.226175 
L 317.082876 229.269521 
L 317.692823 229.137002 
L 318.30277 229.231606 
L 319.522665 229.199952 
L 320.132612 229.259537 
L 321.352506 229.189078 
L 322.5724 229.222153 
L 323.182348 229.162661 
L 323.792295 229.223032 
L 325.622136 229.160162 
L 326.842031 229.233193 
L 343.310604 229.21809 
L 351.849865 229.22554 
L 353.069759 229.121116 
L 354.289653 229.160948 
L 354.8996 229.093909 
L 356.119495 229.188107 
L 357.949336 229.097335 
L 358.559283 229.23209 
L 360.999072 229.077469 
L 362.218966 229.248939 
L 364.048808 229.172549 
L 365.878649 229.161224 
L 367.098544 229.11662 
L 368.318438 229.191167 
L 370.758227 229.122051 
L 371.978121 229.195095 
L 372.588068 229.238908 
L 372.588068 229.238908 
" style="fill:none;stroke:#029e73;stroke-linecap:round;stroke-width:1.5;"/>
   </g>
   <g id="patch_3">
    <path d="M 53.00625 239.758125 
L 53.00625 22.318125 
" style="fill:none;"/>
   </g>
   <g id="patch_4">
    <path d="M 387.80625 239.758125 
L 387.80625 22.318125 
" style="fill:none;"/>
   </g>
   <g id="patch_5">
    <path d="M 53.00625 239.758125 
L 387.80625 239.758125 
" style="fill:none;"/>
   </g>
   <g id="patch_6">
    <path d="M 53.00625 22.318125 
L 387.80625 22.318125 
" style="fill:none;"/>
   </g>
   <g id="text_18">
    <!-- CIFAR-10 Label Distribution Predictor Loss with Laplacian Noise -->
    <g style="fill:#262626;" transform="translate(31.21875 16.318125)scale(0.12 -0.12)">
     <defs>
      <path d="M 4122 4306 
L 4122 3641 
Q 3803 3938 3442 4084 
Q 3081 4231 2675 4231 
Q 1875 4231 1450 3742 
Q 1025 3253 1025 2328 
Q 1025 1406 1450 917 
Q 1875 428 2675 428 
Q 3081 428 3442 575 
Q 3803 722 4122 1019 
L 4122 359 
Q 3791 134 3420 21 
Q 3050 -91 2638 -91 
Q 1578 -91 968 557 
Q 359 1206 359 2328 
Q 359 3453 968 4101 
Q 1578 4750 2638 4750 
Q 3056 4750 3426 4639 
Q 3797 4528 4122 4306 
z
" id="DejaVuSans-43" transform="scale(0.015625)"/>
      <path d="M 628 4666 
L 1259 4666 
L 1259 0 
L 628 0 
L 628 4666 
z
" id="DejaVuSans-49" transform="scale(0.015625)"/>
      <path d="M 628 4666 
L 3309 4666 
L 3309 4134 
L 1259 4134 
L 1259 2759 
L 3109 2759 
L 3109 2228 
L 1259 2228 
L 1259 0 
L 628 0 
L 628 4666 
z
" id="DejaVuSans-46" transform="scale(0.015625)"/>
      <path d="M 2188 4044 
L 1331 1722 
L 3047 1722 
L 2188 4044 
z
M 1831 4666 
L 2547 4666 
L 4325 0 
L 3669 0 
L 3244 1197 
L 1141 1197 
L 716 0 
L 50 0 
L 1831 4666 
z
" id="DejaVuSans-41" transform="scale(0.015625)"/>
      <path d="M 2841 2188 
Q 3044 2119 3236 1894 
Q 3428 1669 3622 1275 
L 4263 0 
L 3584 0 
L 2988 1197 
Q 2756 1666 2539 1819 
Q 2322 1972 1947 1972 
L 1259 1972 
L 1259 0 
L 628 0 
L 628 4666 
L 2053 4666 
Q 2853 4666 3247 4331 
Q 3641 3997 3641 3322 
Q 3641 2881 3436 2590 
Q 3231 2300 2841 2188 
z
M 1259 4147 
L 1259 2491 
L 2053 2491 
Q 2509 2491 2742 2702 
Q 2975 2913 2975 3322 
Q 2975 3731 2742 3939 
Q 2509 4147 2053 4147 
L 1259 4147 
z
" id="DejaVuSans-52" transform="scale(0.015625)"/>
      <path d="M 313 2009 
L 1997 2009 
L 1997 1497 
L 313 1497 
L 313 2009 
z
" id="DejaVuSans-2d" transform="scale(0.015625)"/>
      <path d="M 3116 1747 
Q 3116 2381 2855 2742 
Q 2594 3103 2138 3103 
Q 1681 3103 1420 2742 
Q 1159 2381 1159 1747 
Q 1159 1113 1420 752 
Q 1681 391 2138 391 
Q 2594 391 2855 752 
Q 3116 1113 3116 1747 
z
M 1159 2969 
Q 1341 3281 1617 3432 
Q 1894 3584 2278 3584 
Q 2916 3584 3314 3078 
Q 3713 2572 3713 1747 
Q 3713 922 3314 415 
Q 2916 -91 2278 -91 
Q 1894 -91 1617 61 
Q 1341 213 1159 525 
L 1159 0 
L 581 0 
L 581 4863 
L 1159 4863 
L 1159 2969 
z
" id="DejaVuSans-62" transform="scale(0.015625)"/>
      <path d="M 603 4863 
L 1178 4863 
L 1178 0 
L 603 0 
L 603 4863 
z
" id="DejaVuSans-6c" transform="scale(0.015625)"/>
      <path d="M 603 3500 
L 1178 3500 
L 1178 0 
L 603 0 
L 603 3500 
z
M 603 4863 
L 1178 4863 
L 1178 4134 
L 603 4134 
L 603 4863 
z
" id="DejaVuSans-69" transform="scale(0.015625)"/>
      <path d="M 2631 2963 
Q 2534 3019 2420 3045 
Q 2306 3072 2169 3072 
Q 1681 3072 1420 2755 
Q 1159 2438 1159 1844 
L 1159 0 
L 581 0 
L 581 3500 
L 1159 3500 
L 1159 2956 
Q 1341 3275 1631 3429 
Q 1922 3584 2338 3584 
Q 2397 3584 2469 3576 
Q 2541 3569 2628 3553 
L 2631 2963 
z
" id="DejaVuSans-72" transform="scale(0.015625)"/>
      <path d="M 544 1381 
L 544 3500 
L 1119 3500 
L 1119 1403 
Q 1119 906 1312 657 
Q 1506 409 1894 409 
Q 2359 409 2629 706 
Q 2900 1003 2900 1516 
L 2900 3500 
L 3475 3500 
L 3475 0 
L 2900 0 
L 2900 538 
Q 2691 219 2414 64 
Q 2138 -91 1772 -91 
Q 1169 -91 856 284 
Q 544 659 544 1381 
z
M 1991 3584 
L 1991 3584 
z
" id="DejaVuSans-75" transform="scale(0.015625)"/>
      <path d="M 3513 2113 
L 3513 0 
L 2938 0 
L 2938 2094 
Q 2938 2591 2744 2837 
Q 2550 3084 2163 3084 
Q 1697 3084 1428 2787 
Q 1159 2491 1159 1978 
L 1159 0 
L 581 0 
L 581 3500 
L 1159 3500 
L 1159 2956 
Q 1366 3272 1645 3428 
Q 1925 3584 2291 3584 
Q 2894 3584 3203 3211 
Q 3513 2838 3513 2113 
z
" id="DejaVuSans-6e" transform="scale(0.015625)"/>
      <path d="M 1259 4147 
L 1259 2394 
L 2053 2394 
Q 2494 2394 2734 2622 
Q 2975 2850 2975 3272 
Q 2975 3691 2734 3919 
Q 2494 4147 2053 4147 
L 1259 4147 
z
M 628 4666 
L 2053 4666 
Q 2838 4666 3239 4311 
Q 3641 3956 3641 3272 
Q 3641 2581 3239 2228 
Q 2838 1875 2053 1875 
L 1259 1875 
L 1259 0 
L 628 0 
L 628 4666 
z
" id="DejaVuSans-50" transform="scale(0.015625)"/>
      <path d="M 2906 2969 
L 2906 4863 
L 3481 4863 
L 3481 0 
L 2906 0 
L 2906 525 
Q 2725 213 2448 61 
Q 2172 -91 1784 -91 
Q 1150 -91 751 415 
Q 353 922 353 1747 
Q 353 2572 751 3078 
Q 1150 3584 1784 3584 
Q 2172 3584 2448 3432 
Q 2725 3281 2906 2969 
z
M 947 1747 
Q 947 1113 1208 752 
Q 1469 391 1925 391 
Q 2381 391 2643 752 
Q 2906 1113 2906 1747 
Q 2906 2381 2643 2742 
Q 2381 3103 1925 3103 
Q 1469 3103 1208 2742 
Q 947 2381 947 1747 
z
" id="DejaVuSans-64" transform="scale(0.015625)"/>
      <path d="M 269 3500 
L 844 3500 
L 1563 769 
L 2278 3500 
L 2956 3500 
L 3675 769 
L 4391 3500 
L 4966 3500 
L 4050 0 
L 3372 0 
L 2619 2869 
L 1863 0 
L 1184 0 
L 269 3500 
z
" id="DejaVuSans-77" transform="scale(0.015625)"/>
      <path d="M 628 4666 
L 1478 4666 
L 3547 763 
L 3547 4666 
L 4159 4666 
L 4159 0 
L 3309 0 
L 1241 3903 
L 1241 0 
L 628 0 
L 628 4666 
z
" id="DejaVuSans-4e" transform="scale(0.015625)"/>
     </defs>
     <use xlink:href="#DejaVuSans-43"/>
     <use x="69.824219" xlink:href="#DejaVuSans-49"/>
     <use x="99.316406" xlink:href="#DejaVuSans-46"/>
     <use x="147.710938" xlink:href="#DejaVuSans-41"/>
     <use x="216.119141" xlink:href="#DejaVuSans-52"/>
     <use x="281.601562" xlink:href="#DejaVuSans-2d"/>
     <use x="317.685547" xlink:href="#DejaVuSans-31"/>
     <use x="381.308594" xlink:href="#DejaVuSans-30"/>
     <use x="444.931641" xlink:href="#DejaVuSans-20"/>
     <use x="476.71875" xlink:href="#DejaVuSans-4c"/>
     <use x="532.431641" xlink:href="#DejaVuSans-61"/>
     <use x="593.710938" xlink:href="#DejaVuSans-62"/>
     <use x="657.1875" xlink:href="#DejaVuSans-65"/>
     <use x="718.710938" xlink:href="#DejaVuSans-6c"/>
     <use x="746.494141" xlink:href="#DejaVuSans-20"/>
     <use x="778.28125" xlink:href="#DejaVuSans-44"/>
     <use x="855.283203" xlink:href="#DejaVuSans-69"/>
     <use x="883.066406" xlink:href="#DejaVuSans-73"/>
     <use x="935.166016" xlink:href="#DejaVuSans-74"/>
     <use x="974.375" xlink:href="#DejaVuSans-72"/>
     <use x="1015.488281" xlink:href="#DejaVuSans-69"/>
     <use x="1043.271484" xlink:href="#DejaVuSans-62"/>
     <use x="1106.748047" xlink:href="#DejaVuSans-75"/>
     <use x="1170.126953" xlink:href="#DejaVuSans-74"/>
     <use x="1209.335938" xlink:href="#DejaVuSans-69"/>
     <use x="1237.119141" xlink:href="#DejaVuSans-6f"/>
     <use x="1298.300781" xlink:href="#DejaVuSans-6e"/>
     <use x="1361.679688" xlink:href="#DejaVuSans-20"/>
     <use x="1393.466797" xlink:href="#DejaVuSans-50"/>
     <use x="1452.019531" xlink:href="#DejaVuSans-72"/>
     <use x="1490.882812" xlink:href="#DejaVuSans-65"/>
     <use x="1552.40625" xlink:href="#DejaVuSans-64"/>
     <use x="1615.882812" xlink:href="#DejaVuSans-69"/>
     <use x="1643.666016" xlink:href="#DejaVuSans-63"/>
     <use x="1698.646484" xlink:href="#DejaVuSans-74"/>
     <use x="1737.855469" xlink:href="#DejaVuSans-6f"/>
     <use x="1799.037109" xlink:href="#DejaVuSans-72"/>
     <use x="1840.150391" xlink:href="#DejaVuSans-20"/>
     <use x="1871.9375" xlink:href="#DejaVuSans-4c"/>
     <use x="1925.900391" xlink:href="#DejaVuSans-6f"/>
     <use x="1987.082031" xlink:href="#DejaVuSans-73"/>
     <use x="2039.181641" xlink:href="#DejaVuSans-73"/>
     <use x="2091.28125" xlink:href="#DejaVuSans-20"/>
     <use x="2123.068359" xlink:href="#DejaVuSans-77"/>
     <use x="2204.855469" xlink:href="#DejaVuSans-69"/>
     <use x="2232.638672" xlink:href="#DejaVuSans-74"/>
     <use x="2271.847656" xlink:href="#DejaVuSans-68"/>
     <use x="2335.226562" xlink:href="#DejaVuSans-20"/>
     <use x="2367.013672" xlink:href="#DejaVuSans-4c"/>
     <use x="2422.726562" xlink:href="#DejaVuSans-61"/>
     <use x="2484.005859" xlink:href="#DejaVuSans-70"/>
     <use x="2547.482422" xlink:href="#DejaVuSans-6c"/>
     <use x="2575.265625" xlink:href="#DejaVuSans-61"/>
     <use x="2636.544922" xlink:href="#DejaVuSans-63"/>
     <use x="2691.525391" xlink:href="#DejaVuSans-69"/>
     <use x="2719.308594" xlink:href="#DejaVuSans-61"/>
     <use x="2780.587891" xlink:href="#DejaVuSans-6e"/>
     <use x="2843.966797" xlink:href="#DejaVuSans-20"/>
     <use x="2875.753906" xlink:href="#DejaVuSans-4e"/>
     <use x="2950.558594" xlink:href="#DejaVuSans-6f"/>
     <use x="3011.740234" xlink:href="#DejaVuSans-69"/>
     <use x="3039.523438" xlink:href="#DejaVuSans-73"/>
     <use x="3091.623047" xlink:href="#DejaVuSans-65"/>
    </g>
   </g>
   <g id="legend_1">
    <g id="line2d_34">
     <path d="M 411.817812 35.416563 
L 431.817812 35.416563 
" style="fill:none;stroke:#0173b2;stroke-linecap:round;stroke-width:1.5;"/>
    </g>
    <g id="line2d_35"/>
    <g id="text_19">
     <!-- laplacian, 1.0e-01 -->
     <g style="fill:#262626;" transform="translate(439.817812 38.916563)scale(0.1 -0.1)">
      <defs>
       <path d="M 750 794 
L 1409 794 
L 1409 256 
L 897 -744 
L 494 -744 
L 750 256 
L 750 794 
z
" id="DejaVuSans-2c" transform="scale(0.015625)"/>
      </defs>
      <use xlink:href="#DejaVuSans-6c"/>
      <use x="27.783203" xlink:href="#DejaVuSans-61"/>
      <use x="89.0625" xlink:href="#DejaVuSans-70"/>
      <use x="152.539062" xlink:href="#DejaVuSans-6c"/>
      <use x="180.322266" xlink:href="#DejaVuSans-61"/>
      <use x="241.601562" xlink:href="#DejaVuSans-63"/>
      <use x="296.582031" xlink:href="#DejaVuSans-69"/>
      <use x="324.365234" xlink:href="#DejaVuSans-61"/>
      <use x="385.644531" xlink:href="#DejaVuSans-6e"/>
      <use x="449.023438" xlink:href="#DejaVuSans-2c"/>
      <use x="480.810547" xlink:href="#DejaVuSans-20"/>
      <use x="512.597656" xlink:href="#DejaVuSans-31"/>
      <use x="576.220703" xlink:href="#DejaVuSans-2e"/>
      <use x="608.007812" xlink:href="#DejaVuSans-30"/>
      <use x="671.630859" xlink:href="#DejaVuSans-65"/>
      <use x="733.154297" xlink:href="#DejaVuSans-2d"/>
      <use x="769.238281" xlink:href="#DejaVuSans-30"/>
      <use x="832.861328" xlink:href="#DejaVuSans-31"/>
     </g>
    </g>
    <g id="line2d_36">
     <path d="M 411.817812 50.094688 
L 431.817812 50.094688 
" style="fill:none;stroke:#de8f05;stroke-linecap:round;stroke-width:1.5;"/>
    </g>
    <g id="line2d_37"/>
    <g id="text_20">
     <!-- laplacian, 1.0e-02 -->
     <g style="fill:#262626;" transform="translate(439.817812 53.594688)scale(0.1 -0.1)">
      <use xlink:href="#DejaVuSans-6c"/>
      <use x="27.783203" xlink:href="#DejaVuSans-61"/>
      <use x="89.0625" xlink:href="#DejaVuSans-70"/>
      <use x="152.539062" xlink:href="#DejaVuSans-6c"/>
      <use x="180.322266" xlink:href="#DejaVuSans-61"/>
      <use x="241.601562" xlink:href="#DejaVuSans-63"/>
      <use x="296.582031" xlink:href="#DejaVuSans-69"/>
      <use x="324.365234" xlink:href="#DejaVuSans-61"/>
      <use x="385.644531" xlink:href="#DejaVuSans-6e"/>
      <use x="449.023438" xlink:href="#DejaVuSans-2c"/>
      <use x="480.810547" xlink:href="#DejaVuSans-20"/>
      <use x="512.597656" xlink:href="#DejaVuSans-31"/>
      <use x="576.220703" xlink:href="#DejaVuSans-2e"/>
      <use x="608.007812" xlink:href="#DejaVuSans-30"/>
      <use x="671.630859" xlink:href="#DejaVuSans-65"/>
      <use x="733.154297" xlink:href="#DejaVuSans-2d"/>
      <use x="769.238281" xlink:href="#DejaVuSans-30"/>
      <use x="832.861328" xlink:href="#DejaVuSans-32"/>
     </g>
    </g>
    <g id="line2d_38">
     <path d="M 411.817812 64.772813 
L 431.817812 64.772813 
" style="fill:none;stroke:#029e73;stroke-linecap:round;stroke-width:1.5;"/>
    </g>
    <g id="line2d_39"/>
    <g id="text_21">
     <!-- laplacian, 1.0e-03 -->
     <g style="fill:#262626;" transform="translate(439.817812 68.272813)scale(0.1 -0.1)">
      <use xlink:href="#DejaVuSans-6c"/>
      <use x="27.783203" xlink:href="#DejaVuSans-61"/>
      <use x="89.0625" xlink:href="#DejaVuSans-70"/>
      <use x="152.539062" xlink:href="#DejaVuSans-6c"/>
      <use x="180.322266" xlink:href="#DejaVuSans-61"/>
      <use x="241.601562" xlink:href="#DejaVuSans-63"/>
      <use x="296.582031" xlink:href="#DejaVuSans-69"/>
      <use x="324.365234" xlink:href="#DejaVuSans-61"/>
      <use x="385.644531" xlink:href="#DejaVuSans-6e"/>
      <use x="449.023438" xlink:href="#DejaVuSans-2c"/>
      <use x="480.810547" xlink:href="#DejaVuSans-20"/>
      <use x="512.597656" xlink:href="#DejaVuSans-31"/>
      <use x="576.220703" xlink:href="#DejaVuSans-2e"/>
      <use x="608.007812" xlink:href="#DejaVuSans-30"/>
      <use x="671.630859" xlink:href="#DejaVuSans-65"/>
      <use x="733.154297" xlink:href="#DejaVuSans-2d"/>
      <use x="769.238281" xlink:href="#DejaVuSans-30"/>
      <use x="832.861328" xlink:href="#DejaVuSans-33"/>
     </g>
    </g>
   </g>
  </g>
 </g>
 <defs>
  <clipPath id="p1a4fc0c5e1">
   <rect height="217.44" width="334.8" x="53.00625" y="22.318125"/>
  </clipPath>
 </defs>
</svg>
