<?xml version="1.0" encoding="utf-8" standalone="no"?>
<!DOCTYPE svg PUBLIC "-//W3C//DTD SVG 1.1//EN"
  "http://www.w3.org/Graphics/SVG/1.1/DTD/svg11.dtd">
<svg height="216pt" version="1.1" viewBox="0 0 504 216" width="504pt" xmlns="http://www.w3.org/2000/svg" xmlns:xlink="http://www.w3.org/1999/xlink">
 <metadata>
  <rdf:RDF xmlns:cc="http://creativecommons.org/ns#" xmlns:dc="http://purl.org/dc/elements/1.1/" xmlns:rdf="http://www.w3.org/1999/02/22-rdf-syntax-ns#">
   <cc:Work>
    <dc:type rdf:resource="http://purl.org/dc/dcmitype/StillImage"/>
    <dc:date>2023-06-14T17:33:14.280572</dc:date>
    <dc:format>image/svg+xml</dc:format>
    <dc:creator>
     <cc:Agent>
      <dc:title>Matplotlib v3.4.3, https://matplotlib.org/</dc:title>
     </cc:Agent>
    </dc:creator>
   </cc:Work>
  </rdf:RDF>
 </metadata>
 <defs>
  <style type="text/css">*{stroke-linecap:butt;stroke-linejoin:round;}</style>
 </defs>
 <g id="figure_1">
  <g id="patch_1">
   <path d="M 0 216 
L 504 216 
L 504 0 
L 0 0 
z
" style="fill:#ffffff;"/>
  </g>
  <g id="axes_1">
   <g id="patch_2">
    <path d="M 10.8 102.6 
L 164.4 102.6 
L 164.4 10.8 
L 10.8 10.8 
z
" style="fill:#eaeaf2;"/>
   </g>
   <g id="matplotlib.axis_1"/>
   <g id="matplotlib.axis_2"/>
   <g id="patch_3">
    <path clip-path="url(#p7a68c15fd9)" d="M 17.781818 102.6 
L 29.180705 102.6 
L 29.180705 78.914055 
L 17.781818 78.914055 
z
" style="fill:#0173b2;"/>
   </g>
   <g id="patch_4">
    <path clip-path="url(#p7a68c15fd9)" d="M 32.030427 102.6 
L 43.429314 102.6 
L 43.429314 102.574621 
L 32.030427 102.574621 
z
" style="fill:#de8f05;"/>
   </g>
   <g id="patch_5">
    <path clip-path="url(#p7a68c15fd9)" d="M 46.279035 102.6 
L 57.677922 102.6 
L 57.677922 102.583738 
L 46.279035 102.583738 
z
" style="fill:#029e73;"/>
   </g>
   <g id="patch_6">
    <path clip-path="url(#p7a68c15fd9)" d="M 60.527644 102.6 
L 71.926531 102.6 
L 71.926531 101.964157 
L 60.527644 101.964157 
z
" style="fill:#d55e00;"/>
   </g>
   <g id="patch_7">
    <path clip-path="url(#p7a68c15fd9)" d="M 74.776252 102.6 
L 86.175139 102.6 
L 86.175139 102.575578 
L 74.776252 102.575578 
z
" style="fill:#cc78bc;"/>
   </g>
   <g id="patch_8">
    <path clip-path="url(#p7a68c15fd9)" d="M 89.024861 102.6 
L 100.423748 102.6 
L 100.423748 35.686213 
L 89.024861 35.686213 
z
" style="fill:#ca9161;"/>
   </g>
   <g id="patch_9">
    <path clip-path="url(#p7a68c15fd9)" d="M 103.273469 102.6 
L 114.672356 102.6 
L 114.672356 102.568554 
L 103.273469 102.568554 
z
" style="fill:#fbafe4;"/>
   </g>
   <g id="patch_10">
    <path clip-path="url(#p7a68c15fd9)" d="M 117.522078 102.6 
L 128.920965 102.6 
L 128.920965 102.332157 
L 117.522078 102.332157 
z
" style="fill:#949494;"/>
   </g>
   <g id="patch_11">
    <path clip-path="url(#p7a68c15fd9)" d="M 131.770686 102.6 
L 143.169573 102.6 
L 143.169573 102.598436 
L 131.770686 102.598436 
z
" style="fill:#ece133;"/>
   </g>
   <g id="patch_12">
    <path clip-path="url(#p7a68c15fd9)" d="M 146.019295 102.6 
L 157.418182 102.6 
L 157.418182 102.402485 
L 146.019295 102.402485 
z
" style="fill:#56b4e9;"/>
   </g>
   <g id="patch_13">
    <path d="M 10.8 102.6 
L 10.8 10.8 
" style="fill:none;"/>
   </g>
   <g id="patch_14">
    <path d="M 164.4 102.6 
L 164.4 10.8 
" style="fill:none;"/>
   </g>
   <g id="patch_15">
    <path d="M 10.8 102.6 
L 164.4 102.6 
" style="fill:none;"/>
   </g>
   <g id="patch_16">
    <path d="M 10.8 10.8 
L 164.4 10.8 
" style="fill:none;"/>
   </g>
  </g>
  <g id="axes_2">
   <g id="patch_17">
    <path d="M 175.2 102.6 
L 328.8 102.6 
L 328.8 10.8 
L 175.2 10.8 
z
" style="fill:#eaeaf2;"/>
   </g>
   <g id="matplotlib.axis_3"/>
   <g id="matplotlib.axis_4"/>
   <g id="patch_18">
    <path clip-path="url(#p579b600c30)" d="M 182.181818 102.6 
L 193.580705 102.6 
L 193.580705 102.136303 
L 182.181818 102.136303 
z
" style="fill:#0173b2;"/>
   </g>
   <g id="patch_19">
    <path clip-path="url(#p579b600c30)" d="M 196.430427 102.6 
L 207.829314 102.6 
L 207.829314 102.475809 
L 196.430427 102.475809 
z
" style="fill:#de8f05;"/>
   </g>
   <g id="patch_20">
    <path clip-path="url(#p579b600c30)" d="M 210.679035 102.6 
L 222.077922 102.6 
L 222.077922 102.591829 
L 210.679035 102.591829 
z
" style="fill:#029e73;"/>
   </g>
   <g id="patch_21">
    <path clip-path="url(#p579b600c30)" d="M 224.927644 102.6 
L 236.326531 102.6 
L 236.326531 89.298029 
L 224.927644 89.298029 
z
" style="fill:#d55e00;"/>
   </g>
   <g id="patch_22">
    <path clip-path="url(#p579b600c30)" d="M 239.176252 102.6 
L 250.575139 102.6 
L 250.575139 102.482935 
L 239.176252 102.482935 
z
" style="fill:#cc78bc;"/>
   </g>
   <g id="patch_23">
    <path clip-path="url(#p579b600c30)" d="M 253.424861 102.6 
L 264.823748 102.6 
L 264.823748 89.819043 
L 253.424861 89.819043 
z
" style="fill:#ca9161;"/>
   </g>
   <g id="patch_24">
    <path clip-path="url(#p579b600c30)" d="M 267.673469 102.6 
L 279.072356 102.6 
L 279.072356 102.58497 
L 267.673469 102.58497 
z
" style="fill:#fbafe4;"/>
   </g>
   <g id="patch_25">
    <path clip-path="url(#p579b600c30)" d="M 281.922078 102.6 
L 293.320965 102.6 
L 293.320965 102.323852 
L 281.922078 102.323852 
z
" style="fill:#949494;"/>
   </g>
   <g id="patch_26">
    <path clip-path="url(#p579b600c30)" d="M 296.170686 102.6 
L 307.569573 102.6 
L 307.569573 39.962887 
L 296.170686 39.962887 
z
" style="fill:#ece133;"/>
   </g>
   <g id="patch_27">
    <path clip-path="url(#p579b600c30)" d="M 310.419295 102.6 
L 321.818182 102.6 
L 321.818182 100.524345 
L 310.419295 100.524345 
z
" style="fill:#56b4e9;"/>
   </g>
   <g id="patch_28">
    <path d="M 175.2 102.6 
L 175.2 10.8 
" style="fill:none;"/>
   </g>
   <g id="patch_29">
    <path d="M 328.8 102.6 
L 328.8 10.8 
" style="fill:none;"/>
   </g>
   <g id="patch_30">
    <path d="M 175.2 102.6 
L 328.8 102.6 
" style="fill:none;"/>
   </g>
   <g id="patch_31">
    <path d="M 175.2 10.8 
L 328.8 10.8 
" style="fill:none;"/>
   </g>
  </g>
  <g id="axes_3">
   <g id="patch_32">
    <path d="M 339.6 102.6 
L 493.2 102.6 
L 493.2 10.8 
L 339.6 10.8 
z
" style="fill:#eaeaf2;"/>
   </g>
   <g id="matplotlib.axis_5"/>
   <g id="matplotlib.axis_6"/>
   <g id="patch_33">
    <path clip-path="url(#p8d847ade9f)" d="M 346.581818 102.6 
L 357.980705 102.6 
L 357.980705 102.357615 
L 346.581818 102.357615 
z
" style="fill:#0173b2;"/>
   </g>
   <g id="patch_34">
    <path clip-path="url(#p8d847ade9f)" d="M 360.830427 102.6 
L 372.229314 102.6 
L 372.229314 102.314403 
L 360.830427 102.314403 
z
" style="fill:#de8f05;"/>
   </g>
   <g id="patch_35">
    <path clip-path="url(#p8d847ade9f)" d="M 375.079035 102.6 
L 386.477922 102.6 
L 386.477922 102.586932 
L 375.079035 102.586932 
z
" style="fill:#029e73;"/>
   </g>
   <g id="patch_36">
    <path clip-path="url(#p8d847ade9f)" d="M 389.327644 102.6 
L 400.726531 102.6 
L 400.726531 101.810844 
L 389.327644 101.810844 
z
" style="fill:#d55e00;"/>
   </g>
   <g id="patch_37">
    <path clip-path="url(#p8d847ade9f)" d="M 403.576252 102.6 
L 414.975139 102.6 
L 414.975139 85.093054 
L 403.576252 85.093054 
z
" style="fill:#cc78bc;"/>
   </g>
   <g id="patch_38">
    <path clip-path="url(#p8d847ade9f)" d="M 417.824861 102.6 
L 429.223748 102.6 
L 429.223748 102.356376 
L 417.824861 102.356376 
z
" style="fill:#ca9161;"/>
   </g>
   <g id="patch_39">
    <path clip-path="url(#p8d847ade9f)" d="M 432.073469 102.6 
L 443.472356 102.6 
L 443.472356 102.356142 
L 432.073469 102.356142 
z
" style="fill:#fbafe4;"/>
   </g>
   <g id="patch_40">
    <path clip-path="url(#p8d847ade9f)" d="M 446.322078 102.6 
L 457.720965 102.6 
L 457.720965 92.542084 
L 446.322078 92.542084 
z
" style="fill:#949494;"/>
   </g>
   <g id="patch_41">
    <path clip-path="url(#p8d847ade9f)" d="M 460.570686 102.6 
L 471.969573 102.6 
L 471.969573 102.481316 
L 460.570686 102.481316 
z
" style="fill:#ece133;"/>
   </g>
   <g id="patch_42">
    <path clip-path="url(#p8d847ade9f)" d="M 474.819295 102.6 
L 486.218182 102.6 
L 486.218182 40.30123 
L 474.819295 40.30123 
z
" style="fill:#56b4e9;"/>
   </g>
   <g id="patch_43">
    <path d="M 339.6 102.6 
L 339.6 10.8 
" style="fill:none;"/>
   </g>
   <g id="patch_44">
    <path d="M 493.2 102.6 
L 493.2 10.8 
" style="fill:none;"/>
   </g>
   <g id="patch_45">
    <path d="M 339.6 102.6 
L 493.2 102.6 
" style="fill:none;"/>
   </g>
   <g id="patch_46">
    <path d="M 339.6 10.8 
L 493.2 10.8 
" style="fill:none;"/>
   </g>
  </g>
  <g id="axes_4">
   <g id="patch_47">
    <path d="M 10.8 205.2 
L 164.4 205.2 
L 164.4 113.4 
L 10.8 113.4 
z
" style="fill:#eaeaf2;"/>
   </g>
   <g id="matplotlib.axis_7"/>
   <g id="matplotlib.axis_8"/>
   <g id="patch_48">
    <path clip-path="url(#p8c47a94eb8)" d="M 17.781818 205.2 
L 29.180705 205.2 
L 29.180705 185.960479 
L 17.781818 185.960479 
z
" style="fill:#0173b2;"/>
   </g>
   <g id="patch_49">
    <path clip-path="url(#p8c47a94eb8)" d="M 32.030427 205.2 
L 43.429314 205.2 
L 43.429314 198.053892 
L 32.030427 198.053892 
z
" style="fill:#de8f05;"/>
   </g>
   <g id="patch_50">
    <path clip-path="url(#p8c47a94eb8)" d="M 46.279035 205.2 
L 57.677922 205.2 
L 57.677922 205.2 
L 46.279035 205.2 
z
" style="fill:#029e73;"/>
   </g>
   <g id="patch_51">
    <path clip-path="url(#p8c47a94eb8)" d="M 60.527644 205.2 
L 71.926531 205.2 
L 71.926531 205.2 
L 60.527644 205.2 
z
" style="fill:#d55e00;"/>
   </g>
   <g id="patch_52">
    <path clip-path="url(#p8c47a94eb8)" d="M 74.776252 205.2 
L 86.175139 205.2 
L 86.175139 205.2 
L 74.776252 205.2 
z
" style="fill:#cc78bc;"/>
   </g>
   <g id="patch_53">
    <path clip-path="url(#p8c47a94eb8)" d="M 89.024861 205.2 
L 100.423748 205.2 
L 100.423748 146.748502 
L 89.024861 146.748502 
z
" style="fill:#ca9161;"/>
   </g>
   <g id="patch_54">
    <path clip-path="url(#p8c47a94eb8)" d="M 103.273469 205.2 
L 114.672356 205.2 
L 114.672356 204.100599 
L 103.273469 204.100599 
z
" style="fill:#fbafe4;"/>
   </g>
   <g id="patch_55">
    <path clip-path="url(#p8c47a94eb8)" d="M 117.522078 205.2 
L 128.920965 205.2 
L 128.920965 204.467066 
L 117.522078 204.467066 
z
" style="fill:#949494;"/>
   </g>
   <g id="patch_56">
    <path clip-path="url(#p8c47a94eb8)" d="M 131.770686 205.2 
L 143.169573 205.2 
L 143.169573 205.2 
L 131.770686 205.2 
z
" style="fill:#ece133;"/>
   </g>
   <g id="patch_57">
    <path clip-path="url(#p8c47a94eb8)" d="M 146.019295 205.2 
L 157.418182 205.2 
L 157.418182 200.069461 
L 146.019295 200.069461 
z
" style="fill:#56b4e9;"/>
   </g>
   <g id="patch_58">
    <path d="M 10.8 205.2 
L 10.8 113.4 
" style="fill:none;"/>
   </g>
   <g id="patch_59">
    <path d="M 164.4 205.2 
L 164.4 113.4 
" style="fill:none;"/>
   </g>
   <g id="patch_60">
    <path d="M 10.8 205.2 
L 164.4 205.2 
" style="fill:none;"/>
   </g>
   <g id="patch_61">
    <path d="M 10.8 113.4 
L 164.4 113.4 
" style="fill:none;"/>
   </g>
  </g>
  <g id="axes_5">
   <g id="patch_62">
    <path d="M 175.2 205.2 
L 328.8 205.2 
L 328.8 113.4 
L 175.2 113.4 
z
" style="fill:#eaeaf2;"/>
   </g>
   <g id="matplotlib.axis_9"/>
   <g id="matplotlib.axis_10"/>
   <g id="patch_63">
    <path clip-path="url(#p5cfb121d29)" d="M 182.181818 205.2 
L 193.580705 205.2 
L 193.580705 205.2 
L 182.181818 205.2 
z
" style="fill:#0173b2;"/>
   </g>
   <g id="patch_64">
    <path clip-path="url(#p5cfb121d29)" d="M 196.430427 205.2 
L 207.829314 205.2 
L 207.829314 205.2 
L 196.430427 205.2 
z
" style="fill:#de8f05;"/>
   </g>
   <g id="patch_65">
    <path clip-path="url(#p5cfb121d29)" d="M 210.679035 205.2 
L 222.077922 205.2 
L 222.077922 205.2 
L 210.679035 205.2 
z
" style="fill:#029e73;"/>
   </g>
   <g id="patch_66">
    <path clip-path="url(#p5cfb121d29)" d="M 224.927644 205.2 
L 236.326531 205.2 
L 236.326531 188.458918 
L 224.927644 188.458918 
z
" style="fill:#d55e00;"/>
   </g>
   <g id="patch_67">
    <path clip-path="url(#p5cfb121d29)" d="M 239.176252 205.2 
L 250.575139 205.2 
L 250.575139 204.648096 
L 239.176252 204.648096 
z
" style="fill:#cc78bc;"/>
   </g>
   <g id="patch_68">
    <path clip-path="url(#p5cfb121d29)" d="M 253.424861 205.2 
L 264.823748 205.2 
L 264.823748 193.242084 
L 253.424861 193.242084 
z
" style="fill:#ca9161;"/>
   </g>
   <g id="patch_69">
    <path clip-path="url(#p5cfb121d29)" d="M 267.673469 205.2 
L 279.072356 205.2 
L 279.072356 205.2 
L 267.673469 205.2 
z
" style="fill:#fbafe4;"/>
   </g>
   <g id="patch_70">
    <path clip-path="url(#p5cfb121d29)" d="M 281.922078 205.2 
L 293.320965 205.2 
L 293.320965 205.2 
L 281.922078 205.2 
z
" style="fill:#949494;"/>
   </g>
   <g id="patch_71">
    <path clip-path="url(#p5cfb121d29)" d="M 296.170686 205.2 
L 307.569573 205.2 
L 307.569573 145.594388 
L 296.170686 145.594388 
z
" style="fill:#ece133;"/>
   </g>
   <g id="patch_72">
    <path clip-path="url(#p5cfb121d29)" d="M 310.419295 205.2 
L 321.818182 205.2 
L 321.818182 202.256513 
L 310.419295 202.256513 
z
" style="fill:#56b4e9;"/>
   </g>
   <g id="patch_73">
    <path d="M 175.2 205.2 
L 175.2 113.4 
" style="fill:none;"/>
   </g>
   <g id="patch_74">
    <path d="M 328.8 205.2 
L 328.8 113.4 
" style="fill:none;"/>
   </g>
   <g id="patch_75">
    <path d="M 175.2 205.2 
L 328.8 205.2 
" style="fill:none;"/>
   </g>
   <g id="patch_76">
    <path d="M 175.2 113.4 
L 328.8 113.4 
" style="fill:none;"/>
   </g>
  </g>
  <g id="axes_6">
   <g id="patch_77">
    <path d="M 339.6 205.2 
L 493.2 205.2 
L 493.2 113.4 
L 339.6 113.4 
z
" style="fill:#eaeaf2;"/>
   </g>
   <g id="matplotlib.axis_11"/>
   <g id="matplotlib.axis_12"/>
   <g id="patch_78">
    <path clip-path="url(#pb93e0e7536)" d="M 346.581818 205.2 
L 357.980705 205.2 
L 357.980705 203.364 
L 346.581818 203.364 
z
" style="fill:#0173b2;"/>
   </g>
   <g id="patch_79">
    <path clip-path="url(#pb93e0e7536)" d="M 360.830427 205.2 
L 372.229314 205.2 
L 372.229314 205.2 
L 360.830427 205.2 
z
" style="fill:#de8f05;"/>
   </g>
   <g id="patch_80">
    <path clip-path="url(#pb93e0e7536)" d="M 375.079035 205.2 
L 386.477922 205.2 
L 386.477922 205.2 
L 375.079035 205.2 
z
" style="fill:#029e73;"/>
   </g>
   <g id="patch_81">
    <path clip-path="url(#pb93e0e7536)" d="M 389.327644 205.2 
L 400.726531 205.2 
L 400.726531 205.0164 
L 389.327644 205.0164 
z
" style="fill:#d55e00;"/>
   </g>
   <g id="patch_82">
    <path clip-path="url(#pb93e0e7536)" d="M 403.576252 205.2 
L 414.975139 205.2 
L 414.975139 188.1252 
L 403.576252 188.1252 
z
" style="fill:#cc78bc;"/>
   </g>
   <g id="patch_83">
    <path clip-path="url(#pb93e0e7536)" d="M 417.824861 205.2 
L 429.223748 205.2 
L 429.223748 204.6492 
L 417.824861 204.6492 
z
" style="fill:#ca9161;"/>
   </g>
   <g id="patch_84">
    <path clip-path="url(#pb93e0e7536)" d="M 432.073469 205.2 
L 443.472356 205.2 
L 443.472356 204.4656 
L 432.073469 204.4656 
z
" style="fill:#fbafe4;"/>
   </g>
   <g id="patch_85">
    <path clip-path="url(#pb93e0e7536)" d="M 446.322078 205.2 
L 457.720965 205.2 
L 457.720965 199.692 
L 446.322078 199.692 
z
" style="fill:#949494;"/>
   </g>
   <g id="patch_86">
    <path clip-path="url(#pb93e0e7536)" d="M 460.570686 205.2 
L 471.969573 205.2 
L 471.969573 205.2 
L 460.570686 205.2 
z
" style="fill:#ece133;"/>
   </g>
   <g id="patch_87">
    <path clip-path="url(#pb93e0e7536)" d="M 474.819295 205.2 
L 486.218182 205.2 
L 486.218182 139.2876 
L 474.819295 139.2876 
z
" style="fill:#56b4e9;"/>
   </g>
   <g id="patch_88">
    <path d="M 339.6 205.2 
L 339.6 113.4 
" style="fill:none;"/>
   </g>
   <g id="patch_89">
    <path d="M 493.2 205.2 
L 493.2 113.4 
" style="fill:none;"/>
   </g>
   <g id="patch_90">
    <path d="M 339.6 205.2 
L 493.2 205.2 
" style="fill:none;"/>
   </g>
   <g id="patch_91">
    <path d="M 339.6 113.4 
L 493.2 113.4 
" style="fill:none;"/>
   </g>
  </g>
 </g>
 <defs>
  <clipPath id="p7a68c15fd9">
   <rect height="91.8" width="153.6" x="10.8" y="10.8"/>
  </clipPath>
  <clipPath id="p579b600c30">
   <rect height="91.8" width="153.6" x="175.2" y="10.8"/>
  </clipPath>
  <clipPath id="p8d847ade9f">
   <rect height="91.8" width="153.6" x="339.6" y="10.8"/>
  </clipPath>
  <clipPath id="p8c47a94eb8">
   <rect height="91.8" width="153.6" x="10.8" y="113.4"/>
  </clipPath>
  <clipPath id="p5cfb121d29">
   <rect height="91.8" width="153.6" x="175.2" y="113.4"/>
  </clipPath>
  <clipPath id="pb93e0e7536">
   <rect height="91.8" width="153.6" x="339.6" y="113.4"/>
  </clipPath>
 </defs>
</svg>
