<?xml version="1.0" encoding="utf-8" standalone="no"?>
<!DOCTYPE svg PUBLIC "-//W3C//DTD SVG 1.1//EN"
  "http://www.w3.org/Graphics/SVG/1.1/DTD/svg11.dtd">
<svg height="260.13625pt" version="1.1" viewBox="0 0 485.941562 260.13625" width="485.941562pt" xmlns="http://www.w3.org/2000/svg" xmlns:xlink="http://www.w3.org/1999/xlink">
 <metadata>
  <rdf:RDF xmlns:cc="http://creativecommons.org/ns#" xmlns:dc="http://purl.org/dc/elements/1.1/" xmlns:rdf="http://www.w3.org/1999/02/22-rdf-syntax-ns#">
   <cc:Work>
    <dc:type rdf:resource="http://purl.org/dc/dcmitype/StillImage"/>
    <dc:date>2023-06-14T18:21:24.906405</dc:date>
    <dc:format>image/svg+xml</dc:format>
    <dc:creator>
     <cc:Agent>
      <dc:title>Matplotlib v3.4.3, https://matplotlib.org/</dc:title>
     </cc:Agent>
    </dc:creator>
   </cc:Work>
  </rdf:RDF>
 </metadata>
 <defs>
  <style type="text/css">*{stroke-linecap:butt;stroke-linejoin:round;}</style>
 </defs>
 <g id="figure_1">
  <g id="patch_1">
   <path d="M 0 260.13625 
L 485.941562 260.13625 
L 485.941562 0 
L 0 0 
z
" style="fill:#ffffff;"/>
  </g>
  <g id="axes_1">
   <g id="patch_2">
    <path d="M 34.982813 239.758125 
L 369.782813 239.758125 
L 369.782813 22.318125 
L 34.982813 22.318125 
z
" style="fill:#eaeaf2;"/>
   </g>
   <g id="matplotlib.axis_1">
    <g id="xtick_1">
     <g id="line2d_1">
      <path clip-path="url(#p7e18e84e08)" d="M 68.685085 239.758125 
L 68.685085 22.318125 
" style="fill:none;stroke:#ffffff;stroke-linecap:round;stroke-width:0.8;"/>
     </g>
     <g id="line2d_2"/>
     <g id="text_1">
      <!-- −0.4 -->
      <g style="fill:#262626;" transform="translate(56.543679 250.856563)scale(0.1 -0.1)">
       <defs>
        <path d="M 678 2272 
L 4684 2272 
L 4684 1741 
L 678 1741 
L 678 2272 
z
" id="DejaVuSans-2212" transform="scale(0.015625)"/>
        <path d="M 2034 4250 
Q 1547 4250 1301 3770 
Q 1056 3291 1056 2328 
Q 1056 1369 1301 889 
Q 1547 409 2034 409 
Q 2525 409 2770 889 
Q 3016 1369 3016 2328 
Q 3016 3291 2770 3770 
Q 2525 4250 2034 4250 
z
M 2034 4750 
Q 2819 4750 3233 4129 
Q 3647 3509 3647 2328 
Q 3647 1150 3233 529 
Q 2819 -91 2034 -91 
Q 1250 -91 836 529 
Q 422 1150 422 2328 
Q 422 3509 836 4129 
Q 1250 4750 2034 4750 
z
" id="DejaVuSans-30" transform="scale(0.015625)"/>
        <path d="M 684 794 
L 1344 794 
L 1344 0 
L 684 0 
L 684 794 
z
" id="DejaVuSans-2e" transform="scale(0.015625)"/>
        <path d="M 2419 4116 
L 825 1625 
L 2419 1625 
L 2419 4116 
z
M 2253 4666 
L 3047 4666 
L 3047 1625 
L 3713 1625 
L 3713 1100 
L 3047 1100 
L 3047 0 
L 2419 0 
L 2419 1100 
L 313 1100 
L 313 1709 
L 2253 4666 
z
" id="DejaVuSans-34" transform="scale(0.015625)"/>
       </defs>
       <use xlink:href="#DejaVuSans-2212"/>
       <use x="83.789062" xlink:href="#DejaVuSans-30"/>
       <use x="147.412109" xlink:href="#DejaVuSans-2e"/>
       <use x="179.199219" xlink:href="#DejaVuSans-34"/>
      </g>
     </g>
    </g>
    <g id="xtick_2">
     <g id="line2d_3">
      <path clip-path="url(#p7e18e84e08)" d="M 111.743294 239.758125 
L 111.743294 22.318125 
" style="fill:none;stroke:#ffffff;stroke-linecap:round;stroke-width:0.8;"/>
     </g>
     <g id="line2d_4"/>
     <g id="text_2">
      <!-- −0.2 -->
      <g style="fill:#262626;" transform="translate(99.601888 250.856563)scale(0.1 -0.1)">
       <defs>
        <path d="M 1228 531 
L 3431 531 
L 3431 0 
L 469 0 
L 469 531 
Q 828 903 1448 1529 
Q 2069 2156 2228 2338 
Q 2531 2678 2651 2914 
Q 2772 3150 2772 3378 
Q 2772 3750 2511 3984 
Q 2250 4219 1831 4219 
Q 1534 4219 1204 4116 
Q 875 4013 500 3803 
L 500 4441 
Q 881 4594 1212 4672 
Q 1544 4750 1819 4750 
Q 2544 4750 2975 4387 
Q 3406 4025 3406 3419 
Q 3406 3131 3298 2873 
Q 3191 2616 2906 2266 
Q 2828 2175 2409 1742 
Q 1991 1309 1228 531 
z
" id="DejaVuSans-32" transform="scale(0.015625)"/>
       </defs>
       <use xlink:href="#DejaVuSans-2212"/>
       <use x="83.789062" xlink:href="#DejaVuSans-30"/>
       <use x="147.412109" xlink:href="#DejaVuSans-2e"/>
       <use x="179.199219" xlink:href="#DejaVuSans-32"/>
      </g>
     </g>
    </g>
    <g id="xtick_3">
     <g id="line2d_5">
      <path clip-path="url(#p7e18e84e08)" d="M 154.801503 239.758125 
L 154.801503 22.318125 
" style="fill:none;stroke:#ffffff;stroke-linecap:round;stroke-width:0.8;"/>
     </g>
     <g id="line2d_6"/>
     <g id="text_3">
      <!-- 0.0 -->
      <g style="fill:#262626;" transform="translate(146.849941 250.856563)scale(0.1 -0.1)">
       <use xlink:href="#DejaVuSans-30"/>
       <use x="63.623047" xlink:href="#DejaVuSans-2e"/>
       <use x="95.410156" xlink:href="#DejaVuSans-30"/>
      </g>
     </g>
    </g>
    <g id="xtick_4">
     <g id="line2d_7">
      <path clip-path="url(#p7e18e84e08)" d="M 197.859712 239.758125 
L 197.859712 22.318125 
" style="fill:none;stroke:#ffffff;stroke-linecap:round;stroke-width:0.8;"/>
     </g>
     <g id="line2d_8"/>
     <g id="text_4">
      <!-- 0.2 -->
      <g style="fill:#262626;" transform="translate(189.90815 250.856563)scale(0.1 -0.1)">
       <use xlink:href="#DejaVuSans-30"/>
       <use x="63.623047" xlink:href="#DejaVuSans-2e"/>
       <use x="95.410156" xlink:href="#DejaVuSans-32"/>
      </g>
     </g>
    </g>
    <g id="xtick_5">
     <g id="line2d_9">
      <path clip-path="url(#p7e18e84e08)" d="M 240.917922 239.758125 
L 240.917922 22.318125 
" style="fill:none;stroke:#ffffff;stroke-linecap:round;stroke-width:0.8;"/>
     </g>
     <g id="line2d_10"/>
     <g id="text_5">
      <!-- 0.4 -->
      <g style="fill:#262626;" transform="translate(232.966359 250.856563)scale(0.1 -0.1)">
       <use xlink:href="#DejaVuSans-30"/>
       <use x="63.623047" xlink:href="#DejaVuSans-2e"/>
       <use x="95.410156" xlink:href="#DejaVuSans-34"/>
      </g>
     </g>
    </g>
    <g id="xtick_6">
     <g id="line2d_11">
      <path clip-path="url(#p7e18e84e08)" d="M 283.976131 239.758125 
L 283.976131 22.318125 
" style="fill:none;stroke:#ffffff;stroke-linecap:round;stroke-width:0.8;"/>
     </g>
     <g id="line2d_12"/>
     <g id="text_6">
      <!-- 0.6 -->
      <g style="fill:#262626;" transform="translate(276.024568 250.856563)scale(0.1 -0.1)">
       <defs>
        <path d="M 2113 2584 
Q 1688 2584 1439 2293 
Q 1191 2003 1191 1497 
Q 1191 994 1439 701 
Q 1688 409 2113 409 
Q 2538 409 2786 701 
Q 3034 994 3034 1497 
Q 3034 2003 2786 2293 
Q 2538 2584 2113 2584 
z
M 3366 4563 
L 3366 3988 
Q 3128 4100 2886 4159 
Q 2644 4219 2406 4219 
Q 1781 4219 1451 3797 
Q 1122 3375 1075 2522 
Q 1259 2794 1537 2939 
Q 1816 3084 2150 3084 
Q 2853 3084 3261 2657 
Q 3669 2231 3669 1497 
Q 3669 778 3244 343 
Q 2819 -91 2113 -91 
Q 1303 -91 875 529 
Q 447 1150 447 2328 
Q 447 3434 972 4092 
Q 1497 4750 2381 4750 
Q 2619 4750 2861 4703 
Q 3103 4656 3366 4563 
z
" id="DejaVuSans-36" transform="scale(0.015625)"/>
       </defs>
       <use xlink:href="#DejaVuSans-30"/>
       <use x="63.623047" xlink:href="#DejaVuSans-2e"/>
       <use x="95.410156" xlink:href="#DejaVuSans-36"/>
      </g>
     </g>
    </g>
    <g id="xtick_7">
     <g id="line2d_13">
      <path clip-path="url(#p7e18e84e08)" d="M 327.03434 239.758125 
L 327.03434 22.318125 
" style="fill:none;stroke:#ffffff;stroke-linecap:round;stroke-width:0.8;"/>
     </g>
     <g id="line2d_14"/>
     <g id="text_7">
      <!-- 0.8 -->
      <g style="fill:#262626;" transform="translate(319.082777 250.856563)scale(0.1 -0.1)">
       <defs>
        <path d="M 2034 2216 
Q 1584 2216 1326 1975 
Q 1069 1734 1069 1313 
Q 1069 891 1326 650 
Q 1584 409 2034 409 
Q 2484 409 2743 651 
Q 3003 894 3003 1313 
Q 3003 1734 2745 1975 
Q 2488 2216 2034 2216 
z
M 1403 2484 
Q 997 2584 770 2862 
Q 544 3141 544 3541 
Q 544 4100 942 4425 
Q 1341 4750 2034 4750 
Q 2731 4750 3128 4425 
Q 3525 4100 3525 3541 
Q 3525 3141 3298 2862 
Q 3072 2584 2669 2484 
Q 3125 2378 3379 2068 
Q 3634 1759 3634 1313 
Q 3634 634 3220 271 
Q 2806 -91 2034 -91 
Q 1263 -91 848 271 
Q 434 634 434 1313 
Q 434 1759 690 2068 
Q 947 2378 1403 2484 
z
M 1172 3481 
Q 1172 3119 1398 2916 
Q 1625 2713 2034 2713 
Q 2441 2713 2670 2916 
Q 2900 3119 2900 3481 
Q 2900 3844 2670 4047 
Q 2441 4250 2034 4250 
Q 1625 4250 1398 4047 
Q 1172 3844 1172 3481 
z
" id="DejaVuSans-38" transform="scale(0.015625)"/>
       </defs>
       <use xlink:href="#DejaVuSans-30"/>
       <use x="63.623047" xlink:href="#DejaVuSans-2e"/>
       <use x="95.410156" xlink:href="#DejaVuSans-38"/>
      </g>
     </g>
    </g>
   </g>
   <g id="matplotlib.axis_2">
    <g id="ytick_1">
     <g id="line2d_15">
      <path clip-path="url(#p7e18e84e08)" d="M 34.982813 233.483915 
L 369.782813 233.483915 
" style="fill:none;stroke:#ffffff;stroke-linecap:round;stroke-width:0.8;"/>
     </g>
     <g id="line2d_16"/>
     <g id="text_8">
      <!-- −0.6 -->
      <g style="fill:#262626;" transform="translate(7.2 237.283134)scale(0.1 -0.1)">
       <use xlink:href="#DejaVuSans-2212"/>
       <use x="83.789062" xlink:href="#DejaVuSans-30"/>
       <use x="147.412109" xlink:href="#DejaVuSans-2e"/>
       <use x="179.199219" xlink:href="#DejaVuSans-36"/>
      </g>
     </g>
    </g>
    <g id="ytick_2">
     <g id="line2d_17">
      <path clip-path="url(#p7e18e84e08)" d="M 34.982813 202.346356 
L 369.782813 202.346356 
" style="fill:none;stroke:#ffffff;stroke-linecap:round;stroke-width:0.8;"/>
     </g>
     <g id="line2d_18"/>
     <g id="text_9">
      <!-- −0.4 -->
      <g style="fill:#262626;" transform="translate(7.2 206.145575)scale(0.1 -0.1)">
       <use xlink:href="#DejaVuSans-2212"/>
       <use x="83.789062" xlink:href="#DejaVuSans-30"/>
       <use x="147.412109" xlink:href="#DejaVuSans-2e"/>
       <use x="179.199219" xlink:href="#DejaVuSans-34"/>
      </g>
     </g>
    </g>
    <g id="ytick_3">
     <g id="line2d_19">
      <path clip-path="url(#p7e18e84e08)" d="M 34.982813 171.208797 
L 369.782813 171.208797 
" style="fill:none;stroke:#ffffff;stroke-linecap:round;stroke-width:0.8;"/>
     </g>
     <g id="line2d_20"/>
     <g id="text_10">
      <!-- −0.2 -->
      <g style="fill:#262626;" transform="translate(7.2 175.008016)scale(0.1 -0.1)">
       <use xlink:href="#DejaVuSans-2212"/>
       <use x="83.789062" xlink:href="#DejaVuSans-30"/>
       <use x="147.412109" xlink:href="#DejaVuSans-2e"/>
       <use x="179.199219" xlink:href="#DejaVuSans-32"/>
      </g>
     </g>
    </g>
    <g id="ytick_4">
     <g id="line2d_21">
      <path clip-path="url(#p7e18e84e08)" d="M 34.982813 140.071238 
L 369.782813 140.071238 
" style="fill:none;stroke:#ffffff;stroke-linecap:round;stroke-width:0.8;"/>
     </g>
     <g id="line2d_22"/>
     <g id="text_11">
      <!-- 0.0 -->
      <g style="fill:#262626;" transform="translate(15.579688 143.870457)scale(0.1 -0.1)">
       <use xlink:href="#DejaVuSans-30"/>
       <use x="63.623047" xlink:href="#DejaVuSans-2e"/>
       <use x="95.410156" xlink:href="#DejaVuSans-30"/>
      </g>
     </g>
    </g>
    <g id="ytick_5">
     <g id="line2d_23">
      <path clip-path="url(#p7e18e84e08)" d="M 34.982813 108.933679 
L 369.782813 108.933679 
" style="fill:none;stroke:#ffffff;stroke-linecap:round;stroke-width:0.8;"/>
     </g>
     <g id="line2d_24"/>
     <g id="text_12">
      <!-- 0.2 -->
      <g style="fill:#262626;" transform="translate(15.579688 112.732898)scale(0.1 -0.1)">
       <use xlink:href="#DejaVuSans-30"/>
       <use x="63.623047" xlink:href="#DejaVuSans-2e"/>
       <use x="95.410156" xlink:href="#DejaVuSans-32"/>
      </g>
     </g>
    </g>
    <g id="ytick_6">
     <g id="line2d_25">
      <path clip-path="url(#p7e18e84e08)" d="M 34.982813 77.79612 
L 369.782813 77.79612 
" style="fill:none;stroke:#ffffff;stroke-linecap:round;stroke-width:0.8;"/>
     </g>
     <g id="line2d_26"/>
     <g id="text_13">
      <!-- 0.4 -->
      <g style="fill:#262626;" transform="translate(15.579688 81.595339)scale(0.1 -0.1)">
       <use xlink:href="#DejaVuSans-30"/>
       <use x="63.623047" xlink:href="#DejaVuSans-2e"/>
       <use x="95.410156" xlink:href="#DejaVuSans-34"/>
      </g>
     </g>
    </g>
    <g id="ytick_7">
     <g id="line2d_27">
      <path clip-path="url(#p7e18e84e08)" d="M 34.982813 46.658561 
L 369.782813 46.658561 
" style="fill:none;stroke:#ffffff;stroke-linecap:round;stroke-width:0.8;"/>
     </g>
     <g id="line2d_28"/>
     <g id="text_14">
      <!-- 0.6 -->
      <g style="fill:#262626;" transform="translate(15.579688 50.45778)scale(0.1 -0.1)">
       <use xlink:href="#DejaVuSans-30"/>
       <use x="63.623047" xlink:href="#DejaVuSans-2e"/>
       <use x="95.410156" xlink:href="#DejaVuSans-36"/>
      </g>
     </g>
    </g>
   </g>
   <g id="PathCollection_1">
    <defs>
     <path d="M -3.233719 -0 
L 3.233719 3.233719 
L 3.233719 -3.233719 
z
" id="m556fb6ed8d" style="stroke:#2ca02c;"/>
    </defs>
    <g clip-path="url(#p7e18e84e08)">
     <use style="fill:#2ca02c;stroke:#2ca02c;" x="129.325558" xlink:href="#m556fb6ed8d" y="173.767645"/>
    </g>
   </g>
   <g id="PathCollection_2">
    <defs>
     <path d="M -2.391391 4.782782 
L 0 2.391391 
L 2.391391 4.782782 
L 4.782782 2.391391 
L 2.391391 0 
L 4.782782 -2.391391 
L 2.391391 -4.782782 
L 0 -2.391391 
L -2.391391 -4.782782 
L -4.782782 -2.391391 
L -2.391391 0 
L -4.782782 2.391391 
z
" id="m54c8de9328" style="stroke:#bcbd22;"/>
    </defs>
    <g clip-path="url(#p7e18e84e08)">
     <use style="fill:#bcbd22;stroke:#bcbd22;" x="353.641944" xlink:href="#m54c8de9328" y="171.86246"/>
    </g>
   </g>
   <g id="PathCollection_3">
    <defs>
     <path d="M -4.83477 -0 
L 4.83477 4.83477 
L 4.83477 -4.83477 
z
" id="mc76031b393" style="stroke:#2ca02c;"/>
    </defs>
    <g clip-path="url(#p7e18e84e08)">
     <use style="fill:#2ca02c;stroke:#2ca02c;" x="140.658748" xlink:href="#mc76031b393" y="144.226051"/>
    </g>
   </g>
   <g id="PathCollection_4">
    <defs>
     <path d="M -2.417385 4.83477 
L 0 2.417385 
L 2.417385 4.83477 
L 4.83477 2.417385 
L 2.417385 0 
L 4.83477 -2.417385 
L 2.417385 -4.83477 
L 0 -2.417385 
L -2.417385 -4.83477 
L -4.83477 -2.417385 
L -2.417385 0 
L -4.83477 2.417385 
z
" id="m33d372fc14" style="stroke:#bcbd22;"/>
    </defs>
    <g clip-path="url(#p7e18e84e08)">
     <use style="fill:#bcbd22;stroke:#bcbd22;" x="352.725631" xlink:href="#m33d372fc14" y="171.871487"/>
    </g>
   </g>
   <g id="PathCollection_5">
    <defs>
     <path d="M 0 -3.523002 
L -3.350574 -1.088668 
L -2.070769 2.850169 
L 2.070769 2.850169 
L 3.350574 -1.088668 
z
" id="m16a0d417a7" style="stroke:#8c564b;"/>
    </defs>
    <g clip-path="url(#p7e18e84e08)">
     <use style="fill:#8c564b;stroke:#8c564b;" x="141.894781" xlink:href="#m16a0d417a7" y="160.272774"/>
    </g>
   </g>
   <g id="PathCollection_6">
    <defs>
     <path d="M -1.522667 4.568002 
L 1.522667 4.568002 
L 1.522667 1.522667 
L 4.568002 1.522667 
L 4.568002 -1.522667 
L 1.522667 -1.522667 
L 1.522667 -4.568002 
L -1.522667 -4.568002 
L -1.522667 -1.522667 
L -4.568002 -1.522667 
L -4.568002 1.522667 
L -1.522667 1.522667 
z
" id="m82df93ae29" style="stroke:#e377c2;"/>
    </defs>
    <g clip-path="url(#p7e18e84e08)">
     <use style="fill:#e377c2;stroke:#e377c2;" x="121.099497" xlink:href="#m82df93ae29" y="33.303062"/>
    </g>
   </g>
   <g id="PathCollection_7">
    <defs>
     <path d="M 4.83477 0 
L -4.83477 -4.83477 
L -4.83477 4.83477 
z
" id="m5afdc46ddb" style="stroke:#d62728;"/>
    </defs>
    <g clip-path="url(#p7e18e84e08)">
     <use style="fill:#d62728;stroke:#d62728;" x="122.003854" xlink:href="#m5afdc46ddb" y="131.828423"/>
    </g>
   </g>
   <g id="PathCollection_8">
    <g clip-path="url(#p7e18e84e08)">
     <use style="fill:#2ca02c;stroke:#2ca02c;" x="141.642158" xlink:href="#mc76031b393" y="143.146847"/>
    </g>
   </g>
   <g id="PathCollection_9">
    <g clip-path="url(#p7e18e84e08)">
     <use style="fill:#bcbd22;stroke:#bcbd22;" x="354.564631" xlink:href="#m33d372fc14" y="171.866315"/>
    </g>
   </g>
   <g id="PathCollection_10">
    <g clip-path="url(#p7e18e84e08)">
     <use style="fill:#d62728;stroke:#d62728;" x="122.938501" xlink:href="#m5afdc46ddb" y="129.789556"/>
    </g>
   </g>
   <g id="PathCollection_11">
    <defs>
     <path d="M 0 -4.83477 
L -1.085473 -1.494026 
L -4.598139 -1.494026 
L -1.756333 0.570667 
L -2.841806 3.911411 
L -0 1.846718 
L 2.841806 3.911411 
L 1.756333 0.570667 
L 4.598139 -1.494026 
L 1.085473 -1.494026 
z
" id="m2381dfef9e" style="stroke:#7f7f7f;"/>
    </defs>
    <g clip-path="url(#p7e18e84e08)">
     <use style="fill:#7f7f7f;stroke:#7f7f7f;" x="106.494569" xlink:href="#m2381dfef9e" y="117.043073"/>
    </g>
   </g>
   <g id="PathCollection_12">
    <defs>
     <path d="M -2.397916 4.795832 
L 0 2.397916 
L 2.397916 4.795832 
L 4.795832 2.397916 
L 2.397916 0 
L 4.795832 -2.397916 
L 2.397916 -4.795832 
L 0 -2.397916 
L -2.397916 -4.795832 
L -4.795832 -2.397916 
L -2.397916 0 
L -4.795832 2.397916 
z
" id="me909d351c1" style="stroke:#bcbd22;"/>
    </defs>
    <g clip-path="url(#p7e18e84e08)">
     <use style="fill:#bcbd22;stroke:#bcbd22;" x="354.280935" xlink:href="#me909d351c1" y="172.317228"/>
    </g>
   </g>
   <g id="PathCollection_13">
    <defs>
     <path d="M -4.83477 4.83477 
L 4.83477 4.83477 
L 4.83477 -4.83477 
L -4.83477 -4.83477 
z
" id="m898d6a5958" style="stroke:#9467bd;"/>
    </defs>
    <g clip-path="url(#p7e18e84e08)">
     <use style="fill:#9467bd;stroke:#9467bd;" x="51.014946" xlink:href="#m898d6a5958" y="228.831643"/>
    </g>
   </g>
   <g id="PathCollection_14">
    <defs>
     <path d="M -3.905125 3.905125 
L 3.905125 3.905125 
L 3.905125 -3.905125 
L -3.905125 -3.905125 
z
" id="m70ef6d1e78" style="stroke:#9467bd;"/>
    </defs>
    <g clip-path="url(#p7e18e84e08)">
     <use style="fill:#9467bd;stroke:#9467bd;" x="60.455485" xlink:href="#m70ef6d1e78" y="212.138758"/>
    </g>
   </g>
   <g id="PathCollection_15">
    <defs>
     <path d="M 0 -4.808846 
L -1.079653 -1.486015 
L -4.573484 -1.486015 
L -1.746916 0.567607 
L -2.826569 3.890438 
L -0 1.836816 
L 2.826569 3.890438 
L 1.746916 0.567607 
L 4.573484 -1.486015 
L 1.079653 -1.486015 
z
" id="mfbc89a645f" style="stroke:#7f7f7f;"/>
    </defs>
    <g clip-path="url(#p7e18e84e08)">
     <use style="fill:#7f7f7f;stroke:#7f7f7f;" x="107.787122" xlink:href="#mfbc89a645f" y="116.65989"/>
    </g>
   </g>
   <g id="PathCollection_16">
    <defs>
     <path d="M -1.61159 4.83477 
L 1.61159 4.83477 
L 1.61159 1.61159 
L 4.83477 1.61159 
L 4.83477 -1.61159 
L 1.61159 -1.61159 
L 1.61159 -4.83477 
L -1.61159 -4.83477 
L -1.61159 -1.61159 
L -4.83477 -1.61159 
L -4.83477 1.61159 
L -1.61159 1.61159 
z
" id="m7de39e1e1b" style="stroke:#e377c2;"/>
    </defs>
    <g clip-path="url(#p7e18e84e08)">
     <use style="fill:#e377c2;stroke:#e377c2;" x="114.293529" xlink:href="#m7de39e1e1b" y="37.130156"/>
    </g>
   </g>
   <g id="PathCollection_17">
    <defs>
     <path d="M 0 -4.795832 
L -1.076731 -1.481993 
L -4.561107 -1.481993 
L -1.742188 0.566071 
L -2.818919 3.879909 
L -0 1.831845 
L 2.818919 3.879909 
L 1.742188 0.566071 
L 4.561107 -1.481993 
L 1.076731 -1.481993 
z
" id="m05634349b7" style="stroke:#7f7f7f;"/>
    </defs>
    <g clip-path="url(#p7e18e84e08)">
     <use style="fill:#7f7f7f;stroke:#7f7f7f;" x="108.515255" xlink:href="#m05634349b7" y="116.532197"/>
    </g>
   </g>
   <g id="PathCollection_18">
    <defs>
     <path d="M -1.887459 3.774917 
L 0 1.887459 
L 1.887459 3.774917 
L 3.774917 1.887459 
L 1.887459 0 
L 3.774917 -1.887459 
L 1.887459 -3.774917 
L 0 -1.887459 
L -1.887459 -3.774917 
L -3.774917 -1.887459 
L -1.887459 0 
L -3.774917 1.887459 
z
" id="m7df582a407" style="stroke:#bcbd22;"/>
    </defs>
    <g clip-path="url(#p7e18e84e08)">
     <use style="fill:#bcbd22;stroke:#bcbd22;" x="328.565095" xlink:href="#m7df582a407" y="163.890843"/>
    </g>
   </g>
   <g id="PathCollection_19">
    <defs>
     <path d="M -3.259601 -0 
L 3.259601 3.259601 
L 3.259601 -3.259601 
z
" id="mcb947e7e83" style="stroke:#2ca02c;"/>
    </defs>
    <g clip-path="url(#p7e18e84e08)">
     <use style="fill:#2ca02c;stroke:#2ca02c;" x="139.978579" xlink:href="#mcb947e7e83" y="129.24533"/>
    </g>
   </g>
   <g id="PathCollection_20">
    <defs>
     <path d="M -2.410913 4.821825 
L 0 2.410913 
L 2.410913 4.821825 
L 4.821825 2.410913 
L 2.410913 0 
L 4.821825 -2.410913 
L 2.410913 -4.821825 
L 0 -2.410913 
L -2.410913 -4.821825 
L -4.821825 -2.410913 
L -2.410913 0 
L -4.821825 2.410913 
z
" id="m6e2e05848a" style="stroke:#bcbd22;"/>
    </defs>
    <g clip-path="url(#p7e18e84e08)">
     <use style="fill:#bcbd22;stroke:#bcbd22;" x="352.944432" xlink:href="#m6e2e05848a" y="171.830537"/>
    </g>
   </g>
   <g id="PathCollection_21">
    <g clip-path="url(#p7e18e84e08)">
     <use style="fill:#bcbd22;stroke:#bcbd22;" x="354.533987" xlink:href="#m6e2e05848a" y="171.93354"/>
    </g>
   </g>
   <g id="PathCollection_22">
    <defs>
     <path d="M 0 -4.83477 
L -4.83477 4.83477 
L 4.83477 4.83477 
z
" id="mdcca66b6f8" style="stroke:#ff7f0e;"/>
    </defs>
    <g clip-path="url(#p7e18e84e08)">
     <use style="fill:#ff7f0e;stroke:#ff7f0e;" x="115.957569" xlink:href="#mdcca66b6f8" y="172.957613"/>
    </g>
   </g>
   <g id="PathCollection_23">
    <defs>
     <path d="M -4.821825 4.821825 
L 4.821825 4.821825 
L 4.821825 -4.821825 
L -4.821825 -4.821825 
z
" id="m7f7bb6cc0c" style="stroke:#9467bd;"/>
    </defs>
    <g clip-path="url(#p7e18e84e08)">
     <use style="fill:#9467bd;stroke:#9467bd;" x="51.28925" xlink:href="#m7f7bb6cc0c" y="226.086866"/>
    </g>
   </g>
   <g id="PathCollection_24">
    <defs>
     <path d="M -0 3.745817 
L 3.745817 -3.745817 
L -3.745817 -3.745817 
z
" id="mfbf565ae63" style="stroke:#1f77b4;"/>
    </defs>
    <g clip-path="url(#p7e18e84e08)">
     <use style="fill:#1f77b4;stroke:#1f77b4;" x="186.348626" xlink:href="#mfbf565ae63" y="120.958073"/>
    </g>
   </g>
   <g id="PathCollection_25">
    <defs>
     <path d="M 0 -2.385593 
L -0.535599 -0.737189 
L -2.268834 -0.737189 
L -0.866617 0.281581 
L -1.402216 1.929985 
L -0 0.911215 
L 1.402216 1.929985 
L 0.866617 0.281581 
L 2.268834 -0.737189 
L 0.535599 -0.737189 
z
" id="ma88e2bd564" style="stroke:#7f7f7f;"/>
    </defs>
    <g clip-path="url(#p7e18e84e08)">
     <use style="fill:#7f7f7f;stroke:#7f7f7f;" x="124.666432" xlink:href="#ma88e2bd564" y="112.77673"/>
    </g>
   </g>
   <g id="PathCollection_26">
    <defs>
     <path d="M -1.594261 4.782782 
L 1.594261 4.782782 
L 1.594261 1.594261 
L 4.782782 1.594261 
L 4.782782 -1.594261 
L 1.594261 -1.594261 
L 1.594261 -4.782782 
L -1.594261 -4.782782 
L -1.594261 -1.594261 
L -4.782782 -1.594261 
L -4.782782 1.594261 
L -1.594261 1.594261 
z
" id="m56f37c8de9" style="stroke:#e377c2;"/>
    </defs>
    <g clip-path="url(#p7e18e84e08)">
     <use style="fill:#e377c2;stroke:#e377c2;" x="113.902685" xlink:href="#m56f37c8de9" y="35.3371"/>
    </g>
   </g>
   <g id="PathCollection_27">
    <defs>
     <path d="M 0 -4.808759 
L -4.808759 4.808759 
L 4.808759 4.808759 
z
" id="m4e9a8f7ae1" style="stroke:#ff7f0e;"/>
    </defs>
    <g clip-path="url(#p7e18e84e08)">
     <use style="fill:#ff7f0e;stroke:#ff7f0e;" x="115.336973" xlink:href="#m4e9a8f7ae1" y="173.498028"/>
    </g>
   </g>
   <g id="PathCollection_28">
    <g clip-path="url(#p7e18e84e08)">
     <use style="fill:#ff7f0e;stroke:#ff7f0e;" x="112.098339" xlink:href="#mdcca66b6f8" y="178.174294"/>
    </g>
   </g>
   <g id="PathCollection_29">
    <g clip-path="url(#p7e18e84e08)">
     <use style="fill:#d62728;stroke:#d62728;" x="120.49703" xlink:href="#m5afdc46ddb" y="132.145996"/>
    </g>
   </g>
   <g id="PathCollection_30">
    <defs>
     <path d="M 3.921097 0 
L -3.921097 -3.921097 
L -3.921097 3.921097 
z
" id="m664d7ab6c2" style="stroke:#d62728;"/>
    </defs>
    <g clip-path="url(#p7e18e84e08)">
     <use style="fill:#d62728;stroke:#d62728;" x="120.518233" xlink:href="#m664d7ab6c2" y="117.184469"/>
    </g>
   </g>
   <g id="PathCollection_31">
    <defs>
     <path d="M 4.730222 0 
L -4.730222 -4.730222 
L -4.730222 4.730222 
z
" id="m2703a5e952" style="stroke:#d62728;"/>
    </defs>
    <g clip-path="url(#p7e18e84e08)">
     <use style="fill:#d62728;stroke:#d62728;" x="124.066986" xlink:href="#m2703a5e952" y="132.098523"/>
    </g>
   </g>
   <g id="PathCollection_32">
    <defs>
     <path d="M 0 -4.83477 
L -4.598139 -1.494026 
L -2.841806 3.911411 
L 2.841806 3.911411 
L 4.598139 -1.494026 
z
" id="m1c183423c8" style="stroke:#8c564b;"/>
    </defs>
    <g clip-path="url(#p7e18e84e08)">
     <use style="fill:#8c564b;stroke:#8c564b;" x="123.661071" xlink:href="#m1c183423c8" y="170.994716"/>
    </g>
   </g>
   <g id="PathCollection_33">
    <defs>
     <path d="M -2.338536 4.677072 
L 0 2.338536 
L 2.338536 4.677072 
L 4.677072 2.338536 
L 2.338536 0 
L 4.677072 -2.338536 
L 2.338536 -4.677072 
L 0 -2.338536 
L -2.338536 -4.677072 
L -4.677072 -2.338536 
L -2.338536 0 
L -4.677072 2.338536 
z
" id="m3f82be5f46" style="stroke:#bcbd22;"/>
    </defs>
    <g clip-path="url(#p7e18e84e08)">
     <use style="fill:#bcbd22;stroke:#bcbd22;" x="351.856642" xlink:href="#m3f82be5f46" y="172.568612"/>
    </g>
   </g>
   <g id="PathCollection_34">
    <defs>
     <path d="M 2.061553 0 
L -2.061553 -2.061553 
L -2.061553 2.061553 
z
" id="m60e910a79a" style="stroke:#d62728;"/>
    </defs>
    <g clip-path="url(#p7e18e84e08)">
     <use style="fill:#d62728;stroke:#d62728;" x="130.605157" xlink:href="#m60e910a79a" y="151.851309"/>
    </g>
   </g>
   <g id="PathCollection_35">
    <g clip-path="url(#p7e18e84e08)">
     <use style="fill:#e377c2;stroke:#e377c2;" x="114.861672" xlink:href="#m7de39e1e1b" y="34.62016"/>
    </g>
   </g>
   <g id="PathCollection_36">
    <defs>
     <path d="M 0 -4.555217 
L -1.02271 -1.407639 
L -4.332269 -1.407639 
L -1.654779 0.53767 
L -2.677489 3.685248 
L -0 1.739938 
L 2.677489 3.685248 
L 1.654779 0.53767 
L 4.332269 -1.407639 
L 1.02271 -1.407639 
z
" id="mdf7ebfab2b" style="stroke:#7f7f7f;"/>
    </defs>
    <g clip-path="url(#p7e18e84e08)">
     <use style="fill:#7f7f7f;stroke:#7f7f7f;" x="109.107968" xlink:href="#mdf7ebfab2b" y="119.111707"/>
    </g>
   </g>
   <g id="PathCollection_37">
    <g clip-path="url(#p7e18e84e08)">
     <use style="fill:#d62728;stroke:#d62728;" x="123.899476" xlink:href="#m5afdc46ddb" y="131.360194"/>
    </g>
   </g>
   <g id="PathCollection_38">
    <defs>
     <path d="M -4.180951 -0 
L 4.180951 4.180951 
L 4.180951 -4.180951 
z
" id="mea9f545348" style="stroke:#2ca02c;"/>
    </defs>
    <g clip-path="url(#p7e18e84e08)">
     <use style="fill:#2ca02c;stroke:#2ca02c;" x="144.513644" xlink:href="#mea9f545348" y="141.385572"/>
    </g>
   </g>
   <g id="PathCollection_39">
    <defs>
     <path d="M -1.567907 4.703722 
L 1.567907 4.703722 
L 1.567907 1.567907 
L 4.703722 1.567907 
L 4.703722 -1.567907 
L 1.567907 -1.567907 
L 1.567907 -4.703722 
L -1.567907 -4.703722 
L -1.567907 -1.567907 
L -4.703722 -1.567907 
L -4.703722 1.567907 
L -1.567907 1.567907 
z
" id="m37f542fa4d" style="stroke:#e377c2;"/>
    </defs>
    <g clip-path="url(#p7e18e84e08)">
     <use style="fill:#e377c2;stroke:#e377c2;" x="116.880833" xlink:href="#m37f542fa4d" y="34.373921"/>
    </g>
   </g>
   <g id="PathCollection_40">
    <defs>
     <path d="M 4.756574 0 
L -4.756574 -4.756574 
L -4.756574 4.756574 
z
" id="m0d0a35f3d6" style="stroke:#d62728;"/>
    </defs>
    <g clip-path="url(#p7e18e84e08)">
     <use style="fill:#d62728;stroke:#d62728;" x="124.547345" xlink:href="#m0d0a35f3d6" y="131.8675"/>
    </g>
   </g>
   <g id="PathCollection_41">
    <defs>
     <path d="M -4.703722 4.703722 
L 4.703722 4.703722 
L 4.703722 -4.703722 
L -4.703722 -4.703722 
z
" id="m562958ccff" style="stroke:#9467bd;"/>
    </defs>
    <g clip-path="url(#p7e18e84e08)">
     <use style="fill:#9467bd;stroke:#9467bd;" x="52.890256" xlink:href="#m562958ccff" y="227.044332"/>
    </g>
   </g>
   <g id="PathCollection_42">
    <defs>
     <path d="M -0 6.837397 
L 6.837397 0 
L 0 -6.837397 
L -6.837397 -0 
z
" id="m52721be54d" style="stroke:#17becf;"/>
    </defs>
    <g clip-path="url(#p7e18e84e08)">
     <use style="fill:#17becf;stroke:#17becf;" x="156.160192" xlink:href="#m52721be54d" y="124.903839"/>
    </g>
   </g>
   <g id="PathCollection_43">
    <defs>
     <path d="M 0 -4.808846 
L -4.808846 4.808846 
L 4.808846 4.808846 
z
" id="m8e63731681" style="stroke:#ff7f0e;"/>
    </defs>
    <g clip-path="url(#p7e18e84e08)">
     <use style="fill:#ff7f0e;stroke:#ff7f0e;" x="114.407731" xlink:href="#m8e63731681" y="175.125121"/>
    </g>
   </g>
   <g id="PathCollection_44">
    <defs>
     <path d="M -4.716991 -0 
L 4.716991 4.716991 
L 4.716991 -4.716991 
z
" id="m67f46e638b" style="stroke:#2ca02c;"/>
    </defs>
    <g clip-path="url(#p7e18e84e08)">
     <use style="fill:#2ca02c;stroke:#2ca02c;" x="140.142144" xlink:href="#m67f46e638b" y="143.964567"/>
    </g>
   </g>
   <g id="PathCollection_45">
    <g clip-path="url(#p7e18e84e08)">
     <use style="fill:#e377c2;stroke:#e377c2;" x="114.034339" xlink:href="#m7de39e1e1b" y="36.18659"/>
    </g>
   </g>
   <g id="PathCollection_46">
    <g clip-path="url(#p7e18e84e08)">
     <use style="fill:#8c564b;stroke:#8c564b;" x="121.019868" xlink:href="#m1c183423c8" y="169.967298"/>
    </g>
   </g>
   <g id="PathCollection_47">
    <defs>
     <path d="M -0 4.83477 
L 4.83477 -4.83477 
L -4.83477 -4.83477 
z
" id="mfd13127e32" style="stroke:#1f77b4;"/>
    </defs>
    <g clip-path="url(#p7e18e84e08)">
     <use style="fill:#1f77b4;stroke:#1f77b4;" x="202.420353" xlink:href="#mfd13127e32" y="117.237201"/>
    </g>
   </g>
   <g id="PathCollection_48">
    <defs>
     <path d="M -2.404423 4.808846 
L 0 2.404423 
L 2.404423 4.808846 
L 4.808846 2.404423 
L 2.404423 0 
L 4.808846 -2.404423 
L 2.404423 -4.808846 
L 0 -2.404423 
L -2.404423 -4.808846 
L -4.808846 -2.404423 
L -2.404423 0 
L -4.808846 2.404423 
z
" id="m9b8691d3c1" style="stroke:#bcbd22;"/>
    </defs>
    <g clip-path="url(#p7e18e84e08)">
     <use style="fill:#bcbd22;stroke:#bcbd22;" x="352.095216" xlink:href="#m9b8691d3c1" y="171.468276"/>
    </g>
   </g>
   <g id="PathCollection_49">
    <defs>
     <path d="M 0 0 
L 0 0 
L 0 0 
z
" id="m77d39e007a" style="stroke:#1f77b4;"/>
    </defs>
    <g clip-path="url(#p7e18e84e08)">
     <use style="fill:#1f77b4;stroke:#1f77b4;" x="205.945612" xlink:href="#m77d39e007a" y="72.604597"/>
    </g>
   </g>
   <g id="PathCollection_50">
    <defs>
     <path d="M -4.41588 4.41588 
L 4.41588 4.41588 
L 4.41588 -4.41588 
L -4.41588 -4.41588 
z
" id="me468e3dbb4" style="stroke:#9467bd;"/>
    </defs>
    <g clip-path="url(#p7e18e84e08)">
     <use style="fill:#9467bd;stroke:#9467bd;" x="50.200994" xlink:href="#me468e3dbb4" y="223.761229"/>
    </g>
   </g>
   <g id="PathCollection_51">
    <defs>
     <path d="M -0 4.756836 
L 4.756836 -4.756836 
L -4.756836 -4.756836 
z
" id="mdb36c4ab38" style="stroke:#1f77b4;"/>
    </defs>
    <g clip-path="url(#p7e18e84e08)">
     <use style="fill:#1f77b4;stroke:#1f77b4;" x="200.588313" xlink:href="#mdb36c4ab38" y="117.400183"/>
    </g>
   </g>
   <g id="PathCollection_52">
    <defs>
     <path d="M 0 -2.42384 
L -0.544186 -0.749008 
L -2.305209 -0.749008 
L -0.880511 0.286095 
L -1.424697 1.960928 
L -0 0.925824 
L 1.424697 1.960928 
L 0.880511 0.286095 
L 2.305209 -0.749008 
L 0.544186 -0.749008 
z
" id="m76d4cac66c" style="stroke:#7f7f7f;"/>
    </defs>
    <g clip-path="url(#p7e18e84e08)">
     <use style="fill:#7f7f7f;stroke:#7f7f7f;" x="113.493179" xlink:href="#m76d4cac66c" y="136.665073"/>
    </g>
   </g>
   <g id="PathCollection_53">
    <g clip-path="url(#p7e18e84e08)">
     <use style="fill:#bcbd22;stroke:#bcbd22;" x="354.219725" xlink:href="#m33d372fc14" y="170.78315"/>
    </g>
   </g>
   <g id="PathCollection_54">
    <defs>
     <path d="M -0 4.034064 
L 4.034064 -4.034064 
L -4.034064 -4.034064 
z
" id="mc23e8ab4a1" style="stroke:#1f77b4;"/>
    </defs>
    <g clip-path="url(#p7e18e84e08)">
     <use style="fill:#1f77b4;stroke:#1f77b4;" x="194.19791" xlink:href="#mc23e8ab4a1" y="114.214857"/>
    </g>
   </g>
   <g id="PathCollection_55">
    <g clip-path="url(#p7e18e84e08)">
     <use style="fill:#7f7f7f;stroke:#7f7f7f;" x="107.179672" xlink:href="#m2381dfef9e" y="115.983584"/>
    </g>
   </g>
   <g id="PathCollection_56">
    <g clip-path="url(#p7e18e84e08)">
     <use style="fill:#bcbd22;stroke:#bcbd22;" x="352.259238" xlink:href="#m3f82be5f46" y="172.038779"/>
    </g>
   </g>
   <g id="PathCollection_57">
    <defs>
     <path d="M 0 -4.344537 
L -4.344537 4.344537 
L 4.344537 4.344537 
z
" id="m582f2a95e3" style="stroke:#ff7f0e;"/>
    </defs>
    <g clip-path="url(#p7e18e84e08)">
     <use style="fill:#ff7f0e;stroke:#ff7f0e;" x="113.611851" xlink:href="#m582f2a95e3" y="175.039633"/>
    </g>
   </g>
   <g id="PathCollection_58">
    <defs>
     <path d="M -0 4.821825 
L 4.821825 -4.821825 
L -4.821825 -4.821825 
z
" id="mca3253e1e3" style="stroke:#1f77b4;"/>
    </defs>
    <g clip-path="url(#p7e18e84e08)">
     <use style="fill:#1f77b4;stroke:#1f77b4;" x="197.927007" xlink:href="#mca3253e1e3" y="116.609905"/>
    </g>
   </g>
   <g id="PathCollection_59">
    <g clip-path="url(#p7e18e84e08)">
     <use style="fill:#ff7f0e;stroke:#ff7f0e;" x="114.15954" xlink:href="#mdcca66b6f8" y="175.113188"/>
    </g>
   </g>
   <g id="PathCollection_60">
    <defs>
     <path d="M -1.118034 2.236068 
L 0 1.118034 
L 1.118034 2.236068 
L 2.236068 1.118034 
L 1.118034 0 
L 2.236068 -1.118034 
L 1.118034 -2.236068 
L 0 -1.118034 
L -1.118034 -2.236068 
L -2.236068 -1.118034 
L -1.118034 0 
L -2.236068 1.118034 
z
" id="m7a929465eb" style="stroke:#bcbd22;"/>
    </defs>
    <g clip-path="url(#p7e18e84e08)">
     <use style="fill:#bcbd22;stroke:#bcbd22;" x="265.026676" xlink:href="#m7a929465eb" y="167.813004"/>
    </g>
   </g>
   <g id="PathCollection_61">
    <g clip-path="url(#p7e18e84e08)">
     <use style="fill:#e377c2;stroke:#e377c2;" x="119.849279" xlink:href="#m7de39e1e1b" y="33.230787"/>
    </g>
   </g>
   <g id="PathCollection_62">
    <defs>
     <path d="M 0 -4.541476 
L -1.019625 -1.403393 
L -4.3192 -1.403393 
L -1.649788 0.536048 
L -2.669412 3.674131 
L -0 1.734689 
L 2.669412 3.674131 
L 1.649788 0.536048 
L 4.3192 -1.403393 
L 1.019625 -1.403393 
z
" id="m22c48f3e99" style="stroke:#7f7f7f;"/>
    </defs>
    <g clip-path="url(#p7e18e84e08)">
     <use style="fill:#7f7f7f;stroke:#7f7f7f;" x="110.441297" xlink:href="#m22c48f3e99" y="113.471309"/>
    </g>
   </g>
   <g id="PathCollection_63">
    <g clip-path="url(#p7e18e84e08)">
     <use style="fill:#17becf;stroke:#17becf;" x="153.093806" xlink:href="#m52721be54d" y="121.458419"/>
    </g>
   </g>
   <g id="PathCollection_64">
    <g clip-path="url(#p7e18e84e08)">
     <use style="fill:#9467bd;stroke:#9467bd;" x="53.113171" xlink:href="#m898d6a5958" y="228.581633"/>
    </g>
   </g>
   <g id="PathCollection_65">
    <g clip-path="url(#p7e18e84e08)">
     <use style="fill:#e377c2;stroke:#e377c2;" x="119.840369" xlink:href="#m7de39e1e1b" y="32.201761"/>
    </g>
   </g>
   <g id="PathCollection_66">
    <defs>
     <path d="M 0 -3.482097 
L -3.311671 -1.076027 
L -2.046725 2.817076 
L 2.046725 2.817076 
L 3.311671 -1.076027 
z
" id="m70c635ab9e" style="stroke:#8c564b;"/>
    </defs>
    <g clip-path="url(#p7e18e84e08)">
     <use style="fill:#8c564b;stroke:#8c564b;" x="114.384466" xlink:href="#m70c635ab9e" y="175.486917"/>
    </g>
   </g>
   <g id="PathCollection_67">
    <defs>
     <path d="M -0 6.538348 
L 6.538348 0 
L 0 -6.538348 
L -6.538348 -0 
z
" id="m1ab8151f37" style="stroke:#17becf;"/>
    </defs>
    <g clip-path="url(#p7e18e84e08)">
     <use style="fill:#17becf;stroke:#17becf;" x="152.640809" xlink:href="#m1ab8151f37" y="119.589789"/>
    </g>
   </g>
   <g id="PathCollection_68">
    <defs>
     <path d="M 4.703722 0 
L -4.703722 -4.703722 
L -4.703722 4.703722 
z
" id="maf8b3727c5" style="stroke:#d62728;"/>
    </defs>
    <g clip-path="url(#p7e18e84e08)">
     <use style="fill:#d62728;stroke:#d62728;" x="119.650963" xlink:href="#maf8b3727c5" y="130.213265"/>
    </g>
   </g>
   <g id="PathCollection_69">
    <g clip-path="url(#p7e18e84e08)">
     <use style="fill:#9467bd;stroke:#9467bd;" x="50.852976" xlink:href="#m898d6a5958" y="229.874489"/>
    </g>
   </g>
   <g id="PathCollection_70">
    <defs>
     <path d="M -4.743416 -0 
L 4.743416 4.743416 
L 4.743416 -4.743416 
z
" id="m13c5dd8334" style="stroke:#2ca02c;"/>
    </defs>
    <g clip-path="url(#p7e18e84e08)">
     <use style="fill:#2ca02c;stroke:#2ca02c;" x="141.667371" xlink:href="#m13c5dd8334" y="149.155262"/>
    </g>
   </g>
   <g id="PathCollection_71">
    <defs>
     <path d="M -2.915476 2.915476 
L 2.915476 2.915476 
L 2.915476 -2.915476 
L -2.915476 -2.915476 
z
" id="m5a3c9b86ea" style="stroke:#9467bd;"/>
    </defs>
    <g clip-path="url(#p7e18e84e08)">
     <use style="fill:#9467bd;stroke:#9467bd;" x="65.402804" xlink:href="#m5a3c9b86ea" y="199.443758"/>
    </g>
   </g>
   <g id="PathCollection_72">
    <defs>
     <path d="M -4.716991 4.716991 
L 4.716991 4.716991 
L 4.716991 -4.716991 
L -4.716991 -4.716991 
z
" id="m2241631fe9" style="stroke:#9467bd;"/>
    </defs>
    <g clip-path="url(#p7e18e84e08)">
     <use style="fill:#9467bd;stroke:#9467bd;" x="51.099032" xlink:href="#m2241631fe9" y="228.84708"/>
    </g>
   </g>
   <g id="PathCollection_73">
    <defs>
     <path d="M -0.777476 2.332427 
L 0.777476 2.332427 
L 0.777476 0.777476 
L 2.332427 0.777476 
L 2.332427 -0.777476 
L 0.777476 -0.777476 
L 0.777476 -2.332427 
L -0.777476 -2.332427 
L -0.777476 -0.777476 
L -2.332427 -0.777476 
L -2.332427 0.777476 
L -0.777476 0.777476 
z
" id="md4645b8504" style="stroke:#e377c2;"/>
    </defs>
    <g clip-path="url(#p7e18e84e08)">
     <use style="fill:#e377c2;stroke:#e377c2;" x="118.475761" xlink:href="#md4645b8504" y="72.564509"/>
    </g>
   </g>
   <g id="PathCollection_74">
    <defs>
     <path d="M 2.635381 0 
L -2.635381 -2.635381 
L -2.635381 2.635381 
z
" id="m33b5ee0ae1" style="stroke:#d62728;"/>
    </defs>
    <g clip-path="url(#p7e18e84e08)">
     <use style="fill:#d62728;stroke:#d62728;" x="118.583443" xlink:href="#m33b5ee0ae1" y="128.814696"/>
    </g>
   </g>
   <g id="PathCollection_75">
    <defs>
     <path d="M -1.607275 4.821825 
L 1.607275 4.821825 
L 1.607275 1.607275 
L 4.821825 1.607275 
L 4.821825 -1.607275 
L 1.607275 -1.607275 
L 1.607275 -4.821825 
L -1.607275 -4.821825 
L -1.607275 -1.607275 
L -4.821825 -1.607275 
L -4.821825 1.607275 
L -1.607275 1.607275 
z
" id="m3f997d1bb5" style="stroke:#e377c2;"/>
    </defs>
    <g clip-path="url(#p7e18e84e08)">
     <use style="fill:#e377c2;stroke:#e377c2;" x="120.69432" xlink:href="#m3f997d1bb5" y="33.310184"/>
    </g>
   </g>
   <g id="PathCollection_76">
    <defs>
     <path d="M -0 4.743416 
L 4.743416 -4.743416 
L -4.743416 -4.743416 
z
" id="m88e83f5e25" style="stroke:#1f77b4;"/>
    </defs>
    <g clip-path="url(#p7e18e84e08)">
     <use style="fill:#1f77b4;stroke:#1f77b4;" x="204.635005" xlink:href="#m88e83f5e25" y="115.458039"/>
    </g>
   </g>
   <g id="PathCollection_77">
    <defs>
     <path d="M 0 -4.821825 
L -4.821825 4.821825 
L 4.821825 4.821825 
z
" id="m100791a319" style="stroke:#ff7f0e;"/>
    </defs>
    <g clip-path="url(#p7e18e84e08)">
     <use style="fill:#ff7f0e;stroke:#ff7f0e;" x="112.545611" xlink:href="#m100791a319" y="177.511202"/>
    </g>
   </g>
   <g id="PathCollection_78">
    <defs>
     <path d="M -0 5.722762 
L 5.722762 0 
L 0 -5.722762 
L -5.722762 -0 
z
" id="m223f2c3ba5" style="stroke:#17becf;"/>
    </defs>
    <g clip-path="url(#p7e18e84e08)">
     <use style="fill:#17becf;stroke:#17becf;" x="162.116359" xlink:href="#m223f2c3ba5" y="117.393883"/>
    </g>
   </g>
   <g id="PathCollection_79">
    <defs>
     <path d="M 0 -3.341511 
L -3.177966 -1.032584 
L -1.964091 2.703339 
L 1.964091 2.703339 
L 3.177966 -1.032584 
z
" id="m49fa82075e" style="stroke:#8c564b;"/>
    </defs>
    <g clip-path="url(#p7e18e84e08)">
     <use style="fill:#8c564b;stroke:#8c564b;" x="145.776367" xlink:href="#m49fa82075e" y="151.17118"/>
    </g>
   </g>
   <g id="PathCollection_80">
    <defs>
     <path d="M 0 -4.795832 
L -4.561107 -1.481993 
L -2.818919 3.879909 
L 2.818919 3.879909 
L 4.561107 -1.481993 
z
" id="m90bd5f11d5" style="stroke:#8c564b;"/>
    </defs>
    <g clip-path="url(#p7e18e84e08)">
     <use style="fill:#8c564b;stroke:#8c564b;" x="121.683794" xlink:href="#m90bd5f11d5" y="172.358122"/>
    </g>
   </g>
   <g id="PathCollection_81">
    <defs>
     <path d="M -4.227884 4.227884 
L 4.227884 4.227884 
L 4.227884 -4.227884 
L -4.227884 -4.227884 
z
" id="m8b0ae37bd7" style="stroke:#9467bd;"/>
    </defs>
    <g clip-path="url(#p7e18e84e08)">
     <use style="fill:#9467bd;stroke:#9467bd;" x="54.826356" xlink:href="#m8b0ae37bd7" y="219.796823"/>
    </g>
   </g>
   <g id="PathCollection_82">
    <g clip-path="url(#p7e18e84e08)">
     <use style="fill:#9467bd;stroke:#9467bd;" x="52.035015" xlink:href="#m898d6a5958" y="228.239756"/>
    </g>
   </g>
   <g id="PathCollection_83">
    <defs>
     <path d="M -0 6.30476 
L 6.30476 0 
L 0 -6.30476 
L -6.30476 -0 
z
" id="m226adba797" style="stroke:#17becf;"/>
    </defs>
    <g clip-path="url(#p7e18e84e08)">
     <use style="fill:#17becf;stroke:#17becf;" x="146.53133" xlink:href="#m226adba797" y="124.53625"/>
    </g>
   </g>
   <g id="PathCollection_84">
    <defs>
     <path d="M 0 -3.427827 
L -3.427827 3.427827 
L 3.427827 3.427827 
z
" id="m32c8146191" style="stroke:#ff7f0e;"/>
    </defs>
    <g clip-path="url(#p7e18e84e08)">
     <use style="fill:#ff7f0e;stroke:#ff7f0e;" x="114.091273" xlink:href="#m32c8146191" y="167.324055"/>
    </g>
   </g>
   <g id="PathCollection_85">
    <defs>
     <path d="M -0 3.354102 
L 3.354102 -3.354102 
L -3.354102 -3.354102 
z
" id="me3aae193e3" style="stroke:#1f77b4;"/>
    </defs>
    <g clip-path="url(#p7e18e84e08)">
     <use style="fill:#1f77b4;stroke:#1f77b4;" x="227.634228" xlink:href="#me3aae193e3" y="120.14985"/>
    </g>
   </g>
   <g id="PathCollection_86">
    <g clip-path="url(#p7e18e84e08)">
     <use style="fill:#2ca02c;stroke:#2ca02c;" x="136.888063" xlink:href="#mc76031b393" y="143.398257"/>
    </g>
   </g>
   <g id="PathCollection_87">
    <defs>
     <path d="M -1.520691 3.041381 
L 0 1.520691 
L 1.520691 3.041381 
L 3.041381 1.520691 
L 1.520691 0 
L 3.041381 -1.520691 
L 1.520691 -3.041381 
L 0 -1.520691 
L -1.520691 -3.041381 
L -3.041381 -1.520691 
L -1.520691 0 
L -3.041381 1.520691 
z
" id="meeab672e30" style="stroke:#bcbd22;"/>
    </defs>
    <g clip-path="url(#p7e18e84e08)">
     <use style="fill:#bcbd22;stroke:#bcbd22;" x="333.99378" xlink:href="#meeab672e30" y="167.780576"/>
    </g>
   </g>
   <g id="PathCollection_88">
    <defs>
     <path d="M -0 6.819091 
L 6.819091 0 
L 0 -6.819091 
L -6.819091 -0 
z
" id="mb4627c1b55" style="stroke:#17becf;"/>
    </defs>
    <g clip-path="url(#p7e18e84e08)">
     <use style="fill:#17becf;stroke:#17becf;" x="155.466207" xlink:href="#mb4627c1b55" y="123.577985"/>
    </g>
   </g>
   <g id="PathCollection_89">
    <defs>
     <path d="M -1.027402 3.082207 
L 1.027402 3.082207 
L 1.027402 1.027402 
L 3.082207 1.027402 
L 3.082207 -1.027402 
L 1.027402 -1.027402 
L 1.027402 -3.082207 
L -1.027402 -3.082207 
L -1.027402 -1.027402 
L -3.082207 -1.027402 
L -3.082207 1.027402 
L -1.027402 1.027402 
z
" id="m1d26b4b996" style="stroke:#e377c2;"/>
    </defs>
    <g clip-path="url(#p7e18e84e08)">
     <use style="fill:#e377c2;stroke:#e377c2;" x="146.20374" xlink:href="#m1d26b4b996" y="45.54119"/>
    </g>
   </g>
   <g id="PathCollection_90">
    <g clip-path="url(#p7e18e84e08)">
     <use style="fill:#e377c2;stroke:#e377c2;" x="119.841434" xlink:href="#m7de39e1e1b" y="32.62417"/>
    </g>
   </g>
   <g id="PathCollection_91">
    <defs>
     <path d="M 0 -4.821825 
L -1.082567 -1.490026 
L -4.585828 -1.490026 
L -1.751631 0.569139 
L -2.834198 3.900939 
L -0 1.841773 
L 2.834198 3.900939 
L 1.751631 0.569139 
L 4.585828 -1.490026 
L 1.082567 -1.490026 
z
" id="m65d343c35e" style="stroke:#7f7f7f;"/>
    </defs>
    <g clip-path="url(#p7e18e84e08)">
     <use style="fill:#7f7f7f;stroke:#7f7f7f;" x="111.854834" xlink:href="#m65d343c35e" y="112.855221"/>
    </g>
   </g>
   <g id="PathCollection_92">
    <defs>
     <path d="M 0 -4.609772 
L -4.384154 -1.424498 
L -2.709556 3.729384 
L 2.709556 3.729384 
L 4.384154 -1.424498 
z
" id="mc25fbc0d0c" style="stroke:#8c564b;"/>
    </defs>
    <g clip-path="url(#p7e18e84e08)">
     <use style="fill:#8c564b;stroke:#8c564b;" x="134.163238" xlink:href="#mc25fbc0d0c" y="166.93498"/>
    </g>
   </g>
   <g id="PathCollection_93">
    <g clip-path="url(#p7e18e84e08)">
     <use style="fill:#1f77b4;stroke:#1f77b4;" x="199.569404" xlink:href="#mfd13127e32" y="116.260835"/>
    </g>
   </g>
   <g id="PathCollection_94">
    <defs>
     <path d="M -2.186607 4.373214 
L 0 2.186607 
L 2.186607 4.373214 
L 4.373214 2.186607 
L 2.186607 0 
L 4.373214 -2.186607 
L 2.186607 -4.373214 
L 0 -2.186607 
L -2.186607 -4.373214 
L -4.373214 -2.186607 
L -2.186607 0 
L -4.373214 2.186607 
z
" id="m04c4f84181" style="stroke:#bcbd22;"/>
    </defs>
    <g clip-path="url(#p7e18e84e08)">
     <use style="fill:#bcbd22;stroke:#bcbd22;" x="352.10779" xlink:href="#m04c4f84181" y="172.919277"/>
    </g>
   </g>
   <g id="PathCollection_95">
    <g clip-path="url(#p7e18e84e08)">
     <use style="fill:#17becf;stroke:#17becf;" x="152.202814" xlink:href="#mb4627c1b55" y="123.847788"/>
    </g>
   </g>
   <g id="PathCollection_96">
    <g clip-path="url(#p7e18e84e08)">
     <use style="fill:#1f77b4;stroke:#1f77b4;" x="202.616879" xlink:href="#mfd13127e32" y="117.631793"/>
    </g>
   </g>
   <g id="PathCollection_97">
    <defs>
     <path d="M -0 6.442049 
L 6.442049 0 
L 0 -6.442049 
L -6.442049 -0 
z
" id="mbafd526ab7" style="stroke:#17becf;"/>
    </defs>
    <g clip-path="url(#p7e18e84e08)">
     <use style="fill:#17becf;stroke:#17becf;" x="155.58539" xlink:href="#mbafd526ab7" y="125.021432"/>
    </g>
   </g>
   <g id="PathCollection_98">
    <defs>
     <path d="M -4.198214 4.198214 
L 4.198214 4.198214 
L 4.198214 -4.198214 
L -4.198214 -4.198214 
z
" id="m8ffca685ac" style="stroke:#9467bd;"/>
    </defs>
    <g clip-path="url(#p7e18e84e08)">
     <use style="fill:#9467bd;stroke:#9467bd;" x="54.686379" xlink:href="#m8ffca685ac" y="224.496687"/>
    </g>
   </g>
   <g id="PathCollection_99">
    <defs>
     <path d="M -1.532065 4.596194 
L 1.532065 4.596194 
L 1.532065 1.532065 
L 4.596194 1.532065 
L 4.596194 -1.532065 
L 1.532065 -1.532065 
L 1.532065 -4.596194 
L -1.532065 -4.596194 
L -1.532065 -1.532065 
L -4.596194 -1.532065 
L -4.596194 1.532065 
L -1.532065 1.532065 
z
" id="mad524bb749" style="stroke:#e377c2;"/>
    </defs>
    <g clip-path="url(#p7e18e84e08)">
     <use style="fill:#e377c2;stroke:#e377c2;" x="114.688876" xlink:href="#mad524bb749" y="36.000164"/>
    </g>
   </g>
   <g id="PathCollection_100">
    <defs>
     <path d="M -3.553168 3.553168 
L 3.553168 3.553168 
L 3.553168 -3.553168 
L -3.553168 -3.553168 
z
" id="m017be318b0" style="stroke:#9467bd;"/>
    </defs>
    <g clip-path="url(#p7e18e84e08)">
     <use style="fill:#9467bd;stroke:#9467bd;" x="52.661306" xlink:href="#m017be318b0" y="225.286815"/>
    </g>
   </g>
   <g id="patch_3">
    <path d="M 34.982813 239.758125 
L 34.982813 22.318125 
" style="fill:none;"/>
   </g>
   <g id="patch_4">
    <path d="M 369.782813 239.758125 
L 369.782813 22.318125 
" style="fill:none;"/>
   </g>
   <g id="patch_5">
    <path d="M 34.982813 239.758125 
L 369.782813 239.758125 
" style="fill:none;"/>
   </g>
   <g id="patch_6">
    <path d="M 34.982813 22.318125 
L 369.782813 22.318125 
" style="fill:none;"/>
   </g>
   <g id="text_15">
    <!-- CIFAR-10 Client Models, Dirichlet Sampling -->
    <g style="fill:#262626;" transform="translate(74.323125 16.318125)scale(0.12 -0.12)">
     <defs>
      <path d="M 4122 4306 
L 4122 3641 
Q 3803 3938 3442 4084 
Q 3081 4231 2675 4231 
Q 1875 4231 1450 3742 
Q 1025 3253 1025 2328 
Q 1025 1406 1450 917 
Q 1875 428 2675 428 
Q 3081 428 3442 575 
Q 3803 722 4122 1019 
L 4122 359 
Q 3791 134 3420 21 
Q 3050 -91 2638 -91 
Q 1578 -91 968 557 
Q 359 1206 359 2328 
Q 359 3453 968 4101 
Q 1578 4750 2638 4750 
Q 3056 4750 3426 4639 
Q 3797 4528 4122 4306 
z
" id="DejaVuSans-43" transform="scale(0.015625)"/>
      <path d="M 628 4666 
L 1259 4666 
L 1259 0 
L 628 0 
L 628 4666 
z
" id="DejaVuSans-49" transform="scale(0.015625)"/>
      <path d="M 628 4666 
L 3309 4666 
L 3309 4134 
L 1259 4134 
L 1259 2759 
L 3109 2759 
L 3109 2228 
L 1259 2228 
L 1259 0 
L 628 0 
L 628 4666 
z
" id="DejaVuSans-46" transform="scale(0.015625)"/>
      <path d="M 2188 4044 
L 1331 1722 
L 3047 1722 
L 2188 4044 
z
M 1831 4666 
L 2547 4666 
L 4325 0 
L 3669 0 
L 3244 1197 
L 1141 1197 
L 716 0 
L 50 0 
L 1831 4666 
z
" id="DejaVuSans-41" transform="scale(0.015625)"/>
      <path d="M 2841 2188 
Q 3044 2119 3236 1894 
Q 3428 1669 3622 1275 
L 4263 0 
L 3584 0 
L 2988 1197 
Q 2756 1666 2539 1819 
Q 2322 1972 1947 1972 
L 1259 1972 
L 1259 0 
L 628 0 
L 628 4666 
L 2053 4666 
Q 2853 4666 3247 4331 
Q 3641 3997 3641 3322 
Q 3641 2881 3436 2590 
Q 3231 2300 2841 2188 
z
M 1259 4147 
L 1259 2491 
L 2053 2491 
Q 2509 2491 2742 2702 
Q 2975 2913 2975 3322 
Q 2975 3731 2742 3939 
Q 2509 4147 2053 4147 
L 1259 4147 
z
" id="DejaVuSans-52" transform="scale(0.015625)"/>
      <path d="M 313 2009 
L 1997 2009 
L 1997 1497 
L 313 1497 
L 313 2009 
z
" id="DejaVuSans-2d" transform="scale(0.015625)"/>
      <path d="M 794 531 
L 1825 531 
L 1825 4091 
L 703 3866 
L 703 4441 
L 1819 4666 
L 2450 4666 
L 2450 531 
L 3481 531 
L 3481 0 
L 794 0 
L 794 531 
z
" id="DejaVuSans-31" transform="scale(0.015625)"/>
      <path id="DejaVuSans-20" transform="scale(0.015625)"/>
      <path d="M 603 4863 
L 1178 4863 
L 1178 0 
L 603 0 
L 603 4863 
z
" id="DejaVuSans-6c" transform="scale(0.015625)"/>
      <path d="M 603 3500 
L 1178 3500 
L 1178 0 
L 603 0 
L 603 3500 
z
M 603 4863 
L 1178 4863 
L 1178 4134 
L 603 4134 
L 603 4863 
z
" id="DejaVuSans-69" transform="scale(0.015625)"/>
      <path d="M 3597 1894 
L 3597 1613 
L 953 1613 
Q 991 1019 1311 708 
Q 1631 397 2203 397 
Q 2534 397 2845 478 
Q 3156 559 3463 722 
L 3463 178 
Q 3153 47 2828 -22 
Q 2503 -91 2169 -91 
Q 1331 -91 842 396 
Q 353 884 353 1716 
Q 353 2575 817 3079 
Q 1281 3584 2069 3584 
Q 2775 3584 3186 3129 
Q 3597 2675 3597 1894 
z
M 3022 2063 
Q 3016 2534 2758 2815 
Q 2500 3097 2075 3097 
Q 1594 3097 1305 2825 
Q 1016 2553 972 2059 
L 3022 2063 
z
" id="DejaVuSans-65" transform="scale(0.015625)"/>
      <path d="M 3513 2113 
L 3513 0 
L 2938 0 
L 2938 2094 
Q 2938 2591 2744 2837 
Q 2550 3084 2163 3084 
Q 1697 3084 1428 2787 
Q 1159 2491 1159 1978 
L 1159 0 
L 581 0 
L 581 3500 
L 1159 3500 
L 1159 2956 
Q 1366 3272 1645 3428 
Q 1925 3584 2291 3584 
Q 2894 3584 3203 3211 
Q 3513 2838 3513 2113 
z
" id="DejaVuSans-6e" transform="scale(0.015625)"/>
      <path d="M 1172 4494 
L 1172 3500 
L 2356 3500 
L 2356 3053 
L 1172 3053 
L 1172 1153 
Q 1172 725 1289 603 
Q 1406 481 1766 481 
L 2356 481 
L 2356 0 
L 1766 0 
Q 1100 0 847 248 
Q 594 497 594 1153 
L 594 3053 
L 172 3053 
L 172 3500 
L 594 3500 
L 594 4494 
L 1172 4494 
z
" id="DejaVuSans-74" transform="scale(0.015625)"/>
      <path d="M 628 4666 
L 1569 4666 
L 2759 1491 
L 3956 4666 
L 4897 4666 
L 4897 0 
L 4281 0 
L 4281 4097 
L 3078 897 
L 2444 897 
L 1241 4097 
L 1241 0 
L 628 0 
L 628 4666 
z
" id="DejaVuSans-4d" transform="scale(0.015625)"/>
      <path d="M 1959 3097 
Q 1497 3097 1228 2736 
Q 959 2375 959 1747 
Q 959 1119 1226 758 
Q 1494 397 1959 397 
Q 2419 397 2687 759 
Q 2956 1122 2956 1747 
Q 2956 2369 2687 2733 
Q 2419 3097 1959 3097 
z
M 1959 3584 
Q 2709 3584 3137 3096 
Q 3566 2609 3566 1747 
Q 3566 888 3137 398 
Q 2709 -91 1959 -91 
Q 1206 -91 779 398 
Q 353 888 353 1747 
Q 353 2609 779 3096 
Q 1206 3584 1959 3584 
z
" id="DejaVuSans-6f" transform="scale(0.015625)"/>
      <path d="M 2906 2969 
L 2906 4863 
L 3481 4863 
L 3481 0 
L 2906 0 
L 2906 525 
Q 2725 213 2448 61 
Q 2172 -91 1784 -91 
Q 1150 -91 751 415 
Q 353 922 353 1747 
Q 353 2572 751 3078 
Q 1150 3584 1784 3584 
Q 2172 3584 2448 3432 
Q 2725 3281 2906 2969 
z
M 947 1747 
Q 947 1113 1208 752 
Q 1469 391 1925 391 
Q 2381 391 2643 752 
Q 2906 1113 2906 1747 
Q 2906 2381 2643 2742 
Q 2381 3103 1925 3103 
Q 1469 3103 1208 2742 
Q 947 2381 947 1747 
z
" id="DejaVuSans-64" transform="scale(0.015625)"/>
      <path d="M 2834 3397 
L 2834 2853 
Q 2591 2978 2328 3040 
Q 2066 3103 1784 3103 
Q 1356 3103 1142 2972 
Q 928 2841 928 2578 
Q 928 2378 1081 2264 
Q 1234 2150 1697 2047 
L 1894 2003 
Q 2506 1872 2764 1633 
Q 3022 1394 3022 966 
Q 3022 478 2636 193 
Q 2250 -91 1575 -91 
Q 1294 -91 989 -36 
Q 684 19 347 128 
L 347 722 
Q 666 556 975 473 
Q 1284 391 1588 391 
Q 1994 391 2212 530 
Q 2431 669 2431 922 
Q 2431 1156 2273 1281 
Q 2116 1406 1581 1522 
L 1381 1569 
Q 847 1681 609 1914 
Q 372 2147 372 2553 
Q 372 3047 722 3315 
Q 1072 3584 1716 3584 
Q 2034 3584 2315 3537 
Q 2597 3491 2834 3397 
z
" id="DejaVuSans-73" transform="scale(0.015625)"/>
      <path d="M 750 794 
L 1409 794 
L 1409 256 
L 897 -744 
L 494 -744 
L 750 256 
L 750 794 
z
" id="DejaVuSans-2c" transform="scale(0.015625)"/>
      <path d="M 1259 4147 
L 1259 519 
L 2022 519 
Q 2988 519 3436 956 
Q 3884 1394 3884 2338 
Q 3884 3275 3436 3711 
Q 2988 4147 2022 4147 
L 1259 4147 
z
M 628 4666 
L 1925 4666 
Q 3281 4666 3915 4102 
Q 4550 3538 4550 2338 
Q 4550 1131 3912 565 
Q 3275 0 1925 0 
L 628 0 
L 628 4666 
z
" id="DejaVuSans-44" transform="scale(0.015625)"/>
      <path d="M 2631 2963 
Q 2534 3019 2420 3045 
Q 2306 3072 2169 3072 
Q 1681 3072 1420 2755 
Q 1159 2438 1159 1844 
L 1159 0 
L 581 0 
L 581 3500 
L 1159 3500 
L 1159 2956 
Q 1341 3275 1631 3429 
Q 1922 3584 2338 3584 
Q 2397 3584 2469 3576 
Q 2541 3569 2628 3553 
L 2631 2963 
z
" id="DejaVuSans-72" transform="scale(0.015625)"/>
      <path d="M 3122 3366 
L 3122 2828 
Q 2878 2963 2633 3030 
Q 2388 3097 2138 3097 
Q 1578 3097 1268 2742 
Q 959 2388 959 1747 
Q 959 1106 1268 751 
Q 1578 397 2138 397 
Q 2388 397 2633 464 
Q 2878 531 3122 666 
L 3122 134 
Q 2881 22 2623 -34 
Q 2366 -91 2075 -91 
Q 1284 -91 818 406 
Q 353 903 353 1747 
Q 353 2603 823 3093 
Q 1294 3584 2113 3584 
Q 2378 3584 2631 3529 
Q 2884 3475 3122 3366 
z
" id="DejaVuSans-63" transform="scale(0.015625)"/>
      <path d="M 3513 2113 
L 3513 0 
L 2938 0 
L 2938 2094 
Q 2938 2591 2744 2837 
Q 2550 3084 2163 3084 
Q 1697 3084 1428 2787 
Q 1159 2491 1159 1978 
L 1159 0 
L 581 0 
L 581 4863 
L 1159 4863 
L 1159 2956 
Q 1366 3272 1645 3428 
Q 1925 3584 2291 3584 
Q 2894 3584 3203 3211 
Q 3513 2838 3513 2113 
z
" id="DejaVuSans-68" transform="scale(0.015625)"/>
      <path d="M 3425 4513 
L 3425 3897 
Q 3066 4069 2747 4153 
Q 2428 4238 2131 4238 
Q 1616 4238 1336 4038 
Q 1056 3838 1056 3469 
Q 1056 3159 1242 3001 
Q 1428 2844 1947 2747 
L 2328 2669 
Q 3034 2534 3370 2195 
Q 3706 1856 3706 1288 
Q 3706 609 3251 259 
Q 2797 -91 1919 -91 
Q 1588 -91 1214 -16 
Q 841 59 441 206 
L 441 856 
Q 825 641 1194 531 
Q 1563 422 1919 422 
Q 2459 422 2753 634 
Q 3047 847 3047 1241 
Q 3047 1584 2836 1778 
Q 2625 1972 2144 2069 
L 1759 2144 
Q 1053 2284 737 2584 
Q 422 2884 422 3419 
Q 422 4038 858 4394 
Q 1294 4750 2059 4750 
Q 2388 4750 2728 4690 
Q 3069 4631 3425 4513 
z
" id="DejaVuSans-53" transform="scale(0.015625)"/>
      <path d="M 2194 1759 
Q 1497 1759 1228 1600 
Q 959 1441 959 1056 
Q 959 750 1161 570 
Q 1363 391 1709 391 
Q 2188 391 2477 730 
Q 2766 1069 2766 1631 
L 2766 1759 
L 2194 1759 
z
M 3341 1997 
L 3341 0 
L 2766 0 
L 2766 531 
Q 2569 213 2275 61 
Q 1981 -91 1556 -91 
Q 1019 -91 701 211 
Q 384 513 384 1019 
Q 384 1609 779 1909 
Q 1175 2209 1959 2209 
L 2766 2209 
L 2766 2266 
Q 2766 2663 2505 2880 
Q 2244 3097 1772 3097 
Q 1472 3097 1187 3025 
Q 903 2953 641 2809 
L 641 3341 
Q 956 3463 1253 3523 
Q 1550 3584 1831 3584 
Q 2591 3584 2966 3190 
Q 3341 2797 3341 1997 
z
" id="DejaVuSans-61" transform="scale(0.015625)"/>
      <path d="M 3328 2828 
Q 3544 3216 3844 3400 
Q 4144 3584 4550 3584 
Q 5097 3584 5394 3201 
Q 5691 2819 5691 2113 
L 5691 0 
L 5113 0 
L 5113 2094 
Q 5113 2597 4934 2840 
Q 4756 3084 4391 3084 
Q 3944 3084 3684 2787 
Q 3425 2491 3425 1978 
L 3425 0 
L 2847 0 
L 2847 2094 
Q 2847 2600 2669 2842 
Q 2491 3084 2119 3084 
Q 1678 3084 1418 2786 
Q 1159 2488 1159 1978 
L 1159 0 
L 581 0 
L 581 3500 
L 1159 3500 
L 1159 2956 
Q 1356 3278 1631 3431 
Q 1906 3584 2284 3584 
Q 2666 3584 2933 3390 
Q 3200 3197 3328 2828 
z
" id="DejaVuSans-6d" transform="scale(0.015625)"/>
      <path d="M 1159 525 
L 1159 -1331 
L 581 -1331 
L 581 3500 
L 1159 3500 
L 1159 2969 
Q 1341 3281 1617 3432 
Q 1894 3584 2278 3584 
Q 2916 3584 3314 3078 
Q 3713 2572 3713 1747 
Q 3713 922 3314 415 
Q 2916 -91 2278 -91 
Q 1894 -91 1617 61 
Q 1341 213 1159 525 
z
M 3116 1747 
Q 3116 2381 2855 2742 
Q 2594 3103 2138 3103 
Q 1681 3103 1420 2742 
Q 1159 2381 1159 1747 
Q 1159 1113 1420 752 
Q 1681 391 2138 391 
Q 2594 391 2855 752 
Q 3116 1113 3116 1747 
z
" id="DejaVuSans-70" transform="scale(0.015625)"/>
      <path d="M 2906 1791 
Q 2906 2416 2648 2759 
Q 2391 3103 1925 3103 
Q 1463 3103 1205 2759 
Q 947 2416 947 1791 
Q 947 1169 1205 825 
Q 1463 481 1925 481 
Q 2391 481 2648 825 
Q 2906 1169 2906 1791 
z
M 3481 434 
Q 3481 -459 3084 -895 
Q 2688 -1331 1869 -1331 
Q 1566 -1331 1297 -1286 
Q 1028 -1241 775 -1147 
L 775 -588 
Q 1028 -725 1275 -790 
Q 1522 -856 1778 -856 
Q 2344 -856 2625 -561 
Q 2906 -266 2906 331 
L 2906 616 
Q 2728 306 2450 153 
Q 2172 0 1784 0 
Q 1141 0 747 490 
Q 353 981 353 1791 
Q 353 2603 747 3093 
Q 1141 3584 1784 3584 
Q 2172 3584 2450 3431 
Q 2728 3278 2906 2969 
L 2906 3500 
L 3481 3500 
L 3481 434 
z
" id="DejaVuSans-67" transform="scale(0.015625)"/>
     </defs>
     <use xlink:href="#DejaVuSans-43"/>
     <use x="69.824219" xlink:href="#DejaVuSans-49"/>
     <use x="99.316406" xlink:href="#DejaVuSans-46"/>
     <use x="147.710938" xlink:href="#DejaVuSans-41"/>
     <use x="216.119141" xlink:href="#DejaVuSans-52"/>
     <use x="281.601562" xlink:href="#DejaVuSans-2d"/>
     <use x="317.685547" xlink:href="#DejaVuSans-31"/>
     <use x="381.308594" xlink:href="#DejaVuSans-30"/>
     <use x="444.931641" xlink:href="#DejaVuSans-20"/>
     <use x="476.71875" xlink:href="#DejaVuSans-43"/>
     <use x="546.542969" xlink:href="#DejaVuSans-6c"/>
     <use x="574.326172" xlink:href="#DejaVuSans-69"/>
     <use x="602.109375" xlink:href="#DejaVuSans-65"/>
     <use x="663.632812" xlink:href="#DejaVuSans-6e"/>
     <use x="727.011719" xlink:href="#DejaVuSans-74"/>
     <use x="766.220703" xlink:href="#DejaVuSans-20"/>
     <use x="798.007812" xlink:href="#DejaVuSans-4d"/>
     <use x="884.287109" xlink:href="#DejaVuSans-6f"/>
     <use x="945.46875" xlink:href="#DejaVuSans-64"/>
     <use x="1008.945312" xlink:href="#DejaVuSans-65"/>
     <use x="1070.46875" xlink:href="#DejaVuSans-6c"/>
     <use x="1098.251953" xlink:href="#DejaVuSans-73"/>
     <use x="1150.351562" xlink:href="#DejaVuSans-2c"/>
     <use x="1182.138672" xlink:href="#DejaVuSans-20"/>
     <use x="1213.925781" xlink:href="#DejaVuSans-44"/>
     <use x="1290.927734" xlink:href="#DejaVuSans-69"/>
     <use x="1318.710938" xlink:href="#DejaVuSans-72"/>
     <use x="1359.824219" xlink:href="#DejaVuSans-69"/>
     <use x="1387.607422" xlink:href="#DejaVuSans-63"/>
     <use x="1442.587891" xlink:href="#DejaVuSans-68"/>
     <use x="1505.966797" xlink:href="#DejaVuSans-6c"/>
     <use x="1533.75" xlink:href="#DejaVuSans-65"/>
     <use x="1595.273438" xlink:href="#DejaVuSans-74"/>
     <use x="1634.482422" xlink:href="#DejaVuSans-20"/>
     <use x="1666.269531" xlink:href="#DejaVuSans-53"/>
     <use x="1729.746094" xlink:href="#DejaVuSans-61"/>
     <use x="1791.025391" xlink:href="#DejaVuSans-6d"/>
     <use x="1888.4375" xlink:href="#DejaVuSans-70"/>
     <use x="1951.914062" xlink:href="#DejaVuSans-6c"/>
     <use x="1979.697266" xlink:href="#DejaVuSans-69"/>
     <use x="2007.480469" xlink:href="#DejaVuSans-6e"/>
     <use x="2070.859375" xlink:href="#DejaVuSans-67"/>
    </g>
   </g>
   <g id="legend_1">
    <g id="text_16">
     <!-- Dominant Label -->
     <g style="fill:#262626;" transform="translate(395.522813 38.916562)scale(0.1 -0.1)">
      <defs>
       <path d="M 628 4666 
L 1259 4666 
L 1259 531 
L 3531 531 
L 3531 0 
L 628 0 
L 628 4666 
z
" id="DejaVuSans-4c" transform="scale(0.015625)"/>
       <path d="M 3116 1747 
Q 3116 2381 2855 2742 
Q 2594 3103 2138 3103 
Q 1681 3103 1420 2742 
Q 1159 2381 1159 1747 
Q 1159 1113 1420 752 
Q 1681 391 2138 391 
Q 2594 391 2855 752 
Q 3116 1113 3116 1747 
z
M 1159 2969 
Q 1341 3281 1617 3432 
Q 1894 3584 2278 3584 
Q 2916 3584 3314 3078 
Q 3713 2572 3713 1747 
Q 3713 922 3314 415 
Q 2916 -91 2278 -91 
Q 1894 -91 1617 61 
Q 1341 213 1159 525 
L 1159 0 
L 581 0 
L 581 4863 
L 1159 4863 
L 1159 2969 
z
" id="DejaVuSans-62" transform="scale(0.015625)"/>
      </defs>
      <use xlink:href="#DejaVuSans-44"/>
      <use x="77.001953" xlink:href="#DejaVuSans-6f"/>
      <use x="138.183594" xlink:href="#DejaVuSans-6d"/>
      <use x="235.595703" xlink:href="#DejaVuSans-69"/>
      <use x="263.378906" xlink:href="#DejaVuSans-6e"/>
      <use x="326.757812" xlink:href="#DejaVuSans-61"/>
      <use x="388.037109" xlink:href="#DejaVuSans-6e"/>
      <use x="451.416016" xlink:href="#DejaVuSans-74"/>
      <use x="490.625" xlink:href="#DejaVuSans-20"/>
      <use x="522.412109" xlink:href="#DejaVuSans-4c"/>
      <use x="578.125" xlink:href="#DejaVuSans-61"/>
      <use x="639.404297" xlink:href="#DejaVuSans-62"/>
      <use x="702.880859" xlink:href="#DejaVuSans-65"/>
      <use x="764.404297" xlink:href="#DejaVuSans-6c"/>
     </g>
    </g>
    <g id="line2d_29"/>
    <g id="line2d_30">
     <defs>
      <path d="M -0 5 
L 5 -5 
L -5 -5 
z
" id="mad1c4fb403" style="stroke:#1f77b4;stroke-linejoin:miter;"/>
     </defs>
     <g>
      <use style="fill:#1f77b4;stroke:#1f77b4;stroke-linejoin:miter;" x="405.522813" xlink:href="#mad1c4fb403" y="50.094687"/>
     </g>
    </g>
    <g id="text_17">
     <!-- plane -->
     <g style="fill:#262626;" transform="translate(423.522813 53.594687)scale(0.1 -0.1)">
      <use xlink:href="#DejaVuSans-70"/>
      <use x="63.476562" xlink:href="#DejaVuSans-6c"/>
      <use x="91.259766" xlink:href="#DejaVuSans-61"/>
      <use x="152.539062" xlink:href="#DejaVuSans-6e"/>
      <use x="215.917969" xlink:href="#DejaVuSans-65"/>
     </g>
    </g>
    <g id="line2d_31"/>
    <g id="line2d_32">
     <defs>
      <path d="M 0 -5 
L -5 5 
L 5 5 
z
" id="m9571c0a782" style="stroke:#ff7f0e;stroke-linejoin:miter;"/>
     </defs>
     <g>
      <use style="fill:#ff7f0e;stroke:#ff7f0e;stroke-linejoin:miter;" x="405.522813" xlink:href="#m9571c0a782" y="64.772813"/>
     </g>
    </g>
    <g id="text_18">
     <!-- car -->
     <g style="fill:#262626;" transform="translate(423.522813 68.272813)scale(0.1 -0.1)">
      <use xlink:href="#DejaVuSans-63"/>
      <use x="54.980469" xlink:href="#DejaVuSans-61"/>
      <use x="116.259766" xlink:href="#DejaVuSans-72"/>
     </g>
    </g>
    <g id="line2d_33"/>
    <g id="line2d_34">
     <defs>
      <path d="M -5 -0 
L 5 5 
L 5 -5 
z
" id="me4406adb07" style="stroke:#2ca02c;stroke-linejoin:miter;"/>
     </defs>
     <g>
      <use style="fill:#2ca02c;stroke:#2ca02c;stroke-linejoin:miter;" x="405.522813" xlink:href="#me4406adb07" y="79.450938"/>
     </g>
    </g>
    <g id="text_19">
     <!-- bird -->
     <g style="fill:#262626;" transform="translate(423.522813 82.950938)scale(0.1 -0.1)">
      <use xlink:href="#DejaVuSans-62"/>
      <use x="63.476562" xlink:href="#DejaVuSans-69"/>
      <use x="91.259766" xlink:href="#DejaVuSans-72"/>
      <use x="130.623047" xlink:href="#DejaVuSans-64"/>
     </g>
    </g>
    <g id="line2d_35"/>
    <g id="line2d_36">
     <defs>
      <path d="M 5 0 
L -5 -5 
L -5 5 
z
" id="m06e0ed440e" style="stroke:#d62728;stroke-linejoin:miter;"/>
     </defs>
     <g>
      <use style="fill:#d62728;stroke:#d62728;stroke-linejoin:miter;" x="405.522813" xlink:href="#m06e0ed440e" y="94.129063"/>
     </g>
    </g>
    <g id="text_20">
     <!-- cat -->
     <g style="fill:#262626;" transform="translate(423.522813 97.629063)scale(0.1 -0.1)">
      <use xlink:href="#DejaVuSans-63"/>
      <use x="54.980469" xlink:href="#DejaVuSans-61"/>
      <use x="116.259766" xlink:href="#DejaVuSans-74"/>
     </g>
    </g>
    <g id="line2d_37"/>
    <g id="line2d_38">
     <defs>
      <path d="M -5 5 
L 5 5 
L 5 -5 
L -5 -5 
z
" id="m23aed93454" style="stroke:#9467bd;stroke-linejoin:miter;"/>
     </defs>
     <g>
      <use style="fill:#9467bd;stroke:#9467bd;stroke-linejoin:miter;" x="405.522813" xlink:href="#m23aed93454" y="108.807187"/>
     </g>
    </g>
    <g id="text_21">
     <!-- deer -->
     <g style="fill:#262626;" transform="translate(423.522813 112.307187)scale(0.1 -0.1)">
      <use xlink:href="#DejaVuSans-64"/>
      <use x="63.476562" xlink:href="#DejaVuSans-65"/>
      <use x="125" xlink:href="#DejaVuSans-65"/>
      <use x="186.523438" xlink:href="#DejaVuSans-72"/>
     </g>
    </g>
    <g id="line2d_39"/>
    <g id="line2d_40">
     <defs>
      <path d="M 0 -5 
L -4.755283 -1.545085 
L -2.938926 4.045085 
L 2.938926 4.045085 
L 4.755283 -1.545085 
z
" id="m37137e8c4e" style="stroke:#8c564b;stroke-linejoin:miter;"/>
     </defs>
     <g>
      <use style="fill:#8c564b;stroke:#8c564b;stroke-linejoin:miter;" x="405.522813" xlink:href="#m37137e8c4e" y="123.485313"/>
     </g>
    </g>
    <g id="text_22">
     <!-- dog -->
     <g style="fill:#262626;" transform="translate(423.522813 126.985313)scale(0.1 -0.1)">
      <use xlink:href="#DejaVuSans-64"/>
      <use x="63.476562" xlink:href="#DejaVuSans-6f"/>
      <use x="124.658203" xlink:href="#DejaVuSans-67"/>
     </g>
    </g>
    <g id="line2d_41"/>
    <g id="line2d_42">
     <defs>
      <path d="M -1.666667 5 
L 1.666667 5 
L 1.666667 1.666667 
L 5 1.666667 
L 5 -1.666667 
L 1.666667 -1.666667 
L 1.666667 -5 
L -1.666667 -5 
L -1.666667 -1.666667 
L -5 -1.666667 
L -5 1.666667 
L -1.666667 1.666667 
z
" id="m8a28046cea" style="stroke:#e377c2;stroke-linejoin:miter;"/>
     </defs>
     <g>
      <use style="fill:#e377c2;stroke:#e377c2;stroke-linejoin:miter;" x="405.522813" xlink:href="#m8a28046cea" y="138.163437"/>
     </g>
    </g>
    <g id="text_23">
     <!-- frog -->
     <g style="fill:#262626;" transform="translate(423.522813 141.663437)scale(0.1 -0.1)">
      <defs>
       <path d="M 2375 4863 
L 2375 4384 
L 1825 4384 
Q 1516 4384 1395 4259 
Q 1275 4134 1275 3809 
L 1275 3500 
L 2222 3500 
L 2222 3053 
L 1275 3053 
L 1275 0 
L 697 0 
L 697 3053 
L 147 3053 
L 147 3500 
L 697 3500 
L 697 3744 
Q 697 4328 969 4595 
Q 1241 4863 1831 4863 
L 2375 4863 
z
" id="DejaVuSans-66" transform="scale(0.015625)"/>
      </defs>
      <use xlink:href="#DejaVuSans-66"/>
      <use x="35.205078" xlink:href="#DejaVuSans-72"/>
      <use x="74.068359" xlink:href="#DejaVuSans-6f"/>
      <use x="135.25" xlink:href="#DejaVuSans-67"/>
     </g>
    </g>
    <g id="line2d_43"/>
    <g id="line2d_44">
     <defs>
      <path d="M 0 -5 
L -1.12257 -1.545085 
L -4.755283 -1.545085 
L -1.816356 0.59017 
L -2.938926 4.045085 
L -0 1.90983 
L 2.938926 4.045085 
L 1.816356 0.59017 
L 4.755283 -1.545085 
L 1.12257 -1.545085 
z
" id="m067e9bdc69" style="stroke:#7f7f7f;stroke-linejoin:bevel;"/>
     </defs>
     <g>
      <use style="fill:#7f7f7f;stroke:#7f7f7f;stroke-linejoin:bevel;" x="405.522813" xlink:href="#m067e9bdc69" y="152.841563"/>
     </g>
    </g>
    <g id="text_24">
     <!-- horse -->
     <g style="fill:#262626;" transform="translate(423.522813 156.341563)scale(0.1 -0.1)">
      <use xlink:href="#DejaVuSans-68"/>
      <use x="63.378906" xlink:href="#DejaVuSans-6f"/>
      <use x="124.560547" xlink:href="#DejaVuSans-72"/>
      <use x="165.673828" xlink:href="#DejaVuSans-73"/>
      <use x="217.773438" xlink:href="#DejaVuSans-65"/>
     </g>
    </g>
    <g id="line2d_45"/>
    <g id="line2d_46">
     <defs>
      <path d="M -2.5 5 
L 0 2.5 
L 2.5 5 
L 5 2.5 
L 2.5 0 
L 5 -2.5 
L 2.5 -5 
L 0 -2.5 
L -2.5 -5 
L -5 -2.5 
L -2.5 0 
L -5 2.5 
z
" id="m7c132a84ae" style="stroke:#bcbd22;stroke-linejoin:miter;"/>
     </defs>
     <g>
      <use style="fill:#bcbd22;stroke:#bcbd22;stroke-linejoin:miter;" x="405.522813" xlink:href="#m7c132a84ae" y="167.519687"/>
     </g>
    </g>
    <g id="text_25">
     <!-- ship -->
     <g style="fill:#262626;" transform="translate(423.522813 171.019687)scale(0.1 -0.1)">
      <use xlink:href="#DejaVuSans-73"/>
      <use x="52.099609" xlink:href="#DejaVuSans-68"/>
      <use x="115.478516" xlink:href="#DejaVuSans-69"/>
      <use x="143.261719" xlink:href="#DejaVuSans-70"/>
     </g>
    </g>
    <g id="line2d_47"/>
    <g id="line2d_48">
     <defs>
      <path d="M -0 7.071068 
L 7.071068 0 
L 0 -7.071068 
L -7.071068 -0 
z
" id="m2a330c5331" style="stroke:#17becf;stroke-linejoin:miter;"/>
     </defs>
     <g>
      <use style="fill:#17becf;stroke:#17becf;stroke-linejoin:miter;" x="405.522813" xlink:href="#m2a330c5331" y="182.197812"/>
     </g>
    </g>
    <g id="text_26">
     <!-- truck -->
     <g style="fill:#262626;" transform="translate(423.522813 185.697812)scale(0.1 -0.1)">
      <defs>
       <path d="M 544 1381 
L 544 3500 
L 1119 3500 
L 1119 1403 
Q 1119 906 1312 657 
Q 1506 409 1894 409 
Q 2359 409 2629 706 
Q 2900 1003 2900 1516 
L 2900 3500 
L 3475 3500 
L 3475 0 
L 2900 0 
L 2900 538 
Q 2691 219 2414 64 
Q 2138 -91 1772 -91 
Q 1169 -91 856 284 
Q 544 659 544 1381 
z
M 1991 3584 
L 1991 3584 
z
" id="DejaVuSans-75" transform="scale(0.015625)"/>
       <path d="M 581 4863 
L 1159 4863 
L 1159 1991 
L 2875 3500 
L 3609 3500 
L 1753 1863 
L 3688 0 
L 2938 0 
L 1159 1709 
L 1159 0 
L 581 0 
L 581 4863 
z
" id="DejaVuSans-6b" transform="scale(0.015625)"/>
      </defs>
      <use xlink:href="#DejaVuSans-74"/>
      <use x="39.208984" xlink:href="#DejaVuSans-72"/>
      <use x="80.322266" xlink:href="#DejaVuSans-75"/>
      <use x="143.701172" xlink:href="#DejaVuSans-63"/>
      <use x="198.681641" xlink:href="#DejaVuSans-6b"/>
     </g>
    </g>
   </g>
  </g>
 </g>
 <defs>
  <clipPath id="p7e18e84e08">
   <rect height="217.44" width="334.8" x="34.982813" y="22.318125"/>
  </clipPath>
 </defs>
</svg>
